G04 #@! TF.GenerationSoftware,KiCad,Pcbnew,7.0.5-7.0.5~ubuntu20.04.1*
G04 #@! TF.CreationDate,2023-06-07T06:16:18-05:00*
G04 #@! TF.ProjectId,Phobri64,50686f62-7269-4363-942e-6b696361645f,rev?*
G04 #@! TF.SameCoordinates,Original*
G04 #@! TF.FileFunction,Soldermask,Top*
G04 #@! TF.FilePolarity,Negative*
%FSLAX46Y46*%
G04 Gerber Fmt 4.6, Leading zero omitted, Abs format (unit mm)*
G04 Created by KiCad (PCBNEW 7.0.5-7.0.5~ubuntu20.04.1) date 2023-06-07 06:16:18*
%MOMM*%
%LPD*%
G01*
G04 APERTURE LIST*
G04 Aperture macros list*
%AMRoundRect*
0 Rectangle with rounded corners*
0 $1 Rounding radius*
0 $2 $3 $4 $5 $6 $7 $8 $9 X,Y pos of 4 corners*
0 Add a 4 corners polygon primitive as box body*
4,1,4,$2,$3,$4,$5,$6,$7,$8,$9,$2,$3,0*
0 Add four circle primitives for the rounded corners*
1,1,$1+$1,$2,$3*
1,1,$1+$1,$4,$5*
1,1,$1+$1,$6,$7*
1,1,$1+$1,$8,$9*
0 Add four rect primitives between the rounded corners*
20,1,$1+$1,$2,$3,$4,$5,0*
20,1,$1+$1,$4,$5,$6,$7,0*
20,1,$1+$1,$6,$7,$8,$9,0*
20,1,$1+$1,$8,$9,$2,$3,0*%
%AMFreePoly0*
4,1,19,0.150000,0.259808,0.229813,0.192836,0.281908,0.102606,0.300000,0.000000,0.281908,-0.102606,0.229813,-0.192836,0.150000,-0.259808,0.052094,-0.295442,-0.052094,-0.295442,-0.150000,-0.259808,-0.229813,-0.192836,-0.281908,-0.102606,-0.300000,0.000000,-0.281908,0.102606,-0.229813,0.192836,-0.150000,0.259808,-0.052094,0.295442,0.052094,0.295442,0.150000,0.259808,0.150000,0.259808,
$1*%
G04 Aperture macros list end*
%ADD10R,1.250000X0.300000*%
%ADD11R,3.000000X2.000000*%
%ADD12RoundRect,0.140000X-0.140000X-0.170000X0.140000X-0.170000X0.140000X0.170000X-0.140000X0.170000X0*%
%ADD13C,4.000000*%
%ADD14RoundRect,0.140000X0.140000X0.170000X-0.140000X0.170000X-0.140000X-0.170000X0.140000X-0.170000X0*%
%ADD15C,2.833000*%
%ADD16C,2.200000*%
%ADD17C,0.787400*%
%ADD18RoundRect,0.135000X-0.185000X0.135000X-0.185000X-0.135000X0.185000X-0.135000X0.185000X0.135000X0*%
%ADD19RoundRect,0.237500X0.237500X-0.250000X0.237500X0.250000X-0.237500X0.250000X-0.237500X-0.250000X0*%
%ADD20RoundRect,0.135000X0.135000X0.185000X-0.135000X0.185000X-0.135000X-0.185000X0.135000X-0.185000X0*%
%ADD21RoundRect,0.135000X-0.135000X-0.185000X0.135000X-0.185000X0.135000X0.185000X-0.135000X0.185000X0*%
%ADD22RoundRect,0.140000X-0.170000X0.140000X-0.170000X-0.140000X0.170000X-0.140000X0.170000X0.140000X0*%
%ADD23C,1.000000*%
%ADD24R,1.000000X2.000000*%
%ADD25RoundRect,0.250001X-0.499999X-0.924999X0.499999X-0.924999X0.499999X0.924999X-0.499999X0.924999X0*%
%ADD26O,2.500000X1.250000*%
%ADD27R,1.400000X1.200000*%
%ADD28RoundRect,0.140000X0.170000X-0.140000X0.170000X0.140000X-0.170000X0.140000X-0.170000X-0.140000X0*%
%ADD29RoundRect,0.250000X0.250000X0.475000X-0.250000X0.475000X-0.250000X-0.475000X0.250000X-0.475000X0*%
%ADD30C,2.000000*%
%ADD31C,1.700000*%
%ADD32RoundRect,0.237500X0.237500X-0.300000X0.237500X0.300000X-0.237500X0.300000X-0.237500X-0.300000X0*%
%ADD33R,0.960399X0.432600*%
%ADD34R,3.454400X4.343400*%
%ADD35RoundRect,0.150000X0.587500X0.150000X-0.587500X0.150000X-0.587500X-0.150000X0.587500X-0.150000X0*%
%ADD36RoundRect,0.237500X-0.237500X0.300000X-0.237500X-0.300000X0.237500X-0.300000X0.237500X0.300000X0*%
%ADD37RoundRect,0.150000X-0.150000X0.825000X-0.150000X-0.825000X0.150000X-0.825000X0.150000X0.825000X0*%
%ADD38RoundRect,0.112500X-0.112500X0.187500X-0.112500X-0.187500X0.112500X-0.187500X0.112500X0.187500X0*%
%ADD39C,1.397000*%
%ADD40R,0.375000X0.500000*%
%ADD41R,0.300000X0.650000*%
%ADD42RoundRect,0.112500X0.112500X-0.187500X0.112500X0.187500X-0.112500X0.187500X-0.112500X-0.187500X0*%
%ADD43RoundRect,0.050000X-0.050000X0.387500X-0.050000X-0.387500X0.050000X-0.387500X0.050000X0.387500X0*%
%ADD44RoundRect,0.050000X-0.387500X0.050000X-0.387500X-0.050000X0.387500X-0.050000X0.387500X0.050000X0*%
%ADD45FreePoly0,270.000000*%
%ADD46R,3.200000X3.200000*%
%ADD47RoundRect,0.250000X-0.250000X-0.475000X0.250000X-0.475000X0.250000X0.475000X-0.250000X0.475000X0*%
%ADD48RoundRect,0.237500X0.250000X0.237500X-0.250000X0.237500X-0.250000X-0.237500X0.250000X-0.237500X0*%
%ADD49C,1.500000*%
%ADD50RoundRect,0.150000X-0.150000X0.587500X-0.150000X-0.587500X0.150000X-0.587500X0.150000X0.587500X0*%
%ADD51R,1.000000X0.750000*%
%ADD52R,1.500000X2.000000*%
%ADD53R,3.800000X2.000000*%
%ADD54RoundRect,0.237500X-0.250000X-0.237500X0.250000X-0.237500X0.250000X0.237500X-0.250000X0.237500X0*%
G04 APERTURE END LIST*
D10*
X250663660Y-120500000D03*
X250663660Y-119500000D03*
X250663660Y-118500000D03*
X250663660Y-117500000D03*
X250663660Y-116500000D03*
X250663660Y-115500000D03*
D11*
X252112660Y-113206000D03*
X252112660Y-122794000D03*
D10*
X187803123Y-106100298D03*
X187803123Y-105100298D03*
X187803123Y-104100298D03*
X187803123Y-103100298D03*
X187803123Y-102100298D03*
X187803123Y-101100298D03*
D11*
X189252123Y-98806298D03*
X189252123Y-108394298D03*
D12*
X188585274Y-87695038D03*
X189545274Y-87695038D03*
D13*
X215880944Y-72600298D03*
D14*
X188480000Y-67500000D03*
X187520000Y-67500000D03*
D15*
X237335204Y-111950150D03*
D16*
X242005369Y-129643080D03*
D17*
X211000000Y-117730000D03*
X208969150Y-117730000D03*
X211000000Y-119000000D03*
X208969150Y-119000000D03*
X211000000Y-120270000D03*
X208969150Y-120270000D03*
D15*
X227637899Y-111894864D03*
D18*
X175303123Y-82990000D03*
X175303123Y-84010000D03*
D13*
X175200000Y-72500000D03*
D16*
X165113002Y-91000000D03*
D19*
X246045016Y-110818616D03*
X246045016Y-108993616D03*
D20*
X189558791Y-85070061D03*
X188538791Y-85070061D03*
D21*
X188530623Y-83741093D03*
X189550623Y-83741093D03*
D20*
X168510000Y-76000000D03*
X167490000Y-76000000D03*
D22*
X188500000Y-89500000D03*
X188500000Y-90460000D03*
X185500000Y-87520000D03*
X185500000Y-88480000D03*
D23*
X197040472Y-71941093D03*
X196240472Y-73841093D03*
X195440472Y-71941093D03*
X194640472Y-73841093D03*
X193840472Y-71941093D03*
D24*
X191790472Y-72891093D03*
X199090472Y-72891093D03*
D17*
X211030850Y-110730000D03*
X209000000Y-110730000D03*
X211030850Y-112000000D03*
X209000000Y-112000000D03*
X211030850Y-113270000D03*
X209000000Y-113270000D03*
D25*
X153553123Y-98941093D03*
X156803123Y-98941093D03*
D26*
X161250000Y-114750000D03*
X161250000Y-116350000D03*
X161250000Y-117950000D03*
D27*
X171203123Y-83291093D03*
X173403123Y-83291093D03*
X173403123Y-81591093D03*
X171203123Y-81591093D03*
D28*
X182033507Y-78009450D03*
X182033507Y-77049450D03*
D29*
X208253123Y-77941093D03*
X206353123Y-77941093D03*
D30*
X206742467Y-72930045D03*
D31*
X215500000Y-111900638D03*
D32*
X227575882Y-100631116D03*
X227575882Y-98906116D03*
D28*
X184450900Y-78020678D03*
X184450900Y-77060678D03*
D12*
X188578158Y-86365727D03*
X189538158Y-86365727D03*
D33*
X182632200Y-70395000D03*
X182632200Y-71665000D03*
X182632200Y-72935000D03*
X182632200Y-74205000D03*
X188367800Y-74205000D03*
X188367800Y-72935000D03*
X188367800Y-71665000D03*
X188367800Y-70395000D03*
D34*
X185500000Y-72300000D03*
D22*
X190000000Y-90520000D03*
X190000000Y-91480000D03*
D35*
X243191160Y-112808700D03*
X243191160Y-110908700D03*
X241316160Y-111858700D03*
D22*
X191500000Y-90520000D03*
X191500000Y-91480000D03*
D36*
X243223947Y-107043616D03*
X243223947Y-108768616D03*
D37*
X223128947Y-110431116D03*
X221858947Y-110431116D03*
X220588947Y-110431116D03*
X219318947Y-110431116D03*
X219318947Y-115381116D03*
X220588947Y-115381116D03*
X221858947Y-115381116D03*
X223128947Y-115381116D03*
D38*
X150803123Y-99391093D03*
X150803123Y-101491093D03*
D12*
X189520000Y-82303593D03*
X190480000Y-82303593D03*
D39*
X156500000Y-105642772D03*
X154000000Y-105642772D03*
X151500000Y-105642772D03*
D28*
X189500000Y-80480000D03*
X189500000Y-79520000D03*
D40*
X194840623Y-77441093D03*
D41*
X194303123Y-77366093D03*
D40*
X193765623Y-77441093D03*
X193765623Y-79141093D03*
D41*
X194303123Y-79216093D03*
D40*
X194840623Y-79141093D03*
D28*
X175303123Y-81921093D03*
X175303123Y-80961093D03*
D22*
X187000000Y-87500000D03*
X187000000Y-88460000D03*
D42*
X201303123Y-88991093D03*
X201303123Y-86891093D03*
D43*
X184703123Y-79303593D03*
X184303123Y-79303593D03*
X183903123Y-79303593D03*
X183503123Y-79303593D03*
X183103123Y-79303593D03*
X182703123Y-79303593D03*
X182303123Y-79303593D03*
X181903123Y-79303593D03*
X181503123Y-79303593D03*
X181103123Y-79303593D03*
X180703123Y-79303593D03*
X180303123Y-79303593D03*
X179903123Y-79303593D03*
X179503123Y-79303593D03*
D44*
X178665623Y-80141093D03*
X178665623Y-80541093D03*
X178665623Y-80941093D03*
X178665623Y-81341093D03*
X178665623Y-81741093D03*
X178665623Y-82141093D03*
X178665623Y-82541093D03*
X178665623Y-82941093D03*
X178665623Y-83341093D03*
X178665623Y-83741093D03*
X178665623Y-84141093D03*
X178665623Y-84541093D03*
X178665623Y-84941093D03*
X178665623Y-85341093D03*
D43*
X179503123Y-86178593D03*
X179903123Y-86178593D03*
X180303123Y-86178593D03*
X180703123Y-86178593D03*
X181103123Y-86178593D03*
X181503123Y-86178593D03*
X181903123Y-86178593D03*
X182303123Y-86178593D03*
X182703123Y-86178593D03*
X183103123Y-86178593D03*
X183503123Y-86178593D03*
X183903123Y-86178593D03*
X184303123Y-86178593D03*
X184703123Y-86178593D03*
D44*
X185540623Y-85341093D03*
X185540623Y-84941093D03*
X185540623Y-84541093D03*
X185540623Y-84141093D03*
X185540623Y-83741093D03*
X185540623Y-83341093D03*
X185540623Y-82941093D03*
X185540623Y-82541093D03*
X185540623Y-82141093D03*
X185540623Y-81741093D03*
X185540623Y-81341093D03*
X185540623Y-80941093D03*
X185540623Y-80541093D03*
X185540623Y-80141093D03*
D45*
X183403123Y-81441093D03*
X182103123Y-81441093D03*
X180803123Y-81441093D03*
X183403123Y-82741093D03*
X182103123Y-82741093D03*
D46*
X182103123Y-82741093D03*
D45*
X180803123Y-82741093D03*
X183403123Y-84041093D03*
X182103123Y-84041093D03*
X180803123Y-84041093D03*
D26*
X207803123Y-80500298D03*
X207803123Y-82100298D03*
X207803123Y-83700298D03*
D16*
X176952177Y-100296410D03*
D47*
X203403123Y-87441093D03*
X205303123Y-87441093D03*
D22*
X193000000Y-91500000D03*
X193000000Y-92460000D03*
D48*
X231609531Y-98586081D03*
X229784531Y-98586081D03*
D16*
X224744817Y-105208672D03*
X224744817Y-118508672D03*
D49*
X229244817Y-120108672D03*
X229244817Y-124608672D03*
X235744817Y-120108672D03*
X235744817Y-124608672D03*
D16*
X240244817Y-105208672D03*
X240244817Y-118508672D03*
D50*
X233526660Y-101162500D03*
X231626660Y-101162500D03*
X232576660Y-103037500D03*
D31*
X249050255Y-111861034D03*
D51*
X167500000Y-83250000D03*
X161500000Y-83250000D03*
X167500000Y-79500000D03*
X161500000Y-79500000D03*
D12*
X171823123Y-84941093D03*
X172783123Y-84941093D03*
D52*
X203603123Y-78291093D03*
X201303123Y-78291093D03*
D53*
X201303123Y-84591093D03*
D52*
X199003123Y-78291093D03*
D54*
X191890623Y-66941093D03*
X193715623Y-66941093D03*
D22*
X178500000Y-88000000D03*
X178500000Y-88960000D03*
M02*
