G04 #@! TF.GenerationSoftware,KiCad,Pcbnew,7.0.5-7.0.5~ubuntu20.04.1*
G04 #@! TF.CreationDate,2023-06-07T06:16:17-05:00*
G04 #@! TF.ProjectId,Phobri64,50686f62-7269-4363-942e-6b696361645f,rev?*
G04 #@! TF.SameCoordinates,Original*
G04 #@! TF.FileFunction,Legend,Top*
G04 #@! TF.FilePolarity,Positive*
%FSLAX46Y46*%
G04 Gerber Fmt 4.6, Leading zero omitted, Abs format (unit mm)*
G04 Created by KiCad (PCBNEW 7.0.5-7.0.5~ubuntu20.04.1) date 2023-06-07 06:16:17*
%MOMM*%
%LPD*%
G01*
G04 APERTURE LIST*
G04 Aperture macros list*
%AMRoundRect*
0 Rectangle with rounded corners*
0 $1 Rounding radius*
0 $2 $3 $4 $5 $6 $7 $8 $9 X,Y pos of 4 corners*
0 Add a 4 corners polygon primitive as box body*
4,1,4,$2,$3,$4,$5,$6,$7,$8,$9,$2,$3,0*
0 Add four circle primitives for the rounded corners*
1,1,$1+$1,$2,$3*
1,1,$1+$1,$4,$5*
1,1,$1+$1,$6,$7*
1,1,$1+$1,$8,$9*
0 Add four rect primitives between the rounded corners*
20,1,$1+$1,$2,$3,$4,$5,0*
20,1,$1+$1,$4,$5,$6,$7,0*
20,1,$1+$1,$6,$7,$8,$9,0*
20,1,$1+$1,$8,$9,$2,$3,0*%
%AMFreePoly0*
4,1,19,0.150000,0.259808,0.229813,0.192836,0.281908,0.102606,0.300000,0.000000,0.281908,-0.102606,0.229813,-0.192836,0.150000,-0.259808,0.052094,-0.295442,-0.052094,-0.295442,-0.150000,-0.259808,-0.229813,-0.192836,-0.281908,-0.102606,-0.300000,0.000000,-0.281908,0.102606,-0.229813,0.192836,-0.150000,0.259808,-0.052094,0.295442,0.052094,0.295442,0.150000,0.259808,0.150000,0.259808,
$1*%
G04 Aperture macros list end*
%ADD10C,0.325000*%
%ADD11C,0.200000*%
%ADD12C,0.100000*%
%ADD13C,0.150000*%
%ADD14C,0.254000*%
%ADD15C,0.120000*%
%ADD16C,0.152400*%
%ADD17C,0.127000*%
%ADD18R,1.250000X0.300000*%
%ADD19R,3.000000X2.000000*%
%ADD20RoundRect,0.140000X-0.140000X-0.170000X0.140000X-0.170000X0.140000X0.170000X-0.140000X0.170000X0*%
%ADD21C,4.000000*%
%ADD22RoundRect,0.140000X0.140000X0.170000X-0.140000X0.170000X-0.140000X-0.170000X0.140000X-0.170000X0*%
%ADD23C,2.833000*%
%ADD24C,2.200000*%
%ADD25C,0.787400*%
%ADD26RoundRect,0.135000X-0.185000X0.135000X-0.185000X-0.135000X0.185000X-0.135000X0.185000X0.135000X0*%
%ADD27RoundRect,0.237500X0.237500X-0.250000X0.237500X0.250000X-0.237500X0.250000X-0.237500X-0.250000X0*%
%ADD28RoundRect,0.135000X0.135000X0.185000X-0.135000X0.185000X-0.135000X-0.185000X0.135000X-0.185000X0*%
%ADD29RoundRect,0.135000X-0.135000X-0.185000X0.135000X-0.185000X0.135000X0.185000X-0.135000X0.185000X0*%
%ADD30RoundRect,0.140000X-0.170000X0.140000X-0.170000X-0.140000X0.170000X-0.140000X0.170000X0.140000X0*%
%ADD31C,1.000000*%
%ADD32R,1.000000X2.000000*%
%ADD33RoundRect,0.250001X-0.499999X-0.924999X0.499999X-0.924999X0.499999X0.924999X-0.499999X0.924999X0*%
%ADD34O,2.500000X1.250000*%
%ADD35R,1.400000X1.200000*%
%ADD36RoundRect,0.140000X0.170000X-0.140000X0.170000X0.140000X-0.170000X0.140000X-0.170000X-0.140000X0*%
%ADD37RoundRect,0.250000X0.250000X0.475000X-0.250000X0.475000X-0.250000X-0.475000X0.250000X-0.475000X0*%
%ADD38C,2.000000*%
%ADD39C,1.700000*%
%ADD40RoundRect,0.237500X0.237500X-0.300000X0.237500X0.300000X-0.237500X0.300000X-0.237500X-0.300000X0*%
%ADD41R,0.960399X0.432600*%
%ADD42R,3.454400X4.343400*%
%ADD43RoundRect,0.150000X0.587500X0.150000X-0.587500X0.150000X-0.587500X-0.150000X0.587500X-0.150000X0*%
%ADD44RoundRect,0.237500X-0.237500X0.300000X-0.237500X-0.300000X0.237500X-0.300000X0.237500X0.300000X0*%
%ADD45RoundRect,0.150000X-0.150000X0.825000X-0.150000X-0.825000X0.150000X-0.825000X0.150000X0.825000X0*%
%ADD46RoundRect,0.112500X-0.112500X0.187500X-0.112500X-0.187500X0.112500X-0.187500X0.112500X0.187500X0*%
%ADD47C,1.397000*%
%ADD48R,0.375000X0.500000*%
%ADD49R,0.300000X0.650000*%
%ADD50RoundRect,0.112500X0.112500X-0.187500X0.112500X0.187500X-0.112500X0.187500X-0.112500X-0.187500X0*%
%ADD51RoundRect,0.050000X-0.050000X0.387500X-0.050000X-0.387500X0.050000X-0.387500X0.050000X0.387500X0*%
%ADD52RoundRect,0.050000X-0.387500X0.050000X-0.387500X-0.050000X0.387500X-0.050000X0.387500X0.050000X0*%
%ADD53FreePoly0,270.000000*%
%ADD54R,3.200000X3.200000*%
%ADD55RoundRect,0.250000X-0.250000X-0.475000X0.250000X-0.475000X0.250000X0.475000X-0.250000X0.475000X0*%
%ADD56RoundRect,0.237500X0.250000X0.237500X-0.250000X0.237500X-0.250000X-0.237500X0.250000X-0.237500X0*%
%ADD57C,1.500000*%
%ADD58RoundRect,0.150000X-0.150000X0.587500X-0.150000X-0.587500X0.150000X-0.587500X0.150000X0.587500X0*%
%ADD59R,1.000000X0.750000*%
%ADD60R,1.500000X2.000000*%
%ADD61R,3.800000X2.000000*%
%ADD62RoundRect,0.237500X-0.250000X-0.237500X0.250000X-0.237500X0.250000X0.237500X-0.250000X0.237500X0*%
G04 APERTURE END LIST*
D10*
X195912500Y-77000000D02*
G75*
G03*
X195912500Y-77000000I-162500J0D01*
G01*
D11*
X170803123Y-68850298D02*
X220577821Y-68850298D01*
X220577821Y-76350298D01*
X170803123Y-76350298D01*
X170803123Y-68850298D01*
D12*
X153210601Y-96750000D02*
X152794799Y-96749999D01*
D10*
X250516909Y-121590568D02*
G75*
G03*
X250516909Y-121590568I-162500J0D01*
G01*
D12*
X152750000Y-101000000D02*
X152250000Y-101000000D01*
D10*
X181505972Y-69683355D02*
G75*
G03*
X181505972Y-69683355I-162500J0D01*
G01*
D13*
X199910834Y-118587810D02*
G75*
G03*
X199910834Y-118587810I-4002927J0D01*
G01*
D10*
X205399000Y-76854271D02*
G75*
G03*
X205399000Y-76854271I-162500J0D01*
G01*
D13*
X181280044Y-111370687D02*
G75*
G03*
X181280044Y-111370687I-4002927J0D01*
G01*
D10*
X243463514Y-113977104D02*
G75*
G03*
X243463514Y-113977104I-162500J0D01*
G01*
D11*
X249169804Y-111861034D02*
G75*
G03*
X249169804Y-111861034I-16675000J0D01*
G01*
D10*
X223737073Y-108615310D02*
G75*
G03*
X223737073Y-108615310I-162500J0D01*
G01*
X160207467Y-107091705D02*
G75*
G03*
X160207467Y-107091705I-162500J0D01*
G01*
X186188270Y-78162093D02*
G75*
G03*
X186188270Y-78162093I-162500J0D01*
G01*
X235021535Y-101072740D02*
G75*
G03*
X235021535Y-101072740I-162500J0D01*
G01*
D12*
X152750000Y-101500000D02*
X152500000Y-101000000D01*
D13*
X202954803Y-118442765D02*
G75*
G03*
X202954803Y-118442765I-7057410J0D01*
G01*
D12*
X199250000Y-89000000D02*
X199500000Y-89500000D01*
D13*
X169035031Y-99909426D02*
G75*
G03*
X169035031Y-99909426I-4002927J0D01*
G01*
X180955104Y-100296410D02*
G75*
G03*
X180955104Y-100296410I-4002927J0D01*
G01*
D12*
X152500000Y-101000000D02*
X152250000Y-101500000D01*
D10*
X169723667Y-84000000D02*
G75*
G03*
X169723667Y-84000000I-162500J0D01*
G01*
D12*
X152750000Y-101500000D02*
X152250000Y-101500000D01*
X199250000Y-89000000D02*
X199750000Y-89000000D01*
X199250000Y-89500000D02*
X199750000Y-89500000D01*
X199500000Y-89500000D02*
X199750000Y-89000000D01*
X153000000Y-96500000D02*
X153000000Y-97000000D01*
D10*
X187310688Y-107201641D02*
G75*
G03*
X187310688Y-107201641I-162500J0D01*
G01*
D13*
X163037426Y-117375113D02*
X163656473Y-117375113D01*
X163656473Y-117375113D02*
X163323140Y-117756065D01*
X163323140Y-117756065D02*
X163465997Y-117756065D01*
X163465997Y-117756065D02*
X163561235Y-117803684D01*
X163561235Y-117803684D02*
X163608854Y-117851303D01*
X163608854Y-117851303D02*
X163656473Y-117946541D01*
X163656473Y-117946541D02*
X163656473Y-118184636D01*
X163656473Y-118184636D02*
X163608854Y-118279874D01*
X163608854Y-118279874D02*
X163561235Y-118327494D01*
X163561235Y-118327494D02*
X163465997Y-118375113D01*
X163465997Y-118375113D02*
X163180283Y-118375113D01*
X163180283Y-118375113D02*
X163085045Y-118327494D01*
X163085045Y-118327494D02*
X163037426Y-118279874D01*
X206163711Y-80810912D02*
X205592283Y-80810912D01*
X205877997Y-80810912D02*
X205877997Y-79810912D01*
X205877997Y-79810912D02*
X205782759Y-79953769D01*
X205782759Y-79953769D02*
X205687521Y-80049007D01*
X205687521Y-80049007D02*
X205592283Y-80096626D01*
X205544664Y-83310912D02*
X206163711Y-83310912D01*
X206163711Y-83310912D02*
X205830378Y-83691864D01*
X205830378Y-83691864D02*
X205973235Y-83691864D01*
X205973235Y-83691864D02*
X206068473Y-83739483D01*
X206068473Y-83739483D02*
X206116092Y-83787102D01*
X206116092Y-83787102D02*
X206163711Y-83882340D01*
X206163711Y-83882340D02*
X206163711Y-84120435D01*
X206163711Y-84120435D02*
X206116092Y-84215673D01*
X206116092Y-84215673D02*
X206068473Y-84263293D01*
X206068473Y-84263293D02*
X205973235Y-84310912D01*
X205973235Y-84310912D02*
X205687521Y-84310912D01*
X205687521Y-84310912D02*
X205592283Y-84263293D01*
X205592283Y-84263293D02*
X205544664Y-84215673D01*
X163614638Y-115070114D02*
X163043210Y-115070114D01*
X163328924Y-115070114D02*
X163328924Y-114070114D01*
X163328924Y-114070114D02*
X163233686Y-114212971D01*
X163233686Y-114212971D02*
X163138448Y-114308209D01*
X163138448Y-114308209D02*
X163043210Y-114355828D01*
X252076667Y-110559726D02*
X252076667Y-111466869D01*
X252076667Y-111466869D02*
X252016190Y-111648297D01*
X252016190Y-111648297D02*
X251895238Y-111769250D01*
X251895238Y-111769250D02*
X251713809Y-111829726D01*
X251713809Y-111829726D02*
X251592857Y-111829726D01*
X253346667Y-111829726D02*
X252620952Y-111829726D01*
X252983809Y-111829726D02*
X252983809Y-110559726D01*
X252983809Y-110559726D02*
X252862857Y-110741154D01*
X252862857Y-110741154D02*
X252741905Y-110862107D01*
X252741905Y-110862107D02*
X252620952Y-110922583D01*
X189326667Y-96309726D02*
X189326667Y-97216869D01*
X189326667Y-97216869D02*
X189266190Y-97398297D01*
X189266190Y-97398297D02*
X189145238Y-97519250D01*
X189145238Y-97519250D02*
X188963809Y-97579726D01*
X188963809Y-97579726D02*
X188842857Y-97579726D01*
X190475714Y-96309726D02*
X190233809Y-96309726D01*
X190233809Y-96309726D02*
X190112857Y-96370202D01*
X190112857Y-96370202D02*
X190052381Y-96430678D01*
X190052381Y-96430678D02*
X189931428Y-96612107D01*
X189931428Y-96612107D02*
X189870952Y-96854011D01*
X189870952Y-96854011D02*
X189870952Y-97337821D01*
X189870952Y-97337821D02*
X189931428Y-97458773D01*
X189931428Y-97458773D02*
X189991905Y-97519250D01*
X189991905Y-97519250D02*
X190112857Y-97579726D01*
X190112857Y-97579726D02*
X190354762Y-97579726D01*
X190354762Y-97579726D02*
X190475714Y-97519250D01*
X190475714Y-97519250D02*
X190536190Y-97458773D01*
X190536190Y-97458773D02*
X190596667Y-97337821D01*
X190596667Y-97337821D02*
X190596667Y-97035440D01*
X190596667Y-97035440D02*
X190536190Y-96914488D01*
X190536190Y-96914488D02*
X190475714Y-96854011D01*
X190475714Y-96854011D02*
X190354762Y-96793535D01*
X190354762Y-96793535D02*
X190112857Y-96793535D01*
X190112857Y-96793535D02*
X189991905Y-96854011D01*
X189991905Y-96854011D02*
X189931428Y-96914488D01*
X189931428Y-96914488D02*
X189870952Y-97035440D01*
X191907290Y-88089697D02*
X191869194Y-88127793D01*
X191869194Y-88127793D02*
X191754909Y-88165888D01*
X191754909Y-88165888D02*
X191678718Y-88165888D01*
X191678718Y-88165888D02*
X191564432Y-88127793D01*
X191564432Y-88127793D02*
X191488242Y-88051602D01*
X191488242Y-88051602D02*
X191450147Y-87975412D01*
X191450147Y-87975412D02*
X191412051Y-87823031D01*
X191412051Y-87823031D02*
X191412051Y-87708745D01*
X191412051Y-87708745D02*
X191450147Y-87556364D01*
X191450147Y-87556364D02*
X191488242Y-87480173D01*
X191488242Y-87480173D02*
X191564432Y-87403983D01*
X191564432Y-87403983D02*
X191678718Y-87365888D01*
X191678718Y-87365888D02*
X191754909Y-87365888D01*
X191754909Y-87365888D02*
X191869194Y-87403983D01*
X191869194Y-87403983D02*
X191907290Y-87442078D01*
X192364432Y-87708745D02*
X192288242Y-87670650D01*
X192288242Y-87670650D02*
X192250147Y-87632554D01*
X192250147Y-87632554D02*
X192212051Y-87556364D01*
X192212051Y-87556364D02*
X192212051Y-87518269D01*
X192212051Y-87518269D02*
X192250147Y-87442078D01*
X192250147Y-87442078D02*
X192288242Y-87403983D01*
X192288242Y-87403983D02*
X192364432Y-87365888D01*
X192364432Y-87365888D02*
X192516813Y-87365888D01*
X192516813Y-87365888D02*
X192593004Y-87403983D01*
X192593004Y-87403983D02*
X192631099Y-87442078D01*
X192631099Y-87442078D02*
X192669194Y-87518269D01*
X192669194Y-87518269D02*
X192669194Y-87556364D01*
X192669194Y-87556364D02*
X192631099Y-87632554D01*
X192631099Y-87632554D02*
X192593004Y-87670650D01*
X192593004Y-87670650D02*
X192516813Y-87708745D01*
X192516813Y-87708745D02*
X192364432Y-87708745D01*
X192364432Y-87708745D02*
X192288242Y-87746840D01*
X192288242Y-87746840D02*
X192250147Y-87784935D01*
X192250147Y-87784935D02*
X192212051Y-87861126D01*
X192212051Y-87861126D02*
X192212051Y-88013507D01*
X192212051Y-88013507D02*
X192250147Y-88089697D01*
X192250147Y-88089697D02*
X192288242Y-88127793D01*
X192288242Y-88127793D02*
X192364432Y-88165888D01*
X192364432Y-88165888D02*
X192516813Y-88165888D01*
X192516813Y-88165888D02*
X192593004Y-88127793D01*
X192593004Y-88127793D02*
X192631099Y-88089697D01*
X192631099Y-88089697D02*
X192669194Y-88013507D01*
X192669194Y-88013507D02*
X192669194Y-87861126D01*
X192669194Y-87861126D02*
X192631099Y-87784935D01*
X192631099Y-87784935D02*
X192593004Y-87746840D01*
X192593004Y-87746840D02*
X192516813Y-87708745D01*
X188107142Y-66651238D02*
X188059523Y-66698858D01*
X188059523Y-66698858D02*
X187916666Y-66746477D01*
X187916666Y-66746477D02*
X187821428Y-66746477D01*
X187821428Y-66746477D02*
X187678571Y-66698858D01*
X187678571Y-66698858D02*
X187583333Y-66603619D01*
X187583333Y-66603619D02*
X187535714Y-66508381D01*
X187535714Y-66508381D02*
X187488095Y-66317905D01*
X187488095Y-66317905D02*
X187488095Y-66175048D01*
X187488095Y-66175048D02*
X187535714Y-65984572D01*
X187535714Y-65984572D02*
X187583333Y-65889334D01*
X187583333Y-65889334D02*
X187678571Y-65794096D01*
X187678571Y-65794096D02*
X187821428Y-65746477D01*
X187821428Y-65746477D02*
X187916666Y-65746477D01*
X187916666Y-65746477D02*
X188059523Y-65794096D01*
X188059523Y-65794096D02*
X188107142Y-65841715D01*
X188488095Y-65841715D02*
X188535714Y-65794096D01*
X188535714Y-65794096D02*
X188630952Y-65746477D01*
X188630952Y-65746477D02*
X188869047Y-65746477D01*
X188869047Y-65746477D02*
X188964285Y-65794096D01*
X188964285Y-65794096D02*
X189011904Y-65841715D01*
X189011904Y-65841715D02*
X189059523Y-65936953D01*
X189059523Y-65936953D02*
X189059523Y-66032191D01*
X189059523Y-66032191D02*
X189011904Y-66175048D01*
X189011904Y-66175048D02*
X188440476Y-66746477D01*
X188440476Y-66746477D02*
X189059523Y-66746477D01*
X190011904Y-66746477D02*
X189440476Y-66746477D01*
X189726190Y-66746477D02*
X189726190Y-65746477D01*
X189726190Y-65746477D02*
X189630952Y-65889334D01*
X189630952Y-65889334D02*
X189535714Y-65984572D01*
X189535714Y-65984572D02*
X189440476Y-66032191D01*
X175136456Y-85954819D02*
X174803123Y-85478628D01*
X174565028Y-85954819D02*
X174565028Y-84954819D01*
X174565028Y-84954819D02*
X174945980Y-84954819D01*
X174945980Y-84954819D02*
X175041218Y-85002438D01*
X175041218Y-85002438D02*
X175088837Y-85050057D01*
X175088837Y-85050057D02*
X175136456Y-85145295D01*
X175136456Y-85145295D02*
X175136456Y-85288152D01*
X175136456Y-85288152D02*
X175088837Y-85383390D01*
X175088837Y-85383390D02*
X175041218Y-85431009D01*
X175041218Y-85431009D02*
X174945980Y-85478628D01*
X174945980Y-85478628D02*
X174565028Y-85478628D01*
X175993599Y-84954819D02*
X175803123Y-84954819D01*
X175803123Y-84954819D02*
X175707885Y-85002438D01*
X175707885Y-85002438D02*
X175660266Y-85050057D01*
X175660266Y-85050057D02*
X175565028Y-85192914D01*
X175565028Y-85192914D02*
X175517409Y-85383390D01*
X175517409Y-85383390D02*
X175517409Y-85764342D01*
X175517409Y-85764342D02*
X175565028Y-85859580D01*
X175565028Y-85859580D02*
X175612647Y-85907200D01*
X175612647Y-85907200D02*
X175707885Y-85954819D01*
X175707885Y-85954819D02*
X175898361Y-85954819D01*
X175898361Y-85954819D02*
X175993599Y-85907200D01*
X175993599Y-85907200D02*
X176041218Y-85859580D01*
X176041218Y-85859580D02*
X176088837Y-85764342D01*
X176088837Y-85764342D02*
X176088837Y-85526247D01*
X176088837Y-85526247D02*
X176041218Y-85431009D01*
X176041218Y-85431009D02*
X175993599Y-85383390D01*
X175993599Y-85383390D02*
X175898361Y-85335771D01*
X175898361Y-85335771D02*
X175707885Y-85335771D01*
X175707885Y-85335771D02*
X175612647Y-85383390D01*
X175612647Y-85383390D02*
X175565028Y-85431009D01*
X175565028Y-85431009D02*
X175517409Y-85526247D01*
X245806119Y-112926766D02*
X245472786Y-112450575D01*
X245234691Y-112926766D02*
X245234691Y-111926766D01*
X245234691Y-111926766D02*
X245615643Y-111926766D01*
X245615643Y-111926766D02*
X245710881Y-111974385D01*
X245710881Y-111974385D02*
X245758500Y-112022004D01*
X245758500Y-112022004D02*
X245806119Y-112117242D01*
X245806119Y-112117242D02*
X245806119Y-112260099D01*
X245806119Y-112260099D02*
X245758500Y-112355337D01*
X245758500Y-112355337D02*
X245710881Y-112402956D01*
X245710881Y-112402956D02*
X245615643Y-112450575D01*
X245615643Y-112450575D02*
X245234691Y-112450575D01*
X246139453Y-111926766D02*
X246758500Y-111926766D01*
X246758500Y-111926766D02*
X246425167Y-112307718D01*
X246425167Y-112307718D02*
X246568024Y-112307718D01*
X246568024Y-112307718D02*
X246663262Y-112355337D01*
X246663262Y-112355337D02*
X246710881Y-112402956D01*
X246710881Y-112402956D02*
X246758500Y-112498194D01*
X246758500Y-112498194D02*
X246758500Y-112736289D01*
X246758500Y-112736289D02*
X246710881Y-112831527D01*
X246710881Y-112831527D02*
X246663262Y-112879147D01*
X246663262Y-112879147D02*
X246568024Y-112926766D01*
X246568024Y-112926766D02*
X246282310Y-112926766D01*
X246282310Y-112926766D02*
X246187072Y-112879147D01*
X246187072Y-112879147D02*
X246139453Y-112831527D01*
X190866667Y-85432356D02*
X190600000Y-85051403D01*
X190409524Y-85432356D02*
X190409524Y-84632356D01*
X190409524Y-84632356D02*
X190714286Y-84632356D01*
X190714286Y-84632356D02*
X190790476Y-84670451D01*
X190790476Y-84670451D02*
X190828571Y-84708546D01*
X190828571Y-84708546D02*
X190866667Y-84784737D01*
X190866667Y-84784737D02*
X190866667Y-84899022D01*
X190866667Y-84899022D02*
X190828571Y-84975213D01*
X190828571Y-84975213D02*
X190790476Y-85013308D01*
X190790476Y-85013308D02*
X190714286Y-85051403D01*
X190714286Y-85051403D02*
X190409524Y-85051403D01*
X191171428Y-84708546D02*
X191209524Y-84670451D01*
X191209524Y-84670451D02*
X191285714Y-84632356D01*
X191285714Y-84632356D02*
X191476190Y-84632356D01*
X191476190Y-84632356D02*
X191552381Y-84670451D01*
X191552381Y-84670451D02*
X191590476Y-84708546D01*
X191590476Y-84708546D02*
X191628571Y-84784737D01*
X191628571Y-84784737D02*
X191628571Y-84860927D01*
X191628571Y-84860927D02*
X191590476Y-84975213D01*
X191590476Y-84975213D02*
X191133333Y-85432356D01*
X191133333Y-85432356D02*
X191628571Y-85432356D01*
X190907290Y-84103388D02*
X190640623Y-83722435D01*
X190450147Y-84103388D02*
X190450147Y-83303388D01*
X190450147Y-83303388D02*
X190754909Y-83303388D01*
X190754909Y-83303388D02*
X190831099Y-83341483D01*
X190831099Y-83341483D02*
X190869194Y-83379578D01*
X190869194Y-83379578D02*
X190907290Y-83455769D01*
X190907290Y-83455769D02*
X190907290Y-83570054D01*
X190907290Y-83570054D02*
X190869194Y-83646245D01*
X190869194Y-83646245D02*
X190831099Y-83684340D01*
X190831099Y-83684340D02*
X190754909Y-83722435D01*
X190754909Y-83722435D02*
X190450147Y-83722435D01*
X191669194Y-84103388D02*
X191212051Y-84103388D01*
X191440623Y-84103388D02*
X191440623Y-83303388D01*
X191440623Y-83303388D02*
X191364432Y-83417673D01*
X191364432Y-83417673D02*
X191288242Y-83493864D01*
X191288242Y-83493864D02*
X191212051Y-83531959D01*
X167833333Y-74944819D02*
X167500000Y-74468628D01*
X167261905Y-74944819D02*
X167261905Y-73944819D01*
X167261905Y-73944819D02*
X167642857Y-73944819D01*
X167642857Y-73944819D02*
X167738095Y-73992438D01*
X167738095Y-73992438D02*
X167785714Y-74040057D01*
X167785714Y-74040057D02*
X167833333Y-74135295D01*
X167833333Y-74135295D02*
X167833333Y-74278152D01*
X167833333Y-74278152D02*
X167785714Y-74373390D01*
X167785714Y-74373390D02*
X167738095Y-74421009D01*
X167738095Y-74421009D02*
X167642857Y-74468628D01*
X167642857Y-74468628D02*
X167261905Y-74468628D01*
X168166667Y-73944819D02*
X168833333Y-73944819D01*
X168833333Y-73944819D02*
X168404762Y-74944819D01*
X188786104Y-94014285D02*
X188824200Y-94052381D01*
X188824200Y-94052381D02*
X188862295Y-94166666D01*
X188862295Y-94166666D02*
X188862295Y-94242857D01*
X188862295Y-94242857D02*
X188824200Y-94357143D01*
X188824200Y-94357143D02*
X188748009Y-94433333D01*
X188748009Y-94433333D02*
X188671819Y-94471428D01*
X188671819Y-94471428D02*
X188519438Y-94509524D01*
X188519438Y-94509524D02*
X188405152Y-94509524D01*
X188405152Y-94509524D02*
X188252771Y-94471428D01*
X188252771Y-94471428D02*
X188176580Y-94433333D01*
X188176580Y-94433333D02*
X188100390Y-94357143D01*
X188100390Y-94357143D02*
X188062295Y-94242857D01*
X188062295Y-94242857D02*
X188062295Y-94166666D01*
X188062295Y-94166666D02*
X188100390Y-94052381D01*
X188100390Y-94052381D02*
X188138485Y-94014285D01*
X188862295Y-93252381D02*
X188862295Y-93709524D01*
X188862295Y-93480952D02*
X188062295Y-93480952D01*
X188062295Y-93480952D02*
X188176580Y-93557143D01*
X188176580Y-93557143D02*
X188252771Y-93633333D01*
X188252771Y-93633333D02*
X188290866Y-93709524D01*
X188138485Y-92947619D02*
X188100390Y-92909523D01*
X188100390Y-92909523D02*
X188062295Y-92833333D01*
X188062295Y-92833333D02*
X188062295Y-92642857D01*
X188062295Y-92642857D02*
X188100390Y-92566666D01*
X188100390Y-92566666D02*
X188138485Y-92528571D01*
X188138485Y-92528571D02*
X188214676Y-92490476D01*
X188214676Y-92490476D02*
X188290866Y-92490476D01*
X188290866Y-92490476D02*
X188405152Y-92528571D01*
X188405152Y-92528571D02*
X188862295Y-92985714D01*
X188862295Y-92985714D02*
X188862295Y-92490476D01*
X185786104Y-92014285D02*
X185824200Y-92052381D01*
X185824200Y-92052381D02*
X185862295Y-92166666D01*
X185862295Y-92166666D02*
X185862295Y-92242857D01*
X185862295Y-92242857D02*
X185824200Y-92357143D01*
X185824200Y-92357143D02*
X185748009Y-92433333D01*
X185748009Y-92433333D02*
X185671819Y-92471428D01*
X185671819Y-92471428D02*
X185519438Y-92509524D01*
X185519438Y-92509524D02*
X185405152Y-92509524D01*
X185405152Y-92509524D02*
X185252771Y-92471428D01*
X185252771Y-92471428D02*
X185176580Y-92433333D01*
X185176580Y-92433333D02*
X185100390Y-92357143D01*
X185100390Y-92357143D02*
X185062295Y-92242857D01*
X185062295Y-92242857D02*
X185062295Y-92166666D01*
X185062295Y-92166666D02*
X185100390Y-92052381D01*
X185100390Y-92052381D02*
X185138485Y-92014285D01*
X185862295Y-91252381D02*
X185862295Y-91709524D01*
X185862295Y-91480952D02*
X185062295Y-91480952D01*
X185062295Y-91480952D02*
X185176580Y-91557143D01*
X185176580Y-91557143D02*
X185252771Y-91633333D01*
X185252771Y-91633333D02*
X185290866Y-91709524D01*
X185062295Y-90985714D02*
X185062295Y-90490476D01*
X185062295Y-90490476D02*
X185367057Y-90757142D01*
X185367057Y-90757142D02*
X185367057Y-90642857D01*
X185367057Y-90642857D02*
X185405152Y-90566666D01*
X185405152Y-90566666D02*
X185443247Y-90528571D01*
X185443247Y-90528571D02*
X185519438Y-90490476D01*
X185519438Y-90490476D02*
X185709914Y-90490476D01*
X185709914Y-90490476D02*
X185786104Y-90528571D01*
X185786104Y-90528571D02*
X185824200Y-90566666D01*
X185824200Y-90566666D02*
X185862295Y-90642857D01*
X185862295Y-90642857D02*
X185862295Y-90871428D01*
X185862295Y-90871428D02*
X185824200Y-90947619D01*
X185824200Y-90947619D02*
X185786104Y-90985714D01*
X200879790Y-72750819D02*
X200879790Y-73657962D01*
X200879790Y-73657962D02*
X200819313Y-73839390D01*
X200819313Y-73839390D02*
X200698361Y-73960343D01*
X200698361Y-73960343D02*
X200516932Y-74020819D01*
X200516932Y-74020819D02*
X200395980Y-74020819D01*
X201424075Y-72871771D02*
X201484551Y-72811295D01*
X201484551Y-72811295D02*
X201605504Y-72750819D01*
X201605504Y-72750819D02*
X201907885Y-72750819D01*
X201907885Y-72750819D02*
X202028837Y-72811295D01*
X202028837Y-72811295D02*
X202089313Y-72871771D01*
X202089313Y-72871771D02*
X202149790Y-72992723D01*
X202149790Y-72992723D02*
X202149790Y-73113676D01*
X202149790Y-73113676D02*
X202089313Y-73295104D01*
X202089313Y-73295104D02*
X201363599Y-74020819D01*
X201363599Y-74020819D02*
X202149790Y-74020819D01*
X154535265Y-96950673D02*
X154487646Y-96998293D01*
X154487646Y-96998293D02*
X154344789Y-97045912D01*
X154344789Y-97045912D02*
X154249551Y-97045912D01*
X154249551Y-97045912D02*
X154106694Y-96998293D01*
X154106694Y-96998293D02*
X154011456Y-96903054D01*
X154011456Y-96903054D02*
X153963837Y-96807816D01*
X153963837Y-96807816D02*
X153916218Y-96617340D01*
X153916218Y-96617340D02*
X153916218Y-96474483D01*
X153916218Y-96474483D02*
X153963837Y-96284007D01*
X153963837Y-96284007D02*
X154011456Y-96188769D01*
X154011456Y-96188769D02*
X154106694Y-96093531D01*
X154106694Y-96093531D02*
X154249551Y-96045912D01*
X154249551Y-96045912D02*
X154344789Y-96045912D01*
X154344789Y-96045912D02*
X154487646Y-96093531D01*
X154487646Y-96093531D02*
X154535265Y-96141150D01*
X155487646Y-97045912D02*
X154916218Y-97045912D01*
X155201932Y-97045912D02*
X155201932Y-96045912D01*
X155201932Y-96045912D02*
X155106694Y-96188769D01*
X155106694Y-96188769D02*
X155011456Y-96284007D01*
X155011456Y-96284007D02*
X154916218Y-96331626D01*
X155963837Y-97045912D02*
X156154313Y-97045912D01*
X156154313Y-97045912D02*
X156249551Y-96998293D01*
X156249551Y-96998293D02*
X156297170Y-96950673D01*
X156297170Y-96950673D02*
X156392408Y-96807816D01*
X156392408Y-96807816D02*
X156440027Y-96617340D01*
X156440027Y-96617340D02*
X156440027Y-96236388D01*
X156440027Y-96236388D02*
X156392408Y-96141150D01*
X156392408Y-96141150D02*
X156344789Y-96093531D01*
X156344789Y-96093531D02*
X156249551Y-96045912D01*
X156249551Y-96045912D02*
X156059075Y-96045912D01*
X156059075Y-96045912D02*
X155963837Y-96093531D01*
X155963837Y-96093531D02*
X155916218Y-96141150D01*
X155916218Y-96141150D02*
X155868599Y-96236388D01*
X155868599Y-96236388D02*
X155868599Y-96474483D01*
X155868599Y-96474483D02*
X155916218Y-96569721D01*
X155916218Y-96569721D02*
X155963837Y-96617340D01*
X155963837Y-96617340D02*
X156059075Y-96664959D01*
X156059075Y-96664959D02*
X156249551Y-96664959D01*
X156249551Y-96664959D02*
X156344789Y-96617340D01*
X156344789Y-96617340D02*
X156392408Y-96569721D01*
X156392408Y-96569721D02*
X156440027Y-96474483D01*
X158343084Y-115660236D02*
X158343084Y-116374521D01*
X158343084Y-116374521D02*
X158295465Y-116517378D01*
X158295465Y-116517378D02*
X158200227Y-116612617D01*
X158200227Y-116612617D02*
X158057370Y-116660236D01*
X158057370Y-116660236D02*
X157962132Y-116660236D01*
X159247846Y-115993569D02*
X159247846Y-116660236D01*
X159009751Y-115612617D02*
X158771656Y-116326902D01*
X158771656Y-116326902D02*
X159390703Y-116326902D01*
X170826932Y-79919721D02*
X170826932Y-80395912D01*
X170493599Y-79395912D02*
X170826932Y-79919721D01*
X170826932Y-79919721D02*
X171160265Y-79395912D01*
X172017408Y-80395912D02*
X171445980Y-80395912D01*
X171731694Y-80395912D02*
X171731694Y-79395912D01*
X171731694Y-79395912D02*
X171636456Y-79538769D01*
X171636456Y-79538769D02*
X171541218Y-79634007D01*
X171541218Y-79634007D02*
X171445980Y-79681626D01*
X181390649Y-75900258D02*
X181343030Y-75947878D01*
X181343030Y-75947878D02*
X181200173Y-75995497D01*
X181200173Y-75995497D02*
X181104935Y-75995497D01*
X181104935Y-75995497D02*
X180962078Y-75947878D01*
X180962078Y-75947878D02*
X180866840Y-75852639D01*
X180866840Y-75852639D02*
X180819221Y-75757401D01*
X180819221Y-75757401D02*
X180771602Y-75566925D01*
X180771602Y-75566925D02*
X180771602Y-75424068D01*
X180771602Y-75424068D02*
X180819221Y-75233592D01*
X180819221Y-75233592D02*
X180866840Y-75138354D01*
X180866840Y-75138354D02*
X180962078Y-75043116D01*
X180962078Y-75043116D02*
X181104935Y-74995497D01*
X181104935Y-74995497D02*
X181200173Y-74995497D01*
X181200173Y-74995497D02*
X181343030Y-75043116D01*
X181343030Y-75043116D02*
X181390649Y-75090735D01*
X182343030Y-75995497D02*
X181771602Y-75995497D01*
X182057316Y-75995497D02*
X182057316Y-74995497D01*
X182057316Y-74995497D02*
X181962078Y-75138354D01*
X181962078Y-75138354D02*
X181866840Y-75233592D01*
X181866840Y-75233592D02*
X181771602Y-75281211D01*
X183295411Y-75995497D02*
X182723983Y-75995497D01*
X183009697Y-75995497D02*
X183009697Y-74995497D01*
X183009697Y-74995497D02*
X182914459Y-75138354D01*
X182914459Y-75138354D02*
X182819221Y-75233592D01*
X182819221Y-75233592D02*
X182723983Y-75281211D01*
X210160265Y-78300673D02*
X210112646Y-78348293D01*
X210112646Y-78348293D02*
X209969789Y-78395912D01*
X209969789Y-78395912D02*
X209874551Y-78395912D01*
X209874551Y-78395912D02*
X209731694Y-78348293D01*
X209731694Y-78348293D02*
X209636456Y-78253054D01*
X209636456Y-78253054D02*
X209588837Y-78157816D01*
X209588837Y-78157816D02*
X209541218Y-77967340D01*
X209541218Y-77967340D02*
X209541218Y-77824483D01*
X209541218Y-77824483D02*
X209588837Y-77634007D01*
X209588837Y-77634007D02*
X209636456Y-77538769D01*
X209636456Y-77538769D02*
X209731694Y-77443531D01*
X209731694Y-77443531D02*
X209874551Y-77395912D01*
X209874551Y-77395912D02*
X209969789Y-77395912D01*
X209969789Y-77395912D02*
X210112646Y-77443531D01*
X210112646Y-77443531D02*
X210160265Y-77491150D01*
X211112646Y-78395912D02*
X210541218Y-78395912D01*
X210826932Y-78395912D02*
X210826932Y-77395912D01*
X210826932Y-77395912D02*
X210731694Y-77538769D01*
X210731694Y-77538769D02*
X210636456Y-77634007D01*
X210636456Y-77634007D02*
X210541218Y-77681626D01*
X211684075Y-77824483D02*
X211588837Y-77776864D01*
X211588837Y-77776864D02*
X211541218Y-77729245D01*
X211541218Y-77729245D02*
X211493599Y-77634007D01*
X211493599Y-77634007D02*
X211493599Y-77586388D01*
X211493599Y-77586388D02*
X211541218Y-77491150D01*
X211541218Y-77491150D02*
X211588837Y-77443531D01*
X211588837Y-77443531D02*
X211684075Y-77395912D01*
X211684075Y-77395912D02*
X211874551Y-77395912D01*
X211874551Y-77395912D02*
X211969789Y-77443531D01*
X211969789Y-77443531D02*
X212017408Y-77491150D01*
X212017408Y-77491150D02*
X212065027Y-77586388D01*
X212065027Y-77586388D02*
X212065027Y-77634007D01*
X212065027Y-77634007D02*
X212017408Y-77729245D01*
X212017408Y-77729245D02*
X211969789Y-77776864D01*
X211969789Y-77776864D02*
X211874551Y-77824483D01*
X211874551Y-77824483D02*
X211684075Y-77824483D01*
X211684075Y-77824483D02*
X211588837Y-77872102D01*
X211588837Y-77872102D02*
X211541218Y-77919721D01*
X211541218Y-77919721D02*
X211493599Y-78014959D01*
X211493599Y-78014959D02*
X211493599Y-78205435D01*
X211493599Y-78205435D02*
X211541218Y-78300673D01*
X211541218Y-78300673D02*
X211588837Y-78348293D01*
X211588837Y-78348293D02*
X211684075Y-78395912D01*
X211684075Y-78395912D02*
X211874551Y-78395912D01*
X211874551Y-78395912D02*
X211969789Y-78348293D01*
X211969789Y-78348293D02*
X212017408Y-78300673D01*
X212017408Y-78300673D02*
X212065027Y-78205435D01*
X212065027Y-78205435D02*
X212065027Y-78014959D01*
X212065027Y-78014959D02*
X212017408Y-77919721D01*
X212017408Y-77919721D02*
X211969789Y-77872102D01*
X211969789Y-77872102D02*
X211874551Y-77824483D01*
X206478959Y-70227396D02*
X206478959Y-70941681D01*
X206478959Y-70941681D02*
X206431340Y-71084538D01*
X206431340Y-71084538D02*
X206336102Y-71179777D01*
X206336102Y-71179777D02*
X206193245Y-71227396D01*
X206193245Y-71227396D02*
X206098007Y-71227396D01*
X206859912Y-70227396D02*
X207526578Y-70227396D01*
X207526578Y-70227396D02*
X207098007Y-71227396D01*
X205386637Y-75657173D02*
X205386637Y-74657173D01*
X205386637Y-74657173D02*
X205624732Y-74657173D01*
X205624732Y-74657173D02*
X205767589Y-74704792D01*
X205767589Y-74704792D02*
X205862827Y-74800030D01*
X205862827Y-74800030D02*
X205910446Y-74895268D01*
X205910446Y-74895268D02*
X205958065Y-75085744D01*
X205958065Y-75085744D02*
X205958065Y-75228601D01*
X205958065Y-75228601D02*
X205910446Y-75419077D01*
X205910446Y-75419077D02*
X205862827Y-75514315D01*
X205862827Y-75514315D02*
X205767589Y-75609554D01*
X205767589Y-75609554D02*
X205624732Y-75657173D01*
X205624732Y-75657173D02*
X205386637Y-75657173D01*
X206719970Y-75133363D02*
X206862827Y-75180982D01*
X206862827Y-75180982D02*
X206910446Y-75228601D01*
X206910446Y-75228601D02*
X206958065Y-75323839D01*
X206958065Y-75323839D02*
X206958065Y-75466696D01*
X206958065Y-75466696D02*
X206910446Y-75561934D01*
X206910446Y-75561934D02*
X206862827Y-75609554D01*
X206862827Y-75609554D02*
X206767589Y-75657173D01*
X206767589Y-75657173D02*
X206386637Y-75657173D01*
X206386637Y-75657173D02*
X206386637Y-74657173D01*
X206386637Y-74657173D02*
X206719970Y-74657173D01*
X206719970Y-74657173D02*
X206815208Y-74704792D01*
X206815208Y-74704792D02*
X206862827Y-74752411D01*
X206862827Y-74752411D02*
X206910446Y-74847649D01*
X206910446Y-74847649D02*
X206910446Y-74942887D01*
X206910446Y-74942887D02*
X206862827Y-75038125D01*
X206862827Y-75038125D02*
X206815208Y-75085744D01*
X206815208Y-75085744D02*
X206719970Y-75133363D01*
X206719970Y-75133363D02*
X206386637Y-75133363D01*
X207910446Y-74704792D02*
X207815208Y-74657173D01*
X207815208Y-74657173D02*
X207672351Y-74657173D01*
X207672351Y-74657173D02*
X207529494Y-74704792D01*
X207529494Y-74704792D02*
X207434256Y-74800030D01*
X207434256Y-74800030D02*
X207386637Y-74895268D01*
X207386637Y-74895268D02*
X207339018Y-75085744D01*
X207339018Y-75085744D02*
X207339018Y-75228601D01*
X207339018Y-75228601D02*
X207386637Y-75419077D01*
X207386637Y-75419077D02*
X207434256Y-75514315D01*
X207434256Y-75514315D02*
X207529494Y-75609554D01*
X207529494Y-75609554D02*
X207672351Y-75657173D01*
X207672351Y-75657173D02*
X207767589Y-75657173D01*
X207767589Y-75657173D02*
X207910446Y-75609554D01*
X207910446Y-75609554D02*
X207958065Y-75561934D01*
X207958065Y-75561934D02*
X207958065Y-75228601D01*
X207958065Y-75228601D02*
X207767589Y-75228601D01*
X225438719Y-101406807D02*
X225391100Y-101454427D01*
X225391100Y-101454427D02*
X225248243Y-101502046D01*
X225248243Y-101502046D02*
X225153005Y-101502046D01*
X225153005Y-101502046D02*
X225010148Y-101454427D01*
X225010148Y-101454427D02*
X224914910Y-101359188D01*
X224914910Y-101359188D02*
X224867291Y-101263950D01*
X224867291Y-101263950D02*
X224819672Y-101073474D01*
X224819672Y-101073474D02*
X224819672Y-100930617D01*
X224819672Y-100930617D02*
X224867291Y-100740141D01*
X224867291Y-100740141D02*
X224914910Y-100644903D01*
X224914910Y-100644903D02*
X225010148Y-100549665D01*
X225010148Y-100549665D02*
X225153005Y-100502046D01*
X225153005Y-100502046D02*
X225248243Y-100502046D01*
X225248243Y-100502046D02*
X225391100Y-100549665D01*
X225391100Y-100549665D02*
X225438719Y-100597284D01*
X225819672Y-100597284D02*
X225867291Y-100549665D01*
X225867291Y-100549665D02*
X225962529Y-100502046D01*
X225962529Y-100502046D02*
X226200624Y-100502046D01*
X226200624Y-100502046D02*
X226295862Y-100549665D01*
X226295862Y-100549665D02*
X226343481Y-100597284D01*
X226343481Y-100597284D02*
X226391100Y-100692522D01*
X226391100Y-100692522D02*
X226391100Y-100787760D01*
X226391100Y-100787760D02*
X226343481Y-100930617D01*
X226343481Y-100930617D02*
X225772053Y-101502046D01*
X225772053Y-101502046D02*
X226391100Y-101502046D01*
X184284233Y-75959165D02*
X184236614Y-76006785D01*
X184236614Y-76006785D02*
X184093757Y-76054404D01*
X184093757Y-76054404D02*
X183998519Y-76054404D01*
X183998519Y-76054404D02*
X183855662Y-76006785D01*
X183855662Y-76006785D02*
X183760424Y-75911546D01*
X183760424Y-75911546D02*
X183712805Y-75816308D01*
X183712805Y-75816308D02*
X183665186Y-75625832D01*
X183665186Y-75625832D02*
X183665186Y-75482975D01*
X183665186Y-75482975D02*
X183712805Y-75292499D01*
X183712805Y-75292499D02*
X183760424Y-75197261D01*
X183760424Y-75197261D02*
X183855662Y-75102023D01*
X183855662Y-75102023D02*
X183998519Y-75054404D01*
X183998519Y-75054404D02*
X184093757Y-75054404D01*
X184093757Y-75054404D02*
X184236614Y-75102023D01*
X184236614Y-75102023D02*
X184284233Y-75149642D01*
X185141376Y-75054404D02*
X184950900Y-75054404D01*
X184950900Y-75054404D02*
X184855662Y-75102023D01*
X184855662Y-75102023D02*
X184808043Y-75149642D01*
X184808043Y-75149642D02*
X184712805Y-75292499D01*
X184712805Y-75292499D02*
X184665186Y-75482975D01*
X184665186Y-75482975D02*
X184665186Y-75863927D01*
X184665186Y-75863927D02*
X184712805Y-75959165D01*
X184712805Y-75959165D02*
X184760424Y-76006785D01*
X184760424Y-76006785D02*
X184855662Y-76054404D01*
X184855662Y-76054404D02*
X185046138Y-76054404D01*
X185046138Y-76054404D02*
X185141376Y-76006785D01*
X185141376Y-76006785D02*
X185188995Y-75959165D01*
X185188995Y-75959165D02*
X185236614Y-75863927D01*
X185236614Y-75863927D02*
X185236614Y-75625832D01*
X185236614Y-75625832D02*
X185188995Y-75530594D01*
X185188995Y-75530594D02*
X185141376Y-75482975D01*
X185141376Y-75482975D02*
X185046138Y-75435356D01*
X185046138Y-75435356D02*
X184855662Y-75435356D01*
X184855662Y-75435356D02*
X184760424Y-75482975D01*
X184760424Y-75482975D02*
X184712805Y-75530594D01*
X184712805Y-75530594D02*
X184665186Y-75625832D01*
X191907290Y-86589697D02*
X191869194Y-86627793D01*
X191869194Y-86627793D02*
X191754909Y-86665888D01*
X191754909Y-86665888D02*
X191678718Y-86665888D01*
X191678718Y-86665888D02*
X191564432Y-86627793D01*
X191564432Y-86627793D02*
X191488242Y-86551602D01*
X191488242Y-86551602D02*
X191450147Y-86475412D01*
X191450147Y-86475412D02*
X191412051Y-86323031D01*
X191412051Y-86323031D02*
X191412051Y-86208745D01*
X191412051Y-86208745D02*
X191450147Y-86056364D01*
X191450147Y-86056364D02*
X191488242Y-85980173D01*
X191488242Y-85980173D02*
X191564432Y-85903983D01*
X191564432Y-85903983D02*
X191678718Y-85865888D01*
X191678718Y-85865888D02*
X191754909Y-85865888D01*
X191754909Y-85865888D02*
X191869194Y-85903983D01*
X191869194Y-85903983D02*
X191907290Y-85942078D01*
X192631099Y-85865888D02*
X192250147Y-85865888D01*
X192250147Y-85865888D02*
X192212051Y-86246840D01*
X192212051Y-86246840D02*
X192250147Y-86208745D01*
X192250147Y-86208745D02*
X192326337Y-86170650D01*
X192326337Y-86170650D02*
X192516813Y-86170650D01*
X192516813Y-86170650D02*
X192593004Y-86208745D01*
X192593004Y-86208745D02*
X192631099Y-86246840D01*
X192631099Y-86246840D02*
X192669194Y-86323031D01*
X192669194Y-86323031D02*
X192669194Y-86513507D01*
X192669194Y-86513507D02*
X192631099Y-86589697D01*
X192631099Y-86589697D02*
X192593004Y-86627793D01*
X192593004Y-86627793D02*
X192516813Y-86665888D01*
X192516813Y-86665888D02*
X192326337Y-86665888D01*
X192326337Y-86665888D02*
X192250147Y-86627793D01*
X192250147Y-86627793D02*
X192212051Y-86589697D01*
X189738095Y-69849819D02*
X189738095Y-70659342D01*
X189738095Y-70659342D02*
X189785714Y-70754580D01*
X189785714Y-70754580D02*
X189833333Y-70802200D01*
X189833333Y-70802200D02*
X189928571Y-70849819D01*
X189928571Y-70849819D02*
X190119047Y-70849819D01*
X190119047Y-70849819D02*
X190214285Y-70802200D01*
X190214285Y-70802200D02*
X190261904Y-70754580D01*
X190261904Y-70754580D02*
X190309523Y-70659342D01*
X190309523Y-70659342D02*
X190309523Y-69849819D01*
X190928571Y-70278390D02*
X190833333Y-70230771D01*
X190833333Y-70230771D02*
X190785714Y-70183152D01*
X190785714Y-70183152D02*
X190738095Y-70087914D01*
X190738095Y-70087914D02*
X190738095Y-70040295D01*
X190738095Y-70040295D02*
X190785714Y-69945057D01*
X190785714Y-69945057D02*
X190833333Y-69897438D01*
X190833333Y-69897438D02*
X190928571Y-69849819D01*
X190928571Y-69849819D02*
X191119047Y-69849819D01*
X191119047Y-69849819D02*
X191214285Y-69897438D01*
X191214285Y-69897438D02*
X191261904Y-69945057D01*
X191261904Y-69945057D02*
X191309523Y-70040295D01*
X191309523Y-70040295D02*
X191309523Y-70087914D01*
X191309523Y-70087914D02*
X191261904Y-70183152D01*
X191261904Y-70183152D02*
X191214285Y-70230771D01*
X191214285Y-70230771D02*
X191119047Y-70278390D01*
X191119047Y-70278390D02*
X190928571Y-70278390D01*
X190928571Y-70278390D02*
X190833333Y-70326009D01*
X190833333Y-70326009D02*
X190785714Y-70373628D01*
X190785714Y-70373628D02*
X190738095Y-70468866D01*
X190738095Y-70468866D02*
X190738095Y-70659342D01*
X190738095Y-70659342D02*
X190785714Y-70754580D01*
X190785714Y-70754580D02*
X190833333Y-70802200D01*
X190833333Y-70802200D02*
X190928571Y-70849819D01*
X190928571Y-70849819D02*
X191119047Y-70849819D01*
X191119047Y-70849819D02*
X191214285Y-70802200D01*
X191214285Y-70802200D02*
X191261904Y-70754580D01*
X191261904Y-70754580D02*
X191309523Y-70659342D01*
X191309523Y-70659342D02*
X191309523Y-70468866D01*
X191309523Y-70468866D02*
X191261904Y-70373628D01*
X191261904Y-70373628D02*
X191214285Y-70326009D01*
X191214285Y-70326009D02*
X191119047Y-70278390D01*
X190286104Y-94014285D02*
X190324200Y-94052381D01*
X190324200Y-94052381D02*
X190362295Y-94166666D01*
X190362295Y-94166666D02*
X190362295Y-94242857D01*
X190362295Y-94242857D02*
X190324200Y-94357143D01*
X190324200Y-94357143D02*
X190248009Y-94433333D01*
X190248009Y-94433333D02*
X190171819Y-94471428D01*
X190171819Y-94471428D02*
X190019438Y-94509524D01*
X190019438Y-94509524D02*
X189905152Y-94509524D01*
X189905152Y-94509524D02*
X189752771Y-94471428D01*
X189752771Y-94471428D02*
X189676580Y-94433333D01*
X189676580Y-94433333D02*
X189600390Y-94357143D01*
X189600390Y-94357143D02*
X189562295Y-94242857D01*
X189562295Y-94242857D02*
X189562295Y-94166666D01*
X189562295Y-94166666D02*
X189600390Y-94052381D01*
X189600390Y-94052381D02*
X189638485Y-94014285D01*
X190362295Y-93252381D02*
X190362295Y-93709524D01*
X190362295Y-93480952D02*
X189562295Y-93480952D01*
X189562295Y-93480952D02*
X189676580Y-93557143D01*
X189676580Y-93557143D02*
X189752771Y-93633333D01*
X189752771Y-93633333D02*
X189790866Y-93709524D01*
X189562295Y-92528571D02*
X189562295Y-92909523D01*
X189562295Y-92909523D02*
X189943247Y-92947619D01*
X189943247Y-92947619D02*
X189905152Y-92909523D01*
X189905152Y-92909523D02*
X189867057Y-92833333D01*
X189867057Y-92833333D02*
X189867057Y-92642857D01*
X189867057Y-92642857D02*
X189905152Y-92566666D01*
X189905152Y-92566666D02*
X189943247Y-92528571D01*
X189943247Y-92528571D02*
X190019438Y-92490476D01*
X190019438Y-92490476D02*
X190209914Y-92490476D01*
X190209914Y-92490476D02*
X190286104Y-92528571D01*
X190286104Y-92528571D02*
X190324200Y-92566666D01*
X190324200Y-92566666D02*
X190362295Y-92642857D01*
X190362295Y-92642857D02*
X190362295Y-92833333D01*
X190362295Y-92833333D02*
X190324200Y-92909523D01*
X190324200Y-92909523D02*
X190286104Y-92947619D01*
X240691755Y-113954819D02*
X240691755Y-114764342D01*
X240691755Y-114764342D02*
X240739374Y-114859580D01*
X240739374Y-114859580D02*
X240786993Y-114907200D01*
X240786993Y-114907200D02*
X240882231Y-114954819D01*
X240882231Y-114954819D02*
X241072707Y-114954819D01*
X241072707Y-114954819D02*
X241167945Y-114907200D01*
X241167945Y-114907200D02*
X241215564Y-114859580D01*
X241215564Y-114859580D02*
X241263183Y-114764342D01*
X241263183Y-114764342D02*
X241263183Y-113954819D01*
X242263183Y-114954819D02*
X241691755Y-114954819D01*
X241977469Y-114954819D02*
X241977469Y-113954819D01*
X241977469Y-113954819D02*
X241882231Y-114097676D01*
X241882231Y-114097676D02*
X241786993Y-114192914D01*
X241786993Y-114192914D02*
X241691755Y-114240533D01*
X191050179Y-89756207D02*
X191012083Y-89794303D01*
X191012083Y-89794303D02*
X190897798Y-89832398D01*
X190897798Y-89832398D02*
X190821607Y-89832398D01*
X190821607Y-89832398D02*
X190707321Y-89794303D01*
X190707321Y-89794303D02*
X190631131Y-89718112D01*
X190631131Y-89718112D02*
X190593036Y-89641922D01*
X190593036Y-89641922D02*
X190554940Y-89489541D01*
X190554940Y-89489541D02*
X190554940Y-89375255D01*
X190554940Y-89375255D02*
X190593036Y-89222874D01*
X190593036Y-89222874D02*
X190631131Y-89146683D01*
X190631131Y-89146683D02*
X190707321Y-89070493D01*
X190707321Y-89070493D02*
X190821607Y-89032398D01*
X190821607Y-89032398D02*
X190897798Y-89032398D01*
X190897798Y-89032398D02*
X191012083Y-89070493D01*
X191012083Y-89070493D02*
X191050179Y-89108588D01*
X191812083Y-89832398D02*
X191354940Y-89832398D01*
X191583512Y-89832398D02*
X191583512Y-89032398D01*
X191583512Y-89032398D02*
X191507321Y-89146683D01*
X191507321Y-89146683D02*
X191431131Y-89222874D01*
X191431131Y-89222874D02*
X191354940Y-89260969D01*
X192497798Y-89299064D02*
X192497798Y-89832398D01*
X192307322Y-88994303D02*
X192116845Y-89565731D01*
X192116845Y-89565731D02*
X192612084Y-89565731D01*
X242940220Y-105477413D02*
X242892601Y-105525033D01*
X242892601Y-105525033D02*
X242749744Y-105572652D01*
X242749744Y-105572652D02*
X242654506Y-105572652D01*
X242654506Y-105572652D02*
X242511649Y-105525033D01*
X242511649Y-105525033D02*
X242416411Y-105429794D01*
X242416411Y-105429794D02*
X242368792Y-105334556D01*
X242368792Y-105334556D02*
X242321173Y-105144080D01*
X242321173Y-105144080D02*
X242321173Y-105001223D01*
X242321173Y-105001223D02*
X242368792Y-104810747D01*
X242368792Y-104810747D02*
X242416411Y-104715509D01*
X242416411Y-104715509D02*
X242511649Y-104620271D01*
X242511649Y-104620271D02*
X242654506Y-104572652D01*
X242654506Y-104572652D02*
X242749744Y-104572652D01*
X242749744Y-104572652D02*
X242892601Y-104620271D01*
X242892601Y-104620271D02*
X242940220Y-104667890D01*
X243273554Y-104572652D02*
X243892601Y-104572652D01*
X243892601Y-104572652D02*
X243559268Y-104953604D01*
X243559268Y-104953604D02*
X243702125Y-104953604D01*
X243702125Y-104953604D02*
X243797363Y-105001223D01*
X243797363Y-105001223D02*
X243844982Y-105048842D01*
X243844982Y-105048842D02*
X243892601Y-105144080D01*
X243892601Y-105144080D02*
X243892601Y-105382175D01*
X243892601Y-105382175D02*
X243844982Y-105477413D01*
X243844982Y-105477413D02*
X243797363Y-105525033D01*
X243797363Y-105525033D02*
X243702125Y-105572652D01*
X243702125Y-105572652D02*
X243416411Y-105572652D01*
X243416411Y-105572652D02*
X243321173Y-105525033D01*
X243321173Y-105525033D02*
X243273554Y-105477413D01*
X217918801Y-107366698D02*
X217918801Y-108176221D01*
X217918801Y-108176221D02*
X217966420Y-108271459D01*
X217966420Y-108271459D02*
X218014039Y-108319079D01*
X218014039Y-108319079D02*
X218109277Y-108366698D01*
X218109277Y-108366698D02*
X218299753Y-108366698D01*
X218299753Y-108366698D02*
X218394991Y-108319079D01*
X218394991Y-108319079D02*
X218442610Y-108271459D01*
X218442610Y-108271459D02*
X218490229Y-108176221D01*
X218490229Y-108176221D02*
X218490229Y-107366698D01*
X219394991Y-107700031D02*
X219394991Y-108366698D01*
X219156896Y-107319079D02*
X218918801Y-108033364D01*
X218918801Y-108033364D02*
X219537848Y-108033364D01*
X150065028Y-97895912D02*
X150065028Y-96895912D01*
X150065028Y-96895912D02*
X150303123Y-96895912D01*
X150303123Y-96895912D02*
X150445980Y-96943531D01*
X150445980Y-96943531D02*
X150541218Y-97038769D01*
X150541218Y-97038769D02*
X150588837Y-97134007D01*
X150588837Y-97134007D02*
X150636456Y-97324483D01*
X150636456Y-97324483D02*
X150636456Y-97467340D01*
X150636456Y-97467340D02*
X150588837Y-97657816D01*
X150588837Y-97657816D02*
X150541218Y-97753054D01*
X150541218Y-97753054D02*
X150445980Y-97848293D01*
X150445980Y-97848293D02*
X150303123Y-97895912D01*
X150303123Y-97895912D02*
X150065028Y-97895912D01*
X151588837Y-97895912D02*
X151017409Y-97895912D01*
X151303123Y-97895912D02*
X151303123Y-96895912D01*
X151303123Y-96895912D02*
X151207885Y-97038769D01*
X151207885Y-97038769D02*
X151112647Y-97134007D01*
X151112647Y-97134007D02*
X151017409Y-97181626D01*
X190833333Y-81359580D02*
X190785714Y-81407200D01*
X190785714Y-81407200D02*
X190642857Y-81454819D01*
X190642857Y-81454819D02*
X190547619Y-81454819D01*
X190547619Y-81454819D02*
X190404762Y-81407200D01*
X190404762Y-81407200D02*
X190309524Y-81311961D01*
X190309524Y-81311961D02*
X190261905Y-81216723D01*
X190261905Y-81216723D02*
X190214286Y-81026247D01*
X190214286Y-81026247D02*
X190214286Y-80883390D01*
X190214286Y-80883390D02*
X190261905Y-80692914D01*
X190261905Y-80692914D02*
X190309524Y-80597676D01*
X190309524Y-80597676D02*
X190404762Y-80502438D01*
X190404762Y-80502438D02*
X190547619Y-80454819D01*
X190547619Y-80454819D02*
X190642857Y-80454819D01*
X190642857Y-80454819D02*
X190785714Y-80502438D01*
X190785714Y-80502438D02*
X190833333Y-80550057D01*
X191166667Y-80454819D02*
X191833333Y-80454819D01*
X191833333Y-80454819D02*
X191404762Y-81454819D01*
X160266666Y-105197591D02*
X160266666Y-105911876D01*
X160266666Y-105911876D02*
X160219047Y-106054733D01*
X160219047Y-106054733D02*
X160123809Y-106149972D01*
X160123809Y-106149972D02*
X159980952Y-106197591D01*
X159980952Y-106197591D02*
X159885714Y-106197591D01*
X161219047Y-105197591D02*
X160742857Y-105197591D01*
X160742857Y-105197591D02*
X160695238Y-105673781D01*
X160695238Y-105673781D02*
X160742857Y-105626162D01*
X160742857Y-105626162D02*
X160838095Y-105578543D01*
X160838095Y-105578543D02*
X161076190Y-105578543D01*
X161076190Y-105578543D02*
X161171428Y-105626162D01*
X161171428Y-105626162D02*
X161219047Y-105673781D01*
X161219047Y-105673781D02*
X161266666Y-105769019D01*
X161266666Y-105769019D02*
X161266666Y-106007114D01*
X161266666Y-106007114D02*
X161219047Y-106102352D01*
X161219047Y-106102352D02*
X161171428Y-106149972D01*
X161171428Y-106149972D02*
X161076190Y-106197591D01*
X161076190Y-106197591D02*
X160838095Y-106197591D01*
X160838095Y-106197591D02*
X160742857Y-106149972D01*
X160742857Y-106149972D02*
X160695238Y-106102352D01*
X189333333Y-78879580D02*
X189285714Y-78927200D01*
X189285714Y-78927200D02*
X189142857Y-78974819D01*
X189142857Y-78974819D02*
X189047619Y-78974819D01*
X189047619Y-78974819D02*
X188904762Y-78927200D01*
X188904762Y-78927200D02*
X188809524Y-78831961D01*
X188809524Y-78831961D02*
X188761905Y-78736723D01*
X188761905Y-78736723D02*
X188714286Y-78546247D01*
X188714286Y-78546247D02*
X188714286Y-78403390D01*
X188714286Y-78403390D02*
X188761905Y-78212914D01*
X188761905Y-78212914D02*
X188809524Y-78117676D01*
X188809524Y-78117676D02*
X188904762Y-78022438D01*
X188904762Y-78022438D02*
X189047619Y-77974819D01*
X189047619Y-77974819D02*
X189142857Y-77974819D01*
X189142857Y-77974819D02*
X189285714Y-78022438D01*
X189285714Y-78022438D02*
X189333333Y-78070057D01*
X190285714Y-78974819D02*
X189714286Y-78974819D01*
X190000000Y-78974819D02*
X190000000Y-77974819D01*
X190000000Y-77974819D02*
X189904762Y-78117676D01*
X189904762Y-78117676D02*
X189809524Y-78212914D01*
X189809524Y-78212914D02*
X189714286Y-78260533D01*
X195757942Y-79261904D02*
X196567465Y-79261904D01*
X196567465Y-79261904D02*
X196662703Y-79214285D01*
X196662703Y-79214285D02*
X196710323Y-79166666D01*
X196710323Y-79166666D02*
X196757942Y-79071428D01*
X196757942Y-79071428D02*
X196757942Y-78880952D01*
X196757942Y-78880952D02*
X196710323Y-78785714D01*
X196710323Y-78785714D02*
X196662703Y-78738095D01*
X196662703Y-78738095D02*
X196567465Y-78690476D01*
X196567465Y-78690476D02*
X195757942Y-78690476D01*
X195757942Y-77785714D02*
X195757942Y-77976190D01*
X195757942Y-77976190D02*
X195805561Y-78071428D01*
X195805561Y-78071428D02*
X195853180Y-78119047D01*
X195853180Y-78119047D02*
X195996037Y-78214285D01*
X195996037Y-78214285D02*
X196186513Y-78261904D01*
X196186513Y-78261904D02*
X196567465Y-78261904D01*
X196567465Y-78261904D02*
X196662703Y-78214285D01*
X196662703Y-78214285D02*
X196710323Y-78166666D01*
X196710323Y-78166666D02*
X196757942Y-78071428D01*
X196757942Y-78071428D02*
X196757942Y-77880952D01*
X196757942Y-77880952D02*
X196710323Y-77785714D01*
X196710323Y-77785714D02*
X196662703Y-77738095D01*
X196662703Y-77738095D02*
X196567465Y-77690476D01*
X196567465Y-77690476D02*
X196329370Y-77690476D01*
X196329370Y-77690476D02*
X196234132Y-77738095D01*
X196234132Y-77738095D02*
X196186513Y-77785714D01*
X196186513Y-77785714D02*
X196138894Y-77880952D01*
X196138894Y-77880952D02*
X196138894Y-78071428D01*
X196138894Y-78071428D02*
X196186513Y-78166666D01*
X196186513Y-78166666D02*
X196234132Y-78214285D01*
X196234132Y-78214285D02*
X196329370Y-78261904D01*
X173857142Y-80115638D02*
X173809523Y-80163258D01*
X173809523Y-80163258D02*
X173666666Y-80210877D01*
X173666666Y-80210877D02*
X173571428Y-80210877D01*
X173571428Y-80210877D02*
X173428571Y-80163258D01*
X173428571Y-80163258D02*
X173333333Y-80068019D01*
X173333333Y-80068019D02*
X173285714Y-79972781D01*
X173285714Y-79972781D02*
X173238095Y-79782305D01*
X173238095Y-79782305D02*
X173238095Y-79639448D01*
X173238095Y-79639448D02*
X173285714Y-79448972D01*
X173285714Y-79448972D02*
X173333333Y-79353734D01*
X173333333Y-79353734D02*
X173428571Y-79258496D01*
X173428571Y-79258496D02*
X173571428Y-79210877D01*
X173571428Y-79210877D02*
X173666666Y-79210877D01*
X173666666Y-79210877D02*
X173809523Y-79258496D01*
X173809523Y-79258496D02*
X173857142Y-79306115D01*
X174809523Y-80210877D02*
X174238095Y-80210877D01*
X174523809Y-80210877D02*
X174523809Y-79210877D01*
X174523809Y-79210877D02*
X174428571Y-79353734D01*
X174428571Y-79353734D02*
X174333333Y-79448972D01*
X174333333Y-79448972D02*
X174238095Y-79496591D01*
X175666666Y-79210877D02*
X175476190Y-79210877D01*
X175476190Y-79210877D02*
X175380952Y-79258496D01*
X175380952Y-79258496D02*
X175333333Y-79306115D01*
X175333333Y-79306115D02*
X175238095Y-79448972D01*
X175238095Y-79448972D02*
X175190476Y-79639448D01*
X175190476Y-79639448D02*
X175190476Y-80020400D01*
X175190476Y-80020400D02*
X175238095Y-80115638D01*
X175238095Y-80115638D02*
X175285714Y-80163258D01*
X175285714Y-80163258D02*
X175380952Y-80210877D01*
X175380952Y-80210877D02*
X175571428Y-80210877D01*
X175571428Y-80210877D02*
X175666666Y-80163258D01*
X175666666Y-80163258D02*
X175714285Y-80115638D01*
X175714285Y-80115638D02*
X175761904Y-80020400D01*
X175761904Y-80020400D02*
X175761904Y-79782305D01*
X175761904Y-79782305D02*
X175714285Y-79687067D01*
X175714285Y-79687067D02*
X175666666Y-79639448D01*
X175666666Y-79639448D02*
X175571428Y-79591829D01*
X175571428Y-79591829D02*
X175380952Y-79591829D01*
X175380952Y-79591829D02*
X175285714Y-79639448D01*
X175285714Y-79639448D02*
X175238095Y-79687067D01*
X175238095Y-79687067D02*
X175190476Y-79782305D01*
X187286104Y-92014285D02*
X187324200Y-92052381D01*
X187324200Y-92052381D02*
X187362295Y-92166666D01*
X187362295Y-92166666D02*
X187362295Y-92242857D01*
X187362295Y-92242857D02*
X187324200Y-92357143D01*
X187324200Y-92357143D02*
X187248009Y-92433333D01*
X187248009Y-92433333D02*
X187171819Y-92471428D01*
X187171819Y-92471428D02*
X187019438Y-92509524D01*
X187019438Y-92509524D02*
X186905152Y-92509524D01*
X186905152Y-92509524D02*
X186752771Y-92471428D01*
X186752771Y-92471428D02*
X186676580Y-92433333D01*
X186676580Y-92433333D02*
X186600390Y-92357143D01*
X186600390Y-92357143D02*
X186562295Y-92242857D01*
X186562295Y-92242857D02*
X186562295Y-92166666D01*
X186562295Y-92166666D02*
X186600390Y-92052381D01*
X186600390Y-92052381D02*
X186638485Y-92014285D01*
X187362295Y-91252381D02*
X187362295Y-91709524D01*
X187362295Y-91480952D02*
X186562295Y-91480952D01*
X186562295Y-91480952D02*
X186676580Y-91557143D01*
X186676580Y-91557143D02*
X186752771Y-91633333D01*
X186752771Y-91633333D02*
X186790866Y-91709524D01*
X186562295Y-90757142D02*
X186562295Y-90680952D01*
X186562295Y-90680952D02*
X186600390Y-90604761D01*
X186600390Y-90604761D02*
X186638485Y-90566666D01*
X186638485Y-90566666D02*
X186714676Y-90528571D01*
X186714676Y-90528571D02*
X186867057Y-90490476D01*
X186867057Y-90490476D02*
X187057533Y-90490476D01*
X187057533Y-90490476D02*
X187209914Y-90528571D01*
X187209914Y-90528571D02*
X187286104Y-90566666D01*
X187286104Y-90566666D02*
X187324200Y-90604761D01*
X187324200Y-90604761D02*
X187362295Y-90680952D01*
X187362295Y-90680952D02*
X187362295Y-90757142D01*
X187362295Y-90757142D02*
X187324200Y-90833333D01*
X187324200Y-90833333D02*
X187286104Y-90871428D01*
X187286104Y-90871428D02*
X187209914Y-90909523D01*
X187209914Y-90909523D02*
X187057533Y-90947619D01*
X187057533Y-90947619D02*
X186867057Y-90947619D01*
X186867057Y-90947619D02*
X186714676Y-90909523D01*
X186714676Y-90909523D02*
X186638485Y-90871428D01*
X186638485Y-90871428D02*
X186600390Y-90833333D01*
X186600390Y-90833333D02*
X186562295Y-90757142D01*
X199907942Y-88679187D02*
X198907942Y-88679187D01*
X198907942Y-88679187D02*
X198907942Y-88441092D01*
X198907942Y-88441092D02*
X198955561Y-88298235D01*
X198955561Y-88298235D02*
X199050799Y-88202997D01*
X199050799Y-88202997D02*
X199146037Y-88155378D01*
X199146037Y-88155378D02*
X199336513Y-88107759D01*
X199336513Y-88107759D02*
X199479370Y-88107759D01*
X199479370Y-88107759D02*
X199669846Y-88155378D01*
X199669846Y-88155378D02*
X199765084Y-88202997D01*
X199765084Y-88202997D02*
X199860323Y-88298235D01*
X199860323Y-88298235D02*
X199907942Y-88441092D01*
X199907942Y-88441092D02*
X199907942Y-88679187D01*
X199003180Y-87726806D02*
X198955561Y-87679187D01*
X198955561Y-87679187D02*
X198907942Y-87583949D01*
X198907942Y-87583949D02*
X198907942Y-87345854D01*
X198907942Y-87345854D02*
X198955561Y-87250616D01*
X198955561Y-87250616D02*
X199003180Y-87202997D01*
X199003180Y-87202997D02*
X199098418Y-87155378D01*
X199098418Y-87155378D02*
X199193656Y-87155378D01*
X199193656Y-87155378D02*
X199336513Y-87202997D01*
X199336513Y-87202997D02*
X199907942Y-87774425D01*
X199907942Y-87774425D02*
X199907942Y-87155378D01*
X175421723Y-86968705D02*
X175421723Y-87778228D01*
X175421723Y-87778228D02*
X175469342Y-87873466D01*
X175469342Y-87873466D02*
X175516961Y-87921086D01*
X175516961Y-87921086D02*
X175612199Y-87968705D01*
X175612199Y-87968705D02*
X175802675Y-87968705D01*
X175802675Y-87968705D02*
X175897913Y-87921086D01*
X175897913Y-87921086D02*
X175945532Y-87873466D01*
X175945532Y-87873466D02*
X175993151Y-87778228D01*
X175993151Y-87778228D02*
X175993151Y-86968705D01*
X176374104Y-86968705D02*
X176993151Y-86968705D01*
X176993151Y-86968705D02*
X176659818Y-87349657D01*
X176659818Y-87349657D02*
X176802675Y-87349657D01*
X176802675Y-87349657D02*
X176897913Y-87397276D01*
X176897913Y-87397276D02*
X176945532Y-87444895D01*
X176945532Y-87444895D02*
X176993151Y-87540133D01*
X176993151Y-87540133D02*
X176993151Y-87778228D01*
X176993151Y-87778228D02*
X176945532Y-87873466D01*
X176945532Y-87873466D02*
X176897913Y-87921086D01*
X176897913Y-87921086D02*
X176802675Y-87968705D01*
X176802675Y-87968705D02*
X176516961Y-87968705D01*
X176516961Y-87968705D02*
X176421723Y-87921086D01*
X176421723Y-87921086D02*
X176374104Y-87873466D01*
X210009789Y-81555117D02*
X210009789Y-82269402D01*
X210009789Y-82269402D02*
X209962170Y-82412259D01*
X209962170Y-82412259D02*
X209866932Y-82507498D01*
X209866932Y-82507498D02*
X209724075Y-82555117D01*
X209724075Y-82555117D02*
X209628837Y-82555117D01*
X210390742Y-81555117D02*
X211009789Y-81555117D01*
X211009789Y-81555117D02*
X210676456Y-81936069D01*
X210676456Y-81936069D02*
X210819313Y-81936069D01*
X210819313Y-81936069D02*
X210914551Y-81983688D01*
X210914551Y-81983688D02*
X210962170Y-82031307D01*
X210962170Y-82031307D02*
X211009789Y-82126545D01*
X211009789Y-82126545D02*
X211009789Y-82364640D01*
X211009789Y-82364640D02*
X210962170Y-82459878D01*
X210962170Y-82459878D02*
X210914551Y-82507498D01*
X210914551Y-82507498D02*
X210819313Y-82555117D01*
X210819313Y-82555117D02*
X210533599Y-82555117D01*
X210533599Y-82555117D02*
X210438361Y-82507498D01*
X210438361Y-82507498D02*
X210390742Y-82459878D01*
X203660265Y-89800673D02*
X203612646Y-89848293D01*
X203612646Y-89848293D02*
X203469789Y-89895912D01*
X203469789Y-89895912D02*
X203374551Y-89895912D01*
X203374551Y-89895912D02*
X203231694Y-89848293D01*
X203231694Y-89848293D02*
X203136456Y-89753054D01*
X203136456Y-89753054D02*
X203088837Y-89657816D01*
X203088837Y-89657816D02*
X203041218Y-89467340D01*
X203041218Y-89467340D02*
X203041218Y-89324483D01*
X203041218Y-89324483D02*
X203088837Y-89134007D01*
X203088837Y-89134007D02*
X203136456Y-89038769D01*
X203136456Y-89038769D02*
X203231694Y-88943531D01*
X203231694Y-88943531D02*
X203374551Y-88895912D01*
X203374551Y-88895912D02*
X203469789Y-88895912D01*
X203469789Y-88895912D02*
X203612646Y-88943531D01*
X203612646Y-88943531D02*
X203660265Y-88991150D01*
X204041218Y-88991150D02*
X204088837Y-88943531D01*
X204088837Y-88943531D02*
X204184075Y-88895912D01*
X204184075Y-88895912D02*
X204422170Y-88895912D01*
X204422170Y-88895912D02*
X204517408Y-88943531D01*
X204517408Y-88943531D02*
X204565027Y-88991150D01*
X204565027Y-88991150D02*
X204612646Y-89086388D01*
X204612646Y-89086388D02*
X204612646Y-89181626D01*
X204612646Y-89181626D02*
X204565027Y-89324483D01*
X204565027Y-89324483D02*
X203993599Y-89895912D01*
X203993599Y-89895912D02*
X204612646Y-89895912D01*
X205231694Y-88895912D02*
X205326932Y-88895912D01*
X205326932Y-88895912D02*
X205422170Y-88943531D01*
X205422170Y-88943531D02*
X205469789Y-88991150D01*
X205469789Y-88991150D02*
X205517408Y-89086388D01*
X205517408Y-89086388D02*
X205565027Y-89276864D01*
X205565027Y-89276864D02*
X205565027Y-89514959D01*
X205565027Y-89514959D02*
X205517408Y-89705435D01*
X205517408Y-89705435D02*
X205469789Y-89800673D01*
X205469789Y-89800673D02*
X205422170Y-89848293D01*
X205422170Y-89848293D02*
X205326932Y-89895912D01*
X205326932Y-89895912D02*
X205231694Y-89895912D01*
X205231694Y-89895912D02*
X205136456Y-89848293D01*
X205136456Y-89848293D02*
X205088837Y-89800673D01*
X205088837Y-89800673D02*
X205041218Y-89705435D01*
X205041218Y-89705435D02*
X204993599Y-89514959D01*
X204993599Y-89514959D02*
X204993599Y-89276864D01*
X204993599Y-89276864D02*
X205041218Y-89086388D01*
X205041218Y-89086388D02*
X205088837Y-88991150D01*
X205088837Y-88991150D02*
X205136456Y-88943531D01*
X205136456Y-88943531D02*
X205231694Y-88895912D01*
X194786104Y-92633332D02*
X194824200Y-92671428D01*
X194824200Y-92671428D02*
X194862295Y-92785713D01*
X194862295Y-92785713D02*
X194862295Y-92861904D01*
X194862295Y-92861904D02*
X194824200Y-92976190D01*
X194824200Y-92976190D02*
X194748009Y-93052380D01*
X194748009Y-93052380D02*
X194671819Y-93090475D01*
X194671819Y-93090475D02*
X194519438Y-93128571D01*
X194519438Y-93128571D02*
X194405152Y-93128571D01*
X194405152Y-93128571D02*
X194252771Y-93090475D01*
X194252771Y-93090475D02*
X194176580Y-93052380D01*
X194176580Y-93052380D02*
X194100390Y-92976190D01*
X194100390Y-92976190D02*
X194062295Y-92861904D01*
X194062295Y-92861904D02*
X194062295Y-92785713D01*
X194062295Y-92785713D02*
X194100390Y-92671428D01*
X194100390Y-92671428D02*
X194138485Y-92633332D01*
X194862295Y-92252380D02*
X194862295Y-92099999D01*
X194862295Y-92099999D02*
X194824200Y-92023809D01*
X194824200Y-92023809D02*
X194786104Y-91985713D01*
X194786104Y-91985713D02*
X194671819Y-91909523D01*
X194671819Y-91909523D02*
X194519438Y-91871428D01*
X194519438Y-91871428D02*
X194214676Y-91871428D01*
X194214676Y-91871428D02*
X194138485Y-91909523D01*
X194138485Y-91909523D02*
X194100390Y-91947618D01*
X194100390Y-91947618D02*
X194062295Y-92023809D01*
X194062295Y-92023809D02*
X194062295Y-92176190D01*
X194062295Y-92176190D02*
X194100390Y-92252380D01*
X194100390Y-92252380D02*
X194138485Y-92290475D01*
X194138485Y-92290475D02*
X194214676Y-92328571D01*
X194214676Y-92328571D02*
X194405152Y-92328571D01*
X194405152Y-92328571D02*
X194481342Y-92290475D01*
X194481342Y-92290475D02*
X194519438Y-92252380D01*
X194519438Y-92252380D02*
X194557533Y-92176190D01*
X194557533Y-92176190D02*
X194557533Y-92023809D01*
X194557533Y-92023809D02*
X194519438Y-91947618D01*
X194519438Y-91947618D02*
X194481342Y-91909523D01*
X194481342Y-91909523D02*
X194405152Y-91871428D01*
X233463152Y-99040900D02*
X233129819Y-98564709D01*
X232891724Y-99040900D02*
X232891724Y-98040900D01*
X232891724Y-98040900D02*
X233272676Y-98040900D01*
X233272676Y-98040900D02*
X233367914Y-98088519D01*
X233367914Y-98088519D02*
X233415533Y-98136138D01*
X233415533Y-98136138D02*
X233463152Y-98231376D01*
X233463152Y-98231376D02*
X233463152Y-98374233D01*
X233463152Y-98374233D02*
X233415533Y-98469471D01*
X233415533Y-98469471D02*
X233367914Y-98517090D01*
X233367914Y-98517090D02*
X233272676Y-98564709D01*
X233272676Y-98564709D02*
X232891724Y-98564709D01*
X234320295Y-98374233D02*
X234320295Y-99040900D01*
X234082200Y-97993281D02*
X233844105Y-98707566D01*
X233844105Y-98707566D02*
X234463152Y-98707566D01*
X234738095Y-102554819D02*
X234738095Y-103364342D01*
X234738095Y-103364342D02*
X234785714Y-103459580D01*
X234785714Y-103459580D02*
X234833333Y-103507200D01*
X234833333Y-103507200D02*
X234928571Y-103554819D01*
X234928571Y-103554819D02*
X235119047Y-103554819D01*
X235119047Y-103554819D02*
X235214285Y-103507200D01*
X235214285Y-103507200D02*
X235261904Y-103459580D01*
X235261904Y-103459580D02*
X235309523Y-103364342D01*
X235309523Y-103364342D02*
X235309523Y-102554819D01*
X235738095Y-102650057D02*
X235785714Y-102602438D01*
X235785714Y-102602438D02*
X235880952Y-102554819D01*
X235880952Y-102554819D02*
X236119047Y-102554819D01*
X236119047Y-102554819D02*
X236214285Y-102602438D01*
X236214285Y-102602438D02*
X236261904Y-102650057D01*
X236261904Y-102650057D02*
X236309523Y-102745295D01*
X236309523Y-102745295D02*
X236309523Y-102840533D01*
X236309523Y-102840533D02*
X236261904Y-102983390D01*
X236261904Y-102983390D02*
X235690476Y-103554819D01*
X235690476Y-103554819D02*
X236309523Y-103554819D01*
X159738095Y-81407200D02*
X159880952Y-81454819D01*
X159880952Y-81454819D02*
X160119047Y-81454819D01*
X160119047Y-81454819D02*
X160214285Y-81407200D01*
X160214285Y-81407200D02*
X160261904Y-81359580D01*
X160261904Y-81359580D02*
X160309523Y-81264342D01*
X160309523Y-81264342D02*
X160309523Y-81169104D01*
X160309523Y-81169104D02*
X160261904Y-81073866D01*
X160261904Y-81073866D02*
X160214285Y-81026247D01*
X160214285Y-81026247D02*
X160119047Y-80978628D01*
X160119047Y-80978628D02*
X159928571Y-80931009D01*
X159928571Y-80931009D02*
X159833333Y-80883390D01*
X159833333Y-80883390D02*
X159785714Y-80835771D01*
X159785714Y-80835771D02*
X159738095Y-80740533D01*
X159738095Y-80740533D02*
X159738095Y-80645295D01*
X159738095Y-80645295D02*
X159785714Y-80550057D01*
X159785714Y-80550057D02*
X159833333Y-80502438D01*
X159833333Y-80502438D02*
X159928571Y-80454819D01*
X159928571Y-80454819D02*
X160166666Y-80454819D01*
X160166666Y-80454819D02*
X160309523Y-80502438D01*
X161261904Y-81454819D02*
X160690476Y-81454819D01*
X160976190Y-81454819D02*
X160976190Y-80454819D01*
X160976190Y-80454819D02*
X160880952Y-80597676D01*
X160880952Y-80597676D02*
X160785714Y-80692914D01*
X160785714Y-80692914D02*
X160690476Y-80740533D01*
X169357142Y-85859580D02*
X169309523Y-85907200D01*
X169309523Y-85907200D02*
X169166666Y-85954819D01*
X169166666Y-85954819D02*
X169071428Y-85954819D01*
X169071428Y-85954819D02*
X168928571Y-85907200D01*
X168928571Y-85907200D02*
X168833333Y-85811961D01*
X168833333Y-85811961D02*
X168785714Y-85716723D01*
X168785714Y-85716723D02*
X168738095Y-85526247D01*
X168738095Y-85526247D02*
X168738095Y-85383390D01*
X168738095Y-85383390D02*
X168785714Y-85192914D01*
X168785714Y-85192914D02*
X168833333Y-85097676D01*
X168833333Y-85097676D02*
X168928571Y-85002438D01*
X168928571Y-85002438D02*
X169071428Y-84954819D01*
X169071428Y-84954819D02*
X169166666Y-84954819D01*
X169166666Y-84954819D02*
X169309523Y-85002438D01*
X169309523Y-85002438D02*
X169357142Y-85050057D01*
X170309523Y-85954819D02*
X169738095Y-85954819D01*
X170023809Y-85954819D02*
X170023809Y-84954819D01*
X170023809Y-84954819D02*
X169928571Y-85097676D01*
X169928571Y-85097676D02*
X169833333Y-85192914D01*
X169833333Y-85192914D02*
X169738095Y-85240533D01*
X170642857Y-84954819D02*
X171309523Y-84954819D01*
X171309523Y-84954819D02*
X170880952Y-85954819D01*
X196454819Y-83261904D02*
X197264342Y-83261904D01*
X197264342Y-83261904D02*
X197359580Y-83214285D01*
X197359580Y-83214285D02*
X197407200Y-83166666D01*
X197407200Y-83166666D02*
X197454819Y-83071428D01*
X197454819Y-83071428D02*
X197454819Y-82880952D01*
X197454819Y-82880952D02*
X197407200Y-82785714D01*
X197407200Y-82785714D02*
X197359580Y-82738095D01*
X197359580Y-82738095D02*
X197264342Y-82690476D01*
X197264342Y-82690476D02*
X196454819Y-82690476D01*
X196454819Y-82309523D02*
X196454819Y-81642857D01*
X196454819Y-81642857D02*
X197454819Y-82071428D01*
X195583333Y-66454819D02*
X195250000Y-65978628D01*
X195011905Y-66454819D02*
X195011905Y-65454819D01*
X195011905Y-65454819D02*
X195392857Y-65454819D01*
X195392857Y-65454819D02*
X195488095Y-65502438D01*
X195488095Y-65502438D02*
X195535714Y-65550057D01*
X195535714Y-65550057D02*
X195583333Y-65645295D01*
X195583333Y-65645295D02*
X195583333Y-65788152D01*
X195583333Y-65788152D02*
X195535714Y-65883390D01*
X195535714Y-65883390D02*
X195488095Y-65931009D01*
X195488095Y-65931009D02*
X195392857Y-65978628D01*
X195392857Y-65978628D02*
X195011905Y-65978628D01*
X196488095Y-65454819D02*
X196011905Y-65454819D01*
X196011905Y-65454819D02*
X195964286Y-65931009D01*
X195964286Y-65931009D02*
X196011905Y-65883390D01*
X196011905Y-65883390D02*
X196107143Y-65835771D01*
X196107143Y-65835771D02*
X196345238Y-65835771D01*
X196345238Y-65835771D02*
X196440476Y-65883390D01*
X196440476Y-65883390D02*
X196488095Y-65931009D01*
X196488095Y-65931009D02*
X196535714Y-66026247D01*
X196535714Y-66026247D02*
X196535714Y-66264342D01*
X196535714Y-66264342D02*
X196488095Y-66359580D01*
X196488095Y-66359580D02*
X196440476Y-66407200D01*
X196440476Y-66407200D02*
X196345238Y-66454819D01*
X196345238Y-66454819D02*
X196107143Y-66454819D01*
X196107143Y-66454819D02*
X196011905Y-66407200D01*
X196011905Y-66407200D02*
X195964286Y-66359580D01*
X179008483Y-90587872D02*
X178960864Y-90635492D01*
X178960864Y-90635492D02*
X178818007Y-90683111D01*
X178818007Y-90683111D02*
X178722769Y-90683111D01*
X178722769Y-90683111D02*
X178579912Y-90635492D01*
X178579912Y-90635492D02*
X178484674Y-90540253D01*
X178484674Y-90540253D02*
X178437055Y-90445015D01*
X178437055Y-90445015D02*
X178389436Y-90254539D01*
X178389436Y-90254539D02*
X178389436Y-90111682D01*
X178389436Y-90111682D02*
X178437055Y-89921206D01*
X178437055Y-89921206D02*
X178484674Y-89825968D01*
X178484674Y-89825968D02*
X178579912Y-89730730D01*
X178579912Y-89730730D02*
X178722769Y-89683111D01*
X178722769Y-89683111D02*
X178818007Y-89683111D01*
X178818007Y-89683111D02*
X178960864Y-89730730D01*
X178960864Y-89730730D02*
X179008483Y-89778349D01*
X179865626Y-90016444D02*
X179865626Y-90683111D01*
X179627531Y-89635492D02*
X179389436Y-90349777D01*
X179389436Y-90349777D02*
X180008483Y-90349777D01*
D14*
X251126660Y-123500000D02*
X254426660Y-123500000D01*
X254426660Y-123500000D02*
X254426660Y-112500000D01*
X251163660Y-120881000D02*
X251163660Y-123500000D01*
X251163660Y-119881000D02*
X251163660Y-120119000D01*
X251163660Y-118881000D02*
X251163660Y-119119000D01*
X251163660Y-117881000D02*
X251163660Y-118119000D01*
X251163660Y-116881000D02*
X251163660Y-117119000D01*
X251163660Y-115881000D02*
X251163660Y-116119000D01*
X251163660Y-112600000D02*
X251163660Y-115119000D01*
X251126660Y-112500000D02*
X254426660Y-112500000D01*
X188266123Y-109100298D02*
X191566123Y-109100298D01*
X191566123Y-109100298D02*
X191566123Y-98100298D01*
X188303123Y-106481298D02*
X188303123Y-109100298D01*
X188303123Y-105481298D02*
X188303123Y-105719298D01*
X188303123Y-104481298D02*
X188303123Y-104719298D01*
X188303123Y-103481298D02*
X188303123Y-103719298D01*
X188303123Y-102481298D02*
X188303123Y-102719298D01*
X188303123Y-101481298D02*
X188303123Y-101719298D01*
X188303123Y-98200298D02*
X188303123Y-100719298D01*
X188266123Y-98100298D02*
X191566123Y-98100298D01*
D15*
X188957438Y-87335038D02*
X189173110Y-87335038D01*
X188957438Y-88055038D02*
X189173110Y-88055038D01*
X188107836Y-67860000D02*
X187892164Y-67860000D01*
X188107836Y-67140000D02*
X187892164Y-67140000D01*
X175683123Y-83346359D02*
X175683123Y-83653641D01*
X174923123Y-83346359D02*
X174923123Y-83653641D01*
X245522516Y-110160840D02*
X245522516Y-109651392D01*
X246567516Y-110160840D02*
X246567516Y-109651392D01*
X189202432Y-85450061D02*
X188895150Y-85450061D01*
X189202432Y-84690061D02*
X188895150Y-84690061D01*
X188886982Y-83361093D02*
X189194264Y-83361093D01*
X188886982Y-84121093D02*
X189194264Y-84121093D01*
X168153641Y-76380000D02*
X167846359Y-76380000D01*
X168153641Y-75620000D02*
X167846359Y-75620000D01*
X188860000Y-89872164D02*
X188860000Y-90087836D01*
X188140000Y-89872164D02*
X188140000Y-90087836D01*
X185860000Y-87892164D02*
X185860000Y-88107836D01*
X185140000Y-87892164D02*
X185140000Y-88107836D01*
X152543123Y-97431093D02*
X152543123Y-100451093D01*
X152543123Y-100451093D02*
X156928123Y-100451093D01*
X156928123Y-97431093D02*
X152543123Y-97431093D01*
X170303123Y-80791093D02*
X170303123Y-84091093D01*
X170303123Y-84091093D02*
X174303123Y-84091093D01*
X181673507Y-77637286D02*
X181673507Y-77421614D01*
X182393507Y-77637286D02*
X182393507Y-77421614D01*
X207564375Y-78676093D02*
X207041871Y-78676093D01*
X207564375Y-77206093D02*
X207041871Y-77206093D01*
X207993467Y-72930045D02*
G75*
G03*
X207993467Y-72930045I-1251000J0D01*
G01*
X227065882Y-99914883D02*
X227065882Y-99622349D01*
X228085882Y-99914883D02*
X228085882Y-99622349D01*
X184090900Y-77648514D02*
X184090900Y-77432842D01*
X184810900Y-77648514D02*
X184810900Y-77432842D01*
X188950322Y-86005727D02*
X189165994Y-86005727D01*
X188950322Y-86725727D02*
X189165994Y-86725727D01*
X190360000Y-90892164D02*
X190360000Y-91107836D01*
X189640000Y-90892164D02*
X189640000Y-91107836D01*
X242253660Y-113418700D02*
X243928660Y-113418700D01*
X242253660Y-113418700D02*
X241603660Y-113418700D01*
X242253660Y-110298700D02*
X242903660Y-110298700D01*
X242253660Y-110298700D02*
X241603660Y-110298700D01*
X191860000Y-90892164D02*
X191860000Y-91107836D01*
X191140000Y-90892164D02*
X191140000Y-91107836D01*
X243733947Y-107759849D02*
X243733947Y-108052383D01*
X242713947Y-107759849D02*
X242713947Y-108052383D01*
X223783947Y-112906116D02*
X223783947Y-109456116D01*
X223783947Y-112906116D02*
X223783947Y-114856116D01*
X218663947Y-112906116D02*
X218663947Y-110956116D01*
X218663947Y-112906116D02*
X218663947Y-114856116D01*
X151653123Y-98831093D02*
X149953123Y-98831093D01*
X151653123Y-98831093D02*
X151653123Y-101491093D01*
X149953123Y-98831093D02*
X149953123Y-101491093D01*
X189892164Y-81943593D02*
X190107836Y-81943593D01*
X189892164Y-82663593D02*
X190107836Y-82663593D01*
D16*
X159130800Y-107369772D02*
X159130800Y-103305772D01*
X159130800Y-103305772D02*
X148869200Y-103305772D01*
X148869200Y-107369772D02*
X159130800Y-107369772D01*
X148869200Y-103305772D02*
X148869200Y-107369772D01*
D15*
X189140000Y-80107836D02*
X189140000Y-79892164D01*
X189860000Y-80107836D02*
X189860000Y-79892164D01*
X193403123Y-77491093D02*
X193403123Y-79091093D01*
X195203123Y-79091093D02*
X195203123Y-77191093D01*
X174943123Y-81548929D02*
X174943123Y-81333257D01*
X175663123Y-81548929D02*
X175663123Y-81333257D01*
X187360000Y-87872164D02*
X187360000Y-88087836D01*
X186640000Y-87872164D02*
X186640000Y-88087836D01*
X200453123Y-89551093D02*
X202153123Y-89551093D01*
X200453123Y-89551093D02*
X200453123Y-86891093D01*
X202153123Y-89551093D02*
X202153123Y-86891093D01*
X178493123Y-79131093D02*
X179143123Y-79131093D01*
X185713123Y-79781093D02*
X185713123Y-79131093D01*
X178493123Y-79781093D02*
X178493123Y-79131093D01*
X185713123Y-85701093D02*
X185713123Y-86351093D01*
X178493123Y-85701093D02*
X178493123Y-86351093D01*
X185713123Y-86351093D02*
X185063123Y-86351093D01*
X178493123Y-86351093D02*
X179143123Y-86351093D01*
X204091871Y-86706093D02*
X204614375Y-86706093D01*
X204091871Y-88176093D02*
X204614375Y-88176093D01*
X193360000Y-91872164D02*
X193360000Y-92087836D01*
X192640000Y-91872164D02*
X192640000Y-92087836D01*
X230951755Y-99108581D02*
X230442307Y-99108581D01*
X230951755Y-98063581D02*
X230442307Y-98063581D01*
X224494817Y-119858672D02*
X224494817Y-103858672D01*
X240494817Y-103858672D02*
X224494817Y-103858672D01*
X240494817Y-103858672D02*
X240494817Y-119858672D01*
X240494817Y-119858672D02*
X224494817Y-119858672D01*
X234136660Y-102100000D02*
X234136660Y-100425000D01*
X234136660Y-102100000D02*
X234136660Y-102750000D01*
X231016660Y-102100000D02*
X231016660Y-101450000D01*
X231016660Y-102100000D02*
X231016660Y-102750000D01*
D17*
X167050000Y-82555000D02*
X167050000Y-80195000D01*
X162250000Y-83925000D02*
X166750000Y-83925000D01*
X162250000Y-78825000D02*
X166750000Y-78825000D01*
X161950000Y-80195000D02*
X161950000Y-82555000D01*
D11*
X168850000Y-83250000D02*
G75*
G03*
X168850000Y-83250000I-100000J0D01*
G01*
D15*
X172195287Y-84581093D02*
X172410959Y-84581093D01*
X172195287Y-85301093D02*
X172410959Y-85301093D01*
X204713123Y-77341093D02*
X204713123Y-83351093D01*
X197893123Y-79591093D02*
X197893123Y-83351093D01*
X204713123Y-83351093D02*
X203453123Y-83351093D01*
X197893123Y-83351093D02*
X199153123Y-83351093D01*
X192548399Y-66418593D02*
X193057847Y-66418593D01*
X192548399Y-67463593D02*
X193057847Y-67463593D01*
X178860000Y-88372164D02*
X178860000Y-88587836D01*
X178140000Y-88372164D02*
X178140000Y-88587836D01*
%LPC*%
D18*
X250663660Y-120500000D03*
X250663660Y-119500000D03*
X250663660Y-118500000D03*
X250663660Y-117500000D03*
X250663660Y-116500000D03*
X250663660Y-115500000D03*
D19*
X252112660Y-113206000D03*
X252112660Y-122794000D03*
D18*
X187803123Y-106100298D03*
X187803123Y-105100298D03*
X187803123Y-104100298D03*
X187803123Y-103100298D03*
X187803123Y-102100298D03*
X187803123Y-101100298D03*
D19*
X189252123Y-98806298D03*
X189252123Y-108394298D03*
D20*
X188585274Y-87695038D03*
X189545274Y-87695038D03*
D21*
X215880944Y-72600298D03*
D22*
X188480000Y-67500000D03*
X187520000Y-67500000D03*
D23*
X237335204Y-111950150D03*
D24*
X242005369Y-129643080D03*
D25*
X211000000Y-117730000D03*
X208969150Y-117730000D03*
X211000000Y-119000000D03*
X208969150Y-119000000D03*
X211000000Y-120270000D03*
X208969150Y-120270000D03*
D23*
X227637899Y-111894864D03*
D26*
X175303123Y-82990000D03*
X175303123Y-84010000D03*
D21*
X175200000Y-72500000D03*
D24*
X165113002Y-91000000D03*
D27*
X246045016Y-110818616D03*
X246045016Y-108993616D03*
D28*
X189558791Y-85070061D03*
X188538791Y-85070061D03*
D29*
X188530623Y-83741093D03*
X189550623Y-83741093D03*
D28*
X168510000Y-76000000D03*
X167490000Y-76000000D03*
D30*
X188500000Y-89500000D03*
X188500000Y-90460000D03*
X185500000Y-87520000D03*
X185500000Y-88480000D03*
D31*
X197040472Y-71941093D03*
X196240472Y-73841093D03*
X195440472Y-71941093D03*
X194640472Y-73841093D03*
X193840472Y-71941093D03*
D32*
X191790472Y-72891093D03*
X199090472Y-72891093D03*
D25*
X211030850Y-110730000D03*
X209000000Y-110730000D03*
X211030850Y-112000000D03*
X209000000Y-112000000D03*
X211030850Y-113270000D03*
X209000000Y-113270000D03*
D33*
X153553123Y-98941093D03*
X156803123Y-98941093D03*
D34*
X161250000Y-114750000D03*
X161250000Y-116350000D03*
X161250000Y-117950000D03*
D35*
X171203123Y-83291093D03*
X173403123Y-83291093D03*
X173403123Y-81591093D03*
X171203123Y-81591093D03*
D36*
X182033507Y-78009450D03*
X182033507Y-77049450D03*
D37*
X208253123Y-77941093D03*
X206353123Y-77941093D03*
D38*
X206742467Y-72930045D03*
D39*
X215500000Y-111900638D03*
D40*
X227575882Y-100631116D03*
X227575882Y-98906116D03*
D36*
X184450900Y-78020678D03*
X184450900Y-77060678D03*
D20*
X188578158Y-86365727D03*
X189538158Y-86365727D03*
D41*
X182632200Y-70395000D03*
X182632200Y-71665000D03*
X182632200Y-72935000D03*
X182632200Y-74205000D03*
X188367800Y-74205000D03*
X188367800Y-72935000D03*
X188367800Y-71665000D03*
X188367800Y-70395000D03*
D42*
X185500000Y-72300000D03*
D30*
X190000000Y-90520000D03*
X190000000Y-91480000D03*
D43*
X243191160Y-112808700D03*
X243191160Y-110908700D03*
X241316160Y-111858700D03*
D30*
X191500000Y-90520000D03*
X191500000Y-91480000D03*
D44*
X243223947Y-107043616D03*
X243223947Y-108768616D03*
D45*
X223128947Y-110431116D03*
X221858947Y-110431116D03*
X220588947Y-110431116D03*
X219318947Y-110431116D03*
X219318947Y-115381116D03*
X220588947Y-115381116D03*
X221858947Y-115381116D03*
X223128947Y-115381116D03*
D46*
X150803123Y-99391093D03*
X150803123Y-101491093D03*
D20*
X189520000Y-82303593D03*
X190480000Y-82303593D03*
D47*
X156500000Y-105642772D03*
X154000000Y-105642772D03*
X151500000Y-105642772D03*
D36*
X189500000Y-80480000D03*
X189500000Y-79520000D03*
D48*
X194840623Y-77441093D03*
D49*
X194303123Y-77366093D03*
D48*
X193765623Y-77441093D03*
X193765623Y-79141093D03*
D49*
X194303123Y-79216093D03*
D48*
X194840623Y-79141093D03*
D36*
X175303123Y-81921093D03*
X175303123Y-80961093D03*
D30*
X187000000Y-87500000D03*
X187000000Y-88460000D03*
D50*
X201303123Y-88991093D03*
X201303123Y-86891093D03*
D51*
X184703123Y-79303593D03*
X184303123Y-79303593D03*
X183903123Y-79303593D03*
X183503123Y-79303593D03*
X183103123Y-79303593D03*
X182703123Y-79303593D03*
X182303123Y-79303593D03*
X181903123Y-79303593D03*
X181503123Y-79303593D03*
X181103123Y-79303593D03*
X180703123Y-79303593D03*
X180303123Y-79303593D03*
X179903123Y-79303593D03*
X179503123Y-79303593D03*
D52*
X178665623Y-80141093D03*
X178665623Y-80541093D03*
X178665623Y-80941093D03*
X178665623Y-81341093D03*
X178665623Y-81741093D03*
X178665623Y-82141093D03*
X178665623Y-82541093D03*
X178665623Y-82941093D03*
X178665623Y-83341093D03*
X178665623Y-83741093D03*
X178665623Y-84141093D03*
X178665623Y-84541093D03*
X178665623Y-84941093D03*
X178665623Y-85341093D03*
D51*
X179503123Y-86178593D03*
X179903123Y-86178593D03*
X180303123Y-86178593D03*
X180703123Y-86178593D03*
X181103123Y-86178593D03*
X181503123Y-86178593D03*
X181903123Y-86178593D03*
X182303123Y-86178593D03*
X182703123Y-86178593D03*
X183103123Y-86178593D03*
X183503123Y-86178593D03*
X183903123Y-86178593D03*
X184303123Y-86178593D03*
X184703123Y-86178593D03*
D52*
X185540623Y-85341093D03*
X185540623Y-84941093D03*
X185540623Y-84541093D03*
X185540623Y-84141093D03*
X185540623Y-83741093D03*
X185540623Y-83341093D03*
X185540623Y-82941093D03*
X185540623Y-82541093D03*
X185540623Y-82141093D03*
X185540623Y-81741093D03*
X185540623Y-81341093D03*
X185540623Y-80941093D03*
X185540623Y-80541093D03*
X185540623Y-80141093D03*
D53*
X183403123Y-81441093D03*
X182103123Y-81441093D03*
X180803123Y-81441093D03*
X183403123Y-82741093D03*
X182103123Y-82741093D03*
D54*
X182103123Y-82741093D03*
D53*
X180803123Y-82741093D03*
X183403123Y-84041093D03*
X182103123Y-84041093D03*
X180803123Y-84041093D03*
D34*
X207803123Y-80500298D03*
X207803123Y-82100298D03*
X207803123Y-83700298D03*
D24*
X176952177Y-100296410D03*
D55*
X203403123Y-87441093D03*
X205303123Y-87441093D03*
D30*
X193000000Y-91500000D03*
X193000000Y-92460000D03*
D56*
X231609531Y-98586081D03*
X229784531Y-98586081D03*
D24*
X224744817Y-105208672D03*
X224744817Y-118508672D03*
D57*
X229244817Y-120108672D03*
X229244817Y-124608672D03*
X235744817Y-120108672D03*
X235744817Y-124608672D03*
D24*
X240244817Y-105208672D03*
X240244817Y-118508672D03*
D58*
X233526660Y-101162500D03*
X231626660Y-101162500D03*
X232576660Y-103037500D03*
D39*
X249050255Y-111861034D03*
D59*
X167500000Y-83250000D03*
X161500000Y-83250000D03*
X167500000Y-79500000D03*
X161500000Y-79500000D03*
D20*
X171823123Y-84941093D03*
X172783123Y-84941093D03*
D60*
X203603123Y-78291093D03*
X201303123Y-78291093D03*
D61*
X201303123Y-84591093D03*
D60*
X199003123Y-78291093D03*
D62*
X191890623Y-66941093D03*
X193715623Y-66941093D03*
D30*
X178500000Y-88000000D03*
X178500000Y-88960000D03*
%LPD*%
M02*
