M48
; DRILL file {KiCad 7.0.5-7.0.5~ubuntu20.04.1} date Wed 07 Jun 2023 06:16:20 AM CDT
; FORMAT={-:-/ absolute / metric / decimal}
; #@! TF.CreationDate,2023-06-07T06:16:20-05:00
; #@! TF.GenerationSoftware,Kicad,Pcbnew,7.0.5-7.0.5~ubuntu20.04.1
; #@! TF.FileFunction,Plated,1,2,PTH
FMAT,2
METRIC
; #@! TA.AperFunction,Plated,PTH,ComponentDrill
T1C0.350
; #@! TA.AperFunction,Plated,PTH,ViaDrill
T2C0.400
; #@! TA.AperFunction,Plated,PTH,ComponentDrill
T3C0.550
; #@! TA.AperFunction,Plated,PTH,ComponentDrill
T4C0.800
; #@! TA.AperFunction,Plated,PTH,ComponentDrill
T5C0.889
; #@! TA.AperFunction,Plated,PTH,ComponentDrill
T6C1.000
; #@! TA.AperFunction,Plated,PTH,ComponentDrill
T7C1.500
%
G90
G05
T1
X180.803Y-81.441
X180.803Y-82.741
X180.803Y-84.041
X182.103Y-81.441
X182.103Y-82.741
X182.103Y-84.041
X183.403Y-81.441
X183.403Y-82.741
X183.403Y-84.041
T2
X157.829Y-82.361
X159.0Y-97.5
X159.0Y-100.0
X162.0Y-86.0
X169.5Y-81.5
X169.5Y-90.0
X176.5Y-79.5
X176.5Y-80.5
X176.5Y-81.5
X177.0Y-85.5
X177.0Y-86.5
X177.5Y-77.0
X178.5Y-77.0
X178.5Y-78.0
X178.5Y-86.5
X179.5Y-77.0
X179.831Y-84.5
X180.0Y-105.5
X180.2Y-95.5
X180.5Y-77.0
X183.0Y-104.5
X183.306Y-77.054
X185.5Y-67.5
X185.5Y-72.3
X185.5Y-89.5
X185.5Y-118.0
X187.0Y-89.5
X187.0Y-115.0
X188.5Y-91.5
X190.0Y-67.5
X190.0Y-104.5
X190.0Y-126.0
X190.5Y-79.5
X190.676Y-86.357
X190.696Y-87.695
X191.0Y-112.5
X191.5Y-93.0
X192.0Y-82.0
X193.0Y-68.5
X194.303Y-75.441
X194.5Y-101.0
X195.75Y-67.5
X221.451Y-112.866
X229.224Y-101.906
X241.678Y-108.769
X249.224Y-114.906
T3
X193.84Y-71.941
X194.64Y-73.841
X195.44Y-71.941
X196.24Y-73.841
X197.04Y-71.941
T4
X161.25Y-114.75
X161.25Y-116.35
X161.25Y-117.95
X207.803Y-80.5
X207.803Y-82.1
X207.803Y-83.7
T5
X151.5Y-105.643
X154.0Y-105.643
X156.5Y-105.643
T6
X206.742Y-72.93
X229.245Y-120.109
X229.245Y-124.609
X235.745Y-120.109
X235.745Y-124.609
T7
X224.745Y-105.209
X224.745Y-118.509
X240.245Y-105.209
X240.245Y-118.509
T3
X191.79Y-73.466G85X191.79Y-72.316
G05
X199.09Y-73.466G85X199.09Y-72.316
G05
T0
M30
