G04 #@! TF.GenerationSoftware,KiCad,Pcbnew,7.0.5-7.0.5~ubuntu20.04.1*
G04 #@! TF.CreationDate,2023-06-07T06:16:17-05:00*
G04 #@! TF.ProjectId,Phobri64,50686f62-7269-4363-942e-6b696361645f,rev?*
G04 #@! TF.SameCoordinates,Original*
G04 #@! TF.FileFunction,Copper,L2,Bot*
G04 #@! TF.FilePolarity,Positive*
%FSLAX46Y46*%
G04 Gerber Fmt 4.6, Leading zero omitted, Abs format (unit mm)*
G04 Created by KiCad (PCBNEW 7.0.5-7.0.5~ubuntu20.04.1) date 2023-06-07 06:16:17*
%MOMM*%
%LPD*%
G01*
G04 APERTURE LIST*
G04 Aperture macros list*
%AMFreePoly0*
4,1,19,0.150000,0.259808,0.229813,0.192836,0.281908,0.102606,0.300000,0.000000,0.281908,-0.102606,0.229813,-0.192836,0.150000,-0.259808,0.052094,-0.295442,-0.052094,-0.295442,-0.150000,-0.259808,-0.229813,-0.192836,-0.281908,-0.102606,-0.300000,0.000000,-0.281908,0.102606,-0.229813,0.192836,-0.150000,0.259808,-0.052094,0.295442,0.052094,0.295442,0.150000,0.259808,0.150000,0.259808,
$1*%
%AMFreePoly1*
4,1,272,0.463220,5.466884,0.764853,5.390625,1.054735,5.277635,1.328411,5.129651,1.581676,4.948945,1.810640,4.738295,2.011784,4.500937,2.182018,4.240518,2.318727,3.961038,2.419809,3.666793,2.483712,3.362302,2.509454,3.052246,2.496640,2.741386,2.445465,2.434500,2.356718,2.136302,2.231760,1.851375,2.072513,1.584096,1.897433,1.359144,2.120735,1.135842,2.173685,1.192845,
2.362144,1.448408,2.520541,1.723617,2.646849,2.014951,2.739455,2.318683,2.797172,2.630930,2.819263,2.947697,2.805445,3.264932,2.755896,3.578579,2.671248,3.884625,2.552584,4.179155,2.477070,4.318815,2.456164,4.386447,2.462731,4.456932,2.495771,4.519538,2.550254,4.564735,2.617886,4.585641,2.688371,4.579074,2.750977,4.546034,2.796173,4.491551,2.943168,4.180798,
3.055605,3.855940,3.132159,3.520807,3.171929,3.179350,3.174445,2.835594,3.139678,2.493591,3.068037,2.157374,2.960367,1.830905,2.817937,1.518034,2.642427,1.222448,2.435905,0.947633,2.200806,0.696828,1.939902,0.472990,1.656268,0.278757,1.353248,0.116420,1.034414,-0.012109,0.703525,-0.105313,0.364481,-0.162094,0.021280,-0.181783,-0.322033,-0.164147,-0.661410,-0.109395,
-0.992850,-0.018172,-1.312448,0.108447,-1.616433,0.268969,-1.901224,0.461502,-1.948202,0.514457,-1.971340,0.581359,-1.967113,0.652022,-1.936167,0.715689,-1.883212,0.762667,-1.816310,0.785805,-1.745647,0.781578,-1.681980,0.750632,-1.555425,0.654762,-1.282360,0.492697,-0.992742,0.362501,-0.690276,0.265840,-0.378830,0.203950,-0.062387,0.177623,0.255005,0.187194,0.569287,0.232543,
0.876438,0.313088,1.172529,0.427800,1.453775,0.575211,1.716578,0.753436,1.863734,0.879687,1.640855,1.102566,1.415899,0.927483,1.148620,0.768236,0.863692,0.643279,0.565495,0.554532,0.258608,0.503358,-0.052251,0.490544,-0.362308,0.516286,-0.666798,0.580190,-0.961044,0.681273,-1.240523,0.817981,-1.500942,0.988216,-1.738300,1.189361,-1.948950,1.418325,-2.129655,1.671591,
-2.277639,1.945267,-2.390628,2.235148,-2.466887,2.536782,-2.505242,2.845532,-2.505107,3.156656,-2.466481,3.465372,-2.389959,3.766939,-2.276716,4.056722,-2.128494,4.330269,-2.086847,4.369098,-2.031365,4.381903,-1.976914,4.365251,-1.938085,4.323604,-1.925280,4.268122,-1.941932,4.213671,-2.020569,4.087664,-2.144147,3.817526,-2.231792,3.533687,-2.282035,3.240904,-2.294034,2.944083,
-2.267588,2.648200,-2.203140,2.358213,-2.101771,2.078980,-1.965179,1.815183,-1.795653,1.571242,-1.596035,1.351245,-1.369669,1.158879,-1.120349,0.997368,-0.852254,0.869418,-0.569876,0.777173,-0.277948,0.722180,0.018638,0.705361,0.314912,0.726996,0.605908,0.786724,0.886750,0.883543,1.152731,1.015832,1.399395,1.181372,1.485997,1.257424,0.929098,1.814323,0.788544,1.712252,
0.577079,1.604623,0.351364,1.531449,0.116972,1.494538,-0.120308,1.494801,-0.354617,1.532232,-0.580169,1.605905,-0.791396,1.714002,-0.983081,1.853855,-1.150491,2.022008,-1.289492,2.214311,-1.396652,2.426014,-1.469325,2.651891,-1.505717,2.886364,-1.504928,3.123642,-1.466979,3.357868,-1.392807,3.583257,-1.357969,3.628296,-1.305279,3.649882,-1.248855,3.642231,-1.203816,3.607393,
-1.182230,3.554703,-1.189881,3.498279,-1.232733,3.395629,-1.282265,3.178744,-1.293935,2.956580,-1.267398,2.735699,-1.203438,2.522621,-1.103943,2.323640,-0.971851,2.144630,-0.811063,1.990877,-0.626326,1.866921,-0.423095,1.776422,-0.207371,1.722053,0.014476,1.705418,0.235895,1.727009,0.450349,1.786189,0.651506,1.881209,0.775166,1.968255,0.094184,2.649237,0.000000,2.634320,
-0.113001,2.652218,-0.214941,2.704159,-0.295841,2.785059,-0.347782,2.886999,-0.365680,3.000000,-0.347782,3.113001,-0.295841,3.214941,-0.214941,3.295841,-0.113001,3.347782,0.000000,3.365680,0.113001,3.347782,0.214941,3.295841,0.295841,3.214941,0.347782,3.113001,0.365680,3.000000,0.350762,2.905815,1.031744,2.224833,1.118791,2.348494,1.213811,2.549651,1.272991,2.764105,
1.294582,2.985524,1.277947,3.207371,1.223578,3.423095,1.133079,3.626326,1.009123,3.811063,0.855370,3.971851,0.676360,4.103943,0.477379,4.203438,0.264301,4.267398,0.043420,4.293935,-0.178744,4.282265,-0.395629,4.232733,-0.498279,4.189881,-0.554703,4.182230,-0.607393,4.203816,-0.642231,4.248855,-0.649882,4.305279,-0.628296,4.357969,-0.583257,4.392806,-0.357868,4.466979,
-0.123642,4.504928,0.113636,4.505717,0.348109,4.469325,0.573986,4.396652,0.785689,4.289492,0.977992,4.150491,1.146145,3.983081,1.285998,3.791396,1.394095,3.580169,1.467768,3.354617,1.505199,3.120308,1.505462,2.883028,1.468551,2.648636,1.395377,2.422921,1.287748,2.211456,1.185676,2.070901,1.742575,1.514002,1.818624,1.600601,1.984165,1.847264,2.116453,2.113245,
2.213273,2.394087,2.273001,2.685083,2.294637,2.981356,2.277818,3.277943,2.222826,3.569871,2.130582,3.852249,2.002632,4.120344,1.841121,4.369664,1.648755,4.596030,1.428758,4.795649,1.184817,4.965175,0.921021,5.101768,0.641789,5.203137,0.351801,5.267585,0.055918,5.294032,-0.240902,5.282033,-0.533685,5.231791,-0.817524,5.144146,-1.087663,5.020569,-1.213670,4.941932,
-1.268121,4.925280,-1.323603,4.938085,-1.365250,4.976914,-1.381902,5.031365,-1.369097,5.086847,-1.330267,5.128493,-1.056720,5.276716,-0.766937,5.389958,-0.465371,5.466480,-0.156654,5.505105,0.154470,5.505240,0.463220,5.466884,0.463220,5.466884,$1*%
%AMFreePoly2*
4,1,230,0.333048,0.159825,0.675342,0.104060,1.009527,0.011350,1.331628,-0.117202,1.637814,-0.280067,1.924443,-0.475306,1.971222,-0.528437,1.994109,-0.595425,1.989618,-0.666072,1.958434,-0.729623,1.905303,-0.776402,1.838315,-0.799289,1.767668,-0.794798,1.704117,-0.763614,1.576801,-0.666261,1.301682,-0.501771,1.009682,-0.369546,0.704569,-0.271294,0.390281,-0.208281,0.070874,-0.181321,
-0.249529,-0.190762,-0.566794,-0.236483,-0.876826,-0.317893,-1.175624,-0.433941,-1.459332,-0.583130,-1.724288,-0.763535,-1.861932,-0.882191,-1.285829,-1.458293,-1.095618,-1.314853,-0.851072,-1.179073,-0.590045,-1.078556,-0.317591,-1.015249,-0.038987,-0.990378,0.240372,-1.004425,0.515077,-1.057117,0.779806,-1.147434,1.029434,-1.273627,1.259127,-1.433252,1.464436,-1.623218,1.641385,-1.839847,
1.786548,-2.078942,1.897113,-2.335874,1.970939,-2.605668,2.006598,-2.883098,2.003397,-3.162792,1.961399,-3.439333,1.881418,-3.707366,1.765002,-3.961701,1.725746,-4.002946,1.671127,-4.019037,1.615780,-4.005663,1.574535,-3.966407,1.558444,-3.911788,1.571817,-3.856440,1.634610,-3.741158,1.725250,-3.494750,1.778971,-3.237756,1.794623,-2.975674,1.771872,-2.714112,1.711205,-2.458668,
1.613920,-2.214808,1.482098,-1.987750,1.318561,-1.782354,1.126807,-1.603014,0.910942,-1.453569,0.675582,-1.337215,0.425766,-1.256444,0.166839,-1.212983,-0.095658,-1.207763,-0.356109,-1.240895,-0.608939,-1.311670,-0.848738,-1.418574,-1.070375,-1.559319,-1.131785,-1.612337,-0.573715,-2.170406,-0.562144,-2.160898,-0.388774,-2.067824,-0.200648,-2.010132,-0.004905,-1.990013,0.191024,-2.008230,
0.379702,-2.064092,0.553968,-2.155478,0.707207,-2.278920,0.833602,-2.429732,0.928356,-2.602189,0.987872,-2.789747,1.009892,-2.985285,0.993580,-3.181381,0.969205,-3.232841,0.922366,-3.265218,0.865614,-3.269839,0.814154,-3.245464,0.781777,-3.198625,0.777155,-3.141872,0.792126,-3.059415,0.786959,-2.891884,0.746755,-2.729167,0.673303,-2.578508,0.569875,-2.446614,0.441074,-2.339359,
0.292636,-2.261517,0.131169,-2.216554,-0.036138,-2.206471,-0.201836,-2.231719,-0.358548,-2.291172,-0.499297,-2.382184,-0.506418,-2.389306,-0.508586,-2.401131,-0.562140,-2.469487,-0.606616,-2.489503,-0.617815,-2.500703,-0.708827,-2.641451,-0.768281,-2.798163,-0.793529,-2.963861,-0.783447,-3.131168,-0.738484,-3.292635,-0.660642,-3.441074,-0.553387,-3.569874,-0.421493,-3.673303,-0.270834,-3.746755,
-0.108117,-3.786959,0.059414,-3.792126,0.141872,-3.777156,0.198624,-3.781777,0.245463,-3.814154,0.269838,-3.865614,0.265217,-3.922366,0.232840,-3.969205,0.181380,-3.993579,-0.014716,-4.009892,-0.210254,-3.987872,-0.397812,-3.928355,-0.570269,-3.833601,-0.721081,-3.707206,-0.844523,-3.553967,-0.935909,-3.379701,-0.991770,-3.191023,-1.009987,-2.995094,-0.989868,-2.799351,-0.932176,-2.611225,
-0.839101,-2.437855,-0.830225,-2.427052,-1.388312,-1.868966,-1.440681,-1.929625,-1.581426,-2.151262,-1.688330,-2.391061,-1.759105,-2.643891,-1.792237,-2.904342,-1.787017,-3.166839,-1.743556,-3.425766,-1.662785,-3.675582,-1.546431,-3.910942,-1.396986,-4.126807,-1.217646,-4.318561,-1.012250,-4.482098,-0.785192,-4.613920,-0.541332,-4.711205,-0.285888,-4.771872,-0.024326,-4.794623,0.237756,-4.778971,
0.494750,-4.725250,0.741158,-4.634610,0.856441,-4.571818,0.911788,-4.558444,0.966407,-4.574535,1.005663,-4.615780,1.019037,-4.671127,1.002946,-4.725746,0.961701,-4.765002,0.707366,-4.881418,0.439333,-4.961399,0.162792,-5.003397,-0.116902,-5.006598,-0.394332,-4.970939,-0.664126,-4.897113,-0.921058,-4.786548,-1.160153,-4.641385,-1.376782,-4.464436,-1.566748,-4.259127,-1.726373,-4.029434,
-1.852566,-3.779806,-1.942883,-3.515077,-1.995575,-3.240372,-2.009622,-2.961013,-1.984751,-2.682409,-1.921444,-2.409955,-1.820927,-2.148928,-1.685147,-1.904382,-1.542309,-1.714969,-2.119457,-1.137822,-2.184553,-1.208305,-2.373922,-1.466930,-2.532736,-1.745364,-2.658945,-2.040015,-2.750920,-2.347078,-2.807474,-2.662592,-2.827879,-2.982485,-2.811869,-3.302627,-2.759652,-3.618888,-2.671901,-3.927186,
-2.549750,-4.223541,-2.472222,-4.363813,-2.450743,-4.431266,-2.456712,-4.501803,-2.489221,-4.564687,-2.543319,-4.610344,-2.610772,-4.631823,-2.681309,-4.625854,-2.744193,-4.593345,-2.789849,-4.539246,-2.940719,-4.226975,-3.056684,-3.900132,-3.136366,-3.562604,-3.178817,-3.218405,-3.183531,-2.871631,-3.150453,-2.526405,-3.079977,-2.186835,-2.972939,-1.856960,-2.830615,-1.540703,-2.654696,-1.241827,
-2.447275,-0.963886,-2.210819,-0.710186,-1.948142,-0.483746,-1.662367,-0.287259,-1.356894,-0.123061,-1.035356,0.006894,-0.701578,0.101059,-0.359531,0.158316,-0.013283,0.177982,0.333048,0.159825,0.333048,0.159825,$1*%
%AMFreePoly3*
4,1,89,0.155859,0.808056,0.162104,0.809230,0.459268,0.770875,0.465009,0.768154,0.471355,0.768519,0.761164,0.692439,0.766510,0.689005,0.772849,0.688555,1.050535,0.576004,1.055398,0.571913,1.061627,0.570656,1.322621,0.423483,1.326919,0.418805,1.332938,0.416760,1.572946,0.237390,1.576612,0.232197,1.582316,0.229400,1.797390,0.020782,1.800360,0.015164,1.805661,0.011659,
1.992258,-0.222774,1.994485,-0.228725,1.999293,-0.232881,2.154346,-0.489271,2.155793,-0.495459,2.160029,-0.500195,2.280987,-0.774325,2.281630,-0.780647,2.285225,-0.785887,2.370096,-1.073243,2.369944,-1.078844,2.372575,-1.083795,2.398547,-1.231359,2.395301,-1.254402,2.395301,-1.277666,2.391235,-1.283261,2.390271,-1.290110,2.374104,-1.306839,2.360427,-1.325666,2.353847,-1.327803,
2.349043,-1.332776,2.326134,-1.336808,2.304000,-1.344000,-2.304000,-1.344000,-2.326130,-1.336809,-2.349043,-1.332777,-2.353848,-1.327803,-2.360427,-1.325666,-2.374103,-1.306841,-2.390271,-1.290110,-2.391235,-1.283261,-2.395301,-1.277666,-2.395301,-1.254402,-2.398547,-1.231359,-2.372575,-1.083795,-2.369944,-1.078844,-2.370096,-1.073244,-2.285225,-0.785887,-2.281630,-0.780647,-2.280987,-0.774325,
-2.160029,-0.500195,-2.155793,-0.495458,-2.154346,-0.489271,-1.999292,-0.232880,-1.994485,-0.228725,-1.992258,-0.222774,-1.805660,0.011659,-1.800359,0.015164,-1.797389,0.020782,-1.582316,0.229401,-1.576611,0.232198,-1.572946,0.237390,-1.332937,0.416760,-1.326921,0.418804,-1.322621,0.423484,-1.061627,0.570656,-1.055398,0.571913,-1.050535,0.576004,-0.772849,0.688555,-0.766510,0.689005,
-0.761164,0.692439,-0.471355,0.768519,-0.465009,0.768154,-0.459268,0.770875,-0.162104,0.809230,-0.155859,0.808056,-0.149815,0.810020,0.149815,0.810020,0.155859,0.808056,0.155859,0.808056,$1*%
%AMFreePoly4*
4,1,89,2.326134,1.336808,2.349043,1.332776,2.353847,1.327803,2.360427,1.325666,2.374104,1.306839,2.390271,1.290110,2.391235,1.283261,2.395301,1.277666,2.395301,1.254402,2.398547,1.231359,2.372575,1.083795,2.369944,1.078844,2.370096,1.073243,2.285225,0.785887,2.281630,0.780647,2.280987,0.774325,2.160029,0.500195,2.155793,0.495459,2.154346,0.489271,1.999293,0.232881,
1.994485,0.228725,1.992258,0.222774,1.805661,-0.011659,1.800360,-0.015164,1.797390,-0.020782,1.582316,-0.229400,1.576612,-0.232197,1.572946,-0.237390,1.332938,-0.416760,1.326919,-0.418805,1.322621,-0.423483,1.061627,-0.570656,1.055398,-0.571913,1.050535,-0.576004,0.772849,-0.688555,0.766510,-0.689005,0.761164,-0.692439,0.471355,-0.768519,0.465009,-0.768154,0.459268,-0.770875,
0.162104,-0.809230,0.155859,-0.808056,0.149815,-0.810020,-0.149815,-0.810020,-0.155859,-0.808056,-0.162104,-0.809230,-0.459268,-0.770875,-0.465009,-0.768154,-0.471355,-0.768519,-0.761164,-0.692439,-0.766510,-0.689005,-0.772849,-0.688555,-1.050535,-0.576004,-1.055398,-0.571913,-1.061627,-0.570656,-1.322621,-0.423484,-1.326921,-0.418804,-1.332937,-0.416760,-1.572946,-0.237390,-1.576611,-0.232198,
-1.582316,-0.229401,-1.797389,-0.020782,-1.800359,-0.015164,-1.805660,-0.011659,-1.992258,0.222774,-1.994485,0.228725,-1.999292,0.232880,-2.154346,0.489271,-2.155793,0.495458,-2.160029,0.500195,-2.280987,0.774325,-2.281630,0.780647,-2.285225,0.785887,-2.370096,1.073244,-2.369944,1.078844,-2.372575,1.083795,-2.398547,1.231359,-2.395301,1.254402,-2.395301,1.277666,-2.391235,1.283261,
-2.390271,1.290110,-2.374103,1.306841,-2.360427,1.325666,-2.353848,1.327803,-2.349043,1.332777,-2.326130,1.336809,-2.304000,1.344000,2.304000,1.344000,2.326134,1.336808,2.326134,1.336808,$1*%
G04 Aperture macros list end*
G04 #@! TA.AperFunction,ComponentPad*
%ADD10C,1.000000*%
G04 #@! TD*
G04 #@! TA.AperFunction,ComponentPad*
%ADD11R,1.000000X2.000000*%
G04 #@! TD*
G04 #@! TA.AperFunction,ComponentPad*
%ADD12O,2.500000X1.250000*%
G04 #@! TD*
G04 #@! TA.AperFunction,ComponentPad*
%ADD13C,2.000000*%
G04 #@! TD*
G04 #@! TA.AperFunction,ComponentPad*
%ADD14C,1.397000*%
G04 #@! TD*
G04 #@! TA.AperFunction,ComponentPad*
%ADD15FreePoly0,270.000000*%
G04 #@! TD*
G04 #@! TA.AperFunction,ComponentPad*
%ADD16C,2.200000*%
G04 #@! TD*
G04 #@! TA.AperFunction,ComponentPad*
%ADD17C,1.500000*%
G04 #@! TD*
G04 #@! TA.AperFunction,SMDPad,CuDef*
%ADD18FreePoly1,90.000000*%
G04 #@! TD*
G04 #@! TA.AperFunction,SMDPad,CuDef*
%ADD19FreePoly2,90.000000*%
G04 #@! TD*
G04 #@! TA.AperFunction,SMDPad,CuDef*
%ADD20FreePoly3,90.000000*%
G04 #@! TD*
G04 #@! TA.AperFunction,SMDPad,CuDef*
%ADD21FreePoly4,90.000000*%
G04 #@! TD*
G04 #@! TA.AperFunction,SMDPad,CuDef*
%ADD22FreePoly3,270.000000*%
G04 #@! TD*
G04 #@! TA.AperFunction,SMDPad,CuDef*
%ADD23FreePoly4,270.000000*%
G04 #@! TD*
G04 #@! TA.AperFunction,ViaPad*
%ADD24C,0.800000*%
G04 #@! TD*
G04 #@! TA.AperFunction,Conductor*
%ADD25C,0.200000*%
G04 #@! TD*
G04 #@! TA.AperFunction,Conductor*
%ADD26C,0.300000*%
G04 #@! TD*
G04 #@! TA.AperFunction,Conductor*
%ADD27C,0.400000*%
G04 #@! TD*
G04 #@! TA.AperFunction,Conductor*
%ADD28C,0.150000*%
G04 #@! TD*
G04 APERTURE END LIST*
D10*
X197040472Y-71941093D03*
X196240472Y-73841093D03*
X195440472Y-71941093D03*
X194640472Y-73841093D03*
X193840472Y-71941093D03*
D11*
X191790472Y-72891093D03*
X199090472Y-72891093D03*
D12*
X161250000Y-114750000D03*
X161250000Y-116350000D03*
X161250000Y-117950000D03*
D13*
X206742467Y-72930045D03*
D14*
X156500000Y-105642772D03*
X154000000Y-105642772D03*
X151500000Y-105642772D03*
D15*
X183403123Y-81441093D03*
X182103123Y-81441093D03*
X180803123Y-81441093D03*
X183403123Y-82741093D03*
X182103123Y-82741093D03*
X180803123Y-82741093D03*
X183403123Y-84041093D03*
X182103123Y-84041093D03*
X180803123Y-84041093D03*
D12*
X207803123Y-80500298D03*
X207803123Y-82100298D03*
X207803123Y-83700298D03*
D16*
X224744817Y-105208672D03*
X224744817Y-118508672D03*
D17*
X229244817Y-120108672D03*
X229244817Y-124608672D03*
X235744817Y-120108672D03*
X235744817Y-124608672D03*
D16*
X240244817Y-105208672D03*
X240244817Y-118508672D03*
D18*
X168121550Y-99831866D03*
D19*
X162121550Y-99835510D03*
D18*
X180254410Y-111315094D03*
D19*
X174254410Y-111318738D03*
D18*
X190535216Y-100305628D03*
D19*
X184535216Y-100309272D03*
D20*
X194103823Y-112053741D03*
D21*
X197367823Y-112053741D03*
D18*
X168121550Y-83051403D03*
D19*
X162121550Y-83055047D03*
D22*
X197153921Y-88127808D03*
D23*
X193889921Y-88127808D03*
D18*
X177194204Y-91219093D03*
D19*
X171194204Y-91222737D03*
D20*
X200964575Y-118849433D03*
D21*
X204228575Y-118849433D03*
D18*
X158561237Y-91219093D03*
D19*
X152561237Y-91222737D03*
D20*
X194103823Y-125830684D03*
D21*
X197367823Y-125830684D03*
D20*
X187377858Y-118849433D03*
D21*
X190641858Y-118849433D03*
D24*
X178500000Y-86500000D03*
X179831188Y-84500000D03*
X188500000Y-91500000D03*
X195750000Y-67500000D03*
X191500000Y-93000000D03*
X185500000Y-89500000D03*
X169500000Y-90000000D03*
X185500000Y-67500000D03*
X190675907Y-86356757D03*
X159000000Y-97500000D03*
X190500000Y-79500000D03*
X194303123Y-75441093D03*
X187000000Y-89500000D03*
X192000000Y-82000000D03*
X190696400Y-87695038D03*
X176500000Y-81500000D03*
X185500000Y-72300000D03*
X159000000Y-100000000D03*
X169500000Y-81500000D03*
X162000000Y-86000000D03*
X194500000Y-101000000D03*
X183306354Y-77053831D03*
X229223947Y-101906116D03*
X241678414Y-108768616D03*
X249223947Y-114906116D03*
X221451136Y-112866254D03*
X193000000Y-68500000D03*
X190000000Y-67500000D03*
X178500000Y-78000000D03*
X157828753Y-82360717D03*
X183000000Y-104500000D03*
X190000000Y-104500000D03*
X180000000Y-105500000D03*
X180199500Y-95500000D03*
X180500000Y-77000000D03*
X176500000Y-80500000D03*
X177000000Y-85500000D03*
X177000000Y-86500000D03*
X176500000Y-79500000D03*
X191000000Y-112500000D03*
X190000000Y-126000000D03*
X187000000Y-115000000D03*
X185500000Y-118000000D03*
X178500000Y-77000000D03*
X179500000Y-77000000D03*
X177500000Y-77000000D03*
D25*
X179831188Y-85168812D02*
X179831188Y-84500000D01*
X178500000Y-86500000D02*
X179831188Y-85168812D01*
D26*
X193790472Y-74928442D02*
X193790472Y-71991093D01*
D25*
X158500000Y-97500000D02*
X159000000Y-97500000D01*
X161300000Y-118000000D02*
X161250000Y-117950000D01*
X162002311Y-100000000D02*
X162166801Y-99835510D01*
X152606488Y-95106488D02*
X153000000Y-95500000D01*
X153000000Y-95500000D02*
X156500000Y-95500000D01*
D26*
X194303123Y-75441093D02*
X193790472Y-74928442D01*
X152606488Y-91222737D02*
X152606488Y-95106488D01*
X193790472Y-71991093D02*
X193840472Y-71941093D01*
X169000000Y-118000000D02*
X161300000Y-118000000D01*
D27*
X162000000Y-86000000D02*
X165111754Y-86000000D01*
X170722737Y-91222737D02*
X169500000Y-90000000D01*
D26*
X192500000Y-89000000D02*
X192587411Y-89000000D01*
X174299661Y-111118738D02*
X169000000Y-116418399D01*
D27*
X171239455Y-91222737D02*
X170722737Y-91222737D01*
D25*
X184580467Y-100309272D02*
X184521195Y-100250000D01*
X156500000Y-95500000D02*
X158500000Y-97500000D01*
X159000000Y-100000000D02*
X162002311Y-100000000D01*
D26*
X169000000Y-116418399D02*
X169000000Y-118000000D01*
D25*
X159164490Y-99835510D02*
X159000000Y-100000000D01*
D26*
X184521195Y-100250000D02*
X182750000Y-100250000D01*
X193000000Y-68500000D02*
X191000000Y-68500000D01*
X191000000Y-68500000D02*
X190000000Y-67500000D01*
D27*
X163000000Y-77000000D02*
X174500000Y-77000000D01*
X174500000Y-77000000D02*
X175500000Y-78000000D01*
D26*
X157828753Y-82360717D02*
X157828753Y-82171247D01*
D27*
X175500000Y-78000000D02*
X178500000Y-78000000D01*
X157828753Y-82171247D02*
X163000000Y-77000000D01*
D28*
X183000000Y-104500000D02*
X190000000Y-104500000D01*
D25*
X180000000Y-105500000D02*
X180273654Y-105773654D01*
D27*
X180273654Y-105773654D02*
X180273654Y-111115094D01*
X192500000Y-96500000D02*
X192500000Y-98360088D01*
X180199500Y-95500000D02*
X191500000Y-95500000D01*
X192500000Y-98360088D02*
X190554460Y-100305628D01*
X191500000Y-95500000D02*
X192500000Y-96500000D01*
D28*
X191000000Y-76000000D02*
X181500000Y-76000000D01*
X191500000Y-76500000D02*
X191000000Y-76000000D01*
X198500000Y-80500000D02*
X198500000Y-87150985D01*
X198500000Y-87150985D02*
X197753287Y-87897698D01*
X196500000Y-78500000D02*
X198500000Y-80500000D01*
X180500000Y-77000000D02*
X181500000Y-76000000D01*
X191500000Y-77500000D02*
X191500000Y-76500000D01*
X192500000Y-78500000D02*
X196500000Y-78500000D01*
X191500000Y-77500000D02*
X192500000Y-78500000D01*
D26*
X169500000Y-79000000D02*
X168140794Y-80359206D01*
D25*
X176500000Y-80500000D02*
X175934314Y-80500000D01*
D27*
X168140794Y-80359206D02*
X168140794Y-83051403D01*
D25*
X174434314Y-79000000D02*
X169500000Y-79000000D01*
X175934314Y-80500000D02*
X174434314Y-79000000D01*
X175500000Y-85500000D02*
X174500000Y-86500000D01*
D27*
X168140794Y-89859206D02*
X168140794Y-99831866D01*
D26*
X170500000Y-87500000D02*
X168140794Y-89859206D01*
D25*
X174500000Y-86500000D02*
X173000000Y-86500000D01*
X177000000Y-85500000D02*
X175500000Y-85500000D01*
X172000000Y-87500000D02*
X170500000Y-87500000D01*
X173000000Y-86500000D02*
X172000000Y-87500000D01*
X177000000Y-86500000D02*
X177213448Y-86713448D01*
D27*
X177213448Y-86713448D02*
X177213448Y-91219093D01*
D25*
X176500000Y-79500000D02*
X175500000Y-79500000D01*
X175500000Y-79500000D02*
X174000000Y-78000000D01*
X164000000Y-78000000D02*
X160000000Y-82000000D01*
D27*
X160000000Y-89799574D02*
X158580481Y-91219093D01*
D26*
X160000000Y-82000000D02*
X160000000Y-89799574D01*
D25*
X174000000Y-78000000D02*
X164000000Y-78000000D01*
D27*
X193504457Y-112283851D02*
X191216149Y-112283851D01*
D25*
X191216149Y-112283851D02*
X191000000Y-112500000D01*
D27*
X193504457Y-126060794D02*
X190060794Y-126060794D01*
D25*
X190060794Y-126060794D02*
X190000000Y-126000000D01*
D27*
X200365209Y-119079543D02*
X194579543Y-119079543D01*
X190500000Y-115000000D02*
X187000000Y-115000000D01*
X194579543Y-119079543D02*
X190500000Y-115000000D01*
X186579543Y-119079543D02*
X185500000Y-118000000D01*
D25*
X186778492Y-119079543D02*
X186579543Y-119079543D01*
D28*
X198000000Y-77500000D02*
X201000298Y-80500298D01*
X201000298Y-80500298D02*
X207803123Y-80500298D01*
X194500000Y-77500000D02*
X198000000Y-77500000D01*
X180500000Y-75000000D02*
X192000000Y-75000000D01*
X192000000Y-75000000D02*
X194500000Y-77500000D01*
X178500000Y-77000000D02*
X180500000Y-75000000D01*
X200000000Y-81500000D02*
X200600298Y-82100298D01*
X193500000Y-78000000D02*
X197000000Y-78000000D01*
X179825000Y-76720405D02*
X181045405Y-75500000D01*
X181045405Y-75500000D02*
X191500000Y-75500000D01*
X191500000Y-75500000D02*
X193000000Y-77000000D01*
X179500000Y-77000000D02*
X179825000Y-77325000D01*
X193000000Y-77500000D02*
X193500000Y-78000000D01*
X200000000Y-81000000D02*
X200000000Y-81500000D01*
X200600298Y-82100298D02*
X207803123Y-82100298D01*
X179825000Y-77325000D02*
X179825000Y-76720405D01*
X193000000Y-77000000D02*
X193000000Y-77500000D01*
X197000000Y-78000000D02*
X200000000Y-81000000D01*
D25*
X177500000Y-77000000D02*
X179500000Y-75000000D01*
X203312422Y-69500000D02*
X206742467Y-72930045D01*
X179500000Y-75000000D02*
X179500000Y-70000000D01*
X179500000Y-70000000D02*
X180000000Y-69500000D01*
X180000000Y-69500000D02*
X203312422Y-69500000D01*
G04 #@! TA.AperFunction,Conductor*
G36*
X190773984Y-76603185D02*
G01*
X190794626Y-76619819D01*
X190880180Y-76705373D01*
X190913665Y-76766696D01*
X190916499Y-76793054D01*
X190916500Y-77457687D01*
X190915969Y-77465788D01*
X190911465Y-77499998D01*
X190911465Y-77500000D01*
X190916500Y-77538244D01*
X190931519Y-77652323D01*
X190931519Y-77652324D01*
X190990313Y-77794266D01*
X191077968Y-77908500D01*
X191083843Y-77916157D01*
X191111228Y-77937170D01*
X191117316Y-77942509D01*
X192057492Y-78882686D01*
X192062837Y-78888782D01*
X192083842Y-78916156D01*
X192083843Y-78916157D01*
X192111226Y-78937169D01*
X192205731Y-79009685D01*
X192205732Y-79009685D01*
X192205733Y-79009686D01*
X192347676Y-79068481D01*
X192482278Y-79086201D01*
X192499999Y-79088535D01*
X192500000Y-79088535D01*
X192500001Y-79088535D01*
X192513634Y-79086740D01*
X192534214Y-79084030D01*
X192542313Y-79083500D01*
X196206945Y-79083500D01*
X196273984Y-79103185D01*
X196294626Y-79119819D01*
X197880181Y-80705374D01*
X197913666Y-80766697D01*
X197916500Y-80793055D01*
X197916500Y-86051386D01*
X197896815Y-86118425D01*
X197844011Y-86164180D01*
X197774853Y-86174124D01*
X197711297Y-86145099D01*
X197703493Y-86137721D01*
X197538170Y-85967283D01*
X197532929Y-85961879D01*
X197532901Y-85961851D01*
X197523441Y-85952098D01*
X197523197Y-85951921D01*
X197522974Y-85951632D01*
X197521017Y-85950153D01*
X197518733Y-85948199D01*
X197519166Y-85947691D01*
X197516180Y-85944613D01*
X197498719Y-85930716D01*
X197498669Y-85930672D01*
X197485813Y-85920442D01*
X197286429Y-85761742D01*
X197286422Y-85761732D01*
X197239127Y-85724090D01*
X197239061Y-85724039D01*
X197228636Y-85715741D01*
X197228294Y-85715554D01*
X197228019Y-85715278D01*
X197225931Y-85714086D01*
X197223496Y-85712493D01*
X197223858Y-85711938D01*
X197220409Y-85709193D01*
X197184133Y-85687255D01*
X197148237Y-85665545D01*
X197148230Y-85665543D01*
X196905926Y-85519009D01*
X196905613Y-85518887D01*
X196905319Y-85518660D01*
X196903080Y-85517738D01*
X196900415Y-85516448D01*
X196900703Y-85515851D01*
X196896966Y-85513590D01*
X196877693Y-85505086D01*
X196877669Y-85505074D01*
X196856300Y-85495647D01*
X196560718Y-85365223D01*
X196560361Y-85365134D01*
X196560038Y-85364945D01*
X196557733Y-85364326D01*
X196554934Y-85363391D01*
X196555143Y-85362763D01*
X196551137Y-85360995D01*
X196530709Y-85354962D01*
X196530680Y-85354952D01*
X196503186Y-85346833D01*
X196222191Y-85263841D01*
X196211616Y-85260717D01*
X196211591Y-85260710D01*
X196193127Y-85255256D01*
X196124427Y-85243165D01*
X196061814Y-85212158D01*
X196025905Y-85152222D01*
X196022912Y-85128799D01*
X196021921Y-85127808D01*
X195021921Y-85127808D01*
X195021921Y-91127808D01*
X196021921Y-91127808D01*
X196024733Y-91124995D01*
X196041606Y-91067534D01*
X196094410Y-91021779D01*
X196124419Y-91012451D01*
X196149633Y-91008014D01*
X196149632Y-91008013D01*
X196154832Y-91007098D01*
X196164512Y-91005394D01*
X196164513Y-91005395D01*
X196174139Y-91003701D01*
X196174195Y-91003690D01*
X196174230Y-91003684D01*
X196193131Y-91000356D01*
X196211607Y-90994899D01*
X196211622Y-90994897D01*
X196221000Y-90992127D01*
X196220999Y-90992125D01*
X196235484Y-90987847D01*
X196235485Y-90987849D01*
X196504975Y-90908255D01*
X196504974Y-90908254D01*
X196505012Y-90908244D01*
X196528078Y-90901432D01*
X196528102Y-90901424D01*
X196528121Y-90901419D01*
X196528208Y-90901392D01*
X196541076Y-90897591D01*
X196541386Y-90897439D01*
X196541770Y-90897371D01*
X196544013Y-90896314D01*
X196546736Y-90895227D01*
X196546983Y-90895847D01*
X196551126Y-90894624D01*
X196571367Y-90885693D01*
X196571416Y-90885673D01*
X196573078Y-90884939D01*
X196573080Y-90884939D01*
X196581345Y-90881292D01*
X196581344Y-90881291D01*
X196604875Y-90870908D01*
X196852929Y-90761456D01*
X196852928Y-90761455D01*
X196866731Y-90755364D01*
X196866732Y-90755365D01*
X196874992Y-90751721D01*
X196875052Y-90751693D01*
X196887366Y-90746260D01*
X196887647Y-90746074D01*
X196888019Y-90745958D01*
X196890111Y-90744620D01*
X196892673Y-90743193D01*
X196892997Y-90743775D01*
X196896962Y-90742026D01*
X196917399Y-90729666D01*
X196917433Y-90729648D01*
X196917507Y-90729602D01*
X196917512Y-90729601D01*
X196925248Y-90724922D01*
X196925247Y-90724921D01*
X196934807Y-90719140D01*
X196938146Y-90717121D01*
X197179236Y-90571321D01*
X197179235Y-90571320D01*
X197192150Y-90563510D01*
X197192151Y-90563511D01*
X197199882Y-90558836D01*
X197199916Y-90558814D01*
X197200033Y-90558744D01*
X197200151Y-90558672D01*
X197211375Y-90551883D01*
X197211690Y-90551611D01*
X197212074Y-90551434D01*
X197213958Y-90549856D01*
X197216224Y-90548181D01*
X197216617Y-90548713D01*
X197220423Y-90546412D01*
X197239185Y-90531478D01*
X197239189Y-90531476D01*
X197246257Y-90525850D01*
X197246256Y-90525849D01*
X197258076Y-90516441D01*
X197258077Y-90516443D01*
X197478515Y-90340984D01*
X197490324Y-90331585D01*
X197497394Y-90325958D01*
X197497485Y-90325883D01*
X197507973Y-90317535D01*
X197508191Y-90317291D01*
X197508518Y-90317086D01*
X197510199Y-90315264D01*
X197512322Y-90313226D01*
X197512783Y-90313706D01*
X197516168Y-90311012D01*
X197531458Y-90295250D01*
X197531487Y-90295221D01*
X197532876Y-90293788D01*
X197532881Y-90293785D01*
X197539170Y-90287301D01*
X197539169Y-90287300D01*
X197549682Y-90276461D01*
X197549683Y-90276462D01*
X197745847Y-90074228D01*
X197745846Y-90074227D01*
X197756352Y-90063397D01*
X197756353Y-90063398D01*
X197762643Y-90056914D01*
X197762710Y-90056845D01*
X197762922Y-90056623D01*
X197772074Y-90047187D01*
X197772230Y-90046960D01*
X197772522Y-90046720D01*
X197773977Y-90044668D01*
X197775844Y-90042347D01*
X197776364Y-90042765D01*
X197779353Y-90039684D01*
X197793198Y-90021158D01*
X197793229Y-90021120D01*
X197793725Y-90020455D01*
X197793731Y-90020450D01*
X197799139Y-90013213D01*
X197799138Y-90013212D01*
X197808168Y-90001128D01*
X197808169Y-90001129D01*
X197976831Y-89775449D01*
X197976830Y-89775448D01*
X197985849Y-89763380D01*
X197985850Y-89763381D01*
X197991256Y-89756149D01*
X197991336Y-89756039D01*
X197999379Y-89745276D01*
X197999519Y-89745002D01*
X197999777Y-89744727D01*
X198000936Y-89742546D01*
X198002489Y-89740007D01*
X198003057Y-89740354D01*
X198005649Y-89736887D01*
X198017117Y-89716548D01*
X198017136Y-89716517D01*
X198017445Y-89715968D01*
X198017451Y-89715961D01*
X198021890Y-89708087D01*
X198021889Y-89708086D01*
X198026365Y-89700149D01*
X198029282Y-89694975D01*
X198029283Y-89694976D01*
X198167671Y-89449559D01*
X198167670Y-89449558D01*
X198175075Y-89436427D01*
X198179513Y-89428558D01*
X198179531Y-89428524D01*
X198186155Y-89416778D01*
X198186271Y-89416454D01*
X198186500Y-89416137D01*
X198187374Y-89413816D01*
X198188571Y-89411141D01*
X198189180Y-89411413D01*
X198191308Y-89407640D01*
X198199999Y-89386198D01*
X198200012Y-89386168D01*
X198200332Y-89385377D01*
X198200335Y-89385373D01*
X198203728Y-89377000D01*
X198206239Y-89370805D01*
X198209390Y-89363031D01*
X198315223Y-89101921D01*
X198315222Y-89101920D01*
X198329367Y-89067024D01*
X198329433Y-89066721D01*
X198329616Y-89066385D01*
X198330187Y-89063963D01*
X198331043Y-89061119D01*
X198331682Y-89061311D01*
X198333300Y-89057320D01*
X198339404Y-89034065D01*
X198339407Y-89034060D01*
X198341700Y-89025321D01*
X198345522Y-89010763D01*
X198417060Y-88738256D01*
X198417059Y-88738255D01*
X198420885Y-88723682D01*
X198420886Y-88723683D01*
X198423180Y-88714948D01*
X198423211Y-88714820D01*
X198426622Y-88701828D01*
X198426649Y-88701521D01*
X198426788Y-88701161D01*
X198427045Y-88698687D01*
X198427528Y-88695769D01*
X198428185Y-88695877D01*
X198429282Y-88691697D01*
X198432148Y-88669494D01*
X198432154Y-88669458D01*
X198433499Y-88659028D01*
X198435443Y-88643969D01*
X198471508Y-88364543D01*
X198471507Y-88364542D01*
X198473443Y-88349553D01*
X198474599Y-88340597D01*
X198474601Y-88340578D01*
X198474607Y-88340533D01*
X198474623Y-88340399D01*
X198476321Y-88327237D01*
X198476306Y-88326869D01*
X198476402Y-88326477D01*
X198476341Y-88324016D01*
X198476444Y-88321131D01*
X198477106Y-88321154D01*
X198477669Y-88316792D01*
X198477669Y-88292833D01*
X198477670Y-88292827D01*
X198477670Y-88283789D01*
X198477669Y-88283789D01*
X198477669Y-88268683D01*
X198477670Y-88268683D01*
X198477670Y-88049870D01*
X198497355Y-87982831D01*
X198513989Y-87962189D01*
X198597772Y-87878406D01*
X198882696Y-87593481D01*
X198888771Y-87588155D01*
X198916157Y-87567142D01*
X198933433Y-87544626D01*
X198933437Y-87544622D01*
X198939638Y-87536540D01*
X198939640Y-87536539D01*
X199009686Y-87445252D01*
X199068481Y-87303309D01*
X199088535Y-87150985D01*
X199084030Y-87116769D01*
X199083500Y-87108672D01*
X199083500Y-81208055D01*
X199103185Y-81141016D01*
X199155989Y-81095261D01*
X199225147Y-81085317D01*
X199288703Y-81114342D01*
X199295181Y-81120374D01*
X199380181Y-81205374D01*
X199413666Y-81266697D01*
X199416500Y-81293055D01*
X199416500Y-81457687D01*
X199415969Y-81465787D01*
X199411465Y-81500000D01*
X199416500Y-81538244D01*
X199427442Y-81621360D01*
X199431519Y-81652323D01*
X199431519Y-81652324D01*
X199490313Y-81794266D01*
X199558171Y-81882700D01*
X199583843Y-81916157D01*
X199611228Y-81937170D01*
X199617316Y-81942509D01*
X200157797Y-82482991D01*
X200163131Y-82489074D01*
X200184141Y-82516455D01*
X200201132Y-82529493D01*
X200211524Y-82537467D01*
X200306029Y-82609983D01*
X200306030Y-82609983D01*
X200306031Y-82609984D01*
X200447974Y-82668779D01*
X200582576Y-82686499D01*
X200600297Y-82688833D01*
X200600298Y-82688833D01*
X200600299Y-82688833D01*
X200613932Y-82687038D01*
X200634512Y-82684328D01*
X200642611Y-82683798D01*
X206138183Y-82683798D01*
X206205222Y-82703483D01*
X206239190Y-82735871D01*
X206311650Y-82837627D01*
X206334503Y-82903654D01*
X206318030Y-82971554D01*
X206304357Y-82990756D01*
X206257552Y-83044771D01*
X206150132Y-83230829D01*
X206150131Y-83230831D01*
X206079863Y-83433857D01*
X206079862Y-83433864D01*
X206077499Y-83450298D01*
X207487437Y-83450298D01*
X207475482Y-83462253D01*
X207417958Y-83575150D01*
X207398137Y-83700298D01*
X207417958Y-83825446D01*
X207475482Y-83938343D01*
X207487437Y-83950298D01*
X206081141Y-83950298D01*
X206110161Y-84069919D01*
X206110161Y-84069921D01*
X206199415Y-84265361D01*
X206324033Y-84440362D01*
X206324039Y-84440368D01*
X206479534Y-84588633D01*
X206660268Y-84704783D01*
X206859732Y-84784636D01*
X207070699Y-84825298D01*
X207553123Y-84825298D01*
X207553123Y-84015984D01*
X207565078Y-84027939D01*
X207677975Y-84085463D01*
X207771642Y-84100298D01*
X207834604Y-84100298D01*
X207928271Y-84085463D01*
X208041168Y-84027939D01*
X208053123Y-84015983D01*
X208053123Y-84825298D01*
X208481714Y-84825298D01*
X208635638Y-84810599D01*
X208704245Y-84823821D01*
X208754813Y-84872036D01*
X208771286Y-84939936D01*
X208748434Y-85005963D01*
X208735563Y-85021260D01*
X208665631Y-85091924D01*
X208665601Y-85091956D01*
X208113999Y-85704225D01*
X207591682Y-86341679D01*
X207099835Y-87002866D01*
X207099813Y-87002897D01*
X206639452Y-87686454D01*
X206211645Y-88390797D01*
X206211644Y-88390799D01*
X205817301Y-89114429D01*
X205457287Y-89855759D01*
X205132412Y-90613121D01*
X205132411Y-90613123D01*
X204843388Y-91384854D01*
X204843381Y-91384874D01*
X204590821Y-92169341D01*
X204375294Y-92964777D01*
X204375290Y-92964797D01*
X204197291Y-93769368D01*
X204197273Y-93769459D01*
X204057167Y-94581484D01*
X204057162Y-94581519D01*
X203955248Y-95399297D01*
X203955247Y-95399308D01*
X203955247Y-95399310D01*
X203891859Y-96219709D01*
X203891760Y-96220987D01*
X203866844Y-97044694D01*
X203866844Y-97044696D01*
X203880549Y-97868688D01*
X203932846Y-98691105D01*
X203932847Y-98691125D01*
X203932849Y-98691143D01*
X203932852Y-98691170D01*
X204023626Y-99510246D01*
X204152677Y-100324154D01*
X204152678Y-100324158D01*
X204152681Y-100324175D01*
X204152682Y-100324178D01*
X204305131Y-101060639D01*
X204319736Y-101131191D01*
X204489789Y-101794428D01*
X204524413Y-101929464D01*
X204766271Y-102717283D01*
X204766276Y-102717297D01*
X204766287Y-102717332D01*
X205017264Y-103416283D01*
X205044777Y-103492905D01*
X205216878Y-103909680D01*
X205359317Y-104254623D01*
X205359324Y-104254640D01*
X205575023Y-104714625D01*
X205709205Y-105000773D01*
X205709216Y-105000794D01*
X205709222Y-105000806D01*
X206093655Y-105729685D01*
X206093685Y-105729738D01*
X206511857Y-106439817D01*
X206707904Y-106739639D01*
X206961301Y-107127170D01*
X206962878Y-107129581D01*
X207445681Y-107797399D01*
X207445687Y-107797407D01*
X207445699Y-107797423D01*
X207959291Y-108441922D01*
X207959297Y-108441929D01*
X207959298Y-108441930D01*
X208502512Y-109061643D01*
X208591827Y-109154382D01*
X208630380Y-109194414D01*
X208697582Y-109264192D01*
X208729908Y-109326134D01*
X208732267Y-109350208D01*
X208732268Y-109454237D01*
X208732268Y-109545762D01*
X208736261Y-109554054D01*
X208745428Y-109580253D01*
X208747478Y-109589231D01*
X208747479Y-109589233D01*
X208747480Y-109589234D01*
X208753217Y-109596428D01*
X208767986Y-109619931D01*
X208771979Y-109628223D01*
X208771980Y-109628224D01*
X208779174Y-109633961D01*
X208798806Y-109653593D01*
X208804544Y-109660788D01*
X208812833Y-109664779D01*
X208836338Y-109679549D01*
X208843537Y-109685290D01*
X208852511Y-109687338D01*
X208878712Y-109696506D01*
X208887005Y-109700500D01*
X208900626Y-109703609D01*
X208899744Y-109707472D01*
X208943039Y-109720185D01*
X208988794Y-109772989D01*
X209000000Y-109824500D01*
X209000000Y-109971359D01*
X208980315Y-110038398D01*
X208927511Y-110084153D01*
X208891544Y-110094381D01*
X208838520Y-110101080D01*
X208838518Y-110101080D01*
X208687189Y-110160996D01*
X208687180Y-110161001D01*
X208555511Y-110256663D01*
X208555509Y-110256665D01*
X208451759Y-110382079D01*
X208382459Y-110529349D01*
X208367393Y-110608330D01*
X208351961Y-110689229D01*
X208351961Y-110689231D01*
X208351961Y-110689232D01*
X208362181Y-110851668D01*
X208362181Y-110851672D01*
X208412478Y-111006467D01*
X208499689Y-111143892D01*
X208499690Y-111143893D01*
X208618335Y-111255308D01*
X208618337Y-111255309D01*
X208618339Y-111255311D01*
X208618343Y-111255313D01*
X208623957Y-111258400D01*
X208673222Y-111307945D01*
X208687880Y-111376260D01*
X208663278Y-111441655D01*
X208637108Y-111467381D01*
X208555509Y-111526666D01*
X208451759Y-111652079D01*
X208382459Y-111799349D01*
X208368809Y-111870909D01*
X208351961Y-111959229D01*
X208361194Y-112105990D01*
X208362181Y-112121668D01*
X208362181Y-112121672D01*
X208412478Y-112276467D01*
X208499689Y-112413892D01*
X208499690Y-112413893D01*
X208618335Y-112525308D01*
X208618337Y-112525309D01*
X208618339Y-112525311D01*
X208618343Y-112525313D01*
X208623957Y-112528400D01*
X208673222Y-112577945D01*
X208687880Y-112646260D01*
X208663278Y-112711655D01*
X208637108Y-112737381D01*
X208555509Y-112796666D01*
X208451759Y-112922079D01*
X208382459Y-113069349D01*
X208367393Y-113148330D01*
X208351961Y-113229229D01*
X208351961Y-113229231D01*
X208351961Y-113229232D01*
X208362181Y-113391668D01*
X208362181Y-113391672D01*
X208412478Y-113546467D01*
X208499689Y-113683892D01*
X208499690Y-113683893D01*
X208618335Y-113795308D01*
X208618337Y-113795309D01*
X208618339Y-113795311D01*
X208689654Y-113834516D01*
X208726833Y-113854956D01*
X208760969Y-113873722D01*
X208906837Y-113911175D01*
X208966874Y-113946912D01*
X208998060Y-114009435D01*
X208999999Y-114031276D01*
X209000000Y-114081891D01*
X208980317Y-114148930D01*
X208927514Y-114194686D01*
X208903209Y-114202871D01*
X208894612Y-114204804D01*
X208885464Y-114209174D01*
X208859923Y-114218102D01*
X208850041Y-114220384D01*
X208843584Y-114225560D01*
X208819490Y-114240688D01*
X208812031Y-114244251D01*
X208812024Y-114244256D01*
X208805676Y-114252165D01*
X208786545Y-114271283D01*
X208778632Y-114277626D01*
X208778625Y-114277634D01*
X208775056Y-114285094D01*
X208759911Y-114309179D01*
X208754733Y-114315630D01*
X208754729Y-114315637D01*
X208752443Y-114325510D01*
X208743500Y-114351042D01*
X208739124Y-114360188D01*
X208739123Y-114360190D01*
X208739237Y-114405596D01*
X208732456Y-116542402D01*
X208732268Y-116544062D01*
X208732268Y-116556735D01*
X208732268Y-116602076D01*
X208732232Y-116613191D01*
X208732188Y-116627036D01*
X208732268Y-116628493D01*
X208732268Y-116648259D01*
X208732269Y-116648264D01*
X208736036Y-116656088D01*
X208745289Y-116682666D01*
X208747195Y-116691140D01*
X208747196Y-116691141D01*
X208753236Y-116698765D01*
X208767761Y-116721962D01*
X208771980Y-116730722D01*
X208778764Y-116736132D01*
X208798645Y-116756076D01*
X208804035Y-116762879D01*
X208812778Y-116767124D01*
X208835934Y-116781725D01*
X208843537Y-116787788D01*
X208851994Y-116789718D01*
X208878563Y-116799062D01*
X208886369Y-116802852D01*
X208886371Y-116802852D01*
X208899978Y-116806003D01*
X208899149Y-116809581D01*
X208943353Y-116822705D01*
X208988949Y-116875647D01*
X209000000Y-116926819D01*
X209000000Y-116967462D01*
X208980315Y-117034501D01*
X208927511Y-117080256D01*
X208891543Y-117090484D01*
X208807670Y-117101080D01*
X208807668Y-117101080D01*
X208656339Y-117160996D01*
X208656330Y-117161001D01*
X208524661Y-117256663D01*
X208524659Y-117256665D01*
X208420909Y-117382079D01*
X208351609Y-117529349D01*
X208337856Y-117601448D01*
X208321111Y-117689229D01*
X208321111Y-117689231D01*
X208321111Y-117689232D01*
X208331331Y-117851668D01*
X208331331Y-117851672D01*
X208381628Y-118006467D01*
X208468839Y-118143892D01*
X208468840Y-118143893D01*
X208587485Y-118255308D01*
X208587487Y-118255309D01*
X208587489Y-118255311D01*
X208587493Y-118255313D01*
X208593107Y-118258400D01*
X208642372Y-118307945D01*
X208657030Y-118376260D01*
X208632428Y-118441655D01*
X208606258Y-118467381D01*
X208524659Y-118526666D01*
X208420909Y-118652079D01*
X208351609Y-118799349D01*
X208336543Y-118878330D01*
X208321111Y-118959229D01*
X208321111Y-118959231D01*
X208321111Y-118959232D01*
X208331331Y-119121668D01*
X208331331Y-119121672D01*
X208381628Y-119276467D01*
X208468839Y-119413892D01*
X208468840Y-119413893D01*
X208587485Y-119525308D01*
X208587487Y-119525309D01*
X208587489Y-119525311D01*
X208587493Y-119525313D01*
X208593107Y-119528400D01*
X208642372Y-119577945D01*
X208657030Y-119646260D01*
X208632428Y-119711655D01*
X208606258Y-119737381D01*
X208524659Y-119796666D01*
X208420909Y-119922079D01*
X208351609Y-120069349D01*
X208338906Y-120135945D01*
X208321111Y-120229229D01*
X208321111Y-120229231D01*
X208321111Y-120229232D01*
X208331331Y-120391668D01*
X208331331Y-120391672D01*
X208381628Y-120546467D01*
X208468839Y-120683892D01*
X208468840Y-120683893D01*
X208587485Y-120795308D01*
X208587487Y-120795309D01*
X208587489Y-120795311D01*
X208698823Y-120856517D01*
X208711076Y-120863253D01*
X208760340Y-120912798D01*
X208774997Y-120981113D01*
X208772006Y-121000472D01*
X208768880Y-121013681D01*
X208759893Y-121039009D01*
X208755379Y-121048364D01*
X208755378Y-121048366D01*
X208755379Y-121048366D01*
X208755344Y-121093459D01*
X208750339Y-121720485D01*
X208733331Y-123851480D01*
X208713112Y-123918360D01*
X208697173Y-123938014D01*
X204161886Y-128489613D01*
X204100624Y-128523208D01*
X204074155Y-128526089D01*
X196359930Y-128532775D01*
X196292874Y-128513149D01*
X196247073Y-128460384D01*
X196235823Y-128408775D01*
X196235823Y-122830684D01*
X195235823Y-122830684D01*
X195233010Y-122833496D01*
X195216138Y-122890957D01*
X195163334Y-122936712D01*
X195133319Y-122946041D01*
X195090855Y-122953515D01*
X195083182Y-122954864D01*
X195083067Y-122954886D01*
X195064618Y-122958131D01*
X194741172Y-123053662D01*
X194728749Y-123057331D01*
X194716666Y-123060899D01*
X194716324Y-123061069D01*
X194715948Y-123061134D01*
X194713774Y-123062160D01*
X194711051Y-123063248D01*
X194710804Y-123062631D01*
X194706614Y-123063868D01*
X194687125Y-123072468D01*
X194687083Y-123072484D01*
X194629415Y-123097932D01*
X194370375Y-123212232D01*
X194370064Y-123212439D01*
X194369702Y-123212551D01*
X194367676Y-123213847D01*
X194365118Y-123215273D01*
X194364795Y-123214694D01*
X194360775Y-123216467D01*
X194344020Y-123226600D01*
X194323214Y-123239184D01*
X194074203Y-123389774D01*
X194056461Y-123400503D01*
X194056389Y-123400545D01*
X194046374Y-123406602D01*
X194046014Y-123406915D01*
X194045634Y-123407088D01*
X194043814Y-123408614D01*
X194041552Y-123410287D01*
X194041159Y-123409756D01*
X194037326Y-123412074D01*
X193749769Y-123640956D01*
X193749531Y-123641225D01*
X193749212Y-123641424D01*
X193747585Y-123643188D01*
X193745467Y-123645223D01*
X193745008Y-123644746D01*
X193741574Y-123647479D01*
X193726975Y-123662530D01*
X193726954Y-123662550D01*
X193692840Y-123697721D01*
X193523612Y-123872187D01*
X193519299Y-123876633D01*
X193494814Y-123901871D01*
X193494695Y-123901997D01*
X193485666Y-123911306D01*
X193485484Y-123911573D01*
X193485201Y-123911804D01*
X193483803Y-123913777D01*
X193481941Y-123916094D01*
X193481424Y-123915679D01*
X193478384Y-123918814D01*
X193465955Y-123935444D01*
X193465925Y-123935481D01*
X193449575Y-123957363D01*
X193419571Y-123997510D01*
X193271208Y-124196028D01*
X193265763Y-124203313D01*
X193265692Y-124203406D01*
X193258361Y-124213216D01*
X193258197Y-124213540D01*
X193257945Y-124213806D01*
X193256820Y-124215925D01*
X193255272Y-124218457D01*
X193254704Y-124218110D01*
X193252098Y-124221597D01*
X193241783Y-124239890D01*
X193241760Y-124239928D01*
X193238112Y-124246400D01*
X193071584Y-124541718D01*
X193071452Y-124542091D01*
X193071226Y-124542402D01*
X193070382Y-124544644D01*
X193069190Y-124547310D01*
X193068584Y-124547039D01*
X193066437Y-124550846D01*
X193059072Y-124569016D01*
X193053523Y-124582705D01*
X192928374Y-124891473D01*
X192928299Y-124891819D01*
X192928119Y-124892147D01*
X192927566Y-124894495D01*
X192926714Y-124897329D01*
X192926078Y-124897137D01*
X192924445Y-124901164D01*
X192919189Y-124921188D01*
X192919172Y-124921245D01*
X192916287Y-124932245D01*
X192837767Y-125231345D01*
X192834524Y-125243696D01*
X192834505Y-125243775D01*
X192830303Y-125259781D01*
X192794240Y-125319625D01*
X192731549Y-125350471D01*
X192710367Y-125352294D01*
X190693459Y-125352294D01*
X190626420Y-125332609D01*
X190614092Y-125323197D01*
X190602833Y-125315017D01*
X190456752Y-125208882D01*
X190282288Y-125131206D01*
X190282286Y-125131205D01*
X190095487Y-125091500D01*
X189904513Y-125091500D01*
X189717714Y-125131205D01*
X189543246Y-125208883D01*
X189388745Y-125321135D01*
X189260959Y-125463057D01*
X189165473Y-125628443D01*
X189165470Y-125628450D01*
X189106459Y-125810068D01*
X189106458Y-125810072D01*
X189086496Y-126000000D01*
X189106458Y-126189928D01*
X189106459Y-126189931D01*
X189165470Y-126371549D01*
X189165473Y-126371556D01*
X189260960Y-126536944D01*
X189388747Y-126678866D01*
X189543248Y-126791118D01*
X189717712Y-126868794D01*
X189904513Y-126908500D01*
X190095487Y-126908500D01*
X190282288Y-126868794D01*
X190456752Y-126791118D01*
X190456756Y-126791114D01*
X190462385Y-126787866D01*
X190463433Y-126789681D01*
X190519991Y-126769497D01*
X190527080Y-126769294D01*
X192844592Y-126769294D01*
X192911631Y-126788979D01*
X192957386Y-126841783D01*
X192959511Y-126846715D01*
X193062505Y-127100823D01*
X193062686Y-127101114D01*
X193062785Y-127101472D01*
X193064028Y-127103551D01*
X193065396Y-127106191D01*
X193064804Y-127106497D01*
X193066428Y-127110503D01*
X193076792Y-127128882D01*
X193076808Y-127128912D01*
X193104857Y-127178652D01*
X193233614Y-127406990D01*
X193240313Y-127418873D01*
X193240389Y-127419003D01*
X193246946Y-127430632D01*
X193247170Y-127430906D01*
X193247325Y-127431273D01*
X193248853Y-127433213D01*
X193250513Y-127435608D01*
X193249966Y-127435987D01*
X193252104Y-127439779D01*
X193265386Y-127457550D01*
X193265404Y-127457576D01*
X193269870Y-127463551D01*
X193450474Y-127705208D01*
X193458608Y-127716092D01*
X193458608Y-127716093D01*
X193464013Y-127723326D01*
X193464116Y-127723459D01*
X193472134Y-127734189D01*
X193472370Y-127734412D01*
X193472558Y-127734735D01*
X193474298Y-127736440D01*
X193476285Y-127738639D01*
X193475792Y-127739084D01*
X193478392Y-127742563D01*
X193493639Y-127758281D01*
X193493674Y-127758320D01*
X193512730Y-127777964D01*
X193717468Y-127989037D01*
X193724788Y-127996586D01*
X193724854Y-127996652D01*
X193734303Y-128006393D01*
X193734539Y-128006565D01*
X193734764Y-128006857D01*
X193736732Y-128008343D01*
X193739008Y-128010290D01*
X193738574Y-128010796D01*
X193741566Y-128013881D01*
X193758436Y-128027308D01*
X193758475Y-128027341D01*
X193760376Y-128028854D01*
X193760379Y-128028857D01*
X193767445Y-128034480D01*
X193768356Y-128035205D01*
X193971323Y-128196757D01*
X193971330Y-128196766D01*
X194019269Y-128234920D01*
X194029097Y-128242743D01*
X194029428Y-128242924D01*
X194029712Y-128243209D01*
X194031851Y-128244429D01*
X194034277Y-128246017D01*
X194033911Y-128246575D01*
X194037324Y-128249291D01*
X194057835Y-128261695D01*
X194057836Y-128261696D01*
X194065566Y-128266371D01*
X194065566Y-128266370D01*
X194109518Y-128292952D01*
X194109523Y-128292954D01*
X194128878Y-128304659D01*
X194176056Y-128356194D01*
X194187883Y-128425055D01*
X194160603Y-128489379D01*
X194102877Y-128528744D01*
X194064816Y-128534764D01*
X184731765Y-128542852D01*
X184664709Y-128523225D01*
X184645135Y-128507676D01*
X184626351Y-128489379D01*
X181875788Y-125810072D01*
X181562054Y-125504466D01*
X181527767Y-125443588D01*
X181524623Y-125412287D01*
X181672111Y-119971627D01*
X181673361Y-119962053D01*
X181673544Y-119938360D01*
X181673756Y-119910983D01*
X181674316Y-119890344D01*
X181674313Y-119890333D01*
X181674194Y-119888926D01*
X181673971Y-119883182D01*
X181674126Y-119863285D01*
X181671558Y-119857845D01*
X181662095Y-119829211D01*
X181660917Y-119823315D01*
X181653464Y-119813432D01*
X181640338Y-119791709D01*
X181635055Y-119780517D01*
X181630378Y-119776728D01*
X181609434Y-119755042D01*
X181605811Y-119750238D01*
X181605809Y-119750236D01*
X181594812Y-119744568D01*
X181573564Y-119730694D01*
X181563943Y-119722899D01*
X181563942Y-119722898D01*
X181558081Y-119721513D01*
X181529804Y-119711062D01*
X181524456Y-119708306D01*
X181524455Y-119708305D01*
X181510837Y-119707936D01*
X181504582Y-119707767D01*
X181498854Y-119707345D01*
X181497424Y-119707172D01*
X181476780Y-119707012D01*
X181425737Y-119705630D01*
X181416140Y-119706541D01*
X159681484Y-119538056D01*
X159614599Y-119517853D01*
X159597732Y-119504612D01*
X159579271Y-119487342D01*
X157899691Y-117916078D01*
X156292772Y-116412790D01*
X156257264Y-116352616D01*
X156253485Y-116322238D01*
X156253485Y-116295821D01*
X159487634Y-116295821D01*
X159497934Y-116512048D01*
X159548969Y-116722418D01*
X159638895Y-116919328D01*
X159753491Y-117080256D01*
X159758528Y-117087329D01*
X159781380Y-117153356D01*
X159764907Y-117221256D01*
X159751234Y-117240458D01*
X159704429Y-117294473D01*
X159597009Y-117480531D01*
X159597008Y-117480533D01*
X159526740Y-117683559D01*
X159526739Y-117683566D01*
X159524376Y-117700000D01*
X160934314Y-117700000D01*
X160922359Y-117711955D01*
X160864835Y-117824852D01*
X160845014Y-117950000D01*
X160864835Y-118075148D01*
X160922359Y-118188045D01*
X160934314Y-118200000D01*
X159528018Y-118200000D01*
X159557038Y-118319621D01*
X159557038Y-118319623D01*
X159646292Y-118515063D01*
X159770910Y-118690064D01*
X159770916Y-118690070D01*
X159926411Y-118838335D01*
X160107145Y-118954485D01*
X160306609Y-119034338D01*
X160517576Y-119075000D01*
X161000000Y-119075000D01*
X161000000Y-118265685D01*
X161011955Y-118277641D01*
X161124852Y-118335165D01*
X161218519Y-118350000D01*
X161281481Y-118350000D01*
X161375148Y-118335165D01*
X161488045Y-118277641D01*
X161500000Y-118265685D01*
X161500000Y-119075000D01*
X161928581Y-119075000D01*
X162088875Y-119059693D01*
X162088879Y-119059692D01*
X162295019Y-118999164D01*
X162485991Y-118900712D01*
X162654867Y-118767906D01*
X162654870Y-118767903D01*
X162795568Y-118605529D01*
X162902990Y-118419468D01*
X162902991Y-118419466D01*
X162973259Y-118216440D01*
X162973260Y-118216433D01*
X162975624Y-118200000D01*
X161565686Y-118200000D01*
X161577641Y-118188045D01*
X161635165Y-118075148D01*
X161647067Y-118000000D01*
X184586496Y-118000000D01*
X184606458Y-118189928D01*
X184606459Y-118189931D01*
X184665470Y-118371549D01*
X184665473Y-118371556D01*
X184760960Y-118536944D01*
X184888747Y-118678866D01*
X185043248Y-118791118D01*
X185217712Y-118868794D01*
X185371147Y-118901407D01*
X185432628Y-118934599D01*
X185433046Y-118935016D01*
X186108849Y-119610821D01*
X186108855Y-119610826D01*
X186108863Y-119610834D01*
X186133261Y-119629948D01*
X186173892Y-119686787D01*
X186176722Y-119696068D01*
X186186257Y-119732388D01*
X186190090Y-119746989D01*
X186190090Y-119746990D01*
X186192383Y-119755726D01*
X186192411Y-119755829D01*
X186195821Y-119768819D01*
X186195964Y-119769131D01*
X186196018Y-119769508D01*
X186196985Y-119771731D01*
X186197994Y-119774498D01*
X186197372Y-119774724D01*
X186198482Y-119778954D01*
X186336540Y-120119572D01*
X186336721Y-120119863D01*
X186336820Y-120120221D01*
X186338063Y-120122300D01*
X186339431Y-120124940D01*
X186338839Y-120125246D01*
X186340463Y-120129252D01*
X186350827Y-120147631D01*
X186350843Y-120147661D01*
X186378892Y-120197401D01*
X186507649Y-120425739D01*
X186514348Y-120437622D01*
X186514424Y-120437752D01*
X186520981Y-120449381D01*
X186521205Y-120449655D01*
X186521360Y-120450022D01*
X186522888Y-120451962D01*
X186524548Y-120454357D01*
X186524001Y-120454736D01*
X186526139Y-120458528D01*
X186539421Y-120476299D01*
X186539439Y-120476325D01*
X186543905Y-120482300D01*
X186724509Y-120723957D01*
X186732643Y-120734841D01*
X186732643Y-120734842D01*
X186738048Y-120742075D01*
X186738151Y-120742208D01*
X186746169Y-120752938D01*
X186746405Y-120753161D01*
X186746593Y-120753484D01*
X186748333Y-120755189D01*
X186750320Y-120757388D01*
X186749827Y-120757833D01*
X186752427Y-120761312D01*
X186767674Y-120777030D01*
X186767709Y-120777069D01*
X186781511Y-120791296D01*
X186785928Y-120795849D01*
X186785928Y-120795850D01*
X186982098Y-120998090D01*
X186990773Y-121007033D01*
X186998855Y-121015367D01*
X186998889Y-121015401D01*
X187008338Y-121025142D01*
X187008574Y-121025314D01*
X187008799Y-121025606D01*
X187010767Y-121027092D01*
X187013043Y-121029039D01*
X187012609Y-121029545D01*
X187015601Y-121032630D01*
X187032471Y-121046057D01*
X187032510Y-121046090D01*
X187034411Y-121047603D01*
X187034414Y-121047606D01*
X187041480Y-121053229D01*
X187042391Y-121053954D01*
X187245358Y-121215506D01*
X187245365Y-121215515D01*
X187293304Y-121253669D01*
X187303132Y-121261492D01*
X187303463Y-121261673D01*
X187303747Y-121261958D01*
X187305886Y-121263178D01*
X187308312Y-121264766D01*
X187307946Y-121265324D01*
X187311359Y-121268040D01*
X187331870Y-121280444D01*
X187331871Y-121280445D01*
X187339601Y-121285120D01*
X187339601Y-121285119D01*
X187383553Y-121311701D01*
X187383558Y-121311703D01*
X187593632Y-121438746D01*
X187593632Y-121438744D01*
X187606540Y-121446551D01*
X187606540Y-121446552D01*
X187614273Y-121451229D01*
X187614365Y-121451282D01*
X187625851Y-121458229D01*
X187626156Y-121458349D01*
X187626463Y-121458586D01*
X187628757Y-121459530D01*
X187631413Y-121460817D01*
X187631122Y-121461417D01*
X187634816Y-121463651D01*
X187655323Y-121472700D01*
X187655334Y-121472705D01*
X187656777Y-121473341D01*
X187656781Y-121473344D01*
X187665043Y-121476989D01*
X187665043Y-121476988D01*
X187678845Y-121483078D01*
X187678845Y-121483079D01*
X187936613Y-121596818D01*
X187936613Y-121596817D01*
X187950427Y-121602912D01*
X187950427Y-121602913D01*
X187958694Y-121606561D01*
X187958720Y-121606572D01*
X187971060Y-121612017D01*
X187971378Y-121612097D01*
X187971710Y-121612291D01*
X187974108Y-121612934D01*
X187976900Y-121613868D01*
X187976688Y-121614501D01*
X187980634Y-121616242D01*
X188001786Y-121622490D01*
X188001805Y-121622496D01*
X188003660Y-121623044D01*
X188003665Y-121623046D01*
X188012327Y-121625604D01*
X188012327Y-121625603D01*
X188025372Y-121629456D01*
X188026806Y-121629879D01*
X188026806Y-121629880D01*
X188189170Y-121677834D01*
X188307293Y-121712722D01*
X188310756Y-121713745D01*
X188310757Y-121713745D01*
X188320137Y-121716516D01*
X188320165Y-121716523D01*
X188320301Y-121716564D01*
X188320425Y-121716600D01*
X188338652Y-121721983D01*
X188357661Y-121725328D01*
X188357665Y-121725330D01*
X188363876Y-121726422D01*
X188382149Y-121729639D01*
X188382149Y-121729640D01*
X188407353Y-121734075D01*
X188469964Y-121765082D01*
X188505874Y-121825018D01*
X188508866Y-121848441D01*
X188509858Y-121849433D01*
X189509857Y-121849433D01*
X189509858Y-121849433D01*
X189509858Y-115849433D01*
X189509858Y-115832500D01*
X189529543Y-115765461D01*
X189582347Y-115719706D01*
X189633858Y-115708500D01*
X190155168Y-115708500D01*
X190222207Y-115728185D01*
X190242849Y-115744818D01*
X194062106Y-119564076D01*
X194064658Y-119566788D01*
X194106265Y-119613753D01*
X194106270Y-119613758D01*
X194157920Y-119649410D01*
X194160911Y-119651610D01*
X194210317Y-119690318D01*
X194219782Y-119694578D01*
X194239326Y-119705601D01*
X194243245Y-119708306D01*
X194247868Y-119711497D01*
X194277930Y-119722898D01*
X194306527Y-119733743D01*
X194309982Y-119735173D01*
X194355647Y-119755726D01*
X194367210Y-119760930D01*
X194367214Y-119760932D01*
X194377424Y-119762803D01*
X194399043Y-119768829D01*
X194408742Y-119772508D01*
X194471031Y-119780071D01*
X194474723Y-119780633D01*
X194536450Y-119791945D01*
X194594930Y-119788407D01*
X194599088Y-119788156D01*
X194602833Y-119788043D01*
X199705344Y-119788043D01*
X199772383Y-119807728D01*
X199818138Y-119860532D01*
X199820263Y-119865464D01*
X199923257Y-120119572D01*
X199923438Y-120119863D01*
X199923537Y-120120221D01*
X199924780Y-120122300D01*
X199926148Y-120124940D01*
X199925556Y-120125246D01*
X199927180Y-120129252D01*
X199937544Y-120147631D01*
X199937560Y-120147661D01*
X199965609Y-120197401D01*
X200094366Y-120425739D01*
X200101065Y-120437622D01*
X200101141Y-120437752D01*
X200107698Y-120449381D01*
X200107922Y-120449655D01*
X200108077Y-120450022D01*
X200109605Y-120451962D01*
X200111265Y-120454357D01*
X200110718Y-120454736D01*
X200112856Y-120458528D01*
X200126138Y-120476299D01*
X200126156Y-120476325D01*
X200130622Y-120482300D01*
X200311226Y-120723957D01*
X200319360Y-120734841D01*
X200319360Y-120734842D01*
X200324765Y-120742075D01*
X200324868Y-120742208D01*
X200332886Y-120752938D01*
X200333122Y-120753161D01*
X200333310Y-120753484D01*
X200335050Y-120755189D01*
X200337037Y-120757388D01*
X200336544Y-120757833D01*
X200339144Y-120761312D01*
X200354391Y-120777030D01*
X200354426Y-120777069D01*
X200368228Y-120791296D01*
X200372645Y-120795849D01*
X200372645Y-120795850D01*
X200568815Y-120998090D01*
X200577490Y-121007033D01*
X200585572Y-121015367D01*
X200585606Y-121015401D01*
X200595055Y-121025142D01*
X200595291Y-121025314D01*
X200595516Y-121025606D01*
X200597484Y-121027092D01*
X200599760Y-121029039D01*
X200599326Y-121029545D01*
X200602318Y-121032630D01*
X200619188Y-121046057D01*
X200619227Y-121046090D01*
X200621128Y-121047603D01*
X200621131Y-121047606D01*
X200628197Y-121053229D01*
X200629108Y-121053954D01*
X200832075Y-121215506D01*
X200832082Y-121215515D01*
X200880021Y-121253669D01*
X200889849Y-121261492D01*
X200890180Y-121261673D01*
X200890464Y-121261958D01*
X200892603Y-121263178D01*
X200895029Y-121264766D01*
X200894663Y-121265324D01*
X200898076Y-121268040D01*
X200918587Y-121280444D01*
X200918588Y-121280445D01*
X200926318Y-121285120D01*
X200926318Y-121285119D01*
X200970270Y-121311701D01*
X200970275Y-121311703D01*
X201180349Y-121438746D01*
X201180349Y-121438744D01*
X201193257Y-121446551D01*
X201193257Y-121446552D01*
X201200990Y-121451229D01*
X201201082Y-121451282D01*
X201212568Y-121458229D01*
X201212873Y-121458349D01*
X201213180Y-121458586D01*
X201215474Y-121459530D01*
X201218130Y-121460817D01*
X201217839Y-121461417D01*
X201221533Y-121463651D01*
X201242040Y-121472700D01*
X201242051Y-121472705D01*
X201243494Y-121473341D01*
X201243498Y-121473344D01*
X201251760Y-121476989D01*
X201251760Y-121476988D01*
X201265562Y-121483078D01*
X201265562Y-121483079D01*
X201523330Y-121596818D01*
X201523330Y-121596817D01*
X201537144Y-121602912D01*
X201537144Y-121602913D01*
X201545411Y-121606561D01*
X201545437Y-121606572D01*
X201557777Y-121612017D01*
X201558095Y-121612097D01*
X201558427Y-121612291D01*
X201560825Y-121612934D01*
X201563617Y-121613868D01*
X201563405Y-121614501D01*
X201567351Y-121616242D01*
X201588503Y-121622490D01*
X201588522Y-121622496D01*
X201590377Y-121623044D01*
X201590382Y-121623046D01*
X201599044Y-121625604D01*
X201599044Y-121625603D01*
X201612089Y-121629456D01*
X201613523Y-121629879D01*
X201613523Y-121629880D01*
X201775887Y-121677834D01*
X201894010Y-121712722D01*
X201897473Y-121713745D01*
X201897474Y-121713745D01*
X201906854Y-121716516D01*
X201906882Y-121716523D01*
X201907018Y-121716564D01*
X201907142Y-121716600D01*
X201925369Y-121721983D01*
X201944378Y-121725328D01*
X201944382Y-121725330D01*
X201950593Y-121726422D01*
X201968866Y-121729639D01*
X201968866Y-121729640D01*
X201994070Y-121734075D01*
X202056681Y-121765082D01*
X202092591Y-121825018D01*
X202095583Y-121848441D01*
X202096575Y-121849433D01*
X203096575Y-121849433D01*
X203096575Y-115849433D01*
X202096575Y-115849433D01*
X202093762Y-115852245D01*
X202076890Y-115909706D01*
X202024086Y-115955461D01*
X201994071Y-115964790D01*
X201951607Y-115972264D01*
X201943934Y-115973613D01*
X201943819Y-115973635D01*
X201925370Y-115976880D01*
X201601924Y-116072411D01*
X201589501Y-116076080D01*
X201577418Y-116079648D01*
X201577076Y-116079818D01*
X201576700Y-116079883D01*
X201574526Y-116080909D01*
X201571803Y-116081997D01*
X201571556Y-116081380D01*
X201567366Y-116082617D01*
X201547877Y-116091217D01*
X201547835Y-116091233D01*
X201490167Y-116116681D01*
X201231127Y-116230981D01*
X201230816Y-116231188D01*
X201230454Y-116231300D01*
X201228428Y-116232596D01*
X201225870Y-116234022D01*
X201225547Y-116233443D01*
X201221527Y-116235216D01*
X201204772Y-116245349D01*
X201183966Y-116257933D01*
X200934955Y-116408523D01*
X200917213Y-116419252D01*
X200917141Y-116419294D01*
X200907126Y-116425351D01*
X200906766Y-116425664D01*
X200906386Y-116425837D01*
X200904566Y-116427363D01*
X200902304Y-116429036D01*
X200901911Y-116428505D01*
X200898078Y-116430823D01*
X200610521Y-116659705D01*
X200610283Y-116659974D01*
X200609964Y-116660173D01*
X200608337Y-116661937D01*
X200606219Y-116663972D01*
X200605760Y-116663495D01*
X200602326Y-116666228D01*
X200587727Y-116681279D01*
X200587706Y-116681299D01*
X200560298Y-116709557D01*
X200463277Y-116809581D01*
X200380051Y-116895382D01*
X200355566Y-116920620D01*
X200355447Y-116920746D01*
X200346418Y-116930055D01*
X200346236Y-116930322D01*
X200345953Y-116930553D01*
X200344555Y-116932526D01*
X200342693Y-116934843D01*
X200342176Y-116934428D01*
X200339136Y-116937563D01*
X200326707Y-116954193D01*
X200326677Y-116954230D01*
X200308431Y-116978649D01*
X200131960Y-117214777D01*
X200126515Y-117222062D01*
X200126444Y-117222155D01*
X200119113Y-117231965D01*
X200118949Y-117232289D01*
X200118697Y-117232555D01*
X200117572Y-117234674D01*
X200116024Y-117237206D01*
X200115456Y-117236859D01*
X200112850Y-117240346D01*
X200102535Y-117258639D01*
X200102512Y-117258677D01*
X200098864Y-117265149D01*
X199932336Y-117560467D01*
X199932204Y-117560840D01*
X199931978Y-117561151D01*
X199931134Y-117563393D01*
X199929942Y-117566059D01*
X199929336Y-117565788D01*
X199927189Y-117569595D01*
X199919824Y-117587765D01*
X199919823Y-117587764D01*
X199915281Y-117598976D01*
X199789125Y-117910222D01*
X199789051Y-117910568D01*
X199788871Y-117910896D01*
X199788318Y-117913244D01*
X199787466Y-117916078D01*
X199786830Y-117915886D01*
X199785197Y-117919913D01*
X199779941Y-117939937D01*
X199779924Y-117939994D01*
X199777039Y-117950994D01*
X199772974Y-117966478D01*
X199707355Y-118216440D01*
X199698962Y-118248411D01*
X199697610Y-118253558D01*
X199695316Y-118262293D01*
X199695273Y-118262457D01*
X199695257Y-118262524D01*
X199691055Y-118278530D01*
X199654992Y-118338374D01*
X199592301Y-118369220D01*
X199571119Y-118371043D01*
X194924375Y-118371043D01*
X194857336Y-118351358D01*
X194836694Y-118334724D01*
X192927321Y-116425351D01*
X191017434Y-114515464D01*
X191014900Y-114512772D01*
X190973273Y-114465785D01*
X190973272Y-114465784D01*
X190973271Y-114465783D01*
X190921628Y-114430136D01*
X190918611Y-114427916D01*
X190869227Y-114389225D01*
X190863235Y-114386528D01*
X190859760Y-114384964D01*
X190840216Y-114373941D01*
X190835210Y-114370486D01*
X190831677Y-114368047D01*
X190831672Y-114368044D01*
X190773015Y-114345798D01*
X190769555Y-114344365D01*
X190712331Y-114318611D01*
X190712332Y-114318611D01*
X190702110Y-114316738D01*
X190680510Y-114310716D01*
X190670801Y-114307035D01*
X190670797Y-114307034D01*
X190670796Y-114307034D01*
X190608511Y-114299470D01*
X190604810Y-114298907D01*
X190543096Y-114287598D01*
X190543090Y-114287598D01*
X190480455Y-114291387D01*
X190476710Y-114291500D01*
X187610756Y-114291500D01*
X187543717Y-114271815D01*
X187537871Y-114267818D01*
X187456756Y-114208884D01*
X187456752Y-114208882D01*
X187282288Y-114131206D01*
X187282286Y-114131205D01*
X187095487Y-114091500D01*
X186904513Y-114091500D01*
X186717714Y-114131205D01*
X186717711Y-114131206D01*
X186717712Y-114131206D01*
X186552408Y-114204804D01*
X186543246Y-114208883D01*
X186388745Y-114321135D01*
X186260959Y-114463057D01*
X186165473Y-114628443D01*
X186165470Y-114628450D01*
X186107384Y-114807221D01*
X186106458Y-114810072D01*
X186086496Y-115000000D01*
X186106458Y-115189928D01*
X186106459Y-115189931D01*
X186165470Y-115371549D01*
X186165473Y-115371556D01*
X186260960Y-115536944D01*
X186388747Y-115678866D01*
X186543248Y-115791118D01*
X186717712Y-115868794D01*
X186904513Y-115908500D01*
X187095487Y-115908500D01*
X187282288Y-115868794D01*
X187456752Y-115791118D01*
X187492066Y-115765461D01*
X187537871Y-115732182D01*
X187603677Y-115708702D01*
X187610756Y-115708500D01*
X188385858Y-115708500D01*
X188452897Y-115728185D01*
X188498652Y-115780989D01*
X188509858Y-115832500D01*
X188509858Y-115842667D01*
X188490173Y-115909706D01*
X188437369Y-115955461D01*
X188407354Y-115964790D01*
X188364890Y-115972264D01*
X188357217Y-115973613D01*
X188357102Y-115973635D01*
X188338653Y-115976880D01*
X188015207Y-116072411D01*
X188002784Y-116076080D01*
X187990701Y-116079648D01*
X187990359Y-116079818D01*
X187989983Y-116079883D01*
X187987809Y-116080909D01*
X187985086Y-116081997D01*
X187984839Y-116081380D01*
X187980649Y-116082617D01*
X187961160Y-116091217D01*
X187961118Y-116091233D01*
X187903450Y-116116681D01*
X187644410Y-116230981D01*
X187644099Y-116231188D01*
X187643737Y-116231300D01*
X187641711Y-116232596D01*
X187639153Y-116234022D01*
X187638830Y-116233443D01*
X187634810Y-116235216D01*
X187618055Y-116245349D01*
X187597249Y-116257933D01*
X187348238Y-116408523D01*
X187330496Y-116419252D01*
X187330424Y-116419294D01*
X187320409Y-116425351D01*
X187320049Y-116425664D01*
X187319669Y-116425837D01*
X187317849Y-116427363D01*
X187315587Y-116429036D01*
X187315194Y-116428505D01*
X187311361Y-116430823D01*
X187023804Y-116659705D01*
X187023566Y-116659974D01*
X187023247Y-116660173D01*
X187021620Y-116661937D01*
X187019502Y-116663972D01*
X187019043Y-116663495D01*
X187015609Y-116666228D01*
X187001010Y-116681279D01*
X187000989Y-116681299D01*
X186973581Y-116709557D01*
X186876560Y-116809581D01*
X186793334Y-116895382D01*
X186768849Y-116920620D01*
X186768730Y-116920746D01*
X186759701Y-116930055D01*
X186759519Y-116930322D01*
X186759236Y-116930553D01*
X186757838Y-116932526D01*
X186755976Y-116934843D01*
X186755459Y-116934428D01*
X186752419Y-116937563D01*
X186739990Y-116954193D01*
X186739960Y-116954230D01*
X186721714Y-116978649D01*
X186545243Y-117214777D01*
X186539798Y-117222062D01*
X186539727Y-117222155D01*
X186532396Y-117231965D01*
X186532232Y-117232289D01*
X186531980Y-117232555D01*
X186530855Y-117234674D01*
X186529307Y-117237206D01*
X186528739Y-117236859D01*
X186526133Y-117240346D01*
X186515818Y-117258639D01*
X186515795Y-117258677D01*
X186512147Y-117265149D01*
X186423084Y-117423092D01*
X186373009Y-117471818D01*
X186304539Y-117485737D01*
X186239414Y-117460428D01*
X186222927Y-117445160D01*
X186111253Y-117321134D01*
X185956752Y-117208882D01*
X185782288Y-117131206D01*
X185782286Y-117131205D01*
X185595487Y-117091500D01*
X185404513Y-117091500D01*
X185217714Y-117131205D01*
X185217711Y-117131206D01*
X185217712Y-117131206D01*
X185059173Y-117201792D01*
X185043246Y-117208883D01*
X184888745Y-117321135D01*
X184760959Y-117463057D01*
X184665473Y-117628443D01*
X184665470Y-117628450D01*
X184606459Y-117810068D01*
X184606458Y-117810072D01*
X184586496Y-118000000D01*
X161647067Y-118000000D01*
X161654986Y-117950000D01*
X161635165Y-117824852D01*
X161577641Y-117711955D01*
X161565686Y-117700000D01*
X162971982Y-117700000D01*
X162942961Y-117580378D01*
X162942961Y-117580376D01*
X162853707Y-117384936D01*
X162740818Y-117226406D01*
X162717965Y-117160379D01*
X162734438Y-117092479D01*
X162748107Y-117073283D01*
X162802522Y-117010485D01*
X162827362Y-116967462D01*
X162910756Y-116823018D01*
X162910758Y-116823015D01*
X162981559Y-116618448D01*
X163012366Y-116404179D01*
X163002066Y-116187952D01*
X162951031Y-115977582D01*
X162861105Y-115780672D01*
X162826575Y-115732182D01*
X162746546Y-115619796D01*
X162723693Y-115553769D01*
X162740166Y-115485869D01*
X162753841Y-115466666D01*
X162802522Y-115410485D01*
X162910758Y-115223015D01*
X162981559Y-115018448D01*
X163012366Y-114804179D01*
X163002066Y-114587952D01*
X162951031Y-114377582D01*
X162861105Y-114180672D01*
X162735539Y-114004339D01*
X162674756Y-113946383D01*
X162578866Y-113854952D01*
X162396766Y-113737924D01*
X162396763Y-113737923D01*
X162396762Y-113737922D01*
X162195796Y-113657468D01*
X161983236Y-113616500D01*
X160571004Y-113616500D01*
X160409507Y-113631920D01*
X160409508Y-113631921D01*
X160409504Y-113631922D01*
X160201806Y-113692907D01*
X160009397Y-113792101D01*
X159839234Y-113925918D01*
X159697482Y-114089510D01*
X159697473Y-114089522D01*
X159589243Y-114276981D01*
X159518442Y-114481546D01*
X159518441Y-114481551D01*
X159518441Y-114481552D01*
X159487634Y-114695821D01*
X159497934Y-114912048D01*
X159548969Y-115122418D01*
X159594912Y-115223018D01*
X159638894Y-115319326D01*
X159638896Y-115319330D01*
X159753453Y-115480203D01*
X159776306Y-115546230D01*
X159759833Y-115614130D01*
X159746160Y-115633331D01*
X159697477Y-115689515D01*
X159697477Y-115689516D01*
X159589243Y-115876981D01*
X159518442Y-116081546D01*
X159518441Y-116081551D01*
X159518441Y-116081552D01*
X159487634Y-116295821D01*
X156253485Y-116295821D01*
X156253485Y-111993965D01*
X156256566Y-111975829D01*
X156255783Y-111975741D01*
X156257347Y-111961859D01*
X156253875Y-111931034D01*
X156253485Y-111924088D01*
X156253485Y-111916246D01*
X156253485Y-111916243D01*
X156251737Y-111908586D01*
X156250573Y-111901735D01*
X156247101Y-111870909D01*
X156243287Y-111860010D01*
X156238276Y-111849604D01*
X156238275Y-111849603D01*
X156238275Y-111849602D01*
X156218930Y-111825345D01*
X156214918Y-111819691D01*
X156210734Y-111813032D01*
X156205172Y-111807470D01*
X156200542Y-111802288D01*
X156198198Y-111799349D01*
X156181209Y-111778045D01*
X156181208Y-111778044D01*
X156170284Y-111769333D01*
X156170775Y-111768716D01*
X156155771Y-111758070D01*
X155799469Y-111401768D01*
X173290705Y-111401768D01*
X173317017Y-111778045D01*
X173317725Y-111788159D01*
X173382320Y-112170072D01*
X173382321Y-112170078D01*
X173382322Y-112170080D01*
X173483878Y-112543867D01*
X173483881Y-112543876D01*
X173615095Y-112889296D01*
X173621422Y-112905951D01*
X173687071Y-113038200D01*
X173793642Y-113252886D01*
X173793648Y-113252898D01*
X173998899Y-113581368D01*
X173998907Y-113581379D01*
X174235235Y-113888258D01*
X174235239Y-113888262D01*
X174480022Y-114148930D01*
X174500385Y-114170614D01*
X174580430Y-114240688D01*
X174791822Y-114425748D01*
X174791825Y-114425750D01*
X175106750Y-114651215D01*
X175106761Y-114651222D01*
X175106768Y-114651227D01*
X175442211Y-114844895D01*
X175794953Y-115004906D01*
X176161625Y-115129731D01*
X176538728Y-115218180D01*
X176922663Y-115269408D01*
X177212988Y-115279546D01*
X177309762Y-115282926D01*
X177309764Y-115282926D01*
X177309775Y-115282926D01*
X177533569Y-115268844D01*
X177696337Y-115258604D01*
X178078691Y-115196677D01*
X178453178Y-115097733D01*
X178816222Y-114962718D01*
X179164358Y-114792921D01*
X179494263Y-114589962D01*
X179802789Y-114355778D01*
X180086990Y-114092605D01*
X180344153Y-113802955D01*
X180571824Y-113489593D01*
X180767830Y-113155509D01*
X180930299Y-112803894D01*
X181036126Y-112500000D01*
X190086496Y-112500000D01*
X190106458Y-112689928D01*
X190106459Y-112689931D01*
X190165470Y-112871549D01*
X190165473Y-112871556D01*
X190260960Y-113036944D01*
X190388747Y-113178866D01*
X190543248Y-113291118D01*
X190717712Y-113368794D01*
X190904513Y-113408500D01*
X191095487Y-113408500D01*
X191282288Y-113368794D01*
X191456752Y-113291118D01*
X191611253Y-113178866D01*
X191739040Y-113036944D01*
X191739039Y-113036944D01*
X191742250Y-113033379D01*
X191801737Y-112996730D01*
X191834400Y-112992351D01*
X192844592Y-112992351D01*
X192911631Y-113012036D01*
X192957386Y-113064840D01*
X192959511Y-113069772D01*
X193062505Y-113323880D01*
X193062686Y-113324171D01*
X193062785Y-113324529D01*
X193064028Y-113326608D01*
X193065396Y-113329248D01*
X193064804Y-113329554D01*
X193066428Y-113333560D01*
X193076792Y-113351939D01*
X193076808Y-113351969D01*
X193104857Y-113401709D01*
X193233614Y-113630047D01*
X193240313Y-113641930D01*
X193240389Y-113642060D01*
X193246946Y-113653689D01*
X193247170Y-113653963D01*
X193247325Y-113654330D01*
X193248853Y-113656270D01*
X193250513Y-113658665D01*
X193249966Y-113659044D01*
X193252104Y-113662836D01*
X193265386Y-113680607D01*
X193265404Y-113680633D01*
X193269870Y-113686608D01*
X193450474Y-113928265D01*
X193458608Y-113939149D01*
X193458608Y-113939150D01*
X193464013Y-113946383D01*
X193464116Y-113946516D01*
X193472134Y-113957246D01*
X193472370Y-113957469D01*
X193472558Y-113957792D01*
X193474298Y-113959497D01*
X193476285Y-113961696D01*
X193475792Y-113962141D01*
X193478392Y-113965620D01*
X193493639Y-113981338D01*
X193493674Y-113981377D01*
X193512730Y-114001021D01*
X193717468Y-114212094D01*
X193724788Y-114219643D01*
X193724854Y-114219709D01*
X193734303Y-114229450D01*
X193734539Y-114229622D01*
X193734764Y-114229914D01*
X193736732Y-114231400D01*
X193739008Y-114233347D01*
X193738574Y-114233853D01*
X193741566Y-114236938D01*
X193758436Y-114250365D01*
X193758475Y-114250398D01*
X193760376Y-114251911D01*
X193760379Y-114251914D01*
X193767445Y-114257537D01*
X193768356Y-114258262D01*
X193971323Y-114419814D01*
X193971330Y-114419823D01*
X194019269Y-114457977D01*
X194029097Y-114465800D01*
X194029428Y-114465981D01*
X194029712Y-114466266D01*
X194031851Y-114467486D01*
X194034277Y-114469074D01*
X194033911Y-114469632D01*
X194037324Y-114472348D01*
X194057835Y-114484752D01*
X194057836Y-114484753D01*
X194065566Y-114489428D01*
X194065566Y-114489427D01*
X194109518Y-114516009D01*
X194109523Y-114516011D01*
X194319597Y-114643054D01*
X194319597Y-114643052D01*
X194332505Y-114650859D01*
X194332505Y-114650860D01*
X194340238Y-114655537D01*
X194340330Y-114655590D01*
X194351816Y-114662537D01*
X194352121Y-114662657D01*
X194352428Y-114662894D01*
X194354722Y-114663838D01*
X194357378Y-114665125D01*
X194357087Y-114665725D01*
X194360781Y-114667959D01*
X194381288Y-114677008D01*
X194381299Y-114677013D01*
X194382742Y-114677649D01*
X194382746Y-114677652D01*
X194391008Y-114681297D01*
X194391008Y-114681296D01*
X194404810Y-114687386D01*
X194404810Y-114687387D01*
X194662578Y-114801126D01*
X194662578Y-114801125D01*
X194676392Y-114807220D01*
X194676392Y-114807221D01*
X194684659Y-114810869D01*
X194684685Y-114810880D01*
X194697025Y-114816325D01*
X194697343Y-114816405D01*
X194697675Y-114816599D01*
X194700073Y-114817242D01*
X194702865Y-114818176D01*
X194702653Y-114818809D01*
X194706599Y-114820550D01*
X194727751Y-114826798D01*
X194727770Y-114826804D01*
X194729625Y-114827352D01*
X194729630Y-114827354D01*
X194738292Y-114829912D01*
X194738292Y-114829911D01*
X194751337Y-114833764D01*
X194752771Y-114834187D01*
X194752771Y-114834188D01*
X194915135Y-114882142D01*
X195033258Y-114917030D01*
X195036721Y-114918053D01*
X195036722Y-114918053D01*
X195046102Y-114920824D01*
X195046130Y-114920831D01*
X195046266Y-114920872D01*
X195046390Y-114920908D01*
X195064617Y-114926291D01*
X195083626Y-114929636D01*
X195083630Y-114929638D01*
X195089841Y-114930730D01*
X195108114Y-114933947D01*
X195108114Y-114933948D01*
X195133318Y-114938383D01*
X195195929Y-114969390D01*
X195231839Y-115029326D01*
X195234831Y-115052749D01*
X195235823Y-115053741D01*
X196235823Y-115053741D01*
X196235823Y-109053741D01*
X195235823Y-109053741D01*
X195233010Y-109056553D01*
X195216138Y-109114014D01*
X195163334Y-109159769D01*
X195133319Y-109169098D01*
X195090855Y-109176572D01*
X195083182Y-109177921D01*
X195083067Y-109177943D01*
X195064618Y-109181188D01*
X194741172Y-109276719D01*
X194728749Y-109280388D01*
X194716666Y-109283956D01*
X194716324Y-109284126D01*
X194715948Y-109284191D01*
X194713774Y-109285217D01*
X194711051Y-109286305D01*
X194710804Y-109285688D01*
X194706614Y-109286925D01*
X194687125Y-109295525D01*
X194687083Y-109295541D01*
X194629415Y-109320989D01*
X194370375Y-109435289D01*
X194370064Y-109435496D01*
X194369702Y-109435608D01*
X194367676Y-109436904D01*
X194365118Y-109438330D01*
X194364795Y-109437751D01*
X194360775Y-109439524D01*
X194344020Y-109449657D01*
X194340232Y-109451947D01*
X194340232Y-109451948D01*
X194332496Y-109456627D01*
X194323214Y-109462241D01*
X194074203Y-109612831D01*
X194056461Y-109623560D01*
X194056389Y-109623602D01*
X194046374Y-109629659D01*
X194046014Y-109629972D01*
X194045634Y-109630145D01*
X194043814Y-109631671D01*
X194041552Y-109633344D01*
X194041159Y-109632813D01*
X194037326Y-109635131D01*
X193749769Y-109864013D01*
X193749531Y-109864282D01*
X193749212Y-109864481D01*
X193747585Y-109866245D01*
X193745467Y-109868280D01*
X193745008Y-109867803D01*
X193741574Y-109870536D01*
X193726975Y-109885587D01*
X193726955Y-109885606D01*
X193699541Y-109913869D01*
X193560032Y-110057697D01*
X193519299Y-110099690D01*
X193494814Y-110124928D01*
X193494695Y-110125054D01*
X193485666Y-110134363D01*
X193485484Y-110134630D01*
X193485201Y-110134861D01*
X193483803Y-110136834D01*
X193481941Y-110139151D01*
X193481424Y-110138736D01*
X193478384Y-110141871D01*
X193465955Y-110158501D01*
X193465932Y-110158529D01*
X193449575Y-110180420D01*
X193392595Y-110256663D01*
X193271208Y-110419085D01*
X193265763Y-110426370D01*
X193265692Y-110426463D01*
X193258361Y-110436273D01*
X193258197Y-110436597D01*
X193257945Y-110436863D01*
X193256820Y-110438982D01*
X193255272Y-110441514D01*
X193254704Y-110441167D01*
X193252098Y-110444654D01*
X193241783Y-110462947D01*
X193241760Y-110462985D01*
X193238112Y-110469457D01*
X193071584Y-110764775D01*
X193071452Y-110765148D01*
X193071226Y-110765459D01*
X193070382Y-110767701D01*
X193069190Y-110770367D01*
X193068584Y-110770096D01*
X193066437Y-110773903D01*
X193059072Y-110792073D01*
X193053523Y-110805762D01*
X192928374Y-111114530D01*
X192928299Y-111114876D01*
X192928119Y-111115204D01*
X192927566Y-111117552D01*
X192926714Y-111120386D01*
X192926078Y-111120194D01*
X192924445Y-111124221D01*
X192919189Y-111144245D01*
X192919172Y-111144302D01*
X192916287Y-111155302D01*
X192837767Y-111454402D01*
X192834524Y-111466753D01*
X192834505Y-111466832D01*
X192830303Y-111482838D01*
X192794240Y-111542682D01*
X192731549Y-111573528D01*
X192710367Y-111575351D01*
X191173288Y-111575351D01*
X191111547Y-111582847D01*
X191045348Y-111590886D01*
X191045346Y-111590886D01*
X191044016Y-111591048D01*
X191036536Y-111591500D01*
X190904513Y-111591500D01*
X190717714Y-111631205D01*
X190543246Y-111708883D01*
X190388745Y-111821135D01*
X190260959Y-111963057D01*
X190165473Y-112128443D01*
X190165470Y-112128450D01*
X190106459Y-112310068D01*
X190106458Y-112310072D01*
X190086496Y-112500000D01*
X181036126Y-112500000D01*
X181057681Y-112438102D01*
X181148760Y-112061625D01*
X181202667Y-111678058D01*
X181218887Y-111291060D01*
X181197266Y-110904327D01*
X181182170Y-110806812D01*
X181138011Y-110521559D01*
X181138008Y-110521545D01*
X181041685Y-110146391D01*
X181037678Y-110135383D01*
X180989632Y-110003374D01*
X180982154Y-109960964D01*
X180982154Y-105730792D01*
X180966619Y-105602856D01*
X180966619Y-105602853D01*
X180943823Y-105542744D01*
X180913794Y-105463562D01*
X180906415Y-105432554D01*
X180906397Y-105432383D01*
X180893542Y-105310072D01*
X180834527Y-105128444D01*
X180739040Y-104963056D01*
X180611253Y-104821134D01*
X180456752Y-104708882D01*
X180282288Y-104631206D01*
X180282286Y-104631205D01*
X180095487Y-104591500D01*
X179904513Y-104591500D01*
X179717714Y-104631205D01*
X179543246Y-104708883D01*
X179388745Y-104821135D01*
X179260959Y-104963057D01*
X179165473Y-105128443D01*
X179165470Y-105128450D01*
X179111313Y-105295130D01*
X179106458Y-105310072D01*
X179086496Y-105500000D01*
X179106458Y-105689928D01*
X179106459Y-105689931D01*
X179165470Y-105871549D01*
X179165473Y-105871556D01*
X179260960Y-106036944D01*
X179388747Y-106178866D01*
X179491196Y-106253300D01*
X179514039Y-106269896D01*
X179556705Y-106325226D01*
X179565154Y-106370214D01*
X179565154Y-107867896D01*
X179545469Y-107934935D01*
X179492665Y-107980690D01*
X179423507Y-107990634D01*
X179377661Y-107974407D01*
X179115672Y-107818231D01*
X179115673Y-107818231D01*
X179115666Y-107818228D01*
X179115665Y-107818227D01*
X178857868Y-107696917D01*
X178765184Y-107653303D01*
X178400299Y-107523373D01*
X178024467Y-107429669D01*
X178024469Y-107429669D01*
X177865425Y-107406183D01*
X177641285Y-107373085D01*
X177641278Y-107373084D01*
X177641280Y-107373084D01*
X177254410Y-107354164D01*
X177143722Y-107355709D01*
X176757513Y-107385426D01*
X176376068Y-107452685D01*
X176002996Y-107556848D01*
X176002991Y-107556850D01*
X175641876Y-107696917D01*
X175296139Y-107871562D01*
X174969105Y-108079103D01*
X174969092Y-108079113D01*
X174663887Y-108317564D01*
X174663875Y-108317575D01*
X174383373Y-108584694D01*
X174383372Y-108584694D01*
X174130297Y-108877885D01*
X174130281Y-108877905D01*
X173907008Y-109194414D01*
X173715688Y-109531198D01*
X173558142Y-109885051D01*
X173451814Y-110204689D01*
X173435881Y-110252585D01*
X173392244Y-110444654D01*
X173350067Y-110630297D01*
X173350066Y-110630300D01*
X173301522Y-111014565D01*
X173301521Y-111014578D01*
X173301521Y-111014580D01*
X173298571Y-111120194D01*
X173290705Y-111401767D01*
X173290705Y-111401768D01*
X155799469Y-111401768D01*
X154500178Y-110102477D01*
X154489530Y-110087470D01*
X154488914Y-110087962D01*
X154480203Y-110077039D01*
X154455950Y-110057697D01*
X154450763Y-110053061D01*
X154445217Y-110047515D01*
X154438576Y-110043342D01*
X154432905Y-110039319D01*
X154408645Y-110019972D01*
X154398249Y-110014966D01*
X154387342Y-110011149D01*
X154387340Y-110011148D01*
X154387336Y-110011147D01*
X154387335Y-110011147D01*
X154356516Y-110007675D01*
X154349661Y-110006510D01*
X154342008Y-110004764D01*
X154342006Y-110004764D01*
X154334159Y-110004764D01*
X154327213Y-110004374D01*
X154296388Y-110000901D01*
X154282508Y-110002466D01*
X154282419Y-110001682D01*
X154264284Y-110004764D01*
X152382001Y-110004764D01*
X152314962Y-109985079D01*
X152294320Y-109968445D01*
X149101834Y-106775958D01*
X149068349Y-106714635D01*
X149065515Y-106688277D01*
X149065515Y-105642773D01*
X150288389Y-105642773D01*
X150306795Y-105853160D01*
X150306797Y-105853171D01*
X150361455Y-106057159D01*
X150361457Y-106057163D01*
X150361458Y-106057167D01*
X150422158Y-106187339D01*
X150450714Y-106248578D01*
X150450716Y-106248582D01*
X150571848Y-106421576D01*
X150571853Y-106421582D01*
X150721189Y-106570918D01*
X150721195Y-106570923D01*
X150894189Y-106692055D01*
X150894191Y-106692056D01*
X150894194Y-106692058D01*
X151085605Y-106781314D01*
X151289606Y-106835976D01*
X151439887Y-106849123D01*
X151499998Y-106854383D01*
X151500000Y-106854383D01*
X151500002Y-106854383D01*
X151552598Y-106849781D01*
X151710394Y-106835976D01*
X151914395Y-106781314D01*
X152105806Y-106692058D01*
X152278809Y-106570920D01*
X152428148Y-106421581D01*
X152549286Y-106248578D01*
X152638542Y-106057167D01*
X152638542Y-106057166D01*
X152640830Y-106052260D01*
X152641850Y-106052735D01*
X152679921Y-106001027D01*
X152745190Y-105976090D01*
X152813578Y-105990399D01*
X152863375Y-106039409D01*
X152874285Y-106065765D01*
X152877644Y-106077572D01*
X152877649Y-106077585D01*
X152976646Y-106276398D01*
X152976651Y-106276406D01*
X152992209Y-106297007D01*
X153560680Y-105728538D01*
X153561749Y-105742800D01*
X153610703Y-105867532D01*
X153694248Y-105972294D01*
X153804960Y-106047776D01*
X153914698Y-106081626D01*
X153347760Y-106648562D01*
X153347761Y-106648563D01*
X153463488Y-106720217D01*
X153463495Y-106720221D01*
X153670607Y-106800456D01*
X153888945Y-106841272D01*
X154111055Y-106841272D01*
X154329392Y-106800456D01*
X154536503Y-106720222D01*
X154536509Y-106720219D01*
X154652237Y-106648563D01*
X154652238Y-106648562D01*
X154083398Y-106079722D01*
X154132499Y-106072322D01*
X154253224Y-106014184D01*
X154351450Y-105923044D01*
X154418447Y-105807000D01*
X154436906Y-105726125D01*
X155007788Y-106297007D01*
X155007789Y-106297007D01*
X155023349Y-106276404D01*
X155023350Y-106276401D01*
X155122350Y-106077585D01*
X155122353Y-106077578D01*
X155125712Y-106065771D01*
X155162989Y-106006676D01*
X155226297Y-105977116D01*
X155295537Y-105986475D01*
X155348726Y-106031782D01*
X155359019Y-106052330D01*
X155359170Y-106052260D01*
X155361457Y-106057166D01*
X155361458Y-106057167D01*
X155418207Y-106178866D01*
X155450714Y-106248578D01*
X155450716Y-106248582D01*
X155571848Y-106421576D01*
X155571853Y-106421582D01*
X155721189Y-106570918D01*
X155721195Y-106570923D01*
X155894189Y-106692055D01*
X155894191Y-106692056D01*
X155894194Y-106692058D01*
X156085605Y-106781314D01*
X156289606Y-106835976D01*
X156439887Y-106849123D01*
X156499998Y-106854383D01*
X156500000Y-106854383D01*
X156500002Y-106854383D01*
X156552598Y-106849781D01*
X156710394Y-106835976D01*
X156914395Y-106781314D01*
X157105806Y-106692058D01*
X157278809Y-106570920D01*
X157428148Y-106421581D01*
X157549286Y-106248578D01*
X157638542Y-106057167D01*
X157693204Y-105853166D01*
X157711611Y-105642772D01*
X157693204Y-105432378D01*
X157638542Y-105228377D01*
X157549286Y-105036967D01*
X157433460Y-104871549D01*
X157428149Y-104863964D01*
X157385319Y-104821134D01*
X157278809Y-104714624D01*
X157278805Y-104714621D01*
X157278804Y-104714620D01*
X157105810Y-104593488D01*
X157105806Y-104593486D01*
X157045410Y-104565323D01*
X156914395Y-104504230D01*
X156914391Y-104504229D01*
X156914387Y-104504227D01*
X156710399Y-104449569D01*
X156710395Y-104449568D01*
X156710394Y-104449568D01*
X156710393Y-104449567D01*
X156710388Y-104449567D01*
X156500002Y-104431161D01*
X156499998Y-104431161D01*
X156289611Y-104449567D01*
X156289600Y-104449569D01*
X156085612Y-104504227D01*
X156085603Y-104504231D01*
X155894196Y-104593485D01*
X155894194Y-104593486D01*
X155721188Y-104714625D01*
X155571853Y-104863960D01*
X155450714Y-105036966D01*
X155450713Y-105036968D01*
X155359170Y-105233284D01*
X155358154Y-105232810D01*
X155320054Y-105284534D01*
X155254779Y-105309455D01*
X155186394Y-105295130D01*
X155136609Y-105246107D01*
X155125713Y-105219774D01*
X155122355Y-105207970D01*
X155122350Y-105207958D01*
X155023351Y-105009142D01*
X155023349Y-105009139D01*
X155007788Y-104988534D01*
X154439319Y-105557004D01*
X154438251Y-105542744D01*
X154389297Y-105418012D01*
X154305752Y-105313250D01*
X154195040Y-105237768D01*
X154085301Y-105203917D01*
X154652238Y-104636980D01*
X154536503Y-104565322D01*
X154536504Y-104565322D01*
X154329392Y-104485087D01*
X154111055Y-104444272D01*
X153888945Y-104444272D01*
X153670607Y-104485087D01*
X153463497Y-104565321D01*
X153463494Y-104565323D01*
X153347760Y-104636980D01*
X153916602Y-105205821D01*
X153867501Y-105213222D01*
X153746776Y-105271360D01*
X153648550Y-105362500D01*
X153581553Y-105478544D01*
X153563093Y-105559417D01*
X152992210Y-104988534D01*
X152976651Y-105009139D01*
X152976646Y-105009146D01*
X152877649Y-105207958D01*
X152877646Y-105207966D01*
X152874285Y-105219780D01*
X152837004Y-105278873D01*
X152773693Y-105308429D01*
X152704454Y-105299065D01*
X152651269Y-105253754D01*
X152640980Y-105233213D01*
X152640830Y-105233284D01*
X152624504Y-105198272D01*
X152549286Y-105036967D01*
X152433460Y-104871549D01*
X152428149Y-104863964D01*
X152385319Y-104821134D01*
X152278809Y-104714624D01*
X152278805Y-104714621D01*
X152278804Y-104714620D01*
X152105810Y-104593488D01*
X152105806Y-104593486D01*
X152045410Y-104565323D01*
X151914395Y-104504230D01*
X151914391Y-104504229D01*
X151914387Y-104504227D01*
X151710399Y-104449569D01*
X151710395Y-104449568D01*
X151710394Y-104449568D01*
X151710393Y-104449567D01*
X151710388Y-104449567D01*
X151500002Y-104431161D01*
X151499998Y-104431161D01*
X151289611Y-104449567D01*
X151289600Y-104449569D01*
X151085612Y-104504227D01*
X151085603Y-104504231D01*
X150894196Y-104593485D01*
X150894194Y-104593486D01*
X150721188Y-104714625D01*
X150571853Y-104863960D01*
X150450714Y-105036966D01*
X150450713Y-105036968D01*
X150361459Y-105228375D01*
X150361455Y-105228384D01*
X150306797Y-105432372D01*
X150306795Y-105432383D01*
X150288389Y-105642770D01*
X150288389Y-105642773D01*
X149065515Y-105642773D01*
X149065515Y-99918540D01*
X161157845Y-99918540D01*
X161184326Y-100297234D01*
X161184865Y-100304931D01*
X161249460Y-100686844D01*
X161249461Y-100686850D01*
X161249462Y-100686852D01*
X161351018Y-101060639D01*
X161351021Y-101060648D01*
X161488557Y-101422711D01*
X161488568Y-101422735D01*
X161660782Y-101769658D01*
X161660788Y-101769670D01*
X161866039Y-102098140D01*
X161866047Y-102098151D01*
X162102375Y-102405030D01*
X162102379Y-102405034D01*
X162259084Y-102571908D01*
X162367525Y-102687386D01*
X162401732Y-102717332D01*
X162658962Y-102942520D01*
X162658965Y-102942522D01*
X162973890Y-103167987D01*
X162973901Y-103167994D01*
X162973908Y-103167999D01*
X163309351Y-103361667D01*
X163662093Y-103521678D01*
X164028765Y-103646503D01*
X164405868Y-103734952D01*
X164789803Y-103786180D01*
X165080128Y-103796318D01*
X165176902Y-103799698D01*
X165176904Y-103799698D01*
X165176915Y-103799698D01*
X165400709Y-103785616D01*
X165563477Y-103775376D01*
X165945831Y-103713449D01*
X166320318Y-103614505D01*
X166683362Y-103479490D01*
X167031498Y-103309693D01*
X167361403Y-103106734D01*
X167669929Y-102872550D01*
X167954130Y-102609377D01*
X168211293Y-102319727D01*
X168438964Y-102006365D01*
X168634970Y-101672281D01*
X168797439Y-101320666D01*
X168924821Y-100954874D01*
X169015900Y-100578397D01*
X169055531Y-100296410D01*
X175596518Y-100296410D01*
X175617113Y-100531813D01*
X175617115Y-100531823D01*
X175678271Y-100760065D01*
X175678273Y-100760069D01*
X175678274Y-100760073D01*
X175686953Y-100778685D01*
X175778141Y-100974238D01*
X175778142Y-100974240D01*
X175913682Y-101167812D01*
X176080774Y-101334904D01*
X176274346Y-101470444D01*
X176274348Y-101470445D01*
X176488514Y-101570313D01*
X176716769Y-101631473D01*
X176893209Y-101646909D01*
X176893210Y-101646910D01*
X176893211Y-101646910D01*
X177011144Y-101646910D01*
X177011144Y-101646909D01*
X177187585Y-101631473D01*
X177415840Y-101570313D01*
X177630006Y-101470445D01*
X177823578Y-101334905D01*
X177990672Y-101167811D01*
X178126212Y-100974240D01*
X178226080Y-100760073D01*
X178287240Y-100531818D01*
X178307836Y-100296410D01*
X178287240Y-100061002D01*
X178226080Y-99832747D01*
X178126212Y-99618581D01*
X178126211Y-99618579D01*
X177990671Y-99425007D01*
X177823579Y-99257915D01*
X177630007Y-99122375D01*
X177630005Y-99122374D01*
X177449774Y-99038331D01*
X177415840Y-99022507D01*
X177415836Y-99022506D01*
X177415832Y-99022504D01*
X177187590Y-98961348D01*
X177187580Y-98961346D01*
X177011144Y-98945910D01*
X177011143Y-98945910D01*
X176893211Y-98945910D01*
X176893210Y-98945910D01*
X176716773Y-98961346D01*
X176716763Y-98961348D01*
X176488521Y-99022504D01*
X176488512Y-99022508D01*
X176274348Y-99122374D01*
X176274346Y-99122375D01*
X176080774Y-99257915D01*
X175913683Y-99425007D01*
X175913678Y-99425014D01*
X175778144Y-99618575D01*
X175778142Y-99618579D01*
X175678275Y-99832745D01*
X175678271Y-99832754D01*
X175617115Y-100060996D01*
X175617113Y-100061006D01*
X175596518Y-100296409D01*
X175596518Y-100296410D01*
X169055531Y-100296410D01*
X169069807Y-100194830D01*
X169086027Y-99807832D01*
X169064406Y-99421099D01*
X169039144Y-99257915D01*
X169005151Y-99038331D01*
X169005148Y-99038317D01*
X168908825Y-98663163D01*
X168856772Y-98520146D01*
X168849294Y-98477736D01*
X168849294Y-95500000D01*
X179285996Y-95500000D01*
X179305958Y-95689928D01*
X179305959Y-95689931D01*
X179364970Y-95871549D01*
X179364973Y-95871556D01*
X179460460Y-96036944D01*
X179553465Y-96140237D01*
X179580331Y-96170075D01*
X179588247Y-96178866D01*
X179742748Y-96291118D01*
X179917212Y-96368794D01*
X180104013Y-96408500D01*
X180294987Y-96408500D01*
X180481788Y-96368794D01*
X180656252Y-96291118D01*
X180695494Y-96262607D01*
X180737371Y-96232182D01*
X180803177Y-96208702D01*
X180810256Y-96208500D01*
X186592322Y-96208500D01*
X186659361Y-96228185D01*
X186705116Y-96280989D01*
X186715060Y-96350147D01*
X186686035Y-96413703D01*
X186627257Y-96451477D01*
X186625668Y-96451932D01*
X186283802Y-96547382D01*
X186283797Y-96547384D01*
X185922682Y-96687451D01*
X185576945Y-96862096D01*
X185249911Y-97069637D01*
X185249898Y-97069647D01*
X184944693Y-97308098D01*
X184944681Y-97308109D01*
X184664179Y-97575228D01*
X184664178Y-97575228D01*
X184411103Y-97868419D01*
X184411087Y-97868439D01*
X184187814Y-98184948D01*
X183996494Y-98521732D01*
X183838948Y-98875585D01*
X183716936Y-99242369D01*
X183716687Y-99243119D01*
X183655999Y-99510237D01*
X183630873Y-99620831D01*
X183630872Y-99620834D01*
X183582328Y-100005099D01*
X183582327Y-100005116D01*
X183571511Y-100392301D01*
X183571511Y-100392302D01*
X183597228Y-100760073D01*
X183598531Y-100778693D01*
X183663126Y-101160606D01*
X183663127Y-101160612D01*
X183663128Y-101160614D01*
X183764684Y-101534401D01*
X183764687Y-101534410D01*
X183902223Y-101896473D01*
X183902234Y-101896497D01*
X184074448Y-102243420D01*
X184074454Y-102243432D01*
X184279705Y-102571902D01*
X184279713Y-102571913D01*
X184516041Y-102878792D01*
X184516045Y-102878796D01*
X184707933Y-103083136D01*
X184781191Y-103161148D01*
X184878036Y-103245929D01*
X185072628Y-103416282D01*
X185072631Y-103416284D01*
X185387556Y-103641749D01*
X185387567Y-103641756D01*
X185387574Y-103641761D01*
X185462662Y-103685113D01*
X185510878Y-103735680D01*
X185524101Y-103804287D01*
X185498133Y-103869152D01*
X185441218Y-103909680D01*
X185400662Y-103916500D01*
X183752330Y-103916500D01*
X183685291Y-103896815D01*
X183660180Y-103875472D01*
X183611258Y-103821138D01*
X183611255Y-103821136D01*
X183611254Y-103821135D01*
X183611253Y-103821134D01*
X183456752Y-103708882D01*
X183282288Y-103631206D01*
X183282286Y-103631205D01*
X183095487Y-103591500D01*
X182904513Y-103591500D01*
X182717714Y-103631205D01*
X182543246Y-103708883D01*
X182388745Y-103821135D01*
X182260959Y-103963057D01*
X182165473Y-104128443D01*
X182165470Y-104128450D01*
X182124469Y-104254640D01*
X182106458Y-104310072D01*
X182086496Y-104500000D01*
X182106458Y-104689928D01*
X182106459Y-104689931D01*
X182165470Y-104871549D01*
X182165473Y-104871556D01*
X182260960Y-105036944D01*
X182388747Y-105178866D01*
X182543248Y-105291118D01*
X182717712Y-105368794D01*
X182904513Y-105408500D01*
X183095487Y-105408500D01*
X183282288Y-105368794D01*
X183456752Y-105291118D01*
X183611253Y-105178866D01*
X183611886Y-105178163D01*
X183660180Y-105124528D01*
X183719667Y-105087879D01*
X183752330Y-105083500D01*
X189247670Y-105083500D01*
X189314709Y-105103185D01*
X189339820Y-105124528D01*
X189388741Y-105178861D01*
X189388744Y-105178863D01*
X189388747Y-105178866D01*
X189543248Y-105291118D01*
X189717712Y-105368794D01*
X189904513Y-105408500D01*
X190095487Y-105408500D01*
X190282288Y-105368794D01*
X190456752Y-105291118D01*
X190611253Y-105178866D01*
X190739040Y-105036944D01*
X190834527Y-104871556D01*
X190893542Y-104689928D01*
X190913504Y-104500000D01*
X190893542Y-104310072D01*
X190834527Y-104128444D01*
X190739040Y-103963056D01*
X190611253Y-103821134D01*
X190456752Y-103708882D01*
X190282288Y-103631206D01*
X190282286Y-103631205D01*
X190282287Y-103631205D01*
X190098760Y-103592195D01*
X190037279Y-103559002D01*
X190003503Y-103497839D01*
X190008155Y-103428124D01*
X190049571Y-103372137D01*
X190083595Y-103346312D01*
X190367796Y-103083139D01*
X190624959Y-102793489D01*
X190852630Y-102480127D01*
X191048636Y-102146043D01*
X191211105Y-101794428D01*
X191338487Y-101428636D01*
X191429566Y-101052159D01*
X191483473Y-100668592D01*
X191494134Y-100414198D01*
X191516608Y-100348044D01*
X191530338Y-100331718D01*
X192984533Y-98877523D01*
X192987208Y-98875004D01*
X193034215Y-98833361D01*
X193069870Y-98781703D01*
X193072067Y-98778719D01*
X193079405Y-98769354D01*
X193110775Y-98729314D01*
X193115033Y-98719852D01*
X193126060Y-98700301D01*
X193131954Y-98691763D01*
X193154213Y-98633066D01*
X193155622Y-98629665D01*
X193181389Y-98572417D01*
X193183260Y-98562204D01*
X193189288Y-98540583D01*
X193192965Y-98530889D01*
X193200527Y-98468602D01*
X193201091Y-98464903D01*
X193212402Y-98403181D01*
X193208613Y-98340542D01*
X193208500Y-98336797D01*
X193208500Y-96523295D01*
X193208613Y-96519551D01*
X193212402Y-96456908D01*
X193201091Y-96395184D01*
X193200527Y-96391480D01*
X193199700Y-96384668D01*
X193192965Y-96329199D01*
X193189286Y-96319500D01*
X193183260Y-96297881D01*
X193181389Y-96287671D01*
X193181388Y-96287667D01*
X193162102Y-96244819D01*
X193155619Y-96230414D01*
X193154212Y-96227017D01*
X193131954Y-96168325D01*
X193126060Y-96159786D01*
X193115033Y-96140237D01*
X193110775Y-96130775D01*
X193110773Y-96130772D01*
X193110772Y-96130770D01*
X193072085Y-96081391D01*
X193069865Y-96078373D01*
X193034218Y-96026731D01*
X193034216Y-96026729D01*
X193034215Y-96026727D01*
X193034212Y-96026724D01*
X193034210Y-96026722D01*
X192987245Y-95985115D01*
X192984533Y-95982563D01*
X192017434Y-95015464D01*
X192014900Y-95012772D01*
X191973273Y-94965785D01*
X191973272Y-94965784D01*
X191973271Y-94965783D01*
X191921628Y-94930136D01*
X191918611Y-94927916D01*
X191869227Y-94889225D01*
X191863235Y-94886528D01*
X191859760Y-94884964D01*
X191840216Y-94873941D01*
X191835210Y-94870486D01*
X191831677Y-94868047D01*
X191831672Y-94868044D01*
X191773015Y-94845798D01*
X191769555Y-94844365D01*
X191712331Y-94818611D01*
X191712332Y-94818611D01*
X191702110Y-94816738D01*
X191680510Y-94810716D01*
X191670801Y-94807035D01*
X191670797Y-94807034D01*
X191670796Y-94807034D01*
X191608511Y-94799470D01*
X191604810Y-94798907D01*
X191543096Y-94787598D01*
X191543090Y-94787598D01*
X191480455Y-94791387D01*
X191476710Y-94791500D01*
X180810256Y-94791500D01*
X180743217Y-94771815D01*
X180737371Y-94767818D01*
X180656256Y-94708884D01*
X180656252Y-94708882D01*
X180481788Y-94631206D01*
X180481786Y-94631205D01*
X180294987Y-94591500D01*
X180104013Y-94591500D01*
X179917214Y-94631205D01*
X179742746Y-94708883D01*
X179588245Y-94821135D01*
X179460459Y-94963057D01*
X179364973Y-95128443D01*
X179364970Y-95128450D01*
X179305959Y-95310068D01*
X179305958Y-95310072D01*
X179285996Y-95500000D01*
X168849294Y-95500000D01*
X168849294Y-90133327D01*
X168868979Y-90066288D01*
X168885613Y-90045646D01*
X170786441Y-88144819D01*
X170847764Y-88111334D01*
X170874122Y-88108500D01*
X171412388Y-88108500D01*
X171479427Y-88128185D01*
X171525182Y-88180989D01*
X171535126Y-88250147D01*
X171506101Y-88313703D01*
X171497908Y-88322288D01*
X171406225Y-88409598D01*
X171323167Y-88488693D01*
X171323166Y-88488693D01*
X171070091Y-88781884D01*
X171070075Y-88781904D01*
X170846802Y-89098413D01*
X170655482Y-89435197D01*
X170497936Y-89789050D01*
X170375924Y-90155834D01*
X170375675Y-90156584D01*
X170322072Y-90392520D01*
X170289861Y-90534296D01*
X170289860Y-90534299D01*
X170241316Y-90918564D01*
X170241315Y-90918581D01*
X170230499Y-91305766D01*
X170230499Y-91305767D01*
X170256516Y-91677828D01*
X170257519Y-91692158D01*
X170322114Y-92074071D01*
X170322115Y-92074077D01*
X170322116Y-92074079D01*
X170423672Y-92447866D01*
X170423675Y-92447875D01*
X170561211Y-92809938D01*
X170561222Y-92809962D01*
X170733436Y-93156885D01*
X170733442Y-93156897D01*
X170938693Y-93485367D01*
X170938701Y-93485378D01*
X171175029Y-93792257D01*
X171175033Y-93792261D01*
X171440176Y-94074610D01*
X171731616Y-94329747D01*
X171731619Y-94329749D01*
X172046544Y-94555214D01*
X172046555Y-94555221D01*
X172046562Y-94555226D01*
X172382005Y-94748894D01*
X172734747Y-94908905D01*
X173101419Y-95033730D01*
X173478522Y-95122179D01*
X173862457Y-95173407D01*
X174152782Y-95183545D01*
X174249556Y-95186925D01*
X174249558Y-95186925D01*
X174249569Y-95186925D01*
X174473363Y-95172843D01*
X174636131Y-95162603D01*
X175018485Y-95100676D01*
X175392972Y-95001732D01*
X175756016Y-94866717D01*
X176104152Y-94696920D01*
X176434057Y-94493961D01*
X176742583Y-94259777D01*
X177026784Y-93996604D01*
X177283947Y-93706954D01*
X177511618Y-93393592D01*
X177707624Y-93059508D01*
X177870093Y-92707893D01*
X177997475Y-92342101D01*
X178088554Y-91965624D01*
X178142461Y-91582057D01*
X178158681Y-91195059D01*
X178137060Y-90808326D01*
X178129804Y-90761456D01*
X178077805Y-90425558D01*
X178077802Y-90425544D01*
X177981479Y-90050390D01*
X177980143Y-90046720D01*
X177929426Y-89907373D01*
X177921948Y-89864963D01*
X177921948Y-87428054D01*
X177941633Y-87361015D01*
X177994437Y-87315260D01*
X178063595Y-87305316D01*
X178096380Y-87314773D01*
X178217712Y-87368794D01*
X178404513Y-87408500D01*
X178595487Y-87408500D01*
X178782288Y-87368794D01*
X178956752Y-87291118D01*
X179111253Y-87178866D01*
X179239040Y-87036944D01*
X179334527Y-86871556D01*
X179393542Y-86689928D01*
X179413504Y-86500000D01*
X179413504Y-86499996D01*
X179413504Y-86498406D01*
X179413764Y-86497519D01*
X179414183Y-86493536D01*
X179414911Y-86493612D01*
X179433189Y-86431367D01*
X179449823Y-86410725D01*
X179819441Y-86041107D01*
X180230390Y-85630157D01*
X180236481Y-85624815D01*
X180265175Y-85602799D01*
X180283455Y-85578976D01*
X180289663Y-85570885D01*
X180289665Y-85570884D01*
X180362712Y-85475688D01*
X180424026Y-85327663D01*
X180430556Y-85278062D01*
X180438790Y-85215510D01*
X180467055Y-85151616D01*
X180469544Y-85148763D01*
X180570228Y-85036944D01*
X180643701Y-84909684D01*
X180694266Y-84861471D01*
X180747154Y-84847748D01*
X180890841Y-84843188D01*
X180995022Y-84824818D01*
X181026404Y-84818252D01*
X181159881Y-84764816D01*
X181168381Y-84759907D01*
X181737860Y-84759907D01*
X181746318Y-84764790D01*
X181746363Y-84764815D01*
X181774622Y-84779956D01*
X181911216Y-84824817D01*
X182015408Y-84843189D01*
X182047128Y-84847749D01*
X182190841Y-84843188D01*
X182295022Y-84824818D01*
X182326404Y-84818252D01*
X182459881Y-84764816D01*
X182468381Y-84759907D01*
X183037860Y-84759907D01*
X183046318Y-84764790D01*
X183046363Y-84764815D01*
X183074622Y-84779956D01*
X183211216Y-84824817D01*
X183315408Y-84843189D01*
X183347128Y-84847749D01*
X183490841Y-84843188D01*
X183595022Y-84824818D01*
X183626404Y-84818252D01*
X183759881Y-84764816D01*
X183768383Y-84759906D01*
X183768384Y-84759905D01*
X183403124Y-84394646D01*
X183403123Y-84394646D01*
X183037860Y-84759906D01*
X183037860Y-84759907D01*
X182468381Y-84759907D01*
X182468383Y-84759906D01*
X182468384Y-84759906D01*
X182103124Y-84394646D01*
X182103123Y-84394646D01*
X181737860Y-84759906D01*
X181737860Y-84759907D01*
X181168381Y-84759907D01*
X181168383Y-84759906D01*
X180748755Y-84340278D01*
X180718505Y-84290915D01*
X180715013Y-84280168D01*
X180680651Y-84174411D01*
X180679001Y-84169333D01*
X180683604Y-84176002D01*
X180759989Y-84216093D01*
X180824370Y-84216093D01*
X180886883Y-84200685D01*
X180951455Y-84143479D01*
X180982046Y-84062818D01*
X180979408Y-84041093D01*
X181156676Y-84041093D01*
X181453122Y-84337540D01*
X181749570Y-84041092D01*
X181727846Y-84019368D01*
X181924200Y-84019368D01*
X181934598Y-84105006D01*
X181983604Y-84176002D01*
X182059989Y-84216093D01*
X182124370Y-84216093D01*
X182186883Y-84200685D01*
X182251455Y-84143479D01*
X182282046Y-84062818D01*
X182279408Y-84041093D01*
X182456676Y-84041093D01*
X182753122Y-84337540D01*
X183049570Y-84041093D01*
X183049570Y-84041092D01*
X183027846Y-84019368D01*
X183224200Y-84019368D01*
X183234598Y-84105006D01*
X183283604Y-84176002D01*
X183359989Y-84216093D01*
X183424370Y-84216093D01*
X183486883Y-84200685D01*
X183551455Y-84143479D01*
X183582046Y-84062818D01*
X183579408Y-84041094D01*
X183756676Y-84041094D01*
X184120732Y-84405151D01*
X184120733Y-84405150D01*
X184141617Y-84366172D01*
X184177799Y-84266764D01*
X184187802Y-84236304D01*
X184208264Y-84093989D01*
X184208265Y-84093989D01*
X184208265Y-83988213D01*
X184208264Y-83988191D01*
X184207247Y-83956161D01*
X184177801Y-83815426D01*
X184141628Y-83716039D01*
X184129703Y-83686251D01*
X184122739Y-83675027D01*
X183756676Y-84041092D01*
X183756676Y-84041094D01*
X183579408Y-84041094D01*
X183571648Y-83977180D01*
X183522642Y-83906184D01*
X183446257Y-83866093D01*
X183381876Y-83866093D01*
X183319363Y-83881501D01*
X183254791Y-83938707D01*
X183224200Y-84019368D01*
X183027846Y-84019368D01*
X182753122Y-83744646D01*
X182753121Y-83744646D01*
X182456676Y-84041092D01*
X182456676Y-84041093D01*
X182279408Y-84041093D01*
X182271648Y-83977180D01*
X182222642Y-83906184D01*
X182146257Y-83866093D01*
X182081876Y-83866093D01*
X182019363Y-83881501D01*
X181954791Y-83938707D01*
X181924200Y-84019368D01*
X181727846Y-84019368D01*
X181453122Y-83744646D01*
X181453121Y-83744646D01*
X181156676Y-84041092D01*
X181156676Y-84041093D01*
X180979408Y-84041093D01*
X180971648Y-83977180D01*
X180922642Y-83906184D01*
X180846257Y-83866093D01*
X180781876Y-83866093D01*
X180719363Y-83881501D01*
X180654791Y-83938707D01*
X180624200Y-84019368D01*
X180629914Y-84066436D01*
X180570228Y-83963056D01*
X180442441Y-83821134D01*
X180287940Y-83708882D01*
X180113476Y-83631206D01*
X180113474Y-83631205D01*
X179926675Y-83591500D01*
X179735701Y-83591500D01*
X179548902Y-83631205D01*
X179374434Y-83708883D01*
X179219933Y-83821135D01*
X179092147Y-83963057D01*
X178996661Y-84128443D01*
X178996658Y-84128450D01*
X178937647Y-84310068D01*
X178937646Y-84310072D01*
X178917684Y-84500000D01*
X178937646Y-84689928D01*
X178937647Y-84689931D01*
X178996658Y-84871549D01*
X178996661Y-84871556D01*
X179048365Y-84961110D01*
X179064838Y-85029011D01*
X179041985Y-85095037D01*
X179028659Y-85110791D01*
X178584270Y-85555181D01*
X178522947Y-85588666D01*
X178496589Y-85591500D01*
X178404513Y-85591500D01*
X178217714Y-85631205D01*
X178080307Y-85692382D01*
X178011057Y-85701666D01*
X177947780Y-85672037D01*
X177910567Y-85612902D01*
X177906551Y-85566147D01*
X177913504Y-85500000D01*
X177893542Y-85310072D01*
X177834527Y-85128444D01*
X177739040Y-84963056D01*
X177611253Y-84821134D01*
X177456752Y-84708882D01*
X177282288Y-84631206D01*
X177282286Y-84631205D01*
X177095487Y-84591500D01*
X176904513Y-84591500D01*
X176717714Y-84631205D01*
X176543246Y-84708883D01*
X176388744Y-84821136D01*
X176388741Y-84821138D01*
X176362330Y-84850472D01*
X176302843Y-84887121D01*
X176270180Y-84891500D01*
X175543953Y-84891500D01*
X175535854Y-84890969D01*
X175506624Y-84887121D01*
X175500001Y-84886249D01*
X175499999Y-84886249D01*
X175341150Y-84907161D01*
X175341145Y-84907163D01*
X175193128Y-84968473D01*
X175193123Y-84968476D01*
X175098467Y-85041107D01*
X175098468Y-85041108D01*
X175066011Y-85066014D01*
X175043996Y-85094703D01*
X175038644Y-85100805D01*
X174645289Y-85494162D01*
X174284270Y-85855181D01*
X174222947Y-85888666D01*
X174196589Y-85891500D01*
X173043953Y-85891500D01*
X173035854Y-85890969D01*
X173013873Y-85888075D01*
X173000001Y-85886249D01*
X172999999Y-85886249D01*
X172841150Y-85907161D01*
X172841145Y-85907163D01*
X172693128Y-85968473D01*
X172693123Y-85968476D01*
X172598467Y-86041107D01*
X172598468Y-86041108D01*
X172566011Y-86066014D01*
X172543996Y-86094703D01*
X172538644Y-86100805D01*
X172145839Y-86493612D01*
X171784270Y-86855181D01*
X171722947Y-86888666D01*
X171696589Y-86891500D01*
X170785993Y-86891500D01*
X170729699Y-86877985D01*
X170724835Y-86875506D01*
X170643647Y-86857359D01*
X170562463Y-86839212D01*
X170562460Y-86839212D01*
X170396167Y-86844438D01*
X170236404Y-86890853D01*
X170236398Y-86890855D01*
X170093195Y-86975545D01*
X170093187Y-86975551D01*
X167878216Y-89190522D01*
X167848161Y-89212637D01*
X167735370Y-89271834D01*
X167735361Y-89271840D01*
X167606583Y-89385928D01*
X167606580Y-89385931D01*
X167508839Y-89527532D01*
X167447829Y-89688403D01*
X167432294Y-89816344D01*
X167432294Y-96384668D01*
X167412609Y-96451707D01*
X167359805Y-96497462D01*
X167290647Y-96507406D01*
X167244801Y-96491179D01*
X166982812Y-96335003D01*
X166982813Y-96335003D01*
X166982806Y-96335000D01*
X166982805Y-96334999D01*
X166760627Y-96230450D01*
X166632324Y-96170075D01*
X166267439Y-96040145D01*
X165891607Y-95946441D01*
X165891609Y-95946441D01*
X165732565Y-95922955D01*
X165508425Y-95889857D01*
X165508418Y-95889856D01*
X165508420Y-95889856D01*
X165121550Y-95870936D01*
X165010862Y-95872481D01*
X164624653Y-95902198D01*
X164243208Y-95969457D01*
X163870136Y-96073620D01*
X163870131Y-96073622D01*
X163509016Y-96213689D01*
X163163279Y-96388334D01*
X162836245Y-96595875D01*
X162836232Y-96595885D01*
X162531027Y-96834336D01*
X162531015Y-96834347D01*
X162250513Y-97101466D01*
X162250512Y-97101466D01*
X161997437Y-97394657D01*
X161997421Y-97394677D01*
X161774148Y-97711186D01*
X161582828Y-98047970D01*
X161425282Y-98401823D01*
X161316341Y-98729316D01*
X161303021Y-98769357D01*
X161222818Y-99122374D01*
X161217207Y-99147069D01*
X161217206Y-99147072D01*
X161168662Y-99531337D01*
X161168661Y-99531354D01*
X161157845Y-99918539D01*
X161157845Y-99918540D01*
X149065515Y-99918540D01*
X149065515Y-90126029D01*
X149085200Y-90058990D01*
X149100559Y-90039641D01*
X156708790Y-82206077D01*
X156769615Y-82171704D01*
X156839372Y-82175671D01*
X156895910Y-82216722D01*
X156921280Y-82281823D01*
X156921059Y-82305433D01*
X156918673Y-82328140D01*
X156915249Y-82360717D01*
X156935211Y-82550645D01*
X156935212Y-82550648D01*
X156994223Y-82732266D01*
X156994226Y-82732273D01*
X157089713Y-82897661D01*
X157217500Y-83039583D01*
X157372001Y-83151835D01*
X157546465Y-83229511D01*
X157733266Y-83269217D01*
X157924240Y-83269217D01*
X158111041Y-83229511D01*
X158285505Y-83151835D01*
X158440006Y-83039583D01*
X158567793Y-82897661D01*
X158663280Y-82732273D01*
X158722295Y-82550645D01*
X158742257Y-82360717D01*
X158738832Y-82328137D01*
X158751401Y-82259410D01*
X158774469Y-82227499D01*
X159129819Y-81872149D01*
X159191142Y-81838665D01*
X159260834Y-81843649D01*
X159316767Y-81885521D01*
X159341184Y-81950985D01*
X159341500Y-81959831D01*
X159341500Y-89402488D01*
X159321815Y-89469527D01*
X159269011Y-89515282D01*
X159199853Y-89525226D01*
X159136297Y-89496201D01*
X159105673Y-89456066D01*
X159048670Y-89337091D01*
X158959904Y-89190522D01*
X158848018Y-89005775D01*
X158615994Y-88695622D01*
X158615992Y-88695620D01*
X158615990Y-88695617D01*
X158427041Y-88488693D01*
X158354811Y-88409591D01*
X158174007Y-88246794D01*
X158066970Y-88150417D01*
X158066967Y-88150415D01*
X158066964Y-88150412D01*
X157755199Y-87920559D01*
X157711708Y-87894633D01*
X157422499Y-87722230D01*
X157422500Y-87722230D01*
X157422493Y-87722227D01*
X157422492Y-87722226D01*
X157092922Y-87567142D01*
X157072011Y-87557302D01*
X156707126Y-87427372D01*
X156331294Y-87333668D01*
X156331296Y-87333668D01*
X156139296Y-87305316D01*
X155948112Y-87277084D01*
X155948105Y-87277083D01*
X155948107Y-87277083D01*
X155561237Y-87258163D01*
X155450549Y-87259708D01*
X155064340Y-87289425D01*
X154682895Y-87356684D01*
X154309823Y-87460847D01*
X154309818Y-87460849D01*
X153948703Y-87600916D01*
X153602966Y-87775561D01*
X153275932Y-87983102D01*
X153275919Y-87983112D01*
X152970714Y-88221563D01*
X152970702Y-88221574D01*
X152690200Y-88488693D01*
X152690199Y-88488693D01*
X152437124Y-88781884D01*
X152437108Y-88781904D01*
X152213835Y-89098413D01*
X152022515Y-89435197D01*
X151864969Y-89789050D01*
X151742957Y-90155834D01*
X151742708Y-90156584D01*
X151689105Y-90392520D01*
X151656894Y-90534296D01*
X151656893Y-90534299D01*
X151608349Y-90918564D01*
X151608348Y-90918581D01*
X151597532Y-91305766D01*
X151597532Y-91305767D01*
X151623549Y-91677828D01*
X151624552Y-91692158D01*
X151689147Y-92074071D01*
X151689148Y-92074077D01*
X151689149Y-92074079D01*
X151790705Y-92447866D01*
X151790708Y-92447875D01*
X151928244Y-92809938D01*
X151928255Y-92809962D01*
X152100469Y-93156885D01*
X152100475Y-93156897D01*
X152305726Y-93485367D01*
X152305734Y-93485378D01*
X152542062Y-93792257D01*
X152542066Y-93792261D01*
X152807209Y-94074610D01*
X153098649Y-94329747D01*
X153098652Y-94329749D01*
X153413577Y-94555214D01*
X153413588Y-94555221D01*
X153413595Y-94555226D01*
X153749038Y-94748894D01*
X154101780Y-94908905D01*
X154468452Y-95033730D01*
X154845555Y-95122179D01*
X155229490Y-95173407D01*
X155519815Y-95183545D01*
X155616589Y-95186925D01*
X155616591Y-95186925D01*
X155616602Y-95186925D01*
X155840396Y-95172843D01*
X156003164Y-95162603D01*
X156385518Y-95100676D01*
X156760005Y-95001732D01*
X157123049Y-94866717D01*
X157471185Y-94696920D01*
X157801090Y-94493961D01*
X158109616Y-94259777D01*
X158393817Y-93996604D01*
X158650980Y-93706954D01*
X158878651Y-93393592D01*
X159074657Y-93059508D01*
X159237126Y-92707893D01*
X159364508Y-92342101D01*
X159455587Y-91965624D01*
X159509494Y-91582057D01*
X159520155Y-91327663D01*
X159542629Y-91261509D01*
X159556359Y-91245183D01*
X159801543Y-91000000D01*
X163757343Y-91000000D01*
X163777938Y-91235403D01*
X163777940Y-91235413D01*
X163839096Y-91463655D01*
X163839098Y-91463659D01*
X163839099Y-91463663D01*
X163889032Y-91570746D01*
X163938966Y-91677828D01*
X163938967Y-91677830D01*
X164074507Y-91871402D01*
X164241599Y-92038494D01*
X164435171Y-92174034D01*
X164435173Y-92174035D01*
X164649339Y-92273903D01*
X164877594Y-92335063D01*
X165054034Y-92350499D01*
X165054035Y-92350500D01*
X165054036Y-92350500D01*
X165171969Y-92350500D01*
X165171969Y-92350499D01*
X165348410Y-92335063D01*
X165576665Y-92273903D01*
X165790831Y-92174035D01*
X165984403Y-92038495D01*
X166151497Y-91871401D01*
X166287037Y-91677830D01*
X166386905Y-91463663D01*
X166448065Y-91235408D01*
X166468661Y-91000000D01*
X166448065Y-90764592D01*
X166392890Y-90558672D01*
X166386907Y-90536344D01*
X166386906Y-90536343D01*
X166386905Y-90536337D01*
X166287037Y-90322171D01*
X166287036Y-90322169D01*
X166151496Y-90128597D01*
X165984404Y-89961505D01*
X165790832Y-89825965D01*
X165790830Y-89825964D01*
X165654643Y-89762459D01*
X165576665Y-89726097D01*
X165576661Y-89726096D01*
X165576657Y-89726094D01*
X165348415Y-89664938D01*
X165348405Y-89664936D01*
X165171969Y-89649500D01*
X165171968Y-89649500D01*
X165054036Y-89649500D01*
X165054035Y-89649500D01*
X164877598Y-89664936D01*
X164877588Y-89664938D01*
X164649346Y-89726094D01*
X164649337Y-89726098D01*
X164435173Y-89825964D01*
X164435171Y-89825965D01*
X164241599Y-89961505D01*
X164074508Y-90128597D01*
X164074503Y-90128604D01*
X163938969Y-90322165D01*
X163938967Y-90322169D01*
X163839100Y-90536335D01*
X163839096Y-90536344D01*
X163777940Y-90764586D01*
X163777938Y-90764596D01*
X163757343Y-90999999D01*
X163757343Y-91000000D01*
X159801543Y-91000000D01*
X160531291Y-90270253D01*
X160610775Y-90168800D01*
X160616275Y-90156581D01*
X160681388Y-90011905D01*
X160681389Y-90011903D01*
X160712402Y-89842667D01*
X160702013Y-89670925D01*
X160664114Y-89549299D01*
X160658500Y-89512410D01*
X160658500Y-82253409D01*
X160678185Y-82186370D01*
X160694814Y-82165733D01*
X161147132Y-81713415D01*
X161208453Y-81679932D01*
X161278145Y-81684916D01*
X161334078Y-81726788D01*
X161358495Y-81792252D01*
X161352472Y-81840238D01*
X161315632Y-81950985D01*
X161303021Y-81988894D01*
X161261488Y-82171704D01*
X161217207Y-82366606D01*
X161217206Y-82366609D01*
X161168662Y-82750874D01*
X161168661Y-82750887D01*
X161168661Y-82750889D01*
X161163481Y-82936304D01*
X161157845Y-83138076D01*
X161157845Y-83138077D01*
X161178528Y-83433857D01*
X161184865Y-83524468D01*
X161249460Y-83906381D01*
X161249461Y-83906387D01*
X161249462Y-83906389D01*
X161351018Y-84280176D01*
X161351021Y-84280185D01*
X161484363Y-84631206D01*
X161488562Y-84642260D01*
X161546962Y-84759906D01*
X161660782Y-84989195D01*
X161660788Y-84989207D01*
X161866039Y-85317677D01*
X161866047Y-85317688D01*
X162102375Y-85624567D01*
X162102379Y-85624571D01*
X162367522Y-85906920D01*
X162367525Y-85906923D01*
X162450031Y-85979151D01*
X162658962Y-86162057D01*
X162658965Y-86162059D01*
X162973890Y-86387524D01*
X162973901Y-86387531D01*
X162973908Y-86387536D01*
X163309351Y-86581204D01*
X163662093Y-86741215D01*
X164028765Y-86866040D01*
X164405868Y-86954489D01*
X164789803Y-87005717D01*
X165080128Y-87015855D01*
X165176902Y-87019235D01*
X165176904Y-87019235D01*
X165176915Y-87019235D01*
X165400709Y-87005153D01*
X165563477Y-86994913D01*
X165945831Y-86932986D01*
X166320318Y-86834042D01*
X166683362Y-86699027D01*
X167031498Y-86529230D01*
X167361403Y-86326271D01*
X167669929Y-86092087D01*
X167954130Y-85828914D01*
X168211293Y-85539264D01*
X168438964Y-85225902D01*
X168634970Y-84891818D01*
X168797439Y-84540203D01*
X168924821Y-84174411D01*
X169015900Y-83797934D01*
X169069807Y-83414367D01*
X169070782Y-83391093D01*
X180506676Y-83391093D01*
X180803123Y-83687540D01*
X181099570Y-83391093D01*
X181806676Y-83391093D01*
X182103123Y-83687540D01*
X182399570Y-83391093D01*
X183106676Y-83391093D01*
X183403123Y-83687540D01*
X183699570Y-83391093D01*
X183403123Y-83094646D01*
X183106676Y-83391092D01*
X183106676Y-83391093D01*
X182399570Y-83391093D01*
X182103123Y-83094646D01*
X181806676Y-83391092D01*
X181806676Y-83391093D01*
X181099570Y-83391093D01*
X180803123Y-83094646D01*
X180506676Y-83391093D01*
X169070782Y-83391093D01*
X169086027Y-83027369D01*
X169072980Y-82793994D01*
X179997981Y-82793994D01*
X179998998Y-82826024D01*
X180028444Y-82966759D01*
X180064623Y-83066163D01*
X180076540Y-83095930D01*
X180076543Y-83095937D01*
X180083504Y-83107156D01*
X180083505Y-83107156D01*
X180449570Y-82741093D01*
X180449570Y-82741092D01*
X180427846Y-82719368D01*
X180624200Y-82719368D01*
X180634598Y-82805006D01*
X180683604Y-82876002D01*
X180759989Y-82916093D01*
X180824370Y-82916093D01*
X180886883Y-82900685D01*
X180951455Y-82843479D01*
X180982046Y-82762818D01*
X180979408Y-82741093D01*
X181156676Y-82741093D01*
X181453122Y-83037540D01*
X181749570Y-82741093D01*
X181749570Y-82741092D01*
X181727846Y-82719368D01*
X181924200Y-82719368D01*
X181934598Y-82805006D01*
X181983604Y-82876002D01*
X182059989Y-82916093D01*
X182124370Y-82916093D01*
X182186883Y-82900685D01*
X182251455Y-82843479D01*
X182282046Y-82762818D01*
X182279408Y-82741093D01*
X182456676Y-82741093D01*
X182753122Y-83037540D01*
X183049570Y-82741092D01*
X183027846Y-82719368D01*
X183224200Y-82719368D01*
X183234598Y-82805006D01*
X183283604Y-82876002D01*
X183359989Y-82916093D01*
X183424370Y-82916093D01*
X183486883Y-82900685D01*
X183551455Y-82843479D01*
X183582046Y-82762818D01*
X183579408Y-82741094D01*
X183756676Y-82741094D01*
X184120732Y-83105151D01*
X184120733Y-83105150D01*
X184141617Y-83066172D01*
X184177799Y-82966764D01*
X184187802Y-82936304D01*
X184208264Y-82793989D01*
X184208265Y-82793989D01*
X184208265Y-82688213D01*
X184208264Y-82688191D01*
X184207247Y-82656161D01*
X184177801Y-82515426D01*
X184141628Y-82416039D01*
X184129703Y-82386251D01*
X184122739Y-82375027D01*
X183756676Y-82741092D01*
X183756676Y-82741094D01*
X183579408Y-82741094D01*
X183571648Y-82677180D01*
X183522642Y-82606184D01*
X183446257Y-82566093D01*
X183381876Y-82566093D01*
X183319363Y-82581501D01*
X183254791Y-82638707D01*
X183224200Y-82719368D01*
X183027846Y-82719368D01*
X182753122Y-82444646D01*
X182753121Y-82444646D01*
X182456676Y-82741092D01*
X182456676Y-82741093D01*
X182279408Y-82741093D01*
X182271648Y-82677180D01*
X182222642Y-82606184D01*
X182146257Y-82566093D01*
X182081876Y-82566093D01*
X182019363Y-82581501D01*
X181954791Y-82638707D01*
X181924200Y-82719368D01*
X181727846Y-82719368D01*
X181453122Y-82444646D01*
X181453121Y-82444646D01*
X181156676Y-82741092D01*
X181156676Y-82741093D01*
X180979408Y-82741093D01*
X180971648Y-82677180D01*
X180922642Y-82606184D01*
X180846257Y-82566093D01*
X180781876Y-82566093D01*
X180719363Y-82581501D01*
X180654791Y-82638707D01*
X180624200Y-82719368D01*
X180427846Y-82719368D01*
X180085511Y-82377033D01*
X180085510Y-82377034D01*
X180064628Y-82416010D01*
X180064626Y-82416014D01*
X180028451Y-82515406D01*
X180028448Y-82515415D01*
X180018443Y-82545881D01*
X179997981Y-82688196D01*
X179997981Y-82793994D01*
X169072980Y-82793994D01*
X169064406Y-82640636D01*
X169059073Y-82606184D01*
X169005151Y-82257868D01*
X169005148Y-82257854D01*
X168962331Y-82091093D01*
X180506676Y-82091093D01*
X180803123Y-82387540D01*
X181099570Y-82091093D01*
X181806676Y-82091093D01*
X182103123Y-82387540D01*
X182399570Y-82091093D01*
X183106676Y-82091093D01*
X183403123Y-82387540D01*
X183699570Y-82091093D01*
X183403123Y-81794646D01*
X183106676Y-82091092D01*
X183106676Y-82091093D01*
X182399570Y-82091093D01*
X182103123Y-81794646D01*
X181806676Y-82091093D01*
X181099570Y-82091093D01*
X180803123Y-81794646D01*
X180506676Y-82091093D01*
X168962331Y-82091093D01*
X168908825Y-81882700D01*
X168856772Y-81739683D01*
X168849294Y-81697273D01*
X168849294Y-81493994D01*
X179997981Y-81493994D01*
X179998998Y-81526024D01*
X180028444Y-81666759D01*
X180064623Y-81766163D01*
X180076540Y-81795930D01*
X180076543Y-81795937D01*
X180083504Y-81807156D01*
X180083505Y-81807156D01*
X180449570Y-81441093D01*
X180449570Y-81441092D01*
X180427846Y-81419368D01*
X180624200Y-81419368D01*
X180634598Y-81505006D01*
X180683604Y-81576002D01*
X180759989Y-81616093D01*
X180824370Y-81616093D01*
X180886883Y-81600685D01*
X180951455Y-81543479D01*
X180982046Y-81462818D01*
X180979408Y-81441093D01*
X181156676Y-81441093D01*
X181453122Y-81737540D01*
X181749570Y-81441092D01*
X181727846Y-81419368D01*
X181924200Y-81419368D01*
X181934598Y-81505006D01*
X181983604Y-81576002D01*
X182059989Y-81616093D01*
X182124370Y-81616093D01*
X182186883Y-81600685D01*
X182251455Y-81543479D01*
X182282046Y-81462818D01*
X182279408Y-81441093D01*
X182456676Y-81441093D01*
X182753122Y-81737540D01*
X183049570Y-81441093D01*
X183049570Y-81441092D01*
X183027846Y-81419368D01*
X183224200Y-81419368D01*
X183234598Y-81505006D01*
X183283604Y-81576002D01*
X183359989Y-81616093D01*
X183424370Y-81616093D01*
X183486883Y-81600685D01*
X183551455Y-81543479D01*
X183582046Y-81462818D01*
X183579408Y-81441094D01*
X183756676Y-81441094D01*
X184120733Y-81805151D01*
X184120733Y-81805150D01*
X184141617Y-81766172D01*
X184177799Y-81666764D01*
X184187802Y-81636304D01*
X184208264Y-81493989D01*
X184208265Y-81493989D01*
X184208265Y-81388213D01*
X184208264Y-81388191D01*
X184207247Y-81356161D01*
X184177801Y-81215426D01*
X184141628Y-81116039D01*
X184129703Y-81086251D01*
X184122739Y-81075027D01*
X183756676Y-81441092D01*
X183756676Y-81441094D01*
X183579408Y-81441094D01*
X183571648Y-81377180D01*
X183522642Y-81306184D01*
X183446257Y-81266093D01*
X183381876Y-81266093D01*
X183319363Y-81281501D01*
X183254791Y-81338707D01*
X183224200Y-81419368D01*
X183027846Y-81419368D01*
X182753122Y-81144646D01*
X182753121Y-81144646D01*
X182456676Y-81441092D01*
X182456676Y-81441093D01*
X182279408Y-81441093D01*
X182271648Y-81377180D01*
X182222642Y-81306184D01*
X182146257Y-81266093D01*
X182081876Y-81266093D01*
X182019363Y-81281501D01*
X181954791Y-81338707D01*
X181924200Y-81419368D01*
X181727846Y-81419368D01*
X181453122Y-81144646D01*
X181453121Y-81144646D01*
X181156676Y-81441092D01*
X181156676Y-81441093D01*
X180979408Y-81441093D01*
X180971648Y-81377180D01*
X180922642Y-81306184D01*
X180846257Y-81266093D01*
X180781876Y-81266093D01*
X180719363Y-81281501D01*
X180654791Y-81338707D01*
X180624200Y-81419368D01*
X180427846Y-81419368D01*
X180085511Y-81077033D01*
X180085510Y-81077034D01*
X180064628Y-81116010D01*
X180064626Y-81116014D01*
X180028451Y-81215406D01*
X180028448Y-81215415D01*
X180018443Y-81245881D01*
X179997981Y-81388196D01*
X179997981Y-81493994D01*
X168849294Y-81493994D01*
X168849294Y-80633328D01*
X168868979Y-80566289D01*
X168885613Y-80545647D01*
X169786441Y-79644819D01*
X169847764Y-79611334D01*
X169874122Y-79608500D01*
X174130903Y-79608500D01*
X174197942Y-79628185D01*
X174218584Y-79644819D01*
X175472969Y-80899204D01*
X175478310Y-80905294D01*
X175500327Y-80933987D01*
X175512404Y-80943254D01*
X175530007Y-80956762D01*
X175532241Y-80958476D01*
X175532242Y-80958477D01*
X175573733Y-80990314D01*
X175627439Y-81031524D01*
X175775464Y-81092838D01*
X175775467Y-81092838D01*
X175783313Y-81094941D01*
X175782632Y-81097479D01*
X175834621Y-81120462D01*
X175846713Y-81132183D01*
X175888741Y-81178861D01*
X175888744Y-81178863D01*
X175888747Y-81178866D01*
X176043248Y-81291118D01*
X176217712Y-81368794D01*
X176404513Y-81408500D01*
X176595487Y-81408500D01*
X176782288Y-81368794D01*
X176956752Y-81291118D01*
X177111253Y-81178866D01*
X177239040Y-81036944D01*
X177334527Y-80871556D01*
X177383031Y-80722278D01*
X180437861Y-80722278D01*
X180803123Y-81087540D01*
X180803124Y-81087540D01*
X181168384Y-80722278D01*
X181737861Y-80722278D01*
X182103123Y-81087540D01*
X182103124Y-81087540D01*
X182468384Y-80722278D01*
X183037861Y-80722278D01*
X183403123Y-81087540D01*
X183403124Y-81087540D01*
X183768384Y-80722278D01*
X183759874Y-80717365D01*
X183731624Y-80702229D01*
X183595029Y-80657368D01*
X183490837Y-80638996D01*
X183459117Y-80634436D01*
X183315404Y-80638997D01*
X183211223Y-80657367D01*
X183179839Y-80663933D01*
X183179838Y-80663934D01*
X183046363Y-80717369D01*
X183046361Y-80717370D01*
X183037861Y-80722277D01*
X183037861Y-80722278D01*
X182468384Y-80722278D01*
X182459874Y-80717365D01*
X182431624Y-80702229D01*
X182295029Y-80657368D01*
X182190837Y-80638996D01*
X182159117Y-80634436D01*
X182015404Y-80638997D01*
X181911223Y-80657367D01*
X181879839Y-80663933D01*
X181879838Y-80663934D01*
X181746363Y-80717369D01*
X181746361Y-80717370D01*
X181737861Y-80722277D01*
X181737861Y-80722278D01*
X181168384Y-80722278D01*
X181159874Y-80717365D01*
X181131624Y-80702229D01*
X180995029Y-80657368D01*
X180890837Y-80638996D01*
X180859117Y-80634436D01*
X180715404Y-80638997D01*
X180611223Y-80657367D01*
X180579839Y-80663933D01*
X180579838Y-80663934D01*
X180446363Y-80717369D01*
X180446361Y-80717370D01*
X180437861Y-80722277D01*
X180437861Y-80722278D01*
X177383031Y-80722278D01*
X177393542Y-80689928D01*
X177413504Y-80500000D01*
X177393542Y-80310072D01*
X177336376Y-80134135D01*
X177334528Y-80128446D01*
X177334201Y-80127880D01*
X177296164Y-80061998D01*
X177279692Y-79994101D01*
X177296164Y-79938001D01*
X177334527Y-79871556D01*
X177393542Y-79689928D01*
X177413504Y-79500000D01*
X177393542Y-79310072D01*
X177334527Y-79128444D01*
X177239040Y-78963056D01*
X177196194Y-78915471D01*
X177165965Y-78852481D01*
X177174590Y-78783145D01*
X177219332Y-78729480D01*
X177285984Y-78708522D01*
X177288345Y-78708500D01*
X177889244Y-78708500D01*
X177956283Y-78728185D01*
X177962129Y-78732182D01*
X178043243Y-78791115D01*
X178043245Y-78791116D01*
X178043248Y-78791118D01*
X178217712Y-78868794D01*
X178404513Y-78908500D01*
X178595487Y-78908500D01*
X178782288Y-78868794D01*
X178956752Y-78791118D01*
X179111253Y-78678866D01*
X179239040Y-78536944D01*
X179334527Y-78371556D01*
X179393542Y-78189928D01*
X179411450Y-78019536D01*
X179438035Y-77954924D01*
X179495332Y-77914939D01*
X179534771Y-77908500D01*
X179595483Y-77908500D01*
X179595487Y-77908500D01*
X179647806Y-77897378D01*
X179689760Y-77895730D01*
X179825000Y-77913535D01*
X179977324Y-77893481D01*
X180081362Y-77850386D01*
X180150829Y-77842918D01*
X180179246Y-77851667D01*
X180217712Y-77868794D01*
X180404513Y-77908500D01*
X180595487Y-77908500D01*
X180782288Y-77868794D01*
X180956752Y-77791118D01*
X181111253Y-77678866D01*
X181239040Y-77536944D01*
X181334527Y-77371556D01*
X181393542Y-77189928D01*
X181413504Y-77000000D01*
X181411287Y-76978909D01*
X181423854Y-76910182D01*
X181446920Y-76878272D01*
X181705376Y-76619816D01*
X181766698Y-76586334D01*
X181793056Y-76583500D01*
X190706945Y-76583500D01*
X190773984Y-76603185D01*
G37*
G04 #@! TD.AperFunction*
G04 #@! TA.AperFunction,Conductor*
G36*
X218721793Y-65225801D02*
G01*
X218742434Y-65242434D01*
X221963682Y-68463682D01*
X221997166Y-68525003D01*
X222000000Y-68551361D01*
X222000000Y-79463741D01*
X221980315Y-79530780D01*
X221927511Y-79576535D01*
X221875229Y-79587739D01*
X221147433Y-79583213D01*
X220324005Y-79616707D01*
X220323993Y-79616708D01*
X220323994Y-79616708D01*
X220323975Y-79616709D01*
X219503046Y-79688746D01*
X219503045Y-79688746D01*
X218686369Y-79799171D01*
X217875785Y-79947736D01*
X217875738Y-79947746D01*
X217073004Y-80134129D01*
X217072983Y-80134135D01*
X216279907Y-80357910D01*
X216279851Y-80357928D01*
X215498107Y-80618626D01*
X214851016Y-80868685D01*
X214747485Y-80908693D01*
X214729373Y-80915692D01*
X214729362Y-80915696D01*
X213975435Y-81248436D01*
X213975393Y-81248455D01*
X213237943Y-81616125D01*
X213237891Y-81616153D01*
X212518448Y-82017986D01*
X212518425Y-82018000D01*
X211818551Y-82453133D01*
X211818550Y-82453133D01*
X211139839Y-82920578D01*
X210483786Y-83419300D01*
X209851796Y-83948236D01*
X209736087Y-84054684D01*
X209673422Y-84085585D01*
X209603998Y-84077702D01*
X209549858Y-84033537D01*
X209528189Y-83967112D01*
X209529116Y-83950723D01*
X209528747Y-83950298D01*
X208118809Y-83950298D01*
X208130764Y-83938343D01*
X208188288Y-83825446D01*
X208208109Y-83700298D01*
X208188288Y-83575150D01*
X208130764Y-83462253D01*
X208118809Y-83450298D01*
X209525105Y-83450298D01*
X209496084Y-83330676D01*
X209496084Y-83330674D01*
X209406830Y-83135234D01*
X209293941Y-82976704D01*
X209271088Y-82910677D01*
X209287561Y-82842777D01*
X209301230Y-82823581D01*
X209355645Y-82760783D01*
X209361358Y-82750889D01*
X209442709Y-82609984D01*
X209463881Y-82573313D01*
X209534682Y-82368746D01*
X209565489Y-82154477D01*
X209555189Y-81938250D01*
X209504154Y-81727880D01*
X209414228Y-81530970D01*
X209392174Y-81500000D01*
X209299669Y-81370094D01*
X209276816Y-81304067D01*
X209293289Y-81236167D01*
X209306964Y-81216964D01*
X209355645Y-81160783D01*
X209463881Y-80973313D01*
X209534682Y-80768746D01*
X209565489Y-80554477D01*
X209555189Y-80338250D01*
X209504154Y-80127880D01*
X209414228Y-79930970D01*
X209288662Y-79754637D01*
X209286808Y-79752869D01*
X209131989Y-79605250D01*
X208949889Y-79488222D01*
X208949886Y-79488221D01*
X208949885Y-79488220D01*
X208748919Y-79407766D01*
X208536359Y-79366798D01*
X207124127Y-79366798D01*
X206962631Y-79382219D01*
X206962627Y-79382220D01*
X206754929Y-79443205D01*
X206562520Y-79542399D01*
X206392356Y-79676217D01*
X206392354Y-79676219D01*
X206250602Y-79839811D01*
X206241949Y-79854799D01*
X206191381Y-79903014D01*
X206134562Y-79916798D01*
X201293353Y-79916798D01*
X201226314Y-79897113D01*
X201205672Y-79880479D01*
X198442517Y-77117324D01*
X198437163Y-77111219D01*
X198416159Y-77083845D01*
X198416157Y-77083844D01*
X198416157Y-77083843D01*
X198294267Y-76990314D01*
X198294266Y-76990313D01*
X198152324Y-76931519D01*
X198152322Y-76931518D01*
X198038244Y-76916500D01*
X198000001Y-76911465D01*
X197999999Y-76911465D01*
X197980111Y-76914083D01*
X197965788Y-76915969D01*
X197957689Y-76916500D01*
X194793055Y-76916500D01*
X194726016Y-76896815D01*
X194705374Y-76880181D01*
X193880374Y-76055181D01*
X192442509Y-74617316D01*
X192437169Y-74611226D01*
X192416157Y-74583843D01*
X192416155Y-74583842D01*
X192416155Y-74583841D01*
X192410410Y-74578096D01*
X192412565Y-74575940D01*
X192379910Y-74531210D01*
X192375762Y-74461464D01*
X192409980Y-74400547D01*
X192453269Y-74373092D01*
X192528560Y-74345009D01*
X192536676Y-74341982D01*
X192653733Y-74254354D01*
X192741361Y-74137297D01*
X192792461Y-74000294D01*
X192797197Y-73956245D01*
X192798971Y-73939747D01*
X192798972Y-73939730D01*
X192798972Y-72803169D01*
X193331948Y-72803169D01*
X193455938Y-72869443D01*
X193644441Y-72926624D01*
X193644437Y-72926624D01*
X193822399Y-72944151D01*
X193887186Y-72970312D01*
X193927545Y-73027346D01*
X193930662Y-73097146D01*
X193906099Y-73146218D01*
X193797877Y-73278088D01*
X193797873Y-73278094D01*
X193704232Y-73453284D01*
X193646563Y-73643393D01*
X193627092Y-73841092D01*
X193646563Y-74038792D01*
X193704232Y-74228901D01*
X193797873Y-74404091D01*
X193797877Y-74404098D01*
X193923903Y-74557661D01*
X194077466Y-74683687D01*
X194077473Y-74683691D01*
X194252663Y-74777332D01*
X194252665Y-74777332D01*
X194252668Y-74777334D01*
X194442771Y-74835001D01*
X194442770Y-74835001D01*
X194460496Y-74836746D01*
X194640472Y-74854473D01*
X194838173Y-74835001D01*
X195028276Y-74777334D01*
X195203476Y-74683688D01*
X195267999Y-74630735D01*
X195361749Y-74553797D01*
X195363575Y-74556022D01*
X195414114Y-74528426D01*
X195483806Y-74533410D01*
X195517928Y-74555340D01*
X195519195Y-74553797D01*
X195677466Y-74683687D01*
X195677473Y-74683691D01*
X195852663Y-74777332D01*
X195852665Y-74777332D01*
X195852668Y-74777334D01*
X196042771Y-74835001D01*
X196042770Y-74835001D01*
X196060496Y-74836746D01*
X196240472Y-74854473D01*
X196438173Y-74835001D01*
X196628276Y-74777334D01*
X196803476Y-74683688D01*
X196957040Y-74557661D01*
X197083067Y-74404097D01*
X197176713Y-74228897D01*
X197234380Y-74038794D01*
X197253852Y-73841093D01*
X197234380Y-73643392D01*
X197176713Y-73453289D01*
X197176711Y-73453286D01*
X197176711Y-73453284D01*
X197083070Y-73278094D01*
X197083066Y-73278087D01*
X196981330Y-73154122D01*
X196954017Y-73089812D01*
X196965808Y-73020944D01*
X197012960Y-72969384D01*
X197065027Y-72952054D01*
X197238173Y-72935001D01*
X197428276Y-72877334D01*
X197432344Y-72875160D01*
X197603470Y-72783691D01*
X197603476Y-72783688D01*
X197757040Y-72657661D01*
X197862119Y-72529621D01*
X197919864Y-72490288D01*
X197989709Y-72488417D01*
X198049477Y-72524604D01*
X198080193Y-72587360D01*
X198081972Y-72608287D01*
X198081972Y-73939747D01*
X198088483Y-74000295D01*
X198088483Y-74000297D01*
X198113747Y-74068030D01*
X198139583Y-74137297D01*
X198227211Y-74254354D01*
X198344268Y-74341982D01*
X198481271Y-74393082D01*
X198508522Y-74396011D01*
X198541817Y-74399592D01*
X198541834Y-74399593D01*
X199639110Y-74399593D01*
X199639126Y-74399592D01*
X199666164Y-74396684D01*
X199699673Y-74393082D01*
X199836676Y-74341982D01*
X199953733Y-74254354D01*
X200041361Y-74137297D01*
X200092461Y-74000294D01*
X200097197Y-73956245D01*
X200098971Y-73939747D01*
X200098972Y-73939730D01*
X200098972Y-71842455D01*
X200098971Y-71842438D01*
X200093294Y-71789644D01*
X200092461Y-71781892D01*
X200041361Y-71644889D01*
X199953733Y-71527832D01*
X199836676Y-71440204D01*
X199774143Y-71416880D01*
X199699675Y-71389104D01*
X199639126Y-71382593D01*
X199639110Y-71382593D01*
X198541834Y-71382593D01*
X198541817Y-71382593D01*
X198481269Y-71389104D01*
X198481267Y-71389104D01*
X198344267Y-71440204D01*
X198227210Y-71527832D01*
X198189652Y-71578004D01*
X198133718Y-71619874D01*
X198064026Y-71624858D01*
X198002704Y-71591372D01*
X197980515Y-71558163D01*
X197979585Y-71558661D01*
X197883070Y-71378094D01*
X197883066Y-71378087D01*
X197757040Y-71224524D01*
X197603477Y-71098498D01*
X197603470Y-71098494D01*
X197428280Y-71004853D01*
X197265785Y-70955561D01*
X197238173Y-70947185D01*
X197238171Y-70947184D01*
X197238173Y-70947184D01*
X197058197Y-70929458D01*
X197040472Y-70927713D01*
X197040471Y-70927713D01*
X196842772Y-70947184D01*
X196652663Y-71004853D01*
X196477473Y-71098494D01*
X196477466Y-71098498D01*
X196319195Y-71228389D01*
X196317368Y-71226163D01*
X196266830Y-71253760D01*
X196197138Y-71248776D01*
X196163015Y-71226845D01*
X196161749Y-71228389D01*
X196003477Y-71098498D01*
X196003470Y-71098494D01*
X195828280Y-71004853D01*
X195665785Y-70955561D01*
X195638173Y-70947185D01*
X195638171Y-70947184D01*
X195638173Y-70947184D01*
X195458197Y-70929458D01*
X195440472Y-70927713D01*
X195440471Y-70927713D01*
X195242772Y-70947184D01*
X195052663Y-71004853D01*
X194877473Y-71098494D01*
X194877466Y-71098498D01*
X194723903Y-71224524D01*
X194597877Y-71378087D01*
X194597873Y-71378094D01*
X194504231Y-71553286D01*
X194479457Y-71634954D01*
X194448478Y-71686638D01*
X194102693Y-72032423D01*
X194120860Y-71941093D01*
X194099517Y-71833793D01*
X194038736Y-71742829D01*
X193947772Y-71682048D01*
X193867560Y-71666093D01*
X193813384Y-71666093D01*
X193733172Y-71682048D01*
X193642208Y-71742829D01*
X193581427Y-71833793D01*
X193560084Y-71941093D01*
X193581427Y-72048393D01*
X193642208Y-72139357D01*
X193733172Y-72200138D01*
X193813384Y-72216093D01*
X193867560Y-72216093D01*
X193931803Y-72203314D01*
X193840472Y-72294646D01*
X193331948Y-72803169D01*
X192798972Y-72803169D01*
X192798972Y-72566751D01*
X192818657Y-72499712D01*
X192871461Y-72453957D01*
X192940619Y-72444013D01*
X192941167Y-72444093D01*
X192978394Y-72449615D01*
X193486918Y-71941093D01*
X193486918Y-71941092D01*
X192978394Y-71432569D01*
X192912116Y-71556568D01*
X192911065Y-71559107D01*
X192910159Y-71560230D01*
X192909251Y-71561930D01*
X192908928Y-71561757D01*
X192867219Y-71613506D01*
X192800923Y-71635564D01*
X192733225Y-71618279D01*
X192697244Y-71585955D01*
X192653733Y-71527832D01*
X192536676Y-71440204D01*
X192474143Y-71416880D01*
X192399675Y-71389104D01*
X192339126Y-71382593D01*
X192339110Y-71382593D01*
X191241834Y-71382593D01*
X191241817Y-71382593D01*
X191181269Y-71389104D01*
X191181267Y-71389104D01*
X191044267Y-71440204D01*
X190927211Y-71527832D01*
X190839583Y-71644888D01*
X190788483Y-71781888D01*
X190788483Y-71781890D01*
X190781972Y-71842438D01*
X190781972Y-73939747D01*
X190788483Y-74000295D01*
X190788483Y-74000297D01*
X190813747Y-74068030D01*
X190839583Y-74137297D01*
X190900139Y-74218191D01*
X190924556Y-74283653D01*
X190909705Y-74351926D01*
X190860300Y-74401332D01*
X190800872Y-74416500D01*
X180542311Y-74416500D01*
X180534211Y-74415969D01*
X180519888Y-74414083D01*
X180500001Y-74411465D01*
X180500000Y-74411465D01*
X180347676Y-74431519D01*
X180279951Y-74459571D01*
X180210482Y-74467039D01*
X180148003Y-74435763D01*
X180112351Y-74375673D01*
X180108500Y-74345009D01*
X180108500Y-71079016D01*
X193331947Y-71079016D01*
X193840470Y-71587539D01*
X193840471Y-71587539D01*
X194348994Y-71079015D01*
X194348994Y-71079014D01*
X194225010Y-71012745D01*
X194036502Y-70955561D01*
X193840472Y-70936254D01*
X193644441Y-70955561D01*
X193455933Y-71012745D01*
X193331948Y-71079015D01*
X193331947Y-71079016D01*
X180108500Y-71079016D01*
X180108500Y-70303410D01*
X180128185Y-70236371D01*
X180144810Y-70215738D01*
X180215732Y-70144816D01*
X180277054Y-70111334D01*
X180303411Y-70108500D01*
X203009011Y-70108500D01*
X203076050Y-70128185D01*
X203096692Y-70144819D01*
X205277275Y-72325402D01*
X205310760Y-72386725D01*
X205305776Y-72456417D01*
X205304158Y-72460529D01*
X205303361Y-72462452D01*
X205247932Y-72693330D01*
X205229302Y-72930044D01*
X205247932Y-73166759D01*
X205303362Y-73397640D01*
X205303362Y-73397642D01*
X205394224Y-73617004D01*
X205394226Y-73617007D01*
X205518287Y-73819455D01*
X205518288Y-73819458D01*
X205536766Y-73841093D01*
X205672498Y-74000014D01*
X205752137Y-74068032D01*
X205853053Y-74154223D01*
X205853055Y-74154223D01*
X205876075Y-74168330D01*
X206055504Y-74278285D01*
X206055507Y-74278287D01*
X206274870Y-74369149D01*
X206274871Y-74369149D01*
X206274873Y-74369150D01*
X206505756Y-74424580D01*
X206742467Y-74443210D01*
X206979178Y-74424580D01*
X207210061Y-74369150D01*
X207210063Y-74369149D01*
X207210064Y-74369149D01*
X207429426Y-74278287D01*
X207429427Y-74278286D01*
X207429430Y-74278285D01*
X207631883Y-74154221D01*
X207812436Y-74000014D01*
X207966643Y-73819461D01*
X208090707Y-73617008D01*
X208118574Y-73549732D01*
X208181571Y-73397642D01*
X208181571Y-73397641D01*
X208181572Y-73397639D01*
X208237002Y-73166756D01*
X208255632Y-72930045D01*
X208237002Y-72693334D01*
X208232761Y-72675671D01*
X213626667Y-72675671D01*
X213656825Y-72975458D01*
X213656826Y-72975460D01*
X213726672Y-73268550D01*
X213726677Y-73268564D01*
X213834964Y-73549725D01*
X213834968Y-73549734D01*
X213979769Y-73813963D01*
X213979773Y-73813969D01*
X214117059Y-74000295D01*
X214158498Y-74056536D01*
X214158505Y-74056543D01*
X214367963Y-74273121D01*
X214604422Y-74459851D01*
X214604424Y-74459852D01*
X214604429Y-74459856D01*
X214863674Y-74613407D01*
X215141072Y-74731034D01*
X215431673Y-74810638D01*
X215730291Y-74850798D01*
X215730295Y-74850798D01*
X215956196Y-74850798D01*
X216120107Y-74839824D01*
X216181578Y-74835710D01*
X216476847Y-74775694D01*
X216761481Y-74676858D01*
X217030403Y-74540966D01*
X217278813Y-74370442D01*
X217502277Y-74168330D01*
X217696809Y-73938237D01*
X217858937Y-73684268D01*
X217985767Y-73410956D01*
X218075037Y-73123177D01*
X218125153Y-72826068D01*
X218135221Y-72524929D01*
X218105062Y-72225136D01*
X218035213Y-71932037D01*
X217926921Y-71650864D01*
X217782119Y-71386633D01*
X217775827Y-71378094D01*
X217705567Y-71282736D01*
X217603390Y-71144060D01*
X217393924Y-70927474D01*
X217266915Y-70827176D01*
X217157465Y-70740744D01*
X217157461Y-70740741D01*
X217157459Y-70740740D01*
X216898214Y-70587189D01*
X216620816Y-70469562D01*
X216620807Y-70469559D01*
X216330216Y-70389958D01*
X216255560Y-70379918D01*
X216031597Y-70349798D01*
X215805700Y-70349798D01*
X215805692Y-70349798D01*
X215580312Y-70364885D01*
X215580303Y-70364887D01*
X215285038Y-70424902D01*
X215000408Y-70523737D01*
X215000403Y-70523739D01*
X214731490Y-70659626D01*
X214483069Y-70830158D01*
X214259609Y-71032267D01*
X214065076Y-71262362D01*
X213902950Y-71516328D01*
X213902949Y-71516330D01*
X213797582Y-71743392D01*
X213776121Y-71789640D01*
X213776120Y-71789644D01*
X213686851Y-72077416D01*
X213644432Y-72328897D01*
X213636735Y-72374528D01*
X213631718Y-72524604D01*
X213626667Y-72675671D01*
X208232761Y-72675671D01*
X208181572Y-72462451D01*
X208181571Y-72462448D01*
X208181571Y-72462447D01*
X208090709Y-72243085D01*
X208090707Y-72243082D01*
X207966646Y-72040634D01*
X207966645Y-72040631D01*
X207873903Y-71932045D01*
X207812436Y-71860076D01*
X207675158Y-71742829D01*
X207631880Y-71705866D01*
X207631877Y-71705865D01*
X207429429Y-71581804D01*
X207429426Y-71581802D01*
X207210063Y-71490940D01*
X206979181Y-71435510D01*
X206742467Y-71416880D01*
X206505752Y-71435510D01*
X206274874Y-71490939D01*
X206272951Y-71491736D01*
X206272161Y-71491820D01*
X206270244Y-71492444D01*
X206270113Y-71492040D01*
X206203482Y-71499201D01*
X206141004Y-71467922D01*
X206137824Y-71464853D01*
X203773776Y-69100805D01*
X203768423Y-69094702D01*
X203765638Y-69091073D01*
X203746409Y-69066013D01*
X203746407Y-69066011D01*
X203746406Y-69066010D01*
X203714497Y-69041526D01*
X203714496Y-69041525D01*
X203714494Y-69041523D01*
X203669150Y-69006729D01*
X203619299Y-68968476D01*
X203619295Y-68968474D01*
X203471273Y-68907161D01*
X203454133Y-68904905D01*
X203451878Y-68904608D01*
X203451877Y-68904607D01*
X203350126Y-68891212D01*
X203350100Y-68891210D01*
X203312423Y-68886250D01*
X203312421Y-68886250D01*
X203301949Y-68887628D01*
X203276573Y-68890969D01*
X203268476Y-68891500D01*
X193998719Y-68891500D01*
X193931680Y-68871815D01*
X193885925Y-68819011D01*
X193875981Y-68749853D01*
X193880788Y-68729183D01*
X193893540Y-68689933D01*
X193893542Y-68689928D01*
X193913504Y-68500000D01*
X193893542Y-68310072D01*
X193834527Y-68128444D01*
X193739040Y-67963056D01*
X193611253Y-67821134D01*
X193456752Y-67708882D01*
X193282288Y-67631206D01*
X193282286Y-67631205D01*
X193095487Y-67591500D01*
X192904513Y-67591500D01*
X192717714Y-67631205D01*
X192543246Y-67708883D01*
X192483292Y-67752442D01*
X192393310Y-67817818D01*
X192327506Y-67841298D01*
X192320426Y-67841500D01*
X191324122Y-67841500D01*
X191257083Y-67821815D01*
X191236441Y-67805181D01*
X190942468Y-67511208D01*
X190908983Y-67449885D01*
X190906828Y-67436488D01*
X190893542Y-67310072D01*
X190834527Y-67128444D01*
X190739040Y-66963056D01*
X190611253Y-66821134D01*
X190456752Y-66708882D01*
X190282288Y-66631206D01*
X190282286Y-66631205D01*
X190095487Y-66591500D01*
X189904513Y-66591500D01*
X189717714Y-66631205D01*
X189543246Y-66708883D01*
X189388745Y-66821135D01*
X189260959Y-66963057D01*
X189165473Y-67128443D01*
X189165470Y-67128450D01*
X189106459Y-67310068D01*
X189106458Y-67310072D01*
X189086496Y-67500000D01*
X189106458Y-67689928D01*
X189106459Y-67689931D01*
X189165470Y-67871549D01*
X189165473Y-67871556D01*
X189260960Y-68036944D01*
X189388747Y-68178866D01*
X189543248Y-68291118D01*
X189717712Y-68368794D01*
X189904513Y-68408500D01*
X189925878Y-68408500D01*
X189992917Y-68428185D01*
X190013559Y-68444819D01*
X190248559Y-68679819D01*
X190282044Y-68741142D01*
X190277060Y-68810834D01*
X190235188Y-68866767D01*
X190169724Y-68891184D01*
X190160878Y-68891500D01*
X180043946Y-68891500D01*
X180035848Y-68890969D01*
X180010472Y-68887628D01*
X180000001Y-68886250D01*
X179999999Y-68886250D01*
X179962489Y-68891188D01*
X179962460Y-68891191D01*
X179860544Y-68904607D01*
X179860543Y-68904608D01*
X179847613Y-68906310D01*
X179841148Y-68907162D01*
X179693126Y-68968474D01*
X179693123Y-68968476D01*
X179598467Y-69041107D01*
X179598468Y-69041108D01*
X179566011Y-69066014D01*
X179543996Y-69094703D01*
X179538645Y-69100805D01*
X179100801Y-69538649D01*
X179094698Y-69544000D01*
X179066013Y-69566012D01*
X179041520Y-69597931D01*
X178968476Y-69693123D01*
X178968475Y-69693125D01*
X178921359Y-69806876D01*
X178907162Y-69841150D01*
X178890968Y-69964150D01*
X178890969Y-69964151D01*
X178886250Y-70000000D01*
X178890969Y-70035843D01*
X178891500Y-70043945D01*
X178891500Y-74696589D01*
X178871815Y-74763628D01*
X178855181Y-74784270D01*
X177584270Y-76055181D01*
X177522947Y-76088666D01*
X177496589Y-76091500D01*
X177404513Y-76091500D01*
X177217714Y-76131205D01*
X177043246Y-76208883D01*
X176888745Y-76321135D01*
X176760959Y-76463057D01*
X176665473Y-76628443D01*
X176665470Y-76628450D01*
X176606459Y-76810068D01*
X176606458Y-76810072D01*
X176586496Y-77000000D01*
X176602738Y-77154540D01*
X176590170Y-77223268D01*
X176542438Y-77274292D01*
X176479418Y-77291500D01*
X175844832Y-77291500D01*
X175777793Y-77271815D01*
X175757151Y-77255181D01*
X175398785Y-76896815D01*
X175017434Y-76515464D01*
X175014900Y-76512772D01*
X174973273Y-76465785D01*
X174973272Y-76465784D01*
X174973271Y-76465783D01*
X174921628Y-76430136D01*
X174918611Y-76427916D01*
X174869227Y-76389225D01*
X174863235Y-76386528D01*
X174859760Y-76384964D01*
X174840216Y-76373941D01*
X174835210Y-76370486D01*
X174831677Y-76368047D01*
X174831672Y-76368044D01*
X174773015Y-76345798D01*
X174769555Y-76344365D01*
X174712331Y-76318611D01*
X174712332Y-76318611D01*
X174702110Y-76316738D01*
X174680510Y-76310716D01*
X174670801Y-76307035D01*
X174670797Y-76307034D01*
X174670796Y-76307034D01*
X174608511Y-76299470D01*
X174604810Y-76298907D01*
X174543096Y-76287598D01*
X174543090Y-76287598D01*
X174480455Y-76291387D01*
X174476710Y-76291500D01*
X163023296Y-76291500D01*
X163019552Y-76291387D01*
X162956911Y-76287598D01*
X162956904Y-76287598D01*
X162895190Y-76298907D01*
X162891489Y-76299470D01*
X162829198Y-76307035D01*
X162819494Y-76310715D01*
X162797889Y-76316737D01*
X162787673Y-76318609D01*
X162739362Y-76340352D01*
X162670150Y-76349914D01*
X162606755Y-76320539D01*
X162569305Y-76261554D01*
X162569690Y-76191685D01*
X162599519Y-76140885D01*
X166062470Y-72575373D01*
X172945723Y-72575373D01*
X172975881Y-72875160D01*
X172975882Y-72875162D01*
X173045728Y-73168252D01*
X173045733Y-73168266D01*
X173154020Y-73449427D01*
X173154024Y-73449436D01*
X173298825Y-73713665D01*
X173298829Y-73713671D01*
X173465403Y-73939747D01*
X173477554Y-73956238D01*
X173477561Y-73956245D01*
X173687019Y-74172823D01*
X173923478Y-74359553D01*
X173923480Y-74359554D01*
X173923485Y-74359558D01*
X174182730Y-74513109D01*
X174460128Y-74630736D01*
X174750729Y-74710340D01*
X175049347Y-74750500D01*
X175049351Y-74750500D01*
X175275252Y-74750500D01*
X175439163Y-74739526D01*
X175500634Y-74735412D01*
X175795903Y-74675396D01*
X176080537Y-74576560D01*
X176349459Y-74440668D01*
X176597869Y-74270144D01*
X176821333Y-74068032D01*
X177015865Y-73837939D01*
X177177993Y-73583970D01*
X177304823Y-73310658D01*
X177394093Y-73022879D01*
X177444209Y-72725770D01*
X177454277Y-72424631D01*
X177424118Y-72124838D01*
X177356819Y-71842438D01*
X177354271Y-71831747D01*
X177354270Y-71831746D01*
X177354269Y-71831739D01*
X177245977Y-71550566D01*
X177101175Y-71286335D01*
X177057342Y-71226845D01*
X177024623Y-71182438D01*
X176922446Y-71043762D01*
X176712980Y-70827176D01*
X176712980Y-70827175D01*
X176476521Y-70640446D01*
X176476517Y-70640443D01*
X176476515Y-70640442D01*
X176217270Y-70486891D01*
X175939872Y-70369264D01*
X175939863Y-70369261D01*
X175649272Y-70289660D01*
X175574616Y-70279620D01*
X175350653Y-70249500D01*
X175124756Y-70249500D01*
X175124748Y-70249500D01*
X174899368Y-70264587D01*
X174899359Y-70264589D01*
X174604094Y-70324604D01*
X174319464Y-70423439D01*
X174319459Y-70423441D01*
X174050546Y-70559328D01*
X173802125Y-70729860D01*
X173578665Y-70931969D01*
X173384132Y-71162064D01*
X173222006Y-71416030D01*
X173222005Y-71416032D01*
X173098562Y-71682048D01*
X173095177Y-71689342D01*
X173095176Y-71689346D01*
X173005907Y-71977118D01*
X172955790Y-72274230D01*
X172955791Y-72274230D01*
X172947253Y-72529622D01*
X172945723Y-72575373D01*
X166062470Y-72575373D01*
X173183227Y-65243723D01*
X173244056Y-65209347D01*
X173272179Y-65206116D01*
X218654754Y-65206116D01*
X218721793Y-65225801D01*
G37*
G04 #@! TD.AperFunction*
G04 #@! TA.AperFunction,Conductor*
G36*
X245215040Y-96360407D02*
G01*
X245282075Y-96380107D01*
X245327818Y-96432921D01*
X245339011Y-96483974D01*
X245344676Y-98106199D01*
X245341652Y-98124198D01*
X245342573Y-98124302D01*
X245341009Y-98138183D01*
X245344532Y-98169462D01*
X245344921Y-98176187D01*
X245344950Y-98184496D01*
X245346621Y-98191701D01*
X245347834Y-98198768D01*
X245351254Y-98229129D01*
X245355190Y-98240377D01*
X245360393Y-98251084D01*
X245360394Y-98251085D01*
X245379535Y-98274916D01*
X245383692Y-98280753D01*
X245387623Y-98287009D01*
X245393499Y-98292885D01*
X245397987Y-98297889D01*
X245417709Y-98322443D01*
X245417711Y-98322445D01*
X245428664Y-98331118D01*
X245428088Y-98331844D01*
X245442997Y-98342383D01*
X247760947Y-100660333D01*
X247794432Y-100721656D01*
X247797266Y-100748014D01*
X247797266Y-106853634D01*
X247797215Y-106854091D01*
X247797266Y-106913417D01*
X247797266Y-106939112D01*
X247797287Y-106939501D01*
X247797304Y-106959124D01*
X247797306Y-106959132D01*
X247801243Y-106967289D01*
X247810460Y-106993590D01*
X247812475Y-107002421D01*
X247812476Y-107002423D01*
X247818302Y-107009728D01*
X247833027Y-107033140D01*
X247837088Y-107041554D01*
X247837089Y-107041555D01*
X247844177Y-107047198D01*
X247863891Y-107066895D01*
X247869538Y-107073976D01*
X247869539Y-107073977D01*
X247869542Y-107073980D01*
X247873532Y-107075901D01*
X247877955Y-107078032D01*
X247901382Y-107092738D01*
X247908694Y-107098559D01*
X247915230Y-107100044D01*
X247917523Y-107100566D01*
X247943839Y-107109760D01*
X247952003Y-107113692D01*
X247971731Y-107113692D01*
X247972125Y-107113713D01*
X247975345Y-107113710D01*
X247975348Y-107113711D01*
X247996051Y-107113693D01*
X247997490Y-107113692D01*
X248057322Y-107113692D01*
X248057770Y-107113639D01*
X255894418Y-107106898D01*
X255961474Y-107126525D01*
X256007274Y-107179290D01*
X256018510Y-107232763D01*
X255752774Y-124901412D01*
X255732083Y-124968148D01*
X255716545Y-124987152D01*
X248453181Y-132263105D01*
X248391887Y-132296643D01*
X248365424Y-132299500D01*
X222573517Y-132299500D01*
X222506478Y-132279815D01*
X222484951Y-132262288D01*
X220582560Y-130320914D01*
X219918337Y-129643080D01*
X240649710Y-129643080D01*
X240670305Y-129878483D01*
X240670307Y-129878493D01*
X240731463Y-130106735D01*
X240731465Y-130106739D01*
X240731466Y-130106743D01*
X240781400Y-130213825D01*
X240831333Y-130320908D01*
X240831334Y-130320910D01*
X240966874Y-130514482D01*
X241133966Y-130681574D01*
X241327538Y-130817114D01*
X241327540Y-130817115D01*
X241541706Y-130916983D01*
X241769961Y-130978143D01*
X241946401Y-130993579D01*
X241946402Y-130993580D01*
X241946403Y-130993580D01*
X242064336Y-130993580D01*
X242064336Y-130993579D01*
X242240777Y-130978143D01*
X242469032Y-130916983D01*
X242683198Y-130817115D01*
X242876770Y-130681575D01*
X243043864Y-130514481D01*
X243179404Y-130320910D01*
X243279272Y-130106743D01*
X243340432Y-129878488D01*
X243361028Y-129643080D01*
X243340432Y-129407672D01*
X243279272Y-129179417D01*
X243179404Y-128965251D01*
X243179403Y-128965249D01*
X243043863Y-128771677D01*
X242876771Y-128604585D01*
X242683199Y-128469045D01*
X242683197Y-128469044D01*
X242576114Y-128419111D01*
X242469032Y-128369177D01*
X242469028Y-128369176D01*
X242469024Y-128369174D01*
X242240782Y-128308018D01*
X242240772Y-128308016D01*
X242064336Y-128292580D01*
X242064335Y-128292580D01*
X241946403Y-128292580D01*
X241946402Y-128292580D01*
X241769965Y-128308016D01*
X241769955Y-128308018D01*
X241541713Y-128369174D01*
X241541704Y-128369178D01*
X241327540Y-128469044D01*
X241327538Y-128469045D01*
X241133966Y-128604585D01*
X240966875Y-128771677D01*
X240966870Y-128771684D01*
X240831336Y-128965245D01*
X240831334Y-128965249D01*
X240731467Y-129179415D01*
X240731463Y-129179424D01*
X240670307Y-129407666D01*
X240670305Y-129407676D01*
X240649710Y-129643079D01*
X240649710Y-129643080D01*
X219918337Y-129643080D01*
X218989116Y-128694817D01*
X218956256Y-128633158D01*
X218953683Y-128608162D01*
X218949428Y-124608674D01*
X227981510Y-124608674D01*
X227989883Y-124704385D01*
X228000702Y-124828043D01*
X228057697Y-125040748D01*
X228057698Y-125040751D01*
X228057699Y-125040753D01*
X228110146Y-125153227D01*
X228150761Y-125240326D01*
X228277068Y-125420710D01*
X228432779Y-125576421D01*
X228613163Y-125702728D01*
X228812741Y-125795792D01*
X229025446Y-125852787D01*
X229182139Y-125866495D01*
X229244815Y-125871979D01*
X229244817Y-125871979D01*
X229244819Y-125871979D01*
X229299659Y-125867181D01*
X229464188Y-125852787D01*
X229676893Y-125795792D01*
X229876471Y-125702728D01*
X230056855Y-125576421D01*
X230212566Y-125420710D01*
X230338873Y-125240326D01*
X230431937Y-125040748D01*
X230488932Y-124828043D01*
X230508124Y-124608674D01*
X234481510Y-124608674D01*
X234489883Y-124704385D01*
X234500702Y-124828043D01*
X234557697Y-125040748D01*
X234557698Y-125040751D01*
X234557699Y-125040753D01*
X234610146Y-125153227D01*
X234650761Y-125240326D01*
X234777068Y-125420710D01*
X234932779Y-125576421D01*
X235113163Y-125702728D01*
X235312741Y-125795792D01*
X235525446Y-125852787D01*
X235682139Y-125866495D01*
X235744815Y-125871979D01*
X235744817Y-125871979D01*
X235744819Y-125871979D01*
X235799659Y-125867181D01*
X235964188Y-125852787D01*
X236176893Y-125795792D01*
X236376471Y-125702728D01*
X236556855Y-125576421D01*
X236712566Y-125420710D01*
X236838873Y-125240326D01*
X236931937Y-125040748D01*
X236988932Y-124828043D01*
X237008124Y-124608672D01*
X236988932Y-124389301D01*
X236931937Y-124176596D01*
X236838873Y-123977019D01*
X236838871Y-123977016D01*
X236838870Y-123977014D01*
X236775719Y-123886826D01*
X236712566Y-123796634D01*
X236556855Y-123640923D01*
X236376471Y-123514616D01*
X236376467Y-123514614D01*
X236176898Y-123421554D01*
X236176896Y-123421553D01*
X236176893Y-123421552D01*
X236025594Y-123381011D01*
X235964189Y-123364557D01*
X235964182Y-123364556D01*
X235744819Y-123345365D01*
X235744815Y-123345365D01*
X235525451Y-123364556D01*
X235525444Y-123364557D01*
X235312737Y-123421553D01*
X235113163Y-123514616D01*
X235113159Y-123514618D01*
X234932784Y-123640919D01*
X234932777Y-123640924D01*
X234777069Y-123796632D01*
X234777064Y-123796639D01*
X234650763Y-123977014D01*
X234650761Y-123977018D01*
X234557698Y-124176592D01*
X234500702Y-124389299D01*
X234500701Y-124389306D01*
X234481510Y-124608669D01*
X234481510Y-124608674D01*
X230508124Y-124608674D01*
X230508124Y-124608672D01*
X230488932Y-124389301D01*
X230431937Y-124176596D01*
X230338873Y-123977019D01*
X230338871Y-123977016D01*
X230338870Y-123977014D01*
X230275719Y-123886826D01*
X230212566Y-123796634D01*
X230056855Y-123640923D01*
X229876471Y-123514616D01*
X229876467Y-123514614D01*
X229676898Y-123421554D01*
X229676896Y-123421553D01*
X229676893Y-123421552D01*
X229525594Y-123381011D01*
X229464189Y-123364557D01*
X229464182Y-123364556D01*
X229244819Y-123345365D01*
X229244815Y-123345365D01*
X229025451Y-123364556D01*
X229025444Y-123364557D01*
X228812737Y-123421553D01*
X228613163Y-123514616D01*
X228613159Y-123514618D01*
X228432784Y-123640919D01*
X228432777Y-123640924D01*
X228277069Y-123796632D01*
X228277064Y-123796639D01*
X228150763Y-123977014D01*
X228150761Y-123977018D01*
X228057698Y-124176592D01*
X228000702Y-124389299D01*
X228000701Y-124389306D01*
X227981510Y-124608669D01*
X227981510Y-124608674D01*
X218949428Y-124608674D01*
X218949306Y-124493947D01*
X218949271Y-124450584D01*
X218945257Y-124442267D01*
X218936070Y-124416093D01*
X218934004Y-124407084D01*
X218928282Y-124399925D01*
X218913468Y-124376398D01*
X218909491Y-124368156D01*
X218902260Y-124362399D01*
X218882634Y-124342810D01*
X218876862Y-124335588D01*
X218876860Y-124335586D01*
X218868596Y-124331617D01*
X218845059Y-124316858D01*
X218837887Y-124311149D01*
X218828874Y-124309099D01*
X218802692Y-124299965D01*
X218794358Y-124295962D01*
X218746244Y-124296014D01*
X214634594Y-124299389D01*
X214567538Y-124279759D01*
X214546723Y-124262983D01*
X211309042Y-121018840D01*
X211275619Y-120957483D01*
X211280672Y-120887797D01*
X211322600Y-120831905D01*
X211323875Y-120830964D01*
X211444490Y-120743334D01*
X211548239Y-120617923D01*
X211617540Y-120470651D01*
X211648039Y-120310771D01*
X211637819Y-120148330D01*
X211587522Y-119993533D01*
X211521374Y-119889299D01*
X211500310Y-119856107D01*
X211500309Y-119856106D01*
X211381664Y-119744691D01*
X211381656Y-119744685D01*
X211376038Y-119741597D01*
X211326775Y-119692051D01*
X211312119Y-119623736D01*
X211336723Y-119558341D01*
X211362893Y-119532617D01*
X211372949Y-119525311D01*
X211444490Y-119473334D01*
X211548239Y-119347923D01*
X211617540Y-119200651D01*
X211648039Y-119040771D01*
X211637819Y-118878330D01*
X211587522Y-118723533D01*
X211542175Y-118652077D01*
X211500310Y-118586107D01*
X211500309Y-118586106D01*
X211417849Y-118508671D01*
X223131343Y-118508671D01*
X223151208Y-118761078D01*
X223210312Y-119007265D01*
X223307200Y-119241174D01*
X223439485Y-119457042D01*
X223439486Y-119457044D01*
X223439487Y-119457046D01*
X223439489Y-119457048D01*
X223603919Y-119649570D01*
X223796441Y-119814000D01*
X223796443Y-119814001D01*
X223796444Y-119814002D01*
X223796446Y-119814003D01*
X224012314Y-119946288D01*
X224246223Y-120043176D01*
X224246224Y-120043176D01*
X224246226Y-120043177D01*
X224492414Y-120102281D01*
X224744817Y-120122146D01*
X224915991Y-120108674D01*
X227981510Y-120108674D01*
X227999190Y-120310771D01*
X228000702Y-120328043D01*
X228057697Y-120540748D01*
X228057698Y-120540751D01*
X228057699Y-120540753D01*
X228150759Y-120740322D01*
X228150761Y-120740326D01*
X228277068Y-120920710D01*
X228432779Y-121076421D01*
X228613163Y-121202728D01*
X228812741Y-121295792D01*
X229025446Y-121352787D01*
X229182139Y-121366495D01*
X229244815Y-121371979D01*
X229244817Y-121371979D01*
X229244819Y-121371979D01*
X229299659Y-121367181D01*
X229464188Y-121352787D01*
X229676893Y-121295792D01*
X229876471Y-121202728D01*
X230056855Y-121076421D01*
X230212566Y-120920710D01*
X230338873Y-120740326D01*
X230431937Y-120540748D01*
X230488932Y-120328043D01*
X230504654Y-120148331D01*
X230508124Y-120108674D01*
X234481510Y-120108674D01*
X234499190Y-120310771D01*
X234500702Y-120328043D01*
X234557697Y-120540748D01*
X234557698Y-120540751D01*
X234557699Y-120540753D01*
X234650759Y-120740322D01*
X234650761Y-120740326D01*
X234777068Y-120920710D01*
X234932779Y-121076421D01*
X235113163Y-121202728D01*
X235312741Y-121295792D01*
X235525446Y-121352787D01*
X235682139Y-121366495D01*
X235744815Y-121371979D01*
X235744817Y-121371979D01*
X235744819Y-121371979D01*
X235799659Y-121367181D01*
X235964188Y-121352787D01*
X236176893Y-121295792D01*
X236376471Y-121202728D01*
X236556855Y-121076421D01*
X236712566Y-120920710D01*
X236838873Y-120740326D01*
X236931937Y-120540748D01*
X236988932Y-120328043D01*
X237004654Y-120148331D01*
X237008124Y-120108674D01*
X237008124Y-120108669D01*
X236998051Y-119993532D01*
X236988932Y-119889301D01*
X236931937Y-119676596D01*
X236838873Y-119477019D01*
X236838871Y-119477016D01*
X236838870Y-119477014D01*
X236748477Y-119347920D01*
X236712566Y-119296634D01*
X236556855Y-119140923D01*
X236376471Y-119014616D01*
X236360707Y-119007265D01*
X236176898Y-118921554D01*
X236176896Y-118921553D01*
X236176893Y-118921552D01*
X236025594Y-118881011D01*
X235964189Y-118864557D01*
X235964182Y-118864556D01*
X235744819Y-118845365D01*
X235744815Y-118845365D01*
X235525451Y-118864556D01*
X235525444Y-118864557D01*
X235312737Y-118921553D01*
X235113163Y-119014616D01*
X235113159Y-119014618D01*
X234932784Y-119140919D01*
X234932777Y-119140924D01*
X234777069Y-119296632D01*
X234777064Y-119296639D01*
X234650763Y-119477014D01*
X234650761Y-119477018D01*
X234557698Y-119676592D01*
X234500702Y-119889299D01*
X234500701Y-119889306D01*
X234481510Y-120108669D01*
X234481510Y-120108674D01*
X230508124Y-120108674D01*
X230508124Y-120108669D01*
X230498051Y-119993532D01*
X230488932Y-119889301D01*
X230431937Y-119676596D01*
X230338873Y-119477019D01*
X230338871Y-119477016D01*
X230338870Y-119477014D01*
X230248477Y-119347920D01*
X230212566Y-119296634D01*
X230056855Y-119140923D01*
X229876471Y-119014616D01*
X229860707Y-119007265D01*
X229676898Y-118921554D01*
X229676896Y-118921553D01*
X229676893Y-118921552D01*
X229525594Y-118881011D01*
X229464189Y-118864557D01*
X229464182Y-118864556D01*
X229244819Y-118845365D01*
X229244815Y-118845365D01*
X229025451Y-118864556D01*
X229025444Y-118864557D01*
X228812737Y-118921553D01*
X228613163Y-119014616D01*
X228613159Y-119014618D01*
X228432784Y-119140919D01*
X228432777Y-119140924D01*
X228277069Y-119296632D01*
X228277064Y-119296639D01*
X228150763Y-119477014D01*
X228150761Y-119477018D01*
X228057698Y-119676592D01*
X228000702Y-119889299D01*
X228000701Y-119889306D01*
X227981510Y-120108669D01*
X227981510Y-120108674D01*
X224915991Y-120108674D01*
X224997220Y-120102281D01*
X225243408Y-120043177D01*
X225477319Y-119946288D01*
X225693193Y-119814000D01*
X225885715Y-119649570D01*
X226050145Y-119457048D01*
X226182433Y-119241174D01*
X226279322Y-119007263D01*
X226338426Y-118761075D01*
X226358291Y-118508672D01*
X226358291Y-118508671D01*
X238631343Y-118508671D01*
X238651208Y-118761078D01*
X238710312Y-119007265D01*
X238807200Y-119241174D01*
X238939485Y-119457042D01*
X238939486Y-119457044D01*
X238939487Y-119457046D01*
X238939489Y-119457048D01*
X239103919Y-119649570D01*
X239296441Y-119814000D01*
X239296443Y-119814001D01*
X239296444Y-119814002D01*
X239296446Y-119814003D01*
X239512314Y-119946288D01*
X239746223Y-120043176D01*
X239746224Y-120043176D01*
X239746226Y-120043177D01*
X239992414Y-120102281D01*
X240244817Y-120122146D01*
X240497220Y-120102281D01*
X240743408Y-120043177D01*
X240977319Y-119946288D01*
X241193193Y-119814000D01*
X241385715Y-119649570D01*
X241550145Y-119457048D01*
X241682433Y-119241174D01*
X241779322Y-119007263D01*
X241838426Y-118761075D01*
X241858291Y-118508672D01*
X241838426Y-118256269D01*
X241779322Y-118010081D01*
X241682433Y-117776170D01*
X241682433Y-117776169D01*
X241550148Y-117560301D01*
X241550147Y-117560299D01*
X241550146Y-117560298D01*
X241550145Y-117560296D01*
X241385715Y-117367774D01*
X241193193Y-117203344D01*
X241193191Y-117203342D01*
X241193189Y-117203341D01*
X241193187Y-117203340D01*
X240977319Y-117071055D01*
X240743410Y-116974167D01*
X240497223Y-116915063D01*
X240244817Y-116895198D01*
X239992410Y-116915063D01*
X239746223Y-116974167D01*
X239512314Y-117071055D01*
X239296446Y-117203340D01*
X239296444Y-117203341D01*
X239103919Y-117367774D01*
X238939486Y-117560299D01*
X238939485Y-117560301D01*
X238807200Y-117776169D01*
X238710312Y-118010078D01*
X238651208Y-118256265D01*
X238631343Y-118508671D01*
X226358291Y-118508671D01*
X226338426Y-118256269D01*
X226279322Y-118010081D01*
X226182433Y-117776170D01*
X226182433Y-117776169D01*
X226050148Y-117560301D01*
X226050147Y-117560299D01*
X226050146Y-117560298D01*
X226050145Y-117560296D01*
X225885715Y-117367774D01*
X225693193Y-117203344D01*
X225693191Y-117203342D01*
X225693189Y-117203341D01*
X225693187Y-117203340D01*
X225477319Y-117071055D01*
X225243410Y-116974167D01*
X224997223Y-116915063D01*
X224744817Y-116895198D01*
X224492410Y-116915063D01*
X224246223Y-116974167D01*
X224012314Y-117071055D01*
X223796446Y-117203340D01*
X223796444Y-117203341D01*
X223603919Y-117367774D01*
X223439486Y-117560299D01*
X223439485Y-117560301D01*
X223307200Y-117776169D01*
X223210312Y-118010078D01*
X223151208Y-118256265D01*
X223131343Y-118508671D01*
X211417849Y-118508671D01*
X211381664Y-118474691D01*
X211381656Y-118474685D01*
X211376038Y-118471597D01*
X211326775Y-118422051D01*
X211312119Y-118353736D01*
X211336723Y-118288341D01*
X211362893Y-118262617D01*
X211444490Y-118203334D01*
X211548239Y-118077923D01*
X211617540Y-117930651D01*
X211648039Y-117770771D01*
X211637819Y-117608330D01*
X211587522Y-117453533D01*
X211533098Y-117367774D01*
X211500310Y-117316107D01*
X211500309Y-117316106D01*
X211381664Y-117204691D01*
X211381656Y-117204686D01*
X211239034Y-117126279D01*
X211239026Y-117126276D01*
X211081382Y-117085800D01*
X211081381Y-117085800D01*
X211065235Y-117085800D01*
X210998196Y-117066115D01*
X210952441Y-117013311D01*
X210941249Y-116963649D01*
X210940730Y-116928849D01*
X210959412Y-116861524D01*
X211011528Y-116814986D01*
X211064716Y-116803000D01*
X211150313Y-116803000D01*
X211150314Y-116803000D01*
X211158600Y-116799008D01*
X211184813Y-116789837D01*
X211186997Y-116789338D01*
X211193782Y-116787790D01*
X211200973Y-116782054D01*
X211224484Y-116767280D01*
X211232775Y-116763288D01*
X211238506Y-116756100D01*
X211258152Y-116736455D01*
X211265339Y-116730724D01*
X211269331Y-116722433D01*
X211284107Y-116698920D01*
X211289841Y-116691731D01*
X211291887Y-116682762D01*
X211301061Y-116656547D01*
X211305051Y-116648262D01*
X211305051Y-114459598D01*
X211305198Y-114458275D01*
X211305165Y-114445259D01*
X211305166Y-114445258D01*
X211305051Y-114399693D01*
X211305051Y-114377410D01*
X211305051Y-114374649D01*
X211304985Y-114373501D01*
X211304951Y-114360191D01*
X211304935Y-114353732D01*
X211301103Y-114345828D01*
X211291795Y-114319331D01*
X211289841Y-114310768D01*
X211283845Y-114303250D01*
X211269209Y-114280022D01*
X211265017Y-114271374D01*
X211265016Y-114271373D01*
X211265016Y-114271372D01*
X211258123Y-114265903D01*
X211238257Y-114246086D01*
X211232775Y-114239212D01*
X211232774Y-114239211D01*
X211227160Y-114236508D01*
X211224112Y-114235039D01*
X211200846Y-114220461D01*
X211193314Y-114214485D01*
X211184744Y-114212552D01*
X211158230Y-114203312D01*
X211150314Y-114199500D01*
X211150313Y-114199500D01*
X211130550Y-114199500D01*
X211129412Y-114199437D01*
X211104228Y-114199500D01*
X211045850Y-114199500D01*
X211044525Y-114199650D01*
X211022467Y-114199705D01*
X210955379Y-114180187D01*
X210909492Y-114127498D01*
X210898172Y-114077553D01*
X210897613Y-114040048D01*
X210916296Y-113972723D01*
X210968412Y-113926186D01*
X211021599Y-113914200D01*
X211071376Y-113914200D01*
X211071378Y-113914200D01*
X211071383Y-113914199D01*
X211071387Y-113914199D01*
X211084501Y-113912542D01*
X211192329Y-113898920D01*
X211343662Y-113839003D01*
X211343669Y-113838998D01*
X211475338Y-113743336D01*
X211475340Y-113743334D01*
X211475339Y-113743333D01*
X211579089Y-113617923D01*
X211648390Y-113470651D01*
X211678889Y-113310771D01*
X211668669Y-113148330D01*
X211618372Y-112993533D01*
X211564356Y-112908417D01*
X211531160Y-112856107D01*
X211531159Y-112856106D01*
X211412514Y-112744691D01*
X211412506Y-112744685D01*
X211406888Y-112741597D01*
X211357625Y-112692051D01*
X211342969Y-112623736D01*
X211367573Y-112558341D01*
X211393743Y-112532617D01*
X211435489Y-112502287D01*
X211475340Y-112473334D01*
X211579089Y-112347923D01*
X211648390Y-112200651D01*
X211678889Y-112040771D01*
X211668669Y-111878330D01*
X211658827Y-111848039D01*
X214395746Y-111848039D01*
X214405745Y-112057965D01*
X214455296Y-112262216D01*
X214455298Y-112262220D01*
X214542598Y-112453381D01*
X214542601Y-112453386D01*
X214542602Y-112453388D01*
X214542604Y-112453391D01*
X214649654Y-112603722D01*
X214664515Y-112624591D01*
X214664520Y-112624597D01*
X214816620Y-112769623D01*
X214911578Y-112830649D01*
X214993428Y-112883251D01*
X215188543Y-112961363D01*
X215291728Y-112981250D01*
X215394914Y-113001138D01*
X215394915Y-113001138D01*
X215552419Y-113001138D01*
X215552425Y-113001138D01*
X215709218Y-112986166D01*
X215910875Y-112926954D01*
X216097682Y-112830649D01*
X216262886Y-112700730D01*
X216400519Y-112541894D01*
X216415883Y-112515284D01*
X216505601Y-112359887D01*
X216505600Y-112359887D01*
X216505604Y-112359882D01*
X216574344Y-112161271D01*
X216604254Y-111953240D01*
X216598423Y-111830825D01*
X225967220Y-111830825D01*
X225977023Y-112086604D01*
X226025758Y-112337891D01*
X226112276Y-112578783D01*
X226136721Y-112623736D01*
X226227700Y-112791045D01*
X226234561Y-112803661D01*
X226379294Y-112993533D01*
X226389732Y-113007226D01*
X226574161Y-113184721D01*
X226783524Y-113331984D01*
X227012912Y-113445561D01*
X227256949Y-113522791D01*
X227509916Y-113561864D01*
X227509920Y-113561864D01*
X227701799Y-113561864D01*
X227701800Y-113561864D01*
X227893114Y-113547176D01*
X228142347Y-113488853D01*
X228379757Y-113393169D01*
X228599778Y-113262365D01*
X228797253Y-113099508D01*
X228967554Y-112908416D01*
X228999592Y-112858944D01*
X229106687Y-112693571D01*
X229106691Y-112693563D01*
X229211396Y-112459998D01*
X229211397Y-112459996D01*
X229213215Y-112453381D01*
X229279223Y-112213180D01*
X229308578Y-111958903D01*
X229305788Y-111886111D01*
X235664525Y-111886111D01*
X235674328Y-112141890D01*
X235723063Y-112393177D01*
X235809581Y-112634069D01*
X235824293Y-112661124D01*
X235930321Y-112856107D01*
X235931866Y-112858947D01*
X236044894Y-113007226D01*
X236087037Y-113062512D01*
X236271466Y-113240007D01*
X236480829Y-113387270D01*
X236710217Y-113500847D01*
X236954254Y-113578077D01*
X237207221Y-113617150D01*
X237207225Y-113617150D01*
X237399104Y-113617150D01*
X237399105Y-113617150D01*
X237590419Y-113602462D01*
X237839652Y-113544139D01*
X238077062Y-113448455D01*
X238297083Y-113317651D01*
X238494558Y-113154794D01*
X238664859Y-112963702D01*
X238675959Y-112946562D01*
X238803992Y-112748857D01*
X238803996Y-112748849D01*
X238908701Y-112515284D01*
X238908702Y-112515282D01*
X238925711Y-112453386D01*
X238976528Y-112268466D01*
X239005883Y-112014189D01*
X238997996Y-111808435D01*
X247946001Y-111808435D01*
X247956000Y-112018361D01*
X248005551Y-112222612D01*
X248005553Y-112222616D01*
X248092853Y-112413777D01*
X248092856Y-112413782D01*
X248092857Y-112413784D01*
X248092859Y-112413787D01*
X248214769Y-112584986D01*
X248214770Y-112584987D01*
X248214775Y-112584993D01*
X248366875Y-112730019D01*
X248481459Y-112803658D01*
X248543683Y-112843647D01*
X248738798Y-112921759D01*
X248841984Y-112941646D01*
X248945169Y-112961534D01*
X248945170Y-112961534D01*
X249102674Y-112961534D01*
X249102680Y-112961534D01*
X249259473Y-112946562D01*
X249461130Y-112887350D01*
X249647937Y-112791045D01*
X249813141Y-112661126D01*
X249950774Y-112502290D01*
X249975192Y-112459998D01*
X250055856Y-112320283D01*
X250055855Y-112320283D01*
X250055859Y-112320278D01*
X250124599Y-112121667D01*
X250154509Y-111913636D01*
X250144509Y-111703704D01*
X250094959Y-111499458D01*
X250094956Y-111499451D01*
X250007656Y-111308290D01*
X250007653Y-111308285D01*
X250007652Y-111308284D01*
X250007651Y-111308281D01*
X249885741Y-111137082D01*
X249885739Y-111137080D01*
X249885734Y-111137074D01*
X249733634Y-110992048D01*
X249556829Y-110878422D01*
X249546585Y-110874321D01*
X249398686Y-110815111D01*
X249361710Y-110800308D01*
X249155341Y-110760534D01*
X249155340Y-110760534D01*
X248997830Y-110760534D01*
X248841037Y-110775505D01*
X248841037Y-110775506D01*
X248841033Y-110775507D01*
X248639382Y-110834717D01*
X248452568Y-110931025D01*
X248287371Y-111060939D01*
X248287367Y-111060943D01*
X248149733Y-111219780D01*
X248044653Y-111401784D01*
X247975911Y-111600399D01*
X247975911Y-111600401D01*
X247953194Y-111758409D01*
X247946001Y-111808435D01*
X238997996Y-111808435D01*
X238996079Y-111758410D01*
X238947345Y-111507126D01*
X238944590Y-111499455D01*
X238860826Y-111266230D01*
X238857102Y-111259382D01*
X238738544Y-111041356D01*
X238583371Y-110837788D01*
X238398942Y-110660293D01*
X238325068Y-110608331D01*
X238189578Y-110513029D01*
X237960192Y-110399453D01*
X237960189Y-110399452D01*
X237716156Y-110322223D01*
X237577942Y-110300875D01*
X237463187Y-110283150D01*
X237271303Y-110283150D01*
X237271298Y-110283150D01*
X237111874Y-110295390D01*
X237079989Y-110297838D01*
X237079985Y-110297838D01*
X236830759Y-110356160D01*
X236830757Y-110356160D01*
X236830756Y-110356161D01*
X236770308Y-110380523D01*
X236593342Y-110451846D01*
X236593340Y-110451847D01*
X236373328Y-110582646D01*
X236175850Y-110745505D01*
X236005549Y-110936596D01*
X236005542Y-110936606D01*
X235866415Y-111151442D01*
X235866411Y-111151450D01*
X235761706Y-111385015D01*
X235761705Y-111385017D01*
X235693881Y-111631828D01*
X235693880Y-111631832D01*
X235664525Y-111886111D01*
X229305788Y-111886111D01*
X229298774Y-111703124D01*
X229250040Y-111451840D01*
X229250039Y-111451836D01*
X229163521Y-111210944D01*
X229131169Y-111151450D01*
X229041239Y-110986070D01*
X228886066Y-110782502D01*
X228701637Y-110605007D01*
X228669851Y-110582649D01*
X228492273Y-110457743D01*
X228262887Y-110344167D01*
X228262884Y-110344166D01*
X228018851Y-110266937D01*
X227917662Y-110251307D01*
X227765882Y-110227864D01*
X227573998Y-110227864D01*
X227573993Y-110227864D01*
X227414569Y-110240104D01*
X227382684Y-110242552D01*
X227382680Y-110242552D01*
X227133454Y-110300874D01*
X227133452Y-110300874D01*
X227133451Y-110300875D01*
X227095660Y-110316106D01*
X226896037Y-110396560D01*
X226896035Y-110396561D01*
X226676023Y-110527360D01*
X226478545Y-110690219D01*
X226308244Y-110881310D01*
X226308237Y-110881320D01*
X226169110Y-111096156D01*
X226169106Y-111096164D01*
X226064401Y-111329729D01*
X226064400Y-111329731D01*
X225996576Y-111576542D01*
X225996575Y-111576546D01*
X225967220Y-111830825D01*
X216598423Y-111830825D01*
X216594254Y-111743308D01*
X216544704Y-111539062D01*
X216539043Y-111526666D01*
X216457401Y-111347894D01*
X216457398Y-111347889D01*
X216457397Y-111347888D01*
X216457396Y-111347885D01*
X216335486Y-111176686D01*
X216335484Y-111176684D01*
X216335479Y-111176678D01*
X216183379Y-111031652D01*
X216006574Y-110918026D01*
X215811455Y-110839912D01*
X215605086Y-110800138D01*
X215605085Y-110800138D01*
X215447575Y-110800138D01*
X215290782Y-110815110D01*
X215290778Y-110815111D01*
X215089127Y-110874321D01*
X214902313Y-110970629D01*
X214737116Y-111100543D01*
X214737112Y-111100547D01*
X214599478Y-111259384D01*
X214494398Y-111441388D01*
X214425656Y-111640003D01*
X214425656Y-111640005D01*
X214401441Y-111808432D01*
X214395746Y-111848039D01*
X211658827Y-111848039D01*
X211618372Y-111723533D01*
X211573025Y-111652077D01*
X211531160Y-111586107D01*
X211531159Y-111586106D01*
X211412514Y-111474691D01*
X211412506Y-111474685D01*
X211406888Y-111471597D01*
X211357625Y-111422051D01*
X211342969Y-111353736D01*
X211367573Y-111288341D01*
X211393743Y-111262617D01*
X211403799Y-111255311D01*
X211475340Y-111203334D01*
X211579089Y-111077923D01*
X211648390Y-110930651D01*
X211678889Y-110770771D01*
X211668669Y-110608330D01*
X211618372Y-110453533D01*
X211573025Y-110382077D01*
X211531160Y-110316107D01*
X211531159Y-110316106D01*
X211412514Y-110204691D01*
X211412506Y-110204686D01*
X211269884Y-110126279D01*
X211269876Y-110126276D01*
X211112232Y-110085800D01*
X211112231Y-110085800D01*
X210990322Y-110085800D01*
X210990313Y-110085800D01*
X210976334Y-110087566D01*
X210907356Y-110076436D01*
X210855346Y-110029780D01*
X210836812Y-109966395D01*
X210834722Y-109826349D01*
X210853405Y-109759024D01*
X210905521Y-109712486D01*
X210958709Y-109700500D01*
X211102564Y-109700500D01*
X211148361Y-109700526D01*
X211148361Y-109700525D01*
X211148362Y-109700526D01*
X211156727Y-109696502D01*
X211182886Y-109687356D01*
X211191943Y-109685290D01*
X211199063Y-109679610D01*
X211222645Y-109664803D01*
X211230843Y-109660861D01*
X211230843Y-109660860D01*
X211230845Y-109660860D01*
X211236645Y-109653594D01*
X211256232Y-109634019D01*
X211263500Y-109628224D01*
X211267448Y-109620024D01*
X211282269Y-109596451D01*
X211287952Y-109589335D01*
X211290024Y-109580277D01*
X211299181Y-109554132D01*
X211303212Y-109545763D01*
X211303212Y-109499655D01*
X211303449Y-109080278D01*
X211304520Y-107179290D01*
X211304975Y-106373198D01*
X211324697Y-106306171D01*
X211341289Y-106285593D01*
X212418210Y-105208672D01*
X223131343Y-105208672D01*
X223151208Y-105461078D01*
X223210312Y-105707265D01*
X223307200Y-105941174D01*
X223439485Y-106157042D01*
X223439486Y-106157044D01*
X223439487Y-106157046D01*
X223439489Y-106157048D01*
X223603919Y-106349570D01*
X223796441Y-106514000D01*
X223796443Y-106514001D01*
X223796444Y-106514002D01*
X223796446Y-106514003D01*
X224012314Y-106646288D01*
X224246223Y-106743176D01*
X224246224Y-106743176D01*
X224246226Y-106743177D01*
X224492414Y-106802281D01*
X224744817Y-106822146D01*
X224997220Y-106802281D01*
X225243408Y-106743177D01*
X225477319Y-106646288D01*
X225693193Y-106514000D01*
X225885715Y-106349570D01*
X226050145Y-106157048D01*
X226182433Y-105941174D01*
X226279322Y-105707263D01*
X226338426Y-105461075D01*
X226358291Y-105208672D01*
X238631343Y-105208672D01*
X238651208Y-105461078D01*
X238710312Y-105707265D01*
X238807200Y-105941174D01*
X238939485Y-106157042D01*
X238939486Y-106157044D01*
X238939487Y-106157046D01*
X238939489Y-106157048D01*
X239103919Y-106349570D01*
X239296441Y-106514000D01*
X239296443Y-106514001D01*
X239296444Y-106514002D01*
X239296446Y-106514003D01*
X239512314Y-106646288D01*
X239746223Y-106743176D01*
X239746224Y-106743176D01*
X239746226Y-106743177D01*
X239992414Y-106802281D01*
X240244817Y-106822146D01*
X240497220Y-106802281D01*
X240743408Y-106743177D01*
X240977319Y-106646288D01*
X241193193Y-106514000D01*
X241385715Y-106349570D01*
X241550145Y-106157048D01*
X241682433Y-105941174D01*
X241779322Y-105707263D01*
X241838426Y-105461075D01*
X241858291Y-105208672D01*
X241838426Y-104956269D01*
X241779322Y-104710081D01*
X241682433Y-104476170D01*
X241682433Y-104476169D01*
X241550148Y-104260301D01*
X241550147Y-104260299D01*
X241550146Y-104260298D01*
X241550145Y-104260296D01*
X241385715Y-104067774D01*
X241193193Y-103903344D01*
X241193191Y-103903342D01*
X241193189Y-103903341D01*
X241193187Y-103903340D01*
X240977319Y-103771055D01*
X240743410Y-103674167D01*
X240497223Y-103615063D01*
X240307917Y-103600164D01*
X240244817Y-103595198D01*
X240244816Y-103595198D01*
X239992410Y-103615063D01*
X239746223Y-103674167D01*
X239512314Y-103771055D01*
X239296446Y-103903340D01*
X239296444Y-103903341D01*
X239103919Y-104067774D01*
X238939486Y-104260299D01*
X238939485Y-104260301D01*
X238807200Y-104476169D01*
X238710312Y-104710078D01*
X238651208Y-104956265D01*
X238631343Y-105208672D01*
X226358291Y-105208672D01*
X226338426Y-104956269D01*
X226279322Y-104710081D01*
X226182433Y-104476170D01*
X226182433Y-104476169D01*
X226050148Y-104260301D01*
X226050147Y-104260299D01*
X226050146Y-104260298D01*
X226050145Y-104260296D01*
X225885715Y-104067774D01*
X225693193Y-103903344D01*
X225693191Y-103903342D01*
X225693189Y-103903341D01*
X225693187Y-103903340D01*
X225477319Y-103771055D01*
X225243410Y-103674167D01*
X224997223Y-103615063D01*
X224744817Y-103595198D01*
X224492410Y-103615063D01*
X224246223Y-103674167D01*
X224012314Y-103771055D01*
X223796446Y-103903340D01*
X223796444Y-103903341D01*
X223603919Y-104067774D01*
X223439486Y-104260299D01*
X223439485Y-104260301D01*
X223307200Y-104476169D01*
X223210312Y-104710078D01*
X223151208Y-104956265D01*
X223131343Y-105208672D01*
X212418210Y-105208672D01*
X219268730Y-98358151D01*
X219283533Y-98347730D01*
X219282866Y-98346881D01*
X219293852Y-98338249D01*
X219293852Y-98338248D01*
X219293854Y-98338248D01*
X219313985Y-98313375D01*
X219318300Y-98308581D01*
X219324547Y-98302336D01*
X219328218Y-98296493D01*
X219332511Y-98290487D01*
X219351437Y-98267107D01*
X219351437Y-98267105D01*
X219356856Y-98256057D01*
X219360914Y-98244461D01*
X219360914Y-98244460D01*
X219360915Y-98244459D01*
X219364279Y-98214582D01*
X219365546Y-98207288D01*
X219367130Y-98200578D01*
X219367194Y-98191769D01*
X219367581Y-98185282D01*
X219371161Y-98153509D01*
X219371160Y-98153508D01*
X219371161Y-98153507D01*
X219369597Y-98139627D01*
X219370669Y-98139506D01*
X219367702Y-98121648D01*
X219379620Y-96477739D01*
X219399790Y-96410844D01*
X219452925Y-96365473D01*
X219503642Y-96354638D01*
X245215040Y-96360407D01*
G37*
G04 #@! TD.AperFunction*
M02*
