%TF.GenerationSoftware,KiCad,Pcbnew,7.0.5-7.0.5~ubuntu20.04.1*%
%TF.CreationDate,2023-06-07T06:16:21-05:00*%
%TF.ProjectId,Phobri64,50686f62-7269-4363-942e-6b696361645f,rev?*%
%TF.SameCoordinates,Original*%
%TF.FileFunction,Drillmap*%
%TF.FilePolarity,Positive*%
%FSLAX45Y45*%
G04 Gerber Fmt 4.5, Leading zero omitted, Abs format (unit mm)*
G04 Created by KiCad (PCBNEW 7.0.5-7.0.5~ubuntu20.04.1) date 2023-06-07 06:16:21*
%MOMM*%
%LPD*%
G01*
G04 APERTURE LIST*
%ADD10C,0.100000*%
%ADD11C,0.200000*%
%ADD12C,0.035000*%
%ADD13C,0.040000*%
%ADD14C,0.055000*%
%ADD15C,0.080000*%
%ADD16C,0.088900*%
%ADD17C,0.150000*%
G04 APERTURE END LIST*
D10*
X18147328Y-11990749D02*
X18132035Y-12554892D01*
X20895584Y-12109428D02*
X20893277Y-12398563D01*
X18459985Y-12874347D02*
X20420892Y-12872647D01*
X15431942Y-11020526D02*
X15605298Y-11193883D01*
X22237236Y-7981042D02*
G75*
G03*
X20893277Y-10921936I-92219J-1735392D01*
G01*
X20420892Y-12872647D02*
X20893277Y-12398563D01*
X24850000Y-13250000D02*
X25595128Y-12503581D01*
X21110455Y-11660250D02*
X20893277Y-11660250D01*
X20893277Y-10950000D02*
X20893277Y-10921936D01*
X21916680Y-9817654D02*
X21110455Y-10623878D01*
X24554537Y-9816121D02*
X24553838Y-9615998D01*
X14886501Y-10682269D02*
X15224759Y-11020526D01*
X18132035Y-12554892D02*
X18459985Y-12874347D01*
X25595128Y-12503581D02*
X25622395Y-10690612D01*
X15955326Y-11973757D02*
X18147328Y-11990749D01*
X22243717Y-13250000D02*
X24850000Y-13250000D01*
X21874881Y-12449651D02*
X21450000Y-12450000D01*
X21930712Y-6500562D02*
X17313499Y-6500562D01*
X15605298Y-11193883D02*
X15605298Y-11646303D01*
X15605298Y-11646303D02*
X15955326Y-11973757D01*
X24799777Y-10691319D02*
X24799777Y-10061360D01*
X14886501Y-8999438D02*
X14886501Y-10682269D01*
X17313499Y-6500562D02*
X14886501Y-8999438D01*
X21918146Y-9615407D02*
X21916680Y-9817654D01*
X22238038Y-6807420D02*
X21930712Y-6500562D01*
X15224759Y-11020526D02*
X15431942Y-11020526D01*
X21110271Y-12109593D02*
X20895584Y-12109428D01*
X25622395Y-10690612D02*
X24799777Y-10691319D01*
X20893974Y-11440545D02*
X20893277Y-11660250D01*
X21450000Y-12450000D02*
X21110271Y-12109593D01*
X24553838Y-9615998D02*
X21918146Y-9615407D01*
X21110271Y-10950000D02*
X21110455Y-10623878D01*
X21110271Y-10950000D02*
X20893277Y-10950000D01*
X21110455Y-11440000D02*
X21110455Y-11660250D01*
X21110455Y-11440000D02*
X20893974Y-11440545D01*
X24799777Y-10061360D02*
X24554537Y-9816121D01*
X22237236Y-7981041D02*
X22238038Y-6807420D01*
X21875332Y-12874066D02*
X21874881Y-12449651D01*
X21875332Y-12874066D02*
X22243717Y-13250000D01*
D11*
D12*
X18062812Y-8126609D02*
X18097812Y-8161609D01*
X18097812Y-8126609D02*
X18062812Y-8161609D01*
X18062812Y-8256609D02*
X18097812Y-8291609D01*
X18097812Y-8256609D02*
X18062812Y-8291609D01*
X18062812Y-8386609D02*
X18097812Y-8421609D01*
X18097812Y-8386609D02*
X18062812Y-8421609D01*
X18192812Y-8126609D02*
X18227812Y-8161609D01*
X18227812Y-8126609D02*
X18192812Y-8161609D01*
X18192812Y-8256609D02*
X18227812Y-8291609D01*
X18227812Y-8256609D02*
X18192812Y-8291609D01*
X18192812Y-8386609D02*
X18227812Y-8421609D01*
X18227812Y-8386609D02*
X18192812Y-8421609D01*
X18322812Y-8126609D02*
X18357812Y-8161609D01*
X18357812Y-8126609D02*
X18322812Y-8161609D01*
X18322812Y-8256609D02*
X18357812Y-8291609D01*
X18357812Y-8256609D02*
X18322812Y-8291609D01*
X18322812Y-8386609D02*
X18357812Y-8421609D01*
X18357812Y-8386609D02*
X18322812Y-8421609D01*
D13*
X15802875Y-8236072D02*
G75*
G03*
X15802875Y-8236072I-20000J0D01*
G01*
X15920000Y-9750000D02*
G75*
G03*
X15920000Y-9750000I-20000J0D01*
G01*
X15920000Y-10000000D02*
G75*
G03*
X15920000Y-10000000I-20000J0D01*
G01*
X16220000Y-8600000D02*
G75*
G03*
X16220000Y-8600000I-20000J0D01*
G01*
X16970000Y-8150000D02*
G75*
G03*
X16970000Y-8150000I-20000J0D01*
G01*
X16970000Y-9000000D02*
G75*
G03*
X16970000Y-9000000I-20000J0D01*
G01*
X17670000Y-7950000D02*
G75*
G03*
X17670000Y-7950000I-20000J0D01*
G01*
X17670000Y-8050000D02*
G75*
G03*
X17670000Y-8050000I-20000J0D01*
G01*
X17670000Y-8150000D02*
G75*
G03*
X17670000Y-8150000I-20000J0D01*
G01*
X17720000Y-8550000D02*
G75*
G03*
X17720000Y-8550000I-20000J0D01*
G01*
X17720000Y-8650000D02*
G75*
G03*
X17720000Y-8650000I-20000J0D01*
G01*
X17770000Y-7700000D02*
G75*
G03*
X17770000Y-7700000I-20000J0D01*
G01*
X17870000Y-7700000D02*
G75*
G03*
X17870000Y-7700000I-20000J0D01*
G01*
X17870000Y-7800000D02*
G75*
G03*
X17870000Y-7800000I-20000J0D01*
G01*
X17870000Y-8650000D02*
G75*
G03*
X17870000Y-8650000I-20000J0D01*
G01*
X17970000Y-7700000D02*
G75*
G03*
X17970000Y-7700000I-20000J0D01*
G01*
X18003119Y-8450000D02*
G75*
G03*
X18003119Y-8450000I-20000J0D01*
G01*
X18020000Y-10550000D02*
G75*
G03*
X18020000Y-10550000I-20000J0D01*
G01*
X18039950Y-9550000D02*
G75*
G03*
X18039950Y-9550000I-20000J0D01*
G01*
X18070000Y-7700000D02*
G75*
G03*
X18070000Y-7700000I-20000J0D01*
G01*
X18320000Y-10450000D02*
G75*
G03*
X18320000Y-10450000I-20000J0D01*
G01*
X18350635Y-7705383D02*
G75*
G03*
X18350635Y-7705383I-20000J0D01*
G01*
X18570000Y-6750000D02*
G75*
G03*
X18570000Y-6750000I-20000J0D01*
G01*
X18570000Y-7230000D02*
G75*
G03*
X18570000Y-7230000I-20000J0D01*
G01*
X18570000Y-8950000D02*
G75*
G03*
X18570000Y-8950000I-20000J0D01*
G01*
X18570000Y-11800000D02*
G75*
G03*
X18570000Y-11800000I-20000J0D01*
G01*
X18720000Y-8950000D02*
G75*
G03*
X18720000Y-8950000I-20000J0D01*
G01*
X18720000Y-11500000D02*
G75*
G03*
X18720000Y-11500000I-20000J0D01*
G01*
X18870000Y-9150000D02*
G75*
G03*
X18870000Y-9150000I-20000J0D01*
G01*
X19020000Y-6750000D02*
G75*
G03*
X19020000Y-6750000I-20000J0D01*
G01*
X19020000Y-10450000D02*
G75*
G03*
X19020000Y-10450000I-20000J0D01*
G01*
X19020000Y-12600000D02*
G75*
G03*
X19020000Y-12600000I-20000J0D01*
G01*
X19070000Y-7950000D02*
G75*
G03*
X19070000Y-7950000I-20000J0D01*
G01*
X19087591Y-8635676D02*
G75*
G03*
X19087591Y-8635676I-20000J0D01*
G01*
X19089640Y-8769504D02*
G75*
G03*
X19089640Y-8769504I-20000J0D01*
G01*
X19120000Y-11250000D02*
G75*
G03*
X19120000Y-11250000I-20000J0D01*
G01*
X19170000Y-9300000D02*
G75*
G03*
X19170000Y-9300000I-20000J0D01*
G01*
X19220000Y-8200000D02*
G75*
G03*
X19220000Y-8200000I-20000J0D01*
G01*
X19320000Y-6850000D02*
G75*
G03*
X19320000Y-6850000I-20000J0D01*
G01*
X19450312Y-7544109D02*
G75*
G03*
X19450312Y-7544109I-20000J0D01*
G01*
X19470000Y-10100000D02*
G75*
G03*
X19470000Y-10100000I-20000J0D01*
G01*
X19595000Y-6750000D02*
G75*
G03*
X19595000Y-6750000I-20000J0D01*
G01*
X22165114Y-11286625D02*
G75*
G03*
X22165114Y-11286625I-20000J0D01*
G01*
X22942395Y-10190612D02*
G75*
G03*
X22942395Y-10190612I-20000J0D01*
G01*
X24187841Y-10876862D02*
G75*
G03*
X24187841Y-10876862I-20000J0D01*
G01*
X24942395Y-11490612D02*
G75*
G03*
X24942395Y-11490612I-20000J0D01*
G01*
D14*
X19179047Y-7261609D02*
X19179047Y-7316609D01*
X19151547Y-7289109D02*
X19206547Y-7289109D01*
D11*
X19206547Y-7346609D02*
X19206547Y-7231609D01*
X19206547Y-7231609D02*
G75*
G03*
X19151547Y-7231609I-27500J0D01*
G01*
X19151547Y-7231609D02*
X19151547Y-7346609D01*
X19151547Y-7346609D02*
G75*
G03*
X19206547Y-7346609I27500J0D01*
G01*
D14*
X19384047Y-7166609D02*
X19384047Y-7221609D01*
X19356547Y-7194109D02*
X19411547Y-7194109D01*
X19464047Y-7356609D02*
X19464047Y-7411609D01*
X19436547Y-7384109D02*
X19491547Y-7384109D01*
X19544047Y-7166609D02*
X19544047Y-7221609D01*
X19516547Y-7194109D02*
X19571547Y-7194109D01*
X19624047Y-7356609D02*
X19624047Y-7411609D01*
X19596547Y-7384109D02*
X19651547Y-7384109D01*
X19704047Y-7166609D02*
X19704047Y-7221609D01*
X19676547Y-7194109D02*
X19731547Y-7194109D01*
X19909047Y-7261609D02*
X19909047Y-7316609D01*
X19881547Y-7289109D02*
X19936547Y-7289109D01*
D11*
X19936547Y-7346609D02*
X19936547Y-7231609D01*
X19936547Y-7231609D02*
G75*
G03*
X19881547Y-7231609I-27500J0D01*
G01*
X19881547Y-7231609D02*
X19881547Y-7346609D01*
X19881547Y-7346609D02*
G75*
G03*
X19936547Y-7346609I27500J0D01*
G01*
D15*
X16153284Y-11503284D02*
X16153284Y-11446715D01*
X16096715Y-11446715D01*
X16096715Y-11503284D01*
X16153284Y-11503284D01*
X16153284Y-11663284D02*
X16153284Y-11606715D01*
X16096715Y-11606715D01*
X16096715Y-11663284D01*
X16153284Y-11663284D01*
X16153284Y-11823284D02*
X16153284Y-11766715D01*
X16096715Y-11766715D01*
X16096715Y-11823284D01*
X16153284Y-11823284D01*
X20808597Y-8078314D02*
X20808597Y-8021745D01*
X20752028Y-8021745D01*
X20752028Y-8078314D01*
X20808597Y-8078314D01*
X20808597Y-8238314D02*
X20808597Y-8181745D01*
X20752028Y-8181745D01*
X20752028Y-8238314D01*
X20808597Y-8238314D01*
X20808597Y-8398314D02*
X20808597Y-8341745D01*
X20752028Y-8341745D01*
X20752028Y-8398314D01*
X20808597Y-8398314D01*
D16*
X15150000Y-10608727D02*
X15194450Y-10564277D01*
X15150000Y-10519827D01*
X15105550Y-10564277D01*
X15150000Y-10608727D01*
X15400000Y-10608727D02*
X15444450Y-10564277D01*
X15400000Y-10519827D01*
X15355550Y-10564277D01*
X15400000Y-10608727D01*
X15650000Y-10608727D02*
X15694450Y-10564277D01*
X15650000Y-10519827D01*
X15605550Y-10564277D01*
X15650000Y-10608727D01*
D10*
X20624247Y-7243004D02*
X20724247Y-7343004D01*
X20724247Y-7243004D02*
X20624247Y-7343004D01*
X20724247Y-7293004D02*
G75*
G03*
X20724247Y-7293004I-50000J0D01*
G01*
X22874482Y-11960867D02*
X22974482Y-12060867D01*
X22974482Y-11960867D02*
X22874482Y-12060867D01*
X22974482Y-12010867D02*
G75*
G03*
X22974482Y-12010867I-50000J0D01*
G01*
X22874482Y-12410867D02*
X22974482Y-12510867D01*
X22974482Y-12410867D02*
X22874482Y-12510867D01*
X22974482Y-12460867D02*
G75*
G03*
X22974482Y-12460867I-50000J0D01*
G01*
X23524482Y-11960867D02*
X23624482Y-12060867D01*
X23624482Y-11960867D02*
X23524482Y-12060867D01*
X23624482Y-12010867D02*
G75*
G03*
X23624482Y-12010867I-50000J0D01*
G01*
X23524482Y-12410867D02*
X23624482Y-12510867D01*
X23624482Y-12410867D02*
X23524482Y-12510867D01*
X23624482Y-12460867D02*
G75*
G03*
X23624482Y-12460867I-50000J0D01*
G01*
D17*
X22399482Y-10445867D02*
X22549482Y-10595867D01*
X22549482Y-10445867D02*
X22399482Y-10595867D01*
X22474482Y-10445867D02*
X22474482Y-10595867D01*
X22399482Y-10520867D02*
X22549482Y-10520867D01*
X22399482Y-11775867D02*
X22549482Y-11925867D01*
X22549482Y-11775867D02*
X22399482Y-11925867D01*
X22474482Y-11775867D02*
X22474482Y-11925867D01*
X22399482Y-11850867D02*
X22549482Y-11850867D01*
X23949482Y-10445867D02*
X24099482Y-10595867D01*
X24099482Y-10445867D02*
X23949482Y-10595867D01*
X24024482Y-10445867D02*
X24024482Y-10595867D01*
X23949482Y-10520867D02*
X24099482Y-10520867D01*
X23949482Y-11775867D02*
X24099482Y-11925867D01*
X24099482Y-11775867D02*
X23949482Y-11925867D01*
X24024482Y-11775867D02*
X24024482Y-11925867D01*
X23949482Y-11850867D02*
X24099482Y-11850867D01*
D11*
X15142278Y-13566484D02*
X15142278Y-13366484D01*
X15142278Y-13366484D02*
X15189897Y-13366484D01*
X15189897Y-13366484D02*
X15218469Y-13376008D01*
X15218469Y-13376008D02*
X15237516Y-13395055D01*
X15237516Y-13395055D02*
X15247040Y-13414103D01*
X15247040Y-13414103D02*
X15256564Y-13452198D01*
X15256564Y-13452198D02*
X15256564Y-13480769D01*
X15256564Y-13480769D02*
X15247040Y-13518865D01*
X15247040Y-13518865D02*
X15237516Y-13537912D01*
X15237516Y-13537912D02*
X15218469Y-13556960D01*
X15218469Y-13556960D02*
X15189897Y-13566484D01*
X15189897Y-13566484D02*
X15142278Y-13566484D01*
X15342278Y-13566484D02*
X15342278Y-13433150D01*
X15342278Y-13471246D02*
X15351802Y-13452198D01*
X15351802Y-13452198D02*
X15361326Y-13442674D01*
X15361326Y-13442674D02*
X15380373Y-13433150D01*
X15380373Y-13433150D02*
X15399421Y-13433150D01*
X15466088Y-13566484D02*
X15466088Y-13433150D01*
X15466088Y-13366484D02*
X15456564Y-13376008D01*
X15456564Y-13376008D02*
X15466088Y-13385531D01*
X15466088Y-13385531D02*
X15475612Y-13376008D01*
X15475612Y-13376008D02*
X15466088Y-13366484D01*
X15466088Y-13366484D02*
X15466088Y-13385531D01*
X15589897Y-13566484D02*
X15570850Y-13556960D01*
X15570850Y-13556960D02*
X15561326Y-13537912D01*
X15561326Y-13537912D02*
X15561326Y-13366484D01*
X15694659Y-13566484D02*
X15675612Y-13556960D01*
X15675612Y-13556960D02*
X15666088Y-13537912D01*
X15666088Y-13537912D02*
X15666088Y-13366484D01*
X15923231Y-13566484D02*
X15923231Y-13366484D01*
X15923231Y-13366484D02*
X15989897Y-13509341D01*
X15989897Y-13509341D02*
X16056564Y-13366484D01*
X16056564Y-13366484D02*
X16056564Y-13566484D01*
X16237516Y-13566484D02*
X16237516Y-13461722D01*
X16237516Y-13461722D02*
X16227993Y-13442674D01*
X16227993Y-13442674D02*
X16208945Y-13433150D01*
X16208945Y-13433150D02*
X16170850Y-13433150D01*
X16170850Y-13433150D02*
X16151802Y-13442674D01*
X16237516Y-13556960D02*
X16218469Y-13566484D01*
X16218469Y-13566484D02*
X16170850Y-13566484D01*
X16170850Y-13566484D02*
X16151802Y-13556960D01*
X16151802Y-13556960D02*
X16142278Y-13537912D01*
X16142278Y-13537912D02*
X16142278Y-13518865D01*
X16142278Y-13518865D02*
X16151802Y-13499817D01*
X16151802Y-13499817D02*
X16170850Y-13490293D01*
X16170850Y-13490293D02*
X16218469Y-13490293D01*
X16218469Y-13490293D02*
X16237516Y-13480769D01*
X16332754Y-13433150D02*
X16332754Y-13633150D01*
X16332754Y-13442674D02*
X16351802Y-13433150D01*
X16351802Y-13433150D02*
X16389897Y-13433150D01*
X16389897Y-13433150D02*
X16408945Y-13442674D01*
X16408945Y-13442674D02*
X16418469Y-13452198D01*
X16418469Y-13452198D02*
X16427993Y-13471246D01*
X16427993Y-13471246D02*
X16427993Y-13528388D01*
X16427993Y-13528388D02*
X16418469Y-13547436D01*
X16418469Y-13547436D02*
X16408945Y-13556960D01*
X16408945Y-13556960D02*
X16389897Y-13566484D01*
X16389897Y-13566484D02*
X16351802Y-13566484D01*
X16351802Y-13566484D02*
X16332754Y-13556960D01*
X16513707Y-13547436D02*
X16523231Y-13556960D01*
X16523231Y-13556960D02*
X16513707Y-13566484D01*
X16513707Y-13566484D02*
X16504183Y-13556960D01*
X16504183Y-13556960D02*
X16513707Y-13547436D01*
X16513707Y-13547436D02*
X16513707Y-13566484D01*
X16513707Y-13442674D02*
X16523231Y-13452198D01*
X16523231Y-13452198D02*
X16513707Y-13461722D01*
X16513707Y-13461722D02*
X16504183Y-13452198D01*
X16504183Y-13452198D02*
X16513707Y-13442674D01*
X16513707Y-13442674D02*
X16513707Y-13461722D01*
D12*
X14846501Y-13877500D02*
X14881501Y-13912500D01*
X14881501Y-13877500D02*
X14846501Y-13912500D01*
D11*
X15180373Y-13786484D02*
X15199421Y-13786484D01*
X15199421Y-13786484D02*
X15218469Y-13796008D01*
X15218469Y-13796008D02*
X15227993Y-13805531D01*
X15227993Y-13805531D02*
X15237516Y-13824579D01*
X15237516Y-13824579D02*
X15247040Y-13862674D01*
X15247040Y-13862674D02*
X15247040Y-13910293D01*
X15247040Y-13910293D02*
X15237516Y-13948388D01*
X15237516Y-13948388D02*
X15227993Y-13967436D01*
X15227993Y-13967436D02*
X15218469Y-13976960D01*
X15218469Y-13976960D02*
X15199421Y-13986484D01*
X15199421Y-13986484D02*
X15180373Y-13986484D01*
X15180373Y-13986484D02*
X15161326Y-13976960D01*
X15161326Y-13976960D02*
X15151802Y-13967436D01*
X15151802Y-13967436D02*
X15142278Y-13948388D01*
X15142278Y-13948388D02*
X15132754Y-13910293D01*
X15132754Y-13910293D02*
X15132754Y-13862674D01*
X15132754Y-13862674D02*
X15142278Y-13824579D01*
X15142278Y-13824579D02*
X15151802Y-13805531D01*
X15151802Y-13805531D02*
X15161326Y-13796008D01*
X15161326Y-13796008D02*
X15180373Y-13786484D01*
X15332754Y-13967436D02*
X15342278Y-13976960D01*
X15342278Y-13976960D02*
X15332754Y-13986484D01*
X15332754Y-13986484D02*
X15323231Y-13976960D01*
X15323231Y-13976960D02*
X15332754Y-13967436D01*
X15332754Y-13967436D02*
X15332754Y-13986484D01*
X15408945Y-13786484D02*
X15532754Y-13786484D01*
X15532754Y-13786484D02*
X15466088Y-13862674D01*
X15466088Y-13862674D02*
X15494659Y-13862674D01*
X15494659Y-13862674D02*
X15513707Y-13872198D01*
X15513707Y-13872198D02*
X15523231Y-13881722D01*
X15523231Y-13881722D02*
X15532754Y-13900769D01*
X15532754Y-13900769D02*
X15532754Y-13948388D01*
X15532754Y-13948388D02*
X15523231Y-13967436D01*
X15523231Y-13967436D02*
X15513707Y-13976960D01*
X15513707Y-13976960D02*
X15494659Y-13986484D01*
X15494659Y-13986484D02*
X15437516Y-13986484D01*
X15437516Y-13986484D02*
X15418469Y-13976960D01*
X15418469Y-13976960D02*
X15408945Y-13967436D01*
X15713707Y-13786484D02*
X15618469Y-13786484D01*
X15618469Y-13786484D02*
X15608945Y-13881722D01*
X15608945Y-13881722D02*
X15618469Y-13872198D01*
X15618469Y-13872198D02*
X15637516Y-13862674D01*
X15637516Y-13862674D02*
X15685135Y-13862674D01*
X15685135Y-13862674D02*
X15704183Y-13872198D01*
X15704183Y-13872198D02*
X15713707Y-13881722D01*
X15713707Y-13881722D02*
X15723231Y-13900769D01*
X15723231Y-13900769D02*
X15723231Y-13948388D01*
X15723231Y-13948388D02*
X15713707Y-13967436D01*
X15713707Y-13967436D02*
X15704183Y-13976960D01*
X15704183Y-13976960D02*
X15685135Y-13986484D01*
X15685135Y-13986484D02*
X15637516Y-13986484D01*
X15637516Y-13986484D02*
X15618469Y-13976960D01*
X15618469Y-13976960D02*
X15608945Y-13967436D01*
X15847040Y-13786484D02*
X15866088Y-13786484D01*
X15866088Y-13786484D02*
X15885135Y-13796008D01*
X15885135Y-13796008D02*
X15894659Y-13805531D01*
X15894659Y-13805531D02*
X15904183Y-13824579D01*
X15904183Y-13824579D02*
X15913707Y-13862674D01*
X15913707Y-13862674D02*
X15913707Y-13910293D01*
X15913707Y-13910293D02*
X15904183Y-13948388D01*
X15904183Y-13948388D02*
X15894659Y-13967436D01*
X15894659Y-13967436D02*
X15885135Y-13976960D01*
X15885135Y-13976960D02*
X15866088Y-13986484D01*
X15866088Y-13986484D02*
X15847040Y-13986484D01*
X15847040Y-13986484D02*
X15827993Y-13976960D01*
X15827993Y-13976960D02*
X15818469Y-13967436D01*
X15818469Y-13967436D02*
X15808945Y-13948388D01*
X15808945Y-13948388D02*
X15799421Y-13910293D01*
X15799421Y-13910293D02*
X15799421Y-13862674D01*
X15799421Y-13862674D02*
X15808945Y-13824579D01*
X15808945Y-13824579D02*
X15818469Y-13805531D01*
X15818469Y-13805531D02*
X15827993Y-13796008D01*
X15827993Y-13796008D02*
X15847040Y-13786484D01*
X15999421Y-13986484D02*
X15999421Y-13853150D01*
X15999421Y-13872198D02*
X16008945Y-13862674D01*
X16008945Y-13862674D02*
X16027993Y-13853150D01*
X16027993Y-13853150D02*
X16056564Y-13853150D01*
X16056564Y-13853150D02*
X16075612Y-13862674D01*
X16075612Y-13862674D02*
X16085135Y-13881722D01*
X16085135Y-13881722D02*
X16085135Y-13986484D01*
X16085135Y-13881722D02*
X16094659Y-13862674D01*
X16094659Y-13862674D02*
X16113707Y-13853150D01*
X16113707Y-13853150D02*
X16142278Y-13853150D01*
X16142278Y-13853150D02*
X16161326Y-13862674D01*
X16161326Y-13862674D02*
X16170850Y-13881722D01*
X16170850Y-13881722D02*
X16170850Y-13986484D01*
X16266088Y-13986484D02*
X16266088Y-13853150D01*
X16266088Y-13872198D02*
X16275612Y-13862674D01*
X16275612Y-13862674D02*
X16294659Y-13853150D01*
X16294659Y-13853150D02*
X16323231Y-13853150D01*
X16323231Y-13853150D02*
X16342278Y-13862674D01*
X16342278Y-13862674D02*
X16351802Y-13881722D01*
X16351802Y-13881722D02*
X16351802Y-13986484D01*
X16351802Y-13881722D02*
X16361326Y-13862674D01*
X16361326Y-13862674D02*
X16380374Y-13853150D01*
X16380374Y-13853150D02*
X16408945Y-13853150D01*
X16408945Y-13853150D02*
X16427993Y-13862674D01*
X16427993Y-13862674D02*
X16437516Y-13881722D01*
X16437516Y-13881722D02*
X16437516Y-13986484D01*
X16827993Y-13776960D02*
X16656564Y-14034103D01*
X17085136Y-13786484D02*
X17104183Y-13786484D01*
X17104183Y-13786484D02*
X17123231Y-13796008D01*
X17123231Y-13796008D02*
X17132755Y-13805531D01*
X17132755Y-13805531D02*
X17142279Y-13824579D01*
X17142279Y-13824579D02*
X17151802Y-13862674D01*
X17151802Y-13862674D02*
X17151802Y-13910293D01*
X17151802Y-13910293D02*
X17142279Y-13948388D01*
X17142279Y-13948388D02*
X17132755Y-13967436D01*
X17132755Y-13967436D02*
X17123231Y-13976960D01*
X17123231Y-13976960D02*
X17104183Y-13986484D01*
X17104183Y-13986484D02*
X17085136Y-13986484D01*
X17085136Y-13986484D02*
X17066088Y-13976960D01*
X17066088Y-13976960D02*
X17056564Y-13967436D01*
X17056564Y-13967436D02*
X17047040Y-13948388D01*
X17047040Y-13948388D02*
X17037517Y-13910293D01*
X17037517Y-13910293D02*
X17037517Y-13862674D01*
X17037517Y-13862674D02*
X17047040Y-13824579D01*
X17047040Y-13824579D02*
X17056564Y-13805531D01*
X17056564Y-13805531D02*
X17066088Y-13796008D01*
X17066088Y-13796008D02*
X17085136Y-13786484D01*
X17237517Y-13967436D02*
X17247040Y-13976960D01*
X17247040Y-13976960D02*
X17237517Y-13986484D01*
X17237517Y-13986484D02*
X17227993Y-13976960D01*
X17227993Y-13976960D02*
X17237517Y-13967436D01*
X17237517Y-13967436D02*
X17237517Y-13986484D01*
X17370850Y-13786484D02*
X17389898Y-13786484D01*
X17389898Y-13786484D02*
X17408945Y-13796008D01*
X17408945Y-13796008D02*
X17418469Y-13805531D01*
X17418469Y-13805531D02*
X17427993Y-13824579D01*
X17427993Y-13824579D02*
X17437517Y-13862674D01*
X17437517Y-13862674D02*
X17437517Y-13910293D01*
X17437517Y-13910293D02*
X17427993Y-13948388D01*
X17427993Y-13948388D02*
X17418469Y-13967436D01*
X17418469Y-13967436D02*
X17408945Y-13976960D01*
X17408945Y-13976960D02*
X17389898Y-13986484D01*
X17389898Y-13986484D02*
X17370850Y-13986484D01*
X17370850Y-13986484D02*
X17351802Y-13976960D01*
X17351802Y-13976960D02*
X17342279Y-13967436D01*
X17342279Y-13967436D02*
X17332755Y-13948388D01*
X17332755Y-13948388D02*
X17323231Y-13910293D01*
X17323231Y-13910293D02*
X17323231Y-13862674D01*
X17323231Y-13862674D02*
X17332755Y-13824579D01*
X17332755Y-13824579D02*
X17342279Y-13805531D01*
X17342279Y-13805531D02*
X17351802Y-13796008D01*
X17351802Y-13796008D02*
X17370850Y-13786484D01*
X17627993Y-13986484D02*
X17513707Y-13986484D01*
X17570850Y-13986484D02*
X17570850Y-13786484D01*
X17570850Y-13786484D02*
X17551802Y-13815055D01*
X17551802Y-13815055D02*
X17532755Y-13834103D01*
X17532755Y-13834103D02*
X17513707Y-13843627D01*
X17694660Y-13786484D02*
X17818469Y-13786484D01*
X17818469Y-13786484D02*
X17751802Y-13862674D01*
X17751802Y-13862674D02*
X17780374Y-13862674D01*
X17780374Y-13862674D02*
X17799421Y-13872198D01*
X17799421Y-13872198D02*
X17808945Y-13881722D01*
X17808945Y-13881722D02*
X17818469Y-13900769D01*
X17818469Y-13900769D02*
X17818469Y-13948388D01*
X17818469Y-13948388D02*
X17808945Y-13967436D01*
X17808945Y-13967436D02*
X17799421Y-13976960D01*
X17799421Y-13976960D02*
X17780374Y-13986484D01*
X17780374Y-13986484D02*
X17723231Y-13986484D01*
X17723231Y-13986484D02*
X17704183Y-13976960D01*
X17704183Y-13976960D02*
X17694660Y-13967436D01*
X17932755Y-13872198D02*
X17913707Y-13862674D01*
X17913707Y-13862674D02*
X17904183Y-13853150D01*
X17904183Y-13853150D02*
X17894660Y-13834103D01*
X17894660Y-13834103D02*
X17894660Y-13824579D01*
X17894660Y-13824579D02*
X17904183Y-13805531D01*
X17904183Y-13805531D02*
X17913707Y-13796008D01*
X17913707Y-13796008D02*
X17932755Y-13786484D01*
X17932755Y-13786484D02*
X17970850Y-13786484D01*
X17970850Y-13786484D02*
X17989898Y-13796008D01*
X17989898Y-13796008D02*
X17999421Y-13805531D01*
X17999421Y-13805531D02*
X18008945Y-13824579D01*
X18008945Y-13824579D02*
X18008945Y-13834103D01*
X18008945Y-13834103D02*
X17999421Y-13853150D01*
X17999421Y-13853150D02*
X17989898Y-13862674D01*
X17989898Y-13862674D02*
X17970850Y-13872198D01*
X17970850Y-13872198D02*
X17932755Y-13872198D01*
X17932755Y-13872198D02*
X17913707Y-13881722D01*
X17913707Y-13881722D02*
X17904183Y-13891246D01*
X17904183Y-13891246D02*
X17894660Y-13910293D01*
X17894660Y-13910293D02*
X17894660Y-13948388D01*
X17894660Y-13948388D02*
X17904183Y-13967436D01*
X17904183Y-13967436D02*
X17913707Y-13976960D01*
X17913707Y-13976960D02*
X17932755Y-13986484D01*
X17932755Y-13986484D02*
X17970850Y-13986484D01*
X17970850Y-13986484D02*
X17989898Y-13976960D01*
X17989898Y-13976960D02*
X17999421Y-13967436D01*
X17999421Y-13967436D02*
X18008945Y-13948388D01*
X18008945Y-13948388D02*
X18008945Y-13910293D01*
X18008945Y-13910293D02*
X17999421Y-13891246D01*
X17999421Y-13891246D02*
X17989898Y-13881722D01*
X17989898Y-13881722D02*
X17970850Y-13872198D01*
X18085136Y-13786484D02*
X18085136Y-13824579D01*
X18161326Y-13786484D02*
X18161326Y-13824579D01*
X18456564Y-14062674D02*
X18447041Y-14053150D01*
X18447041Y-14053150D02*
X18427993Y-14024579D01*
X18427993Y-14024579D02*
X18418469Y-14005531D01*
X18418469Y-14005531D02*
X18408945Y-13976960D01*
X18408945Y-13976960D02*
X18399422Y-13929341D01*
X18399422Y-13929341D02*
X18399422Y-13891246D01*
X18399422Y-13891246D02*
X18408945Y-13843627D01*
X18408945Y-13843627D02*
X18418469Y-13815055D01*
X18418469Y-13815055D02*
X18427993Y-13796008D01*
X18427993Y-13796008D02*
X18447041Y-13767436D01*
X18447041Y-13767436D02*
X18456564Y-13757912D01*
X18542279Y-13986484D02*
X18580374Y-13986484D01*
X18580374Y-13986484D02*
X18599422Y-13976960D01*
X18599422Y-13976960D02*
X18608945Y-13967436D01*
X18608945Y-13967436D02*
X18627993Y-13938865D01*
X18627993Y-13938865D02*
X18637517Y-13900769D01*
X18637517Y-13900769D02*
X18637517Y-13824579D01*
X18637517Y-13824579D02*
X18627993Y-13805531D01*
X18627993Y-13805531D02*
X18618469Y-13796008D01*
X18618469Y-13796008D02*
X18599422Y-13786484D01*
X18599422Y-13786484D02*
X18561326Y-13786484D01*
X18561326Y-13786484D02*
X18542279Y-13796008D01*
X18542279Y-13796008D02*
X18532755Y-13805531D01*
X18532755Y-13805531D02*
X18523231Y-13824579D01*
X18523231Y-13824579D02*
X18523231Y-13872198D01*
X18523231Y-13872198D02*
X18532755Y-13891246D01*
X18532755Y-13891246D02*
X18542279Y-13900769D01*
X18542279Y-13900769D02*
X18561326Y-13910293D01*
X18561326Y-13910293D02*
X18599422Y-13910293D01*
X18599422Y-13910293D02*
X18618469Y-13900769D01*
X18618469Y-13900769D02*
X18627993Y-13891246D01*
X18627993Y-13891246D02*
X18637517Y-13872198D01*
X18875612Y-13986484D02*
X18875612Y-13786484D01*
X18961326Y-13986484D02*
X18961326Y-13881722D01*
X18961326Y-13881722D02*
X18951803Y-13862674D01*
X18951803Y-13862674D02*
X18932755Y-13853150D01*
X18932755Y-13853150D02*
X18904183Y-13853150D01*
X18904183Y-13853150D02*
X18885136Y-13862674D01*
X18885136Y-13862674D02*
X18875612Y-13872198D01*
X19085136Y-13986484D02*
X19066088Y-13976960D01*
X19066088Y-13976960D02*
X19056564Y-13967436D01*
X19056564Y-13967436D02*
X19047041Y-13948388D01*
X19047041Y-13948388D02*
X19047041Y-13891246D01*
X19047041Y-13891246D02*
X19056564Y-13872198D01*
X19056564Y-13872198D02*
X19066088Y-13862674D01*
X19066088Y-13862674D02*
X19085136Y-13853150D01*
X19085136Y-13853150D02*
X19113707Y-13853150D01*
X19113707Y-13853150D02*
X19132755Y-13862674D01*
X19132755Y-13862674D02*
X19142279Y-13872198D01*
X19142279Y-13872198D02*
X19151803Y-13891246D01*
X19151803Y-13891246D02*
X19151803Y-13948388D01*
X19151803Y-13948388D02*
X19142279Y-13967436D01*
X19142279Y-13967436D02*
X19132755Y-13976960D01*
X19132755Y-13976960D02*
X19113707Y-13986484D01*
X19113707Y-13986484D02*
X19085136Y-13986484D01*
X19266088Y-13986484D02*
X19247041Y-13976960D01*
X19247041Y-13976960D02*
X19237517Y-13957912D01*
X19237517Y-13957912D02*
X19237517Y-13786484D01*
X19418469Y-13976960D02*
X19399422Y-13986484D01*
X19399422Y-13986484D02*
X19361326Y-13986484D01*
X19361326Y-13986484D02*
X19342279Y-13976960D01*
X19342279Y-13976960D02*
X19332755Y-13957912D01*
X19332755Y-13957912D02*
X19332755Y-13881722D01*
X19332755Y-13881722D02*
X19342279Y-13862674D01*
X19342279Y-13862674D02*
X19361326Y-13853150D01*
X19361326Y-13853150D02*
X19399422Y-13853150D01*
X19399422Y-13853150D02*
X19418469Y-13862674D01*
X19418469Y-13862674D02*
X19427993Y-13881722D01*
X19427993Y-13881722D02*
X19427993Y-13900769D01*
X19427993Y-13900769D02*
X19332755Y-13919817D01*
X19504184Y-13976960D02*
X19523231Y-13986484D01*
X19523231Y-13986484D02*
X19561326Y-13986484D01*
X19561326Y-13986484D02*
X19580374Y-13976960D01*
X19580374Y-13976960D02*
X19589898Y-13957912D01*
X19589898Y-13957912D02*
X19589898Y-13948388D01*
X19589898Y-13948388D02*
X19580374Y-13929341D01*
X19580374Y-13929341D02*
X19561326Y-13919817D01*
X19561326Y-13919817D02*
X19532755Y-13919817D01*
X19532755Y-13919817D02*
X19513707Y-13910293D01*
X19513707Y-13910293D02*
X19504184Y-13891246D01*
X19504184Y-13891246D02*
X19504184Y-13881722D01*
X19504184Y-13881722D02*
X19513707Y-13862674D01*
X19513707Y-13862674D02*
X19532755Y-13853150D01*
X19532755Y-13853150D02*
X19561326Y-13853150D01*
X19561326Y-13853150D02*
X19580374Y-13862674D01*
X19656565Y-14062674D02*
X19666088Y-14053150D01*
X19666088Y-14053150D02*
X19685136Y-14024579D01*
X19685136Y-14024579D02*
X19694660Y-14005531D01*
X19694660Y-14005531D02*
X19704184Y-13976960D01*
X19704184Y-13976960D02*
X19713707Y-13929341D01*
X19713707Y-13929341D02*
X19713707Y-13891246D01*
X19713707Y-13891246D02*
X19704184Y-13843627D01*
X19704184Y-13843627D02*
X19694660Y-13815055D01*
X19694660Y-13815055D02*
X19685136Y-13796008D01*
X19685136Y-13796008D02*
X19666088Y-13767436D01*
X19666088Y-13767436D02*
X19656565Y-13757912D01*
D13*
X14881501Y-14159000D02*
G75*
G03*
X14881501Y-14159000I-20000J0D01*
G01*
D11*
X15180373Y-14050484D02*
X15199421Y-14050484D01*
X15199421Y-14050484D02*
X15218469Y-14060008D01*
X15218469Y-14060008D02*
X15227993Y-14069531D01*
X15227993Y-14069531D02*
X15237516Y-14088579D01*
X15237516Y-14088579D02*
X15247040Y-14126674D01*
X15247040Y-14126674D02*
X15247040Y-14174293D01*
X15247040Y-14174293D02*
X15237516Y-14212388D01*
X15237516Y-14212388D02*
X15227993Y-14231436D01*
X15227993Y-14231436D02*
X15218469Y-14240960D01*
X15218469Y-14240960D02*
X15199421Y-14250484D01*
X15199421Y-14250484D02*
X15180373Y-14250484D01*
X15180373Y-14250484D02*
X15161326Y-14240960D01*
X15161326Y-14240960D02*
X15151802Y-14231436D01*
X15151802Y-14231436D02*
X15142278Y-14212388D01*
X15142278Y-14212388D02*
X15132754Y-14174293D01*
X15132754Y-14174293D02*
X15132754Y-14126674D01*
X15132754Y-14126674D02*
X15142278Y-14088579D01*
X15142278Y-14088579D02*
X15151802Y-14069531D01*
X15151802Y-14069531D02*
X15161326Y-14060008D01*
X15161326Y-14060008D02*
X15180373Y-14050484D01*
X15332754Y-14231436D02*
X15342278Y-14240960D01*
X15342278Y-14240960D02*
X15332754Y-14250484D01*
X15332754Y-14250484D02*
X15323231Y-14240960D01*
X15323231Y-14240960D02*
X15332754Y-14231436D01*
X15332754Y-14231436D02*
X15332754Y-14250484D01*
X15513707Y-14117150D02*
X15513707Y-14250484D01*
X15466088Y-14040960D02*
X15418469Y-14183817D01*
X15418469Y-14183817D02*
X15542278Y-14183817D01*
X15656564Y-14050484D02*
X15675612Y-14050484D01*
X15675612Y-14050484D02*
X15694659Y-14060008D01*
X15694659Y-14060008D02*
X15704183Y-14069531D01*
X15704183Y-14069531D02*
X15713707Y-14088579D01*
X15713707Y-14088579D02*
X15723231Y-14126674D01*
X15723231Y-14126674D02*
X15723231Y-14174293D01*
X15723231Y-14174293D02*
X15713707Y-14212388D01*
X15713707Y-14212388D02*
X15704183Y-14231436D01*
X15704183Y-14231436D02*
X15694659Y-14240960D01*
X15694659Y-14240960D02*
X15675612Y-14250484D01*
X15675612Y-14250484D02*
X15656564Y-14250484D01*
X15656564Y-14250484D02*
X15637516Y-14240960D01*
X15637516Y-14240960D02*
X15627993Y-14231436D01*
X15627993Y-14231436D02*
X15618469Y-14212388D01*
X15618469Y-14212388D02*
X15608945Y-14174293D01*
X15608945Y-14174293D02*
X15608945Y-14126674D01*
X15608945Y-14126674D02*
X15618469Y-14088579D01*
X15618469Y-14088579D02*
X15627993Y-14069531D01*
X15627993Y-14069531D02*
X15637516Y-14060008D01*
X15637516Y-14060008D02*
X15656564Y-14050484D01*
X15847040Y-14050484D02*
X15866088Y-14050484D01*
X15866088Y-14050484D02*
X15885135Y-14060008D01*
X15885135Y-14060008D02*
X15894659Y-14069531D01*
X15894659Y-14069531D02*
X15904183Y-14088579D01*
X15904183Y-14088579D02*
X15913707Y-14126674D01*
X15913707Y-14126674D02*
X15913707Y-14174293D01*
X15913707Y-14174293D02*
X15904183Y-14212388D01*
X15904183Y-14212388D02*
X15894659Y-14231436D01*
X15894659Y-14231436D02*
X15885135Y-14240960D01*
X15885135Y-14240960D02*
X15866088Y-14250484D01*
X15866088Y-14250484D02*
X15847040Y-14250484D01*
X15847040Y-14250484D02*
X15827993Y-14240960D01*
X15827993Y-14240960D02*
X15818469Y-14231436D01*
X15818469Y-14231436D02*
X15808945Y-14212388D01*
X15808945Y-14212388D02*
X15799421Y-14174293D01*
X15799421Y-14174293D02*
X15799421Y-14126674D01*
X15799421Y-14126674D02*
X15808945Y-14088579D01*
X15808945Y-14088579D02*
X15818469Y-14069531D01*
X15818469Y-14069531D02*
X15827993Y-14060008D01*
X15827993Y-14060008D02*
X15847040Y-14050484D01*
X15999421Y-14250484D02*
X15999421Y-14117150D01*
X15999421Y-14136198D02*
X16008945Y-14126674D01*
X16008945Y-14126674D02*
X16027993Y-14117150D01*
X16027993Y-14117150D02*
X16056564Y-14117150D01*
X16056564Y-14117150D02*
X16075612Y-14126674D01*
X16075612Y-14126674D02*
X16085135Y-14145722D01*
X16085135Y-14145722D02*
X16085135Y-14250484D01*
X16085135Y-14145722D02*
X16094659Y-14126674D01*
X16094659Y-14126674D02*
X16113707Y-14117150D01*
X16113707Y-14117150D02*
X16142278Y-14117150D01*
X16142278Y-14117150D02*
X16161326Y-14126674D01*
X16161326Y-14126674D02*
X16170850Y-14145722D01*
X16170850Y-14145722D02*
X16170850Y-14250484D01*
X16266088Y-14250484D02*
X16266088Y-14117150D01*
X16266088Y-14136198D02*
X16275612Y-14126674D01*
X16275612Y-14126674D02*
X16294659Y-14117150D01*
X16294659Y-14117150D02*
X16323231Y-14117150D01*
X16323231Y-14117150D02*
X16342278Y-14126674D01*
X16342278Y-14126674D02*
X16351802Y-14145722D01*
X16351802Y-14145722D02*
X16351802Y-14250484D01*
X16351802Y-14145722D02*
X16361326Y-14126674D01*
X16361326Y-14126674D02*
X16380374Y-14117150D01*
X16380374Y-14117150D02*
X16408945Y-14117150D01*
X16408945Y-14117150D02*
X16427993Y-14126674D01*
X16427993Y-14126674D02*
X16437516Y-14145722D01*
X16437516Y-14145722D02*
X16437516Y-14250484D01*
X16827993Y-14040960D02*
X16656564Y-14298103D01*
X17085136Y-14050484D02*
X17104183Y-14050484D01*
X17104183Y-14050484D02*
X17123231Y-14060008D01*
X17123231Y-14060008D02*
X17132755Y-14069531D01*
X17132755Y-14069531D02*
X17142279Y-14088579D01*
X17142279Y-14088579D02*
X17151802Y-14126674D01*
X17151802Y-14126674D02*
X17151802Y-14174293D01*
X17151802Y-14174293D02*
X17142279Y-14212388D01*
X17142279Y-14212388D02*
X17132755Y-14231436D01*
X17132755Y-14231436D02*
X17123231Y-14240960D01*
X17123231Y-14240960D02*
X17104183Y-14250484D01*
X17104183Y-14250484D02*
X17085136Y-14250484D01*
X17085136Y-14250484D02*
X17066088Y-14240960D01*
X17066088Y-14240960D02*
X17056564Y-14231436D01*
X17056564Y-14231436D02*
X17047040Y-14212388D01*
X17047040Y-14212388D02*
X17037517Y-14174293D01*
X17037517Y-14174293D02*
X17037517Y-14126674D01*
X17037517Y-14126674D02*
X17047040Y-14088579D01*
X17047040Y-14088579D02*
X17056564Y-14069531D01*
X17056564Y-14069531D02*
X17066088Y-14060008D01*
X17066088Y-14060008D02*
X17085136Y-14050484D01*
X17237517Y-14231436D02*
X17247040Y-14240960D01*
X17247040Y-14240960D02*
X17237517Y-14250484D01*
X17237517Y-14250484D02*
X17227993Y-14240960D01*
X17227993Y-14240960D02*
X17237517Y-14231436D01*
X17237517Y-14231436D02*
X17237517Y-14250484D01*
X17370850Y-14050484D02*
X17389898Y-14050484D01*
X17389898Y-14050484D02*
X17408945Y-14060008D01*
X17408945Y-14060008D02*
X17418469Y-14069531D01*
X17418469Y-14069531D02*
X17427993Y-14088579D01*
X17427993Y-14088579D02*
X17437517Y-14126674D01*
X17437517Y-14126674D02*
X17437517Y-14174293D01*
X17437517Y-14174293D02*
X17427993Y-14212388D01*
X17427993Y-14212388D02*
X17418469Y-14231436D01*
X17418469Y-14231436D02*
X17408945Y-14240960D01*
X17408945Y-14240960D02*
X17389898Y-14250484D01*
X17389898Y-14250484D02*
X17370850Y-14250484D01*
X17370850Y-14250484D02*
X17351802Y-14240960D01*
X17351802Y-14240960D02*
X17342279Y-14231436D01*
X17342279Y-14231436D02*
X17332755Y-14212388D01*
X17332755Y-14212388D02*
X17323231Y-14174293D01*
X17323231Y-14174293D02*
X17323231Y-14126674D01*
X17323231Y-14126674D02*
X17332755Y-14088579D01*
X17332755Y-14088579D02*
X17342279Y-14069531D01*
X17342279Y-14069531D02*
X17351802Y-14060008D01*
X17351802Y-14060008D02*
X17370850Y-14050484D01*
X17627993Y-14250484D02*
X17513707Y-14250484D01*
X17570850Y-14250484D02*
X17570850Y-14050484D01*
X17570850Y-14050484D02*
X17551802Y-14079055D01*
X17551802Y-14079055D02*
X17532755Y-14098103D01*
X17532755Y-14098103D02*
X17513707Y-14107627D01*
X17808945Y-14050484D02*
X17713707Y-14050484D01*
X17713707Y-14050484D02*
X17704183Y-14145722D01*
X17704183Y-14145722D02*
X17713707Y-14136198D01*
X17713707Y-14136198D02*
X17732755Y-14126674D01*
X17732755Y-14126674D02*
X17780374Y-14126674D01*
X17780374Y-14126674D02*
X17799421Y-14136198D01*
X17799421Y-14136198D02*
X17808945Y-14145722D01*
X17808945Y-14145722D02*
X17818469Y-14164769D01*
X17818469Y-14164769D02*
X17818469Y-14212388D01*
X17818469Y-14212388D02*
X17808945Y-14231436D01*
X17808945Y-14231436D02*
X17799421Y-14240960D01*
X17799421Y-14240960D02*
X17780374Y-14250484D01*
X17780374Y-14250484D02*
X17732755Y-14250484D01*
X17732755Y-14250484D02*
X17713707Y-14240960D01*
X17713707Y-14240960D02*
X17704183Y-14231436D01*
X17885136Y-14050484D02*
X18018469Y-14050484D01*
X18018469Y-14050484D02*
X17932755Y-14250484D01*
X18085136Y-14050484D02*
X18085136Y-14088579D01*
X18161326Y-14050484D02*
X18161326Y-14088579D01*
X18456564Y-14326674D02*
X18447041Y-14317150D01*
X18447041Y-14317150D02*
X18427993Y-14288579D01*
X18427993Y-14288579D02*
X18418469Y-14269531D01*
X18418469Y-14269531D02*
X18408945Y-14240960D01*
X18408945Y-14240960D02*
X18399422Y-14193341D01*
X18399422Y-14193341D02*
X18399422Y-14155246D01*
X18399422Y-14155246D02*
X18408945Y-14107627D01*
X18408945Y-14107627D02*
X18418469Y-14079055D01*
X18418469Y-14079055D02*
X18427993Y-14060008D01*
X18427993Y-14060008D02*
X18447041Y-14031436D01*
X18447041Y-14031436D02*
X18456564Y-14021912D01*
X18618469Y-14117150D02*
X18618469Y-14250484D01*
X18570850Y-14040960D02*
X18523231Y-14183817D01*
X18523231Y-14183817D02*
X18647041Y-14183817D01*
X18808945Y-14050484D02*
X18770850Y-14050484D01*
X18770850Y-14050484D02*
X18751802Y-14060008D01*
X18751802Y-14060008D02*
X18742279Y-14069531D01*
X18742279Y-14069531D02*
X18723231Y-14098103D01*
X18723231Y-14098103D02*
X18713707Y-14136198D01*
X18713707Y-14136198D02*
X18713707Y-14212388D01*
X18713707Y-14212388D02*
X18723231Y-14231436D01*
X18723231Y-14231436D02*
X18732755Y-14240960D01*
X18732755Y-14240960D02*
X18751802Y-14250484D01*
X18751802Y-14250484D02*
X18789898Y-14250484D01*
X18789898Y-14250484D02*
X18808945Y-14240960D01*
X18808945Y-14240960D02*
X18818469Y-14231436D01*
X18818469Y-14231436D02*
X18827993Y-14212388D01*
X18827993Y-14212388D02*
X18827993Y-14164769D01*
X18827993Y-14164769D02*
X18818469Y-14145722D01*
X18818469Y-14145722D02*
X18808945Y-14136198D01*
X18808945Y-14136198D02*
X18789898Y-14126674D01*
X18789898Y-14126674D02*
X18751802Y-14126674D01*
X18751802Y-14126674D02*
X18732755Y-14136198D01*
X18732755Y-14136198D02*
X18723231Y-14145722D01*
X18723231Y-14145722D02*
X18713707Y-14164769D01*
X19066088Y-14250484D02*
X19066088Y-14050484D01*
X19151803Y-14250484D02*
X19151803Y-14145722D01*
X19151803Y-14145722D02*
X19142279Y-14126674D01*
X19142279Y-14126674D02*
X19123231Y-14117150D01*
X19123231Y-14117150D02*
X19094660Y-14117150D01*
X19094660Y-14117150D02*
X19075612Y-14126674D01*
X19075612Y-14126674D02*
X19066088Y-14136198D01*
X19275612Y-14250484D02*
X19256564Y-14240960D01*
X19256564Y-14240960D02*
X19247041Y-14231436D01*
X19247041Y-14231436D02*
X19237517Y-14212388D01*
X19237517Y-14212388D02*
X19237517Y-14155246D01*
X19237517Y-14155246D02*
X19247041Y-14136198D01*
X19247041Y-14136198D02*
X19256564Y-14126674D01*
X19256564Y-14126674D02*
X19275612Y-14117150D01*
X19275612Y-14117150D02*
X19304184Y-14117150D01*
X19304184Y-14117150D02*
X19323231Y-14126674D01*
X19323231Y-14126674D02*
X19332755Y-14136198D01*
X19332755Y-14136198D02*
X19342279Y-14155246D01*
X19342279Y-14155246D02*
X19342279Y-14212388D01*
X19342279Y-14212388D02*
X19332755Y-14231436D01*
X19332755Y-14231436D02*
X19323231Y-14240960D01*
X19323231Y-14240960D02*
X19304184Y-14250484D01*
X19304184Y-14250484D02*
X19275612Y-14250484D01*
X19456564Y-14250484D02*
X19437517Y-14240960D01*
X19437517Y-14240960D02*
X19427993Y-14221912D01*
X19427993Y-14221912D02*
X19427993Y-14050484D01*
X19608945Y-14240960D02*
X19589898Y-14250484D01*
X19589898Y-14250484D02*
X19551803Y-14250484D01*
X19551803Y-14250484D02*
X19532755Y-14240960D01*
X19532755Y-14240960D02*
X19523231Y-14221912D01*
X19523231Y-14221912D02*
X19523231Y-14145722D01*
X19523231Y-14145722D02*
X19532755Y-14126674D01*
X19532755Y-14126674D02*
X19551803Y-14117150D01*
X19551803Y-14117150D02*
X19589898Y-14117150D01*
X19589898Y-14117150D02*
X19608945Y-14126674D01*
X19608945Y-14126674D02*
X19618469Y-14145722D01*
X19618469Y-14145722D02*
X19618469Y-14164769D01*
X19618469Y-14164769D02*
X19523231Y-14183817D01*
X19694660Y-14240960D02*
X19713707Y-14250484D01*
X19713707Y-14250484D02*
X19751803Y-14250484D01*
X19751803Y-14250484D02*
X19770850Y-14240960D01*
X19770850Y-14240960D02*
X19780374Y-14221912D01*
X19780374Y-14221912D02*
X19780374Y-14212388D01*
X19780374Y-14212388D02*
X19770850Y-14193341D01*
X19770850Y-14193341D02*
X19751803Y-14183817D01*
X19751803Y-14183817D02*
X19723231Y-14183817D01*
X19723231Y-14183817D02*
X19704184Y-14174293D01*
X19704184Y-14174293D02*
X19694660Y-14155246D01*
X19694660Y-14155246D02*
X19694660Y-14145722D01*
X19694660Y-14145722D02*
X19704184Y-14126674D01*
X19704184Y-14126674D02*
X19723231Y-14117150D01*
X19723231Y-14117150D02*
X19751803Y-14117150D01*
X19751803Y-14117150D02*
X19770850Y-14126674D01*
X19847041Y-14326674D02*
X19856565Y-14317150D01*
X19856565Y-14317150D02*
X19875612Y-14288579D01*
X19875612Y-14288579D02*
X19885136Y-14269531D01*
X19885136Y-14269531D02*
X19894660Y-14240960D01*
X19894660Y-14240960D02*
X19904184Y-14193341D01*
X19904184Y-14193341D02*
X19904184Y-14155246D01*
X19904184Y-14155246D02*
X19894660Y-14107627D01*
X19894660Y-14107627D02*
X19885136Y-14079055D01*
X19885136Y-14079055D02*
X19875612Y-14060008D01*
X19875612Y-14060008D02*
X19856565Y-14031436D01*
X19856565Y-14031436D02*
X19847041Y-14021912D01*
D14*
X14854001Y-14395500D02*
X14854001Y-14450500D01*
X14826501Y-14423000D02*
X14881501Y-14423000D01*
D11*
X15180373Y-14314484D02*
X15199421Y-14314484D01*
X15199421Y-14314484D02*
X15218469Y-14324008D01*
X15218469Y-14324008D02*
X15227993Y-14333531D01*
X15227993Y-14333531D02*
X15237516Y-14352579D01*
X15237516Y-14352579D02*
X15247040Y-14390674D01*
X15247040Y-14390674D02*
X15247040Y-14438293D01*
X15247040Y-14438293D02*
X15237516Y-14476388D01*
X15237516Y-14476388D02*
X15227993Y-14495436D01*
X15227993Y-14495436D02*
X15218469Y-14504960D01*
X15218469Y-14504960D02*
X15199421Y-14514484D01*
X15199421Y-14514484D02*
X15180373Y-14514484D01*
X15180373Y-14514484D02*
X15161326Y-14504960D01*
X15161326Y-14504960D02*
X15151802Y-14495436D01*
X15151802Y-14495436D02*
X15142278Y-14476388D01*
X15142278Y-14476388D02*
X15132754Y-14438293D01*
X15132754Y-14438293D02*
X15132754Y-14390674D01*
X15132754Y-14390674D02*
X15142278Y-14352579D01*
X15142278Y-14352579D02*
X15151802Y-14333531D01*
X15151802Y-14333531D02*
X15161326Y-14324008D01*
X15161326Y-14324008D02*
X15180373Y-14314484D01*
X15332754Y-14495436D02*
X15342278Y-14504960D01*
X15342278Y-14504960D02*
X15332754Y-14514484D01*
X15332754Y-14514484D02*
X15323231Y-14504960D01*
X15323231Y-14504960D02*
X15332754Y-14495436D01*
X15332754Y-14495436D02*
X15332754Y-14514484D01*
X15523231Y-14314484D02*
X15427993Y-14314484D01*
X15427993Y-14314484D02*
X15418469Y-14409722D01*
X15418469Y-14409722D02*
X15427993Y-14400198D01*
X15427993Y-14400198D02*
X15447040Y-14390674D01*
X15447040Y-14390674D02*
X15494659Y-14390674D01*
X15494659Y-14390674D02*
X15513707Y-14400198D01*
X15513707Y-14400198D02*
X15523231Y-14409722D01*
X15523231Y-14409722D02*
X15532754Y-14428769D01*
X15532754Y-14428769D02*
X15532754Y-14476388D01*
X15532754Y-14476388D02*
X15523231Y-14495436D01*
X15523231Y-14495436D02*
X15513707Y-14504960D01*
X15513707Y-14504960D02*
X15494659Y-14514484D01*
X15494659Y-14514484D02*
X15447040Y-14514484D01*
X15447040Y-14514484D02*
X15427993Y-14504960D01*
X15427993Y-14504960D02*
X15418469Y-14495436D01*
X15713707Y-14314484D02*
X15618469Y-14314484D01*
X15618469Y-14314484D02*
X15608945Y-14409722D01*
X15608945Y-14409722D02*
X15618469Y-14400198D01*
X15618469Y-14400198D02*
X15637516Y-14390674D01*
X15637516Y-14390674D02*
X15685135Y-14390674D01*
X15685135Y-14390674D02*
X15704183Y-14400198D01*
X15704183Y-14400198D02*
X15713707Y-14409722D01*
X15713707Y-14409722D02*
X15723231Y-14428769D01*
X15723231Y-14428769D02*
X15723231Y-14476388D01*
X15723231Y-14476388D02*
X15713707Y-14495436D01*
X15713707Y-14495436D02*
X15704183Y-14504960D01*
X15704183Y-14504960D02*
X15685135Y-14514484D01*
X15685135Y-14514484D02*
X15637516Y-14514484D01*
X15637516Y-14514484D02*
X15618469Y-14504960D01*
X15618469Y-14504960D02*
X15608945Y-14495436D01*
X15847040Y-14314484D02*
X15866088Y-14314484D01*
X15866088Y-14314484D02*
X15885135Y-14324008D01*
X15885135Y-14324008D02*
X15894659Y-14333531D01*
X15894659Y-14333531D02*
X15904183Y-14352579D01*
X15904183Y-14352579D02*
X15913707Y-14390674D01*
X15913707Y-14390674D02*
X15913707Y-14438293D01*
X15913707Y-14438293D02*
X15904183Y-14476388D01*
X15904183Y-14476388D02*
X15894659Y-14495436D01*
X15894659Y-14495436D02*
X15885135Y-14504960D01*
X15885135Y-14504960D02*
X15866088Y-14514484D01*
X15866088Y-14514484D02*
X15847040Y-14514484D01*
X15847040Y-14514484D02*
X15827993Y-14504960D01*
X15827993Y-14504960D02*
X15818469Y-14495436D01*
X15818469Y-14495436D02*
X15808945Y-14476388D01*
X15808945Y-14476388D02*
X15799421Y-14438293D01*
X15799421Y-14438293D02*
X15799421Y-14390674D01*
X15799421Y-14390674D02*
X15808945Y-14352579D01*
X15808945Y-14352579D02*
X15818469Y-14333531D01*
X15818469Y-14333531D02*
X15827993Y-14324008D01*
X15827993Y-14324008D02*
X15847040Y-14314484D01*
X15999421Y-14514484D02*
X15999421Y-14381150D01*
X15999421Y-14400198D02*
X16008945Y-14390674D01*
X16008945Y-14390674D02*
X16027993Y-14381150D01*
X16027993Y-14381150D02*
X16056564Y-14381150D01*
X16056564Y-14381150D02*
X16075612Y-14390674D01*
X16075612Y-14390674D02*
X16085135Y-14409722D01*
X16085135Y-14409722D02*
X16085135Y-14514484D01*
X16085135Y-14409722D02*
X16094659Y-14390674D01*
X16094659Y-14390674D02*
X16113707Y-14381150D01*
X16113707Y-14381150D02*
X16142278Y-14381150D01*
X16142278Y-14381150D02*
X16161326Y-14390674D01*
X16161326Y-14390674D02*
X16170850Y-14409722D01*
X16170850Y-14409722D02*
X16170850Y-14514484D01*
X16266088Y-14514484D02*
X16266088Y-14381150D01*
X16266088Y-14400198D02*
X16275612Y-14390674D01*
X16275612Y-14390674D02*
X16294659Y-14381150D01*
X16294659Y-14381150D02*
X16323231Y-14381150D01*
X16323231Y-14381150D02*
X16342278Y-14390674D01*
X16342278Y-14390674D02*
X16351802Y-14409722D01*
X16351802Y-14409722D02*
X16351802Y-14514484D01*
X16351802Y-14409722D02*
X16361326Y-14390674D01*
X16361326Y-14390674D02*
X16380374Y-14381150D01*
X16380374Y-14381150D02*
X16408945Y-14381150D01*
X16408945Y-14381150D02*
X16427993Y-14390674D01*
X16427993Y-14390674D02*
X16437516Y-14409722D01*
X16437516Y-14409722D02*
X16437516Y-14514484D01*
X16827993Y-14304960D02*
X16656564Y-14562103D01*
X17085136Y-14314484D02*
X17104183Y-14314484D01*
X17104183Y-14314484D02*
X17123231Y-14324008D01*
X17123231Y-14324008D02*
X17132755Y-14333531D01*
X17132755Y-14333531D02*
X17142279Y-14352579D01*
X17142279Y-14352579D02*
X17151802Y-14390674D01*
X17151802Y-14390674D02*
X17151802Y-14438293D01*
X17151802Y-14438293D02*
X17142279Y-14476388D01*
X17142279Y-14476388D02*
X17132755Y-14495436D01*
X17132755Y-14495436D02*
X17123231Y-14504960D01*
X17123231Y-14504960D02*
X17104183Y-14514484D01*
X17104183Y-14514484D02*
X17085136Y-14514484D01*
X17085136Y-14514484D02*
X17066088Y-14504960D01*
X17066088Y-14504960D02*
X17056564Y-14495436D01*
X17056564Y-14495436D02*
X17047040Y-14476388D01*
X17047040Y-14476388D02*
X17037517Y-14438293D01*
X17037517Y-14438293D02*
X17037517Y-14390674D01*
X17037517Y-14390674D02*
X17047040Y-14352579D01*
X17047040Y-14352579D02*
X17056564Y-14333531D01*
X17056564Y-14333531D02*
X17066088Y-14324008D01*
X17066088Y-14324008D02*
X17085136Y-14314484D01*
X17237517Y-14495436D02*
X17247040Y-14504960D01*
X17247040Y-14504960D02*
X17237517Y-14514484D01*
X17237517Y-14514484D02*
X17227993Y-14504960D01*
X17227993Y-14504960D02*
X17237517Y-14495436D01*
X17237517Y-14495436D02*
X17237517Y-14514484D01*
X17370850Y-14314484D02*
X17389898Y-14314484D01*
X17389898Y-14314484D02*
X17408945Y-14324008D01*
X17408945Y-14324008D02*
X17418469Y-14333531D01*
X17418469Y-14333531D02*
X17427993Y-14352579D01*
X17427993Y-14352579D02*
X17437517Y-14390674D01*
X17437517Y-14390674D02*
X17437517Y-14438293D01*
X17437517Y-14438293D02*
X17427993Y-14476388D01*
X17427993Y-14476388D02*
X17418469Y-14495436D01*
X17418469Y-14495436D02*
X17408945Y-14504960D01*
X17408945Y-14504960D02*
X17389898Y-14514484D01*
X17389898Y-14514484D02*
X17370850Y-14514484D01*
X17370850Y-14514484D02*
X17351802Y-14504960D01*
X17351802Y-14504960D02*
X17342279Y-14495436D01*
X17342279Y-14495436D02*
X17332755Y-14476388D01*
X17332755Y-14476388D02*
X17323231Y-14438293D01*
X17323231Y-14438293D02*
X17323231Y-14390674D01*
X17323231Y-14390674D02*
X17332755Y-14352579D01*
X17332755Y-14352579D02*
X17342279Y-14333531D01*
X17342279Y-14333531D02*
X17351802Y-14324008D01*
X17351802Y-14324008D02*
X17370850Y-14314484D01*
X17513707Y-14333531D02*
X17523231Y-14324008D01*
X17523231Y-14324008D02*
X17542279Y-14314484D01*
X17542279Y-14314484D02*
X17589898Y-14314484D01*
X17589898Y-14314484D02*
X17608945Y-14324008D01*
X17608945Y-14324008D02*
X17618469Y-14333531D01*
X17618469Y-14333531D02*
X17627993Y-14352579D01*
X17627993Y-14352579D02*
X17627993Y-14371627D01*
X17627993Y-14371627D02*
X17618469Y-14400198D01*
X17618469Y-14400198D02*
X17504183Y-14514484D01*
X17504183Y-14514484D02*
X17627993Y-14514484D01*
X17818469Y-14514484D02*
X17704183Y-14514484D01*
X17761326Y-14514484D02*
X17761326Y-14314484D01*
X17761326Y-14314484D02*
X17742279Y-14343055D01*
X17742279Y-14343055D02*
X17723231Y-14362103D01*
X17723231Y-14362103D02*
X17704183Y-14371627D01*
X17885136Y-14314484D02*
X18018469Y-14314484D01*
X18018469Y-14314484D02*
X17932755Y-14514484D01*
X18085136Y-14314484D02*
X18085136Y-14352579D01*
X18161326Y-14314484D02*
X18161326Y-14352579D01*
X18456564Y-14590674D02*
X18447041Y-14581150D01*
X18447041Y-14581150D02*
X18427993Y-14552579D01*
X18427993Y-14552579D02*
X18418469Y-14533531D01*
X18418469Y-14533531D02*
X18408945Y-14504960D01*
X18408945Y-14504960D02*
X18399422Y-14457341D01*
X18399422Y-14457341D02*
X18399422Y-14419246D01*
X18399422Y-14419246D02*
X18408945Y-14371627D01*
X18408945Y-14371627D02*
X18418469Y-14343055D01*
X18418469Y-14343055D02*
X18427993Y-14324008D01*
X18427993Y-14324008D02*
X18447041Y-14295436D01*
X18447041Y-14295436D02*
X18456564Y-14285912D01*
X18627993Y-14314484D02*
X18532755Y-14314484D01*
X18532755Y-14314484D02*
X18523231Y-14409722D01*
X18523231Y-14409722D02*
X18532755Y-14400198D01*
X18532755Y-14400198D02*
X18551802Y-14390674D01*
X18551802Y-14390674D02*
X18599422Y-14390674D01*
X18599422Y-14390674D02*
X18618469Y-14400198D01*
X18618469Y-14400198D02*
X18627993Y-14409722D01*
X18627993Y-14409722D02*
X18637517Y-14428769D01*
X18637517Y-14428769D02*
X18637517Y-14476388D01*
X18637517Y-14476388D02*
X18627993Y-14495436D01*
X18627993Y-14495436D02*
X18618469Y-14504960D01*
X18618469Y-14504960D02*
X18599422Y-14514484D01*
X18599422Y-14514484D02*
X18551802Y-14514484D01*
X18551802Y-14514484D02*
X18532755Y-14504960D01*
X18532755Y-14504960D02*
X18523231Y-14495436D01*
X18875612Y-14514484D02*
X18875612Y-14314484D01*
X18961326Y-14514484D02*
X18961326Y-14409722D01*
X18961326Y-14409722D02*
X18951803Y-14390674D01*
X18951803Y-14390674D02*
X18932755Y-14381150D01*
X18932755Y-14381150D02*
X18904183Y-14381150D01*
X18904183Y-14381150D02*
X18885136Y-14390674D01*
X18885136Y-14390674D02*
X18875612Y-14400198D01*
X19085136Y-14514484D02*
X19066088Y-14504960D01*
X19066088Y-14504960D02*
X19056564Y-14495436D01*
X19056564Y-14495436D02*
X19047041Y-14476388D01*
X19047041Y-14476388D02*
X19047041Y-14419246D01*
X19047041Y-14419246D02*
X19056564Y-14400198D01*
X19056564Y-14400198D02*
X19066088Y-14390674D01*
X19066088Y-14390674D02*
X19085136Y-14381150D01*
X19085136Y-14381150D02*
X19113707Y-14381150D01*
X19113707Y-14381150D02*
X19132755Y-14390674D01*
X19132755Y-14390674D02*
X19142279Y-14400198D01*
X19142279Y-14400198D02*
X19151803Y-14419246D01*
X19151803Y-14419246D02*
X19151803Y-14476388D01*
X19151803Y-14476388D02*
X19142279Y-14495436D01*
X19142279Y-14495436D02*
X19132755Y-14504960D01*
X19132755Y-14504960D02*
X19113707Y-14514484D01*
X19113707Y-14514484D02*
X19085136Y-14514484D01*
X19266088Y-14514484D02*
X19247041Y-14504960D01*
X19247041Y-14504960D02*
X19237517Y-14485912D01*
X19237517Y-14485912D02*
X19237517Y-14314484D01*
X19418469Y-14504960D02*
X19399422Y-14514484D01*
X19399422Y-14514484D02*
X19361326Y-14514484D01*
X19361326Y-14514484D02*
X19342279Y-14504960D01*
X19342279Y-14504960D02*
X19332755Y-14485912D01*
X19332755Y-14485912D02*
X19332755Y-14409722D01*
X19332755Y-14409722D02*
X19342279Y-14390674D01*
X19342279Y-14390674D02*
X19361326Y-14381150D01*
X19361326Y-14381150D02*
X19399422Y-14381150D01*
X19399422Y-14381150D02*
X19418469Y-14390674D01*
X19418469Y-14390674D02*
X19427993Y-14409722D01*
X19427993Y-14409722D02*
X19427993Y-14428769D01*
X19427993Y-14428769D02*
X19332755Y-14447817D01*
X19504184Y-14504960D02*
X19523231Y-14514484D01*
X19523231Y-14514484D02*
X19561326Y-14514484D01*
X19561326Y-14514484D02*
X19580374Y-14504960D01*
X19580374Y-14504960D02*
X19589898Y-14485912D01*
X19589898Y-14485912D02*
X19589898Y-14476388D01*
X19589898Y-14476388D02*
X19580374Y-14457341D01*
X19580374Y-14457341D02*
X19561326Y-14447817D01*
X19561326Y-14447817D02*
X19532755Y-14447817D01*
X19532755Y-14447817D02*
X19513707Y-14438293D01*
X19513707Y-14438293D02*
X19504184Y-14419246D01*
X19504184Y-14419246D02*
X19504184Y-14409722D01*
X19504184Y-14409722D02*
X19513707Y-14390674D01*
X19513707Y-14390674D02*
X19532755Y-14381150D01*
X19532755Y-14381150D02*
X19561326Y-14381150D01*
X19561326Y-14381150D02*
X19580374Y-14390674D01*
X19827993Y-14438293D02*
X19980374Y-14438293D01*
X19904184Y-14514484D02*
X19904184Y-14362103D01*
X20218469Y-14333531D02*
X20227993Y-14324008D01*
X20227993Y-14324008D02*
X20247041Y-14314484D01*
X20247041Y-14314484D02*
X20294660Y-14314484D01*
X20294660Y-14314484D02*
X20313707Y-14324008D01*
X20313707Y-14324008D02*
X20323231Y-14333531D01*
X20323231Y-14333531D02*
X20332755Y-14352579D01*
X20332755Y-14352579D02*
X20332755Y-14371627D01*
X20332755Y-14371627D02*
X20323231Y-14400198D01*
X20323231Y-14400198D02*
X20208946Y-14514484D01*
X20208946Y-14514484D02*
X20332755Y-14514484D01*
X20561327Y-14504960D02*
X20580374Y-14514484D01*
X20580374Y-14514484D02*
X20618469Y-14514484D01*
X20618469Y-14514484D02*
X20637517Y-14504960D01*
X20637517Y-14504960D02*
X20647041Y-14485912D01*
X20647041Y-14485912D02*
X20647041Y-14476388D01*
X20647041Y-14476388D02*
X20637517Y-14457341D01*
X20637517Y-14457341D02*
X20618469Y-14447817D01*
X20618469Y-14447817D02*
X20589898Y-14447817D01*
X20589898Y-14447817D02*
X20570850Y-14438293D01*
X20570850Y-14438293D02*
X20561327Y-14419246D01*
X20561327Y-14419246D02*
X20561327Y-14409722D01*
X20561327Y-14409722D02*
X20570850Y-14390674D01*
X20570850Y-14390674D02*
X20589898Y-14381150D01*
X20589898Y-14381150D02*
X20618469Y-14381150D01*
X20618469Y-14381150D02*
X20637517Y-14390674D01*
X20761327Y-14514484D02*
X20742279Y-14504960D01*
X20742279Y-14504960D02*
X20732755Y-14485912D01*
X20732755Y-14485912D02*
X20732755Y-14314484D01*
X20866088Y-14514484D02*
X20847041Y-14504960D01*
X20847041Y-14504960D02*
X20837517Y-14495436D01*
X20837517Y-14495436D02*
X20827993Y-14476388D01*
X20827993Y-14476388D02*
X20827993Y-14419246D01*
X20827993Y-14419246D02*
X20837517Y-14400198D01*
X20837517Y-14400198D02*
X20847041Y-14390674D01*
X20847041Y-14390674D02*
X20866088Y-14381150D01*
X20866088Y-14381150D02*
X20894660Y-14381150D01*
X20894660Y-14381150D02*
X20913708Y-14390674D01*
X20913708Y-14390674D02*
X20923231Y-14400198D01*
X20923231Y-14400198D02*
X20932755Y-14419246D01*
X20932755Y-14419246D02*
X20932755Y-14476388D01*
X20932755Y-14476388D02*
X20923231Y-14495436D01*
X20923231Y-14495436D02*
X20913708Y-14504960D01*
X20913708Y-14504960D02*
X20894660Y-14514484D01*
X20894660Y-14514484D02*
X20866088Y-14514484D01*
X20989898Y-14381150D02*
X21066088Y-14381150D01*
X21018469Y-14314484D02*
X21018469Y-14485912D01*
X21018469Y-14485912D02*
X21027993Y-14504960D01*
X21027993Y-14504960D02*
X21047041Y-14514484D01*
X21047041Y-14514484D02*
X21066088Y-14514484D01*
X21123231Y-14504960D02*
X21142279Y-14514484D01*
X21142279Y-14514484D02*
X21180374Y-14514484D01*
X21180374Y-14514484D02*
X21199422Y-14504960D01*
X21199422Y-14504960D02*
X21208946Y-14485912D01*
X21208946Y-14485912D02*
X21208946Y-14476388D01*
X21208946Y-14476388D02*
X21199422Y-14457341D01*
X21199422Y-14457341D02*
X21180374Y-14447817D01*
X21180374Y-14447817D02*
X21151803Y-14447817D01*
X21151803Y-14447817D02*
X21132755Y-14438293D01*
X21132755Y-14438293D02*
X21123231Y-14419246D01*
X21123231Y-14419246D02*
X21123231Y-14409722D01*
X21123231Y-14409722D02*
X21132755Y-14390674D01*
X21132755Y-14390674D02*
X21151803Y-14381150D01*
X21151803Y-14381150D02*
X21180374Y-14381150D01*
X21180374Y-14381150D02*
X21199422Y-14390674D01*
X21275612Y-14590674D02*
X21285136Y-14581150D01*
X21285136Y-14581150D02*
X21304184Y-14552579D01*
X21304184Y-14552579D02*
X21313708Y-14533531D01*
X21313708Y-14533531D02*
X21323231Y-14504960D01*
X21323231Y-14504960D02*
X21332755Y-14457341D01*
X21332755Y-14457341D02*
X21332755Y-14419246D01*
X21332755Y-14419246D02*
X21323231Y-14371627D01*
X21323231Y-14371627D02*
X21313708Y-14343055D01*
X21313708Y-14343055D02*
X21304184Y-14324008D01*
X21304184Y-14324008D02*
X21285136Y-14295436D01*
X21285136Y-14295436D02*
X21275612Y-14285912D01*
D15*
X14869786Y-14715284D02*
X14869786Y-14658715D01*
X14813217Y-14658715D01*
X14813217Y-14715284D01*
X14869786Y-14715284D01*
D11*
X15180373Y-14578484D02*
X15199421Y-14578484D01*
X15199421Y-14578484D02*
X15218469Y-14588008D01*
X15218469Y-14588008D02*
X15227993Y-14597531D01*
X15227993Y-14597531D02*
X15237516Y-14616579D01*
X15237516Y-14616579D02*
X15247040Y-14654674D01*
X15247040Y-14654674D02*
X15247040Y-14702293D01*
X15247040Y-14702293D02*
X15237516Y-14740388D01*
X15237516Y-14740388D02*
X15227993Y-14759436D01*
X15227993Y-14759436D02*
X15218469Y-14768960D01*
X15218469Y-14768960D02*
X15199421Y-14778484D01*
X15199421Y-14778484D02*
X15180373Y-14778484D01*
X15180373Y-14778484D02*
X15161326Y-14768960D01*
X15161326Y-14768960D02*
X15151802Y-14759436D01*
X15151802Y-14759436D02*
X15142278Y-14740388D01*
X15142278Y-14740388D02*
X15132754Y-14702293D01*
X15132754Y-14702293D02*
X15132754Y-14654674D01*
X15132754Y-14654674D02*
X15142278Y-14616579D01*
X15142278Y-14616579D02*
X15151802Y-14597531D01*
X15151802Y-14597531D02*
X15161326Y-14588008D01*
X15161326Y-14588008D02*
X15180373Y-14578484D01*
X15332754Y-14759436D02*
X15342278Y-14768960D01*
X15342278Y-14768960D02*
X15332754Y-14778484D01*
X15332754Y-14778484D02*
X15323231Y-14768960D01*
X15323231Y-14768960D02*
X15332754Y-14759436D01*
X15332754Y-14759436D02*
X15332754Y-14778484D01*
X15456564Y-14664198D02*
X15437516Y-14654674D01*
X15437516Y-14654674D02*
X15427993Y-14645150D01*
X15427993Y-14645150D02*
X15418469Y-14626103D01*
X15418469Y-14626103D02*
X15418469Y-14616579D01*
X15418469Y-14616579D02*
X15427993Y-14597531D01*
X15427993Y-14597531D02*
X15437516Y-14588008D01*
X15437516Y-14588008D02*
X15456564Y-14578484D01*
X15456564Y-14578484D02*
X15494659Y-14578484D01*
X15494659Y-14578484D02*
X15513707Y-14588008D01*
X15513707Y-14588008D02*
X15523231Y-14597531D01*
X15523231Y-14597531D02*
X15532754Y-14616579D01*
X15532754Y-14616579D02*
X15532754Y-14626103D01*
X15532754Y-14626103D02*
X15523231Y-14645150D01*
X15523231Y-14645150D02*
X15513707Y-14654674D01*
X15513707Y-14654674D02*
X15494659Y-14664198D01*
X15494659Y-14664198D02*
X15456564Y-14664198D01*
X15456564Y-14664198D02*
X15437516Y-14673722D01*
X15437516Y-14673722D02*
X15427993Y-14683246D01*
X15427993Y-14683246D02*
X15418469Y-14702293D01*
X15418469Y-14702293D02*
X15418469Y-14740388D01*
X15418469Y-14740388D02*
X15427993Y-14759436D01*
X15427993Y-14759436D02*
X15437516Y-14768960D01*
X15437516Y-14768960D02*
X15456564Y-14778484D01*
X15456564Y-14778484D02*
X15494659Y-14778484D01*
X15494659Y-14778484D02*
X15513707Y-14768960D01*
X15513707Y-14768960D02*
X15523231Y-14759436D01*
X15523231Y-14759436D02*
X15532754Y-14740388D01*
X15532754Y-14740388D02*
X15532754Y-14702293D01*
X15532754Y-14702293D02*
X15523231Y-14683246D01*
X15523231Y-14683246D02*
X15513707Y-14673722D01*
X15513707Y-14673722D02*
X15494659Y-14664198D01*
X15656564Y-14578484D02*
X15675612Y-14578484D01*
X15675612Y-14578484D02*
X15694659Y-14588008D01*
X15694659Y-14588008D02*
X15704183Y-14597531D01*
X15704183Y-14597531D02*
X15713707Y-14616579D01*
X15713707Y-14616579D02*
X15723231Y-14654674D01*
X15723231Y-14654674D02*
X15723231Y-14702293D01*
X15723231Y-14702293D02*
X15713707Y-14740388D01*
X15713707Y-14740388D02*
X15704183Y-14759436D01*
X15704183Y-14759436D02*
X15694659Y-14768960D01*
X15694659Y-14768960D02*
X15675612Y-14778484D01*
X15675612Y-14778484D02*
X15656564Y-14778484D01*
X15656564Y-14778484D02*
X15637516Y-14768960D01*
X15637516Y-14768960D02*
X15627993Y-14759436D01*
X15627993Y-14759436D02*
X15618469Y-14740388D01*
X15618469Y-14740388D02*
X15608945Y-14702293D01*
X15608945Y-14702293D02*
X15608945Y-14654674D01*
X15608945Y-14654674D02*
X15618469Y-14616579D01*
X15618469Y-14616579D02*
X15627993Y-14597531D01*
X15627993Y-14597531D02*
X15637516Y-14588008D01*
X15637516Y-14588008D02*
X15656564Y-14578484D01*
X15847040Y-14578484D02*
X15866088Y-14578484D01*
X15866088Y-14578484D02*
X15885135Y-14588008D01*
X15885135Y-14588008D02*
X15894659Y-14597531D01*
X15894659Y-14597531D02*
X15904183Y-14616579D01*
X15904183Y-14616579D02*
X15913707Y-14654674D01*
X15913707Y-14654674D02*
X15913707Y-14702293D01*
X15913707Y-14702293D02*
X15904183Y-14740388D01*
X15904183Y-14740388D02*
X15894659Y-14759436D01*
X15894659Y-14759436D02*
X15885135Y-14768960D01*
X15885135Y-14768960D02*
X15866088Y-14778484D01*
X15866088Y-14778484D02*
X15847040Y-14778484D01*
X15847040Y-14778484D02*
X15827993Y-14768960D01*
X15827993Y-14768960D02*
X15818469Y-14759436D01*
X15818469Y-14759436D02*
X15808945Y-14740388D01*
X15808945Y-14740388D02*
X15799421Y-14702293D01*
X15799421Y-14702293D02*
X15799421Y-14654674D01*
X15799421Y-14654674D02*
X15808945Y-14616579D01*
X15808945Y-14616579D02*
X15818469Y-14597531D01*
X15818469Y-14597531D02*
X15827993Y-14588008D01*
X15827993Y-14588008D02*
X15847040Y-14578484D01*
X15999421Y-14778484D02*
X15999421Y-14645150D01*
X15999421Y-14664198D02*
X16008945Y-14654674D01*
X16008945Y-14654674D02*
X16027993Y-14645150D01*
X16027993Y-14645150D02*
X16056564Y-14645150D01*
X16056564Y-14645150D02*
X16075612Y-14654674D01*
X16075612Y-14654674D02*
X16085135Y-14673722D01*
X16085135Y-14673722D02*
X16085135Y-14778484D01*
X16085135Y-14673722D02*
X16094659Y-14654674D01*
X16094659Y-14654674D02*
X16113707Y-14645150D01*
X16113707Y-14645150D02*
X16142278Y-14645150D01*
X16142278Y-14645150D02*
X16161326Y-14654674D01*
X16161326Y-14654674D02*
X16170850Y-14673722D01*
X16170850Y-14673722D02*
X16170850Y-14778484D01*
X16266088Y-14778484D02*
X16266088Y-14645150D01*
X16266088Y-14664198D02*
X16275612Y-14654674D01*
X16275612Y-14654674D02*
X16294659Y-14645150D01*
X16294659Y-14645150D02*
X16323231Y-14645150D01*
X16323231Y-14645150D02*
X16342278Y-14654674D01*
X16342278Y-14654674D02*
X16351802Y-14673722D01*
X16351802Y-14673722D02*
X16351802Y-14778484D01*
X16351802Y-14673722D02*
X16361326Y-14654674D01*
X16361326Y-14654674D02*
X16380374Y-14645150D01*
X16380374Y-14645150D02*
X16408945Y-14645150D01*
X16408945Y-14645150D02*
X16427993Y-14654674D01*
X16427993Y-14654674D02*
X16437516Y-14673722D01*
X16437516Y-14673722D02*
X16437516Y-14778484D01*
X16827993Y-14568960D02*
X16656564Y-14826103D01*
X17085136Y-14578484D02*
X17104183Y-14578484D01*
X17104183Y-14578484D02*
X17123231Y-14588008D01*
X17123231Y-14588008D02*
X17132755Y-14597531D01*
X17132755Y-14597531D02*
X17142279Y-14616579D01*
X17142279Y-14616579D02*
X17151802Y-14654674D01*
X17151802Y-14654674D02*
X17151802Y-14702293D01*
X17151802Y-14702293D02*
X17142279Y-14740388D01*
X17142279Y-14740388D02*
X17132755Y-14759436D01*
X17132755Y-14759436D02*
X17123231Y-14768960D01*
X17123231Y-14768960D02*
X17104183Y-14778484D01*
X17104183Y-14778484D02*
X17085136Y-14778484D01*
X17085136Y-14778484D02*
X17066088Y-14768960D01*
X17066088Y-14768960D02*
X17056564Y-14759436D01*
X17056564Y-14759436D02*
X17047040Y-14740388D01*
X17047040Y-14740388D02*
X17037517Y-14702293D01*
X17037517Y-14702293D02*
X17037517Y-14654674D01*
X17037517Y-14654674D02*
X17047040Y-14616579D01*
X17047040Y-14616579D02*
X17056564Y-14597531D01*
X17056564Y-14597531D02*
X17066088Y-14588008D01*
X17066088Y-14588008D02*
X17085136Y-14578484D01*
X17237517Y-14759436D02*
X17247040Y-14768960D01*
X17247040Y-14768960D02*
X17237517Y-14778484D01*
X17237517Y-14778484D02*
X17227993Y-14768960D01*
X17227993Y-14768960D02*
X17237517Y-14759436D01*
X17237517Y-14759436D02*
X17237517Y-14778484D01*
X17370850Y-14578484D02*
X17389898Y-14578484D01*
X17389898Y-14578484D02*
X17408945Y-14588008D01*
X17408945Y-14588008D02*
X17418469Y-14597531D01*
X17418469Y-14597531D02*
X17427993Y-14616579D01*
X17427993Y-14616579D02*
X17437517Y-14654674D01*
X17437517Y-14654674D02*
X17437517Y-14702293D01*
X17437517Y-14702293D02*
X17427993Y-14740388D01*
X17427993Y-14740388D02*
X17418469Y-14759436D01*
X17418469Y-14759436D02*
X17408945Y-14768960D01*
X17408945Y-14768960D02*
X17389898Y-14778484D01*
X17389898Y-14778484D02*
X17370850Y-14778484D01*
X17370850Y-14778484D02*
X17351802Y-14768960D01*
X17351802Y-14768960D02*
X17342279Y-14759436D01*
X17342279Y-14759436D02*
X17332755Y-14740388D01*
X17332755Y-14740388D02*
X17323231Y-14702293D01*
X17323231Y-14702293D02*
X17323231Y-14654674D01*
X17323231Y-14654674D02*
X17332755Y-14616579D01*
X17332755Y-14616579D02*
X17342279Y-14597531D01*
X17342279Y-14597531D02*
X17351802Y-14588008D01*
X17351802Y-14588008D02*
X17370850Y-14578484D01*
X17504183Y-14578484D02*
X17627993Y-14578484D01*
X17627993Y-14578484D02*
X17561326Y-14654674D01*
X17561326Y-14654674D02*
X17589898Y-14654674D01*
X17589898Y-14654674D02*
X17608945Y-14664198D01*
X17608945Y-14664198D02*
X17618469Y-14673722D01*
X17618469Y-14673722D02*
X17627993Y-14692769D01*
X17627993Y-14692769D02*
X17627993Y-14740388D01*
X17627993Y-14740388D02*
X17618469Y-14759436D01*
X17618469Y-14759436D02*
X17608945Y-14768960D01*
X17608945Y-14768960D02*
X17589898Y-14778484D01*
X17589898Y-14778484D02*
X17532755Y-14778484D01*
X17532755Y-14778484D02*
X17513707Y-14768960D01*
X17513707Y-14768960D02*
X17504183Y-14759436D01*
X17818469Y-14778484D02*
X17704183Y-14778484D01*
X17761326Y-14778484D02*
X17761326Y-14578484D01*
X17761326Y-14578484D02*
X17742279Y-14607055D01*
X17742279Y-14607055D02*
X17723231Y-14626103D01*
X17723231Y-14626103D02*
X17704183Y-14635627D01*
X17999421Y-14578484D02*
X17904183Y-14578484D01*
X17904183Y-14578484D02*
X17894660Y-14673722D01*
X17894660Y-14673722D02*
X17904183Y-14664198D01*
X17904183Y-14664198D02*
X17923231Y-14654674D01*
X17923231Y-14654674D02*
X17970850Y-14654674D01*
X17970850Y-14654674D02*
X17989898Y-14664198D01*
X17989898Y-14664198D02*
X17999421Y-14673722D01*
X17999421Y-14673722D02*
X18008945Y-14692769D01*
X18008945Y-14692769D02*
X18008945Y-14740388D01*
X18008945Y-14740388D02*
X17999421Y-14759436D01*
X17999421Y-14759436D02*
X17989898Y-14768960D01*
X17989898Y-14768960D02*
X17970850Y-14778484D01*
X17970850Y-14778484D02*
X17923231Y-14778484D01*
X17923231Y-14778484D02*
X17904183Y-14768960D01*
X17904183Y-14768960D02*
X17894660Y-14759436D01*
X18085136Y-14578484D02*
X18085136Y-14616579D01*
X18161326Y-14578484D02*
X18161326Y-14616579D01*
X18456564Y-14854674D02*
X18447041Y-14845150D01*
X18447041Y-14845150D02*
X18427993Y-14816579D01*
X18427993Y-14816579D02*
X18418469Y-14797531D01*
X18418469Y-14797531D02*
X18408945Y-14768960D01*
X18408945Y-14768960D02*
X18399422Y-14721341D01*
X18399422Y-14721341D02*
X18399422Y-14683246D01*
X18399422Y-14683246D02*
X18408945Y-14635627D01*
X18408945Y-14635627D02*
X18418469Y-14607055D01*
X18418469Y-14607055D02*
X18427993Y-14588008D01*
X18427993Y-14588008D02*
X18447041Y-14559436D01*
X18447041Y-14559436D02*
X18456564Y-14549912D01*
X18618469Y-14578484D02*
X18580374Y-14578484D01*
X18580374Y-14578484D02*
X18561326Y-14588008D01*
X18561326Y-14588008D02*
X18551802Y-14597531D01*
X18551802Y-14597531D02*
X18532755Y-14626103D01*
X18532755Y-14626103D02*
X18523231Y-14664198D01*
X18523231Y-14664198D02*
X18523231Y-14740388D01*
X18523231Y-14740388D02*
X18532755Y-14759436D01*
X18532755Y-14759436D02*
X18542279Y-14768960D01*
X18542279Y-14768960D02*
X18561326Y-14778484D01*
X18561326Y-14778484D02*
X18599422Y-14778484D01*
X18599422Y-14778484D02*
X18618469Y-14768960D01*
X18618469Y-14768960D02*
X18627993Y-14759436D01*
X18627993Y-14759436D02*
X18637517Y-14740388D01*
X18637517Y-14740388D02*
X18637517Y-14692769D01*
X18637517Y-14692769D02*
X18627993Y-14673722D01*
X18627993Y-14673722D02*
X18618469Y-14664198D01*
X18618469Y-14664198D02*
X18599422Y-14654674D01*
X18599422Y-14654674D02*
X18561326Y-14654674D01*
X18561326Y-14654674D02*
X18542279Y-14664198D01*
X18542279Y-14664198D02*
X18532755Y-14673722D01*
X18532755Y-14673722D02*
X18523231Y-14692769D01*
X18875612Y-14778484D02*
X18875612Y-14578484D01*
X18961326Y-14778484D02*
X18961326Y-14673722D01*
X18961326Y-14673722D02*
X18951803Y-14654674D01*
X18951803Y-14654674D02*
X18932755Y-14645150D01*
X18932755Y-14645150D02*
X18904183Y-14645150D01*
X18904183Y-14645150D02*
X18885136Y-14654674D01*
X18885136Y-14654674D02*
X18875612Y-14664198D01*
X19085136Y-14778484D02*
X19066088Y-14768960D01*
X19066088Y-14768960D02*
X19056564Y-14759436D01*
X19056564Y-14759436D02*
X19047041Y-14740388D01*
X19047041Y-14740388D02*
X19047041Y-14683246D01*
X19047041Y-14683246D02*
X19056564Y-14664198D01*
X19056564Y-14664198D02*
X19066088Y-14654674D01*
X19066088Y-14654674D02*
X19085136Y-14645150D01*
X19085136Y-14645150D02*
X19113707Y-14645150D01*
X19113707Y-14645150D02*
X19132755Y-14654674D01*
X19132755Y-14654674D02*
X19142279Y-14664198D01*
X19142279Y-14664198D02*
X19151803Y-14683246D01*
X19151803Y-14683246D02*
X19151803Y-14740388D01*
X19151803Y-14740388D02*
X19142279Y-14759436D01*
X19142279Y-14759436D02*
X19132755Y-14768960D01*
X19132755Y-14768960D02*
X19113707Y-14778484D01*
X19113707Y-14778484D02*
X19085136Y-14778484D01*
X19266088Y-14778484D02*
X19247041Y-14768960D01*
X19247041Y-14768960D02*
X19237517Y-14749912D01*
X19237517Y-14749912D02*
X19237517Y-14578484D01*
X19418469Y-14768960D02*
X19399422Y-14778484D01*
X19399422Y-14778484D02*
X19361326Y-14778484D01*
X19361326Y-14778484D02*
X19342279Y-14768960D01*
X19342279Y-14768960D02*
X19332755Y-14749912D01*
X19332755Y-14749912D02*
X19332755Y-14673722D01*
X19332755Y-14673722D02*
X19342279Y-14654674D01*
X19342279Y-14654674D02*
X19361326Y-14645150D01*
X19361326Y-14645150D02*
X19399422Y-14645150D01*
X19399422Y-14645150D02*
X19418469Y-14654674D01*
X19418469Y-14654674D02*
X19427993Y-14673722D01*
X19427993Y-14673722D02*
X19427993Y-14692769D01*
X19427993Y-14692769D02*
X19332755Y-14711817D01*
X19504184Y-14768960D02*
X19523231Y-14778484D01*
X19523231Y-14778484D02*
X19561326Y-14778484D01*
X19561326Y-14778484D02*
X19580374Y-14768960D01*
X19580374Y-14768960D02*
X19589898Y-14749912D01*
X19589898Y-14749912D02*
X19589898Y-14740388D01*
X19589898Y-14740388D02*
X19580374Y-14721341D01*
X19580374Y-14721341D02*
X19561326Y-14711817D01*
X19561326Y-14711817D02*
X19532755Y-14711817D01*
X19532755Y-14711817D02*
X19513707Y-14702293D01*
X19513707Y-14702293D02*
X19504184Y-14683246D01*
X19504184Y-14683246D02*
X19504184Y-14673722D01*
X19504184Y-14673722D02*
X19513707Y-14654674D01*
X19513707Y-14654674D02*
X19532755Y-14645150D01*
X19532755Y-14645150D02*
X19561326Y-14645150D01*
X19561326Y-14645150D02*
X19580374Y-14654674D01*
X19656565Y-14854674D02*
X19666088Y-14845150D01*
X19666088Y-14845150D02*
X19685136Y-14816579D01*
X19685136Y-14816579D02*
X19694660Y-14797531D01*
X19694660Y-14797531D02*
X19704184Y-14768960D01*
X19704184Y-14768960D02*
X19713707Y-14721341D01*
X19713707Y-14721341D02*
X19713707Y-14683246D01*
X19713707Y-14683246D02*
X19704184Y-14635627D01*
X19704184Y-14635627D02*
X19694660Y-14607055D01*
X19694660Y-14607055D02*
X19685136Y-14588008D01*
X19685136Y-14588008D02*
X19666088Y-14559436D01*
X19666088Y-14559436D02*
X19656565Y-14549912D01*
D16*
X14837051Y-14995450D02*
X14881501Y-14951000D01*
X14837051Y-14906550D01*
X14792601Y-14951000D01*
X14837051Y-14995450D01*
D11*
X15180373Y-14842484D02*
X15199421Y-14842484D01*
X15199421Y-14842484D02*
X15218469Y-14852008D01*
X15218469Y-14852008D02*
X15227993Y-14861531D01*
X15227993Y-14861531D02*
X15237516Y-14880579D01*
X15237516Y-14880579D02*
X15247040Y-14918674D01*
X15247040Y-14918674D02*
X15247040Y-14966293D01*
X15247040Y-14966293D02*
X15237516Y-15004388D01*
X15237516Y-15004388D02*
X15227993Y-15023436D01*
X15227993Y-15023436D02*
X15218469Y-15032960D01*
X15218469Y-15032960D02*
X15199421Y-15042484D01*
X15199421Y-15042484D02*
X15180373Y-15042484D01*
X15180373Y-15042484D02*
X15161326Y-15032960D01*
X15161326Y-15032960D02*
X15151802Y-15023436D01*
X15151802Y-15023436D02*
X15142278Y-15004388D01*
X15142278Y-15004388D02*
X15132754Y-14966293D01*
X15132754Y-14966293D02*
X15132754Y-14918674D01*
X15132754Y-14918674D02*
X15142278Y-14880579D01*
X15142278Y-14880579D02*
X15151802Y-14861531D01*
X15151802Y-14861531D02*
X15161326Y-14852008D01*
X15161326Y-14852008D02*
X15180373Y-14842484D01*
X15332754Y-15023436D02*
X15342278Y-15032960D01*
X15342278Y-15032960D02*
X15332754Y-15042484D01*
X15332754Y-15042484D02*
X15323231Y-15032960D01*
X15323231Y-15032960D02*
X15332754Y-15023436D01*
X15332754Y-15023436D02*
X15332754Y-15042484D01*
X15456564Y-14928198D02*
X15437516Y-14918674D01*
X15437516Y-14918674D02*
X15427993Y-14909150D01*
X15427993Y-14909150D02*
X15418469Y-14890103D01*
X15418469Y-14890103D02*
X15418469Y-14880579D01*
X15418469Y-14880579D02*
X15427993Y-14861531D01*
X15427993Y-14861531D02*
X15437516Y-14852008D01*
X15437516Y-14852008D02*
X15456564Y-14842484D01*
X15456564Y-14842484D02*
X15494659Y-14842484D01*
X15494659Y-14842484D02*
X15513707Y-14852008D01*
X15513707Y-14852008D02*
X15523231Y-14861531D01*
X15523231Y-14861531D02*
X15532754Y-14880579D01*
X15532754Y-14880579D02*
X15532754Y-14890103D01*
X15532754Y-14890103D02*
X15523231Y-14909150D01*
X15523231Y-14909150D02*
X15513707Y-14918674D01*
X15513707Y-14918674D02*
X15494659Y-14928198D01*
X15494659Y-14928198D02*
X15456564Y-14928198D01*
X15456564Y-14928198D02*
X15437516Y-14937722D01*
X15437516Y-14937722D02*
X15427993Y-14947246D01*
X15427993Y-14947246D02*
X15418469Y-14966293D01*
X15418469Y-14966293D02*
X15418469Y-15004388D01*
X15418469Y-15004388D02*
X15427993Y-15023436D01*
X15427993Y-15023436D02*
X15437516Y-15032960D01*
X15437516Y-15032960D02*
X15456564Y-15042484D01*
X15456564Y-15042484D02*
X15494659Y-15042484D01*
X15494659Y-15042484D02*
X15513707Y-15032960D01*
X15513707Y-15032960D02*
X15523231Y-15023436D01*
X15523231Y-15023436D02*
X15532754Y-15004388D01*
X15532754Y-15004388D02*
X15532754Y-14966293D01*
X15532754Y-14966293D02*
X15523231Y-14947246D01*
X15523231Y-14947246D02*
X15513707Y-14937722D01*
X15513707Y-14937722D02*
X15494659Y-14928198D01*
X15647040Y-14928198D02*
X15627993Y-14918674D01*
X15627993Y-14918674D02*
X15618469Y-14909150D01*
X15618469Y-14909150D02*
X15608945Y-14890103D01*
X15608945Y-14890103D02*
X15608945Y-14880579D01*
X15608945Y-14880579D02*
X15618469Y-14861531D01*
X15618469Y-14861531D02*
X15627993Y-14852008D01*
X15627993Y-14852008D02*
X15647040Y-14842484D01*
X15647040Y-14842484D02*
X15685135Y-14842484D01*
X15685135Y-14842484D02*
X15704183Y-14852008D01*
X15704183Y-14852008D02*
X15713707Y-14861531D01*
X15713707Y-14861531D02*
X15723231Y-14880579D01*
X15723231Y-14880579D02*
X15723231Y-14890103D01*
X15723231Y-14890103D02*
X15713707Y-14909150D01*
X15713707Y-14909150D02*
X15704183Y-14918674D01*
X15704183Y-14918674D02*
X15685135Y-14928198D01*
X15685135Y-14928198D02*
X15647040Y-14928198D01*
X15647040Y-14928198D02*
X15627993Y-14937722D01*
X15627993Y-14937722D02*
X15618469Y-14947246D01*
X15618469Y-14947246D02*
X15608945Y-14966293D01*
X15608945Y-14966293D02*
X15608945Y-15004388D01*
X15608945Y-15004388D02*
X15618469Y-15023436D01*
X15618469Y-15023436D02*
X15627993Y-15032960D01*
X15627993Y-15032960D02*
X15647040Y-15042484D01*
X15647040Y-15042484D02*
X15685135Y-15042484D01*
X15685135Y-15042484D02*
X15704183Y-15032960D01*
X15704183Y-15032960D02*
X15713707Y-15023436D01*
X15713707Y-15023436D02*
X15723231Y-15004388D01*
X15723231Y-15004388D02*
X15723231Y-14966293D01*
X15723231Y-14966293D02*
X15713707Y-14947246D01*
X15713707Y-14947246D02*
X15704183Y-14937722D01*
X15704183Y-14937722D02*
X15685135Y-14928198D01*
X15818469Y-15042484D02*
X15856564Y-15042484D01*
X15856564Y-15042484D02*
X15875612Y-15032960D01*
X15875612Y-15032960D02*
X15885135Y-15023436D01*
X15885135Y-15023436D02*
X15904183Y-14994865D01*
X15904183Y-14994865D02*
X15913707Y-14956769D01*
X15913707Y-14956769D02*
X15913707Y-14880579D01*
X15913707Y-14880579D02*
X15904183Y-14861531D01*
X15904183Y-14861531D02*
X15894659Y-14852008D01*
X15894659Y-14852008D02*
X15875612Y-14842484D01*
X15875612Y-14842484D02*
X15837516Y-14842484D01*
X15837516Y-14842484D02*
X15818469Y-14852008D01*
X15818469Y-14852008D02*
X15808945Y-14861531D01*
X15808945Y-14861531D02*
X15799421Y-14880579D01*
X15799421Y-14880579D02*
X15799421Y-14928198D01*
X15799421Y-14928198D02*
X15808945Y-14947246D01*
X15808945Y-14947246D02*
X15818469Y-14956769D01*
X15818469Y-14956769D02*
X15837516Y-14966293D01*
X15837516Y-14966293D02*
X15875612Y-14966293D01*
X15875612Y-14966293D02*
X15894659Y-14956769D01*
X15894659Y-14956769D02*
X15904183Y-14947246D01*
X15904183Y-14947246D02*
X15913707Y-14928198D01*
X15999421Y-15042484D02*
X15999421Y-14909150D01*
X15999421Y-14928198D02*
X16008945Y-14918674D01*
X16008945Y-14918674D02*
X16027993Y-14909150D01*
X16027993Y-14909150D02*
X16056564Y-14909150D01*
X16056564Y-14909150D02*
X16075612Y-14918674D01*
X16075612Y-14918674D02*
X16085135Y-14937722D01*
X16085135Y-14937722D02*
X16085135Y-15042484D01*
X16085135Y-14937722D02*
X16094659Y-14918674D01*
X16094659Y-14918674D02*
X16113707Y-14909150D01*
X16113707Y-14909150D02*
X16142278Y-14909150D01*
X16142278Y-14909150D02*
X16161326Y-14918674D01*
X16161326Y-14918674D02*
X16170850Y-14937722D01*
X16170850Y-14937722D02*
X16170850Y-15042484D01*
X16266088Y-15042484D02*
X16266088Y-14909150D01*
X16266088Y-14928198D02*
X16275612Y-14918674D01*
X16275612Y-14918674D02*
X16294659Y-14909150D01*
X16294659Y-14909150D02*
X16323231Y-14909150D01*
X16323231Y-14909150D02*
X16342278Y-14918674D01*
X16342278Y-14918674D02*
X16351802Y-14937722D01*
X16351802Y-14937722D02*
X16351802Y-15042484D01*
X16351802Y-14937722D02*
X16361326Y-14918674D01*
X16361326Y-14918674D02*
X16380374Y-14909150D01*
X16380374Y-14909150D02*
X16408945Y-14909150D01*
X16408945Y-14909150D02*
X16427993Y-14918674D01*
X16427993Y-14918674D02*
X16437516Y-14937722D01*
X16437516Y-14937722D02*
X16437516Y-15042484D01*
X16827993Y-14832960D02*
X16656564Y-15090103D01*
X17085136Y-14842484D02*
X17104183Y-14842484D01*
X17104183Y-14842484D02*
X17123231Y-14852008D01*
X17123231Y-14852008D02*
X17132755Y-14861531D01*
X17132755Y-14861531D02*
X17142279Y-14880579D01*
X17142279Y-14880579D02*
X17151802Y-14918674D01*
X17151802Y-14918674D02*
X17151802Y-14966293D01*
X17151802Y-14966293D02*
X17142279Y-15004388D01*
X17142279Y-15004388D02*
X17132755Y-15023436D01*
X17132755Y-15023436D02*
X17123231Y-15032960D01*
X17123231Y-15032960D02*
X17104183Y-15042484D01*
X17104183Y-15042484D02*
X17085136Y-15042484D01*
X17085136Y-15042484D02*
X17066088Y-15032960D01*
X17066088Y-15032960D02*
X17056564Y-15023436D01*
X17056564Y-15023436D02*
X17047040Y-15004388D01*
X17047040Y-15004388D02*
X17037517Y-14966293D01*
X17037517Y-14966293D02*
X17037517Y-14918674D01*
X17037517Y-14918674D02*
X17047040Y-14880579D01*
X17047040Y-14880579D02*
X17056564Y-14861531D01*
X17056564Y-14861531D02*
X17066088Y-14852008D01*
X17066088Y-14852008D02*
X17085136Y-14842484D01*
X17237517Y-15023436D02*
X17247040Y-15032960D01*
X17247040Y-15032960D02*
X17237517Y-15042484D01*
X17237517Y-15042484D02*
X17227993Y-15032960D01*
X17227993Y-15032960D02*
X17237517Y-15023436D01*
X17237517Y-15023436D02*
X17237517Y-15042484D01*
X17370850Y-14842484D02*
X17389898Y-14842484D01*
X17389898Y-14842484D02*
X17408945Y-14852008D01*
X17408945Y-14852008D02*
X17418469Y-14861531D01*
X17418469Y-14861531D02*
X17427993Y-14880579D01*
X17427993Y-14880579D02*
X17437517Y-14918674D01*
X17437517Y-14918674D02*
X17437517Y-14966293D01*
X17437517Y-14966293D02*
X17427993Y-15004388D01*
X17427993Y-15004388D02*
X17418469Y-15023436D01*
X17418469Y-15023436D02*
X17408945Y-15032960D01*
X17408945Y-15032960D02*
X17389898Y-15042484D01*
X17389898Y-15042484D02*
X17370850Y-15042484D01*
X17370850Y-15042484D02*
X17351802Y-15032960D01*
X17351802Y-15032960D02*
X17342279Y-15023436D01*
X17342279Y-15023436D02*
X17332755Y-15004388D01*
X17332755Y-15004388D02*
X17323231Y-14966293D01*
X17323231Y-14966293D02*
X17323231Y-14918674D01*
X17323231Y-14918674D02*
X17332755Y-14880579D01*
X17332755Y-14880579D02*
X17342279Y-14861531D01*
X17342279Y-14861531D02*
X17351802Y-14852008D01*
X17351802Y-14852008D02*
X17370850Y-14842484D01*
X17504183Y-14842484D02*
X17627993Y-14842484D01*
X17627993Y-14842484D02*
X17561326Y-14918674D01*
X17561326Y-14918674D02*
X17589898Y-14918674D01*
X17589898Y-14918674D02*
X17608945Y-14928198D01*
X17608945Y-14928198D02*
X17618469Y-14937722D01*
X17618469Y-14937722D02*
X17627993Y-14956769D01*
X17627993Y-14956769D02*
X17627993Y-15004388D01*
X17627993Y-15004388D02*
X17618469Y-15023436D01*
X17618469Y-15023436D02*
X17608945Y-15032960D01*
X17608945Y-15032960D02*
X17589898Y-15042484D01*
X17589898Y-15042484D02*
X17532755Y-15042484D01*
X17532755Y-15042484D02*
X17513707Y-15032960D01*
X17513707Y-15032960D02*
X17504183Y-15023436D01*
X17808945Y-14842484D02*
X17713707Y-14842484D01*
X17713707Y-14842484D02*
X17704183Y-14937722D01*
X17704183Y-14937722D02*
X17713707Y-14928198D01*
X17713707Y-14928198D02*
X17732755Y-14918674D01*
X17732755Y-14918674D02*
X17780374Y-14918674D01*
X17780374Y-14918674D02*
X17799421Y-14928198D01*
X17799421Y-14928198D02*
X17808945Y-14937722D01*
X17808945Y-14937722D02*
X17818469Y-14956769D01*
X17818469Y-14956769D02*
X17818469Y-15004388D01*
X17818469Y-15004388D02*
X17808945Y-15023436D01*
X17808945Y-15023436D02*
X17799421Y-15032960D01*
X17799421Y-15032960D02*
X17780374Y-15042484D01*
X17780374Y-15042484D02*
X17732755Y-15042484D01*
X17732755Y-15042484D02*
X17713707Y-15032960D01*
X17713707Y-15032960D02*
X17704183Y-15023436D01*
X17942279Y-14842484D02*
X17961326Y-14842484D01*
X17961326Y-14842484D02*
X17980374Y-14852008D01*
X17980374Y-14852008D02*
X17989898Y-14861531D01*
X17989898Y-14861531D02*
X17999421Y-14880579D01*
X17999421Y-14880579D02*
X18008945Y-14918674D01*
X18008945Y-14918674D02*
X18008945Y-14966293D01*
X18008945Y-14966293D02*
X17999421Y-15004388D01*
X17999421Y-15004388D02*
X17989898Y-15023436D01*
X17989898Y-15023436D02*
X17980374Y-15032960D01*
X17980374Y-15032960D02*
X17961326Y-15042484D01*
X17961326Y-15042484D02*
X17942279Y-15042484D01*
X17942279Y-15042484D02*
X17923231Y-15032960D01*
X17923231Y-15032960D02*
X17913707Y-15023436D01*
X17913707Y-15023436D02*
X17904183Y-15004388D01*
X17904183Y-15004388D02*
X17894660Y-14966293D01*
X17894660Y-14966293D02*
X17894660Y-14918674D01*
X17894660Y-14918674D02*
X17904183Y-14880579D01*
X17904183Y-14880579D02*
X17913707Y-14861531D01*
X17913707Y-14861531D02*
X17923231Y-14852008D01*
X17923231Y-14852008D02*
X17942279Y-14842484D01*
X18085136Y-14842484D02*
X18085136Y-14880579D01*
X18161326Y-14842484D02*
X18161326Y-14880579D01*
X18456564Y-15118674D02*
X18447041Y-15109150D01*
X18447041Y-15109150D02*
X18427993Y-15080579D01*
X18427993Y-15080579D02*
X18418469Y-15061531D01*
X18418469Y-15061531D02*
X18408945Y-15032960D01*
X18408945Y-15032960D02*
X18399422Y-14985341D01*
X18399422Y-14985341D02*
X18399422Y-14947246D01*
X18399422Y-14947246D02*
X18408945Y-14899627D01*
X18408945Y-14899627D02*
X18418469Y-14871055D01*
X18418469Y-14871055D02*
X18427993Y-14852008D01*
X18427993Y-14852008D02*
X18447041Y-14823436D01*
X18447041Y-14823436D02*
X18456564Y-14813912D01*
X18513707Y-14842484D02*
X18637517Y-14842484D01*
X18637517Y-14842484D02*
X18570850Y-14918674D01*
X18570850Y-14918674D02*
X18599422Y-14918674D01*
X18599422Y-14918674D02*
X18618469Y-14928198D01*
X18618469Y-14928198D02*
X18627993Y-14937722D01*
X18627993Y-14937722D02*
X18637517Y-14956769D01*
X18637517Y-14956769D02*
X18637517Y-15004388D01*
X18637517Y-15004388D02*
X18627993Y-15023436D01*
X18627993Y-15023436D02*
X18618469Y-15032960D01*
X18618469Y-15032960D02*
X18599422Y-15042484D01*
X18599422Y-15042484D02*
X18542279Y-15042484D01*
X18542279Y-15042484D02*
X18523231Y-15032960D01*
X18523231Y-15032960D02*
X18513707Y-15023436D01*
X18875612Y-15042484D02*
X18875612Y-14842484D01*
X18961326Y-15042484D02*
X18961326Y-14937722D01*
X18961326Y-14937722D02*
X18951803Y-14918674D01*
X18951803Y-14918674D02*
X18932755Y-14909150D01*
X18932755Y-14909150D02*
X18904183Y-14909150D01*
X18904183Y-14909150D02*
X18885136Y-14918674D01*
X18885136Y-14918674D02*
X18875612Y-14928198D01*
X19085136Y-15042484D02*
X19066088Y-15032960D01*
X19066088Y-15032960D02*
X19056564Y-15023436D01*
X19056564Y-15023436D02*
X19047041Y-15004388D01*
X19047041Y-15004388D02*
X19047041Y-14947246D01*
X19047041Y-14947246D02*
X19056564Y-14928198D01*
X19056564Y-14928198D02*
X19066088Y-14918674D01*
X19066088Y-14918674D02*
X19085136Y-14909150D01*
X19085136Y-14909150D02*
X19113707Y-14909150D01*
X19113707Y-14909150D02*
X19132755Y-14918674D01*
X19132755Y-14918674D02*
X19142279Y-14928198D01*
X19142279Y-14928198D02*
X19151803Y-14947246D01*
X19151803Y-14947246D02*
X19151803Y-15004388D01*
X19151803Y-15004388D02*
X19142279Y-15023436D01*
X19142279Y-15023436D02*
X19132755Y-15032960D01*
X19132755Y-15032960D02*
X19113707Y-15042484D01*
X19113707Y-15042484D02*
X19085136Y-15042484D01*
X19266088Y-15042484D02*
X19247041Y-15032960D01*
X19247041Y-15032960D02*
X19237517Y-15013912D01*
X19237517Y-15013912D02*
X19237517Y-14842484D01*
X19418469Y-15032960D02*
X19399422Y-15042484D01*
X19399422Y-15042484D02*
X19361326Y-15042484D01*
X19361326Y-15042484D02*
X19342279Y-15032960D01*
X19342279Y-15032960D02*
X19332755Y-15013912D01*
X19332755Y-15013912D02*
X19332755Y-14937722D01*
X19332755Y-14937722D02*
X19342279Y-14918674D01*
X19342279Y-14918674D02*
X19361326Y-14909150D01*
X19361326Y-14909150D02*
X19399422Y-14909150D01*
X19399422Y-14909150D02*
X19418469Y-14918674D01*
X19418469Y-14918674D02*
X19427993Y-14937722D01*
X19427993Y-14937722D02*
X19427993Y-14956769D01*
X19427993Y-14956769D02*
X19332755Y-14975817D01*
X19504184Y-15032960D02*
X19523231Y-15042484D01*
X19523231Y-15042484D02*
X19561326Y-15042484D01*
X19561326Y-15042484D02*
X19580374Y-15032960D01*
X19580374Y-15032960D02*
X19589898Y-15013912D01*
X19589898Y-15013912D02*
X19589898Y-15004388D01*
X19589898Y-15004388D02*
X19580374Y-14985341D01*
X19580374Y-14985341D02*
X19561326Y-14975817D01*
X19561326Y-14975817D02*
X19532755Y-14975817D01*
X19532755Y-14975817D02*
X19513707Y-14966293D01*
X19513707Y-14966293D02*
X19504184Y-14947246D01*
X19504184Y-14947246D02*
X19504184Y-14937722D01*
X19504184Y-14937722D02*
X19513707Y-14918674D01*
X19513707Y-14918674D02*
X19532755Y-14909150D01*
X19532755Y-14909150D02*
X19561326Y-14909150D01*
X19561326Y-14909150D02*
X19580374Y-14918674D01*
X19656565Y-15118674D02*
X19666088Y-15109150D01*
X19666088Y-15109150D02*
X19685136Y-15080579D01*
X19685136Y-15080579D02*
X19694660Y-15061531D01*
X19694660Y-15061531D02*
X19704184Y-15032960D01*
X19704184Y-15032960D02*
X19713707Y-14985341D01*
X19713707Y-14985341D02*
X19713707Y-14947246D01*
X19713707Y-14947246D02*
X19704184Y-14899627D01*
X19704184Y-14899627D02*
X19694660Y-14871055D01*
X19694660Y-14871055D02*
X19685136Y-14852008D01*
X19685136Y-14852008D02*
X19666088Y-14823436D01*
X19666088Y-14823436D02*
X19656565Y-14813912D01*
D10*
X14781501Y-15165000D02*
X14881501Y-15265000D01*
X14881501Y-15165000D02*
X14781501Y-15265000D01*
X14881501Y-15215000D02*
G75*
G03*
X14881501Y-15215000I-50000J0D01*
G01*
D11*
X15247040Y-15306484D02*
X15132754Y-15306484D01*
X15189897Y-15306484D02*
X15189897Y-15106484D01*
X15189897Y-15106484D02*
X15170850Y-15135055D01*
X15170850Y-15135055D02*
X15151802Y-15154103D01*
X15151802Y-15154103D02*
X15132754Y-15163627D01*
X15332754Y-15287436D02*
X15342278Y-15296960D01*
X15342278Y-15296960D02*
X15332754Y-15306484D01*
X15332754Y-15306484D02*
X15323231Y-15296960D01*
X15323231Y-15296960D02*
X15332754Y-15287436D01*
X15332754Y-15287436D02*
X15332754Y-15306484D01*
X15466088Y-15106484D02*
X15485135Y-15106484D01*
X15485135Y-15106484D02*
X15504183Y-15116008D01*
X15504183Y-15116008D02*
X15513707Y-15125531D01*
X15513707Y-15125531D02*
X15523231Y-15144579D01*
X15523231Y-15144579D02*
X15532754Y-15182674D01*
X15532754Y-15182674D02*
X15532754Y-15230293D01*
X15532754Y-15230293D02*
X15523231Y-15268388D01*
X15523231Y-15268388D02*
X15513707Y-15287436D01*
X15513707Y-15287436D02*
X15504183Y-15296960D01*
X15504183Y-15296960D02*
X15485135Y-15306484D01*
X15485135Y-15306484D02*
X15466088Y-15306484D01*
X15466088Y-15306484D02*
X15447040Y-15296960D01*
X15447040Y-15296960D02*
X15437516Y-15287436D01*
X15437516Y-15287436D02*
X15427993Y-15268388D01*
X15427993Y-15268388D02*
X15418469Y-15230293D01*
X15418469Y-15230293D02*
X15418469Y-15182674D01*
X15418469Y-15182674D02*
X15427993Y-15144579D01*
X15427993Y-15144579D02*
X15437516Y-15125531D01*
X15437516Y-15125531D02*
X15447040Y-15116008D01*
X15447040Y-15116008D02*
X15466088Y-15106484D01*
X15656564Y-15106484D02*
X15675612Y-15106484D01*
X15675612Y-15106484D02*
X15694659Y-15116008D01*
X15694659Y-15116008D02*
X15704183Y-15125531D01*
X15704183Y-15125531D02*
X15713707Y-15144579D01*
X15713707Y-15144579D02*
X15723231Y-15182674D01*
X15723231Y-15182674D02*
X15723231Y-15230293D01*
X15723231Y-15230293D02*
X15713707Y-15268388D01*
X15713707Y-15268388D02*
X15704183Y-15287436D01*
X15704183Y-15287436D02*
X15694659Y-15296960D01*
X15694659Y-15296960D02*
X15675612Y-15306484D01*
X15675612Y-15306484D02*
X15656564Y-15306484D01*
X15656564Y-15306484D02*
X15637516Y-15296960D01*
X15637516Y-15296960D02*
X15627993Y-15287436D01*
X15627993Y-15287436D02*
X15618469Y-15268388D01*
X15618469Y-15268388D02*
X15608945Y-15230293D01*
X15608945Y-15230293D02*
X15608945Y-15182674D01*
X15608945Y-15182674D02*
X15618469Y-15144579D01*
X15618469Y-15144579D02*
X15627993Y-15125531D01*
X15627993Y-15125531D02*
X15637516Y-15116008D01*
X15637516Y-15116008D02*
X15656564Y-15106484D01*
X15847040Y-15106484D02*
X15866088Y-15106484D01*
X15866088Y-15106484D02*
X15885135Y-15116008D01*
X15885135Y-15116008D02*
X15894659Y-15125531D01*
X15894659Y-15125531D02*
X15904183Y-15144579D01*
X15904183Y-15144579D02*
X15913707Y-15182674D01*
X15913707Y-15182674D02*
X15913707Y-15230293D01*
X15913707Y-15230293D02*
X15904183Y-15268388D01*
X15904183Y-15268388D02*
X15894659Y-15287436D01*
X15894659Y-15287436D02*
X15885135Y-15296960D01*
X15885135Y-15296960D02*
X15866088Y-15306484D01*
X15866088Y-15306484D02*
X15847040Y-15306484D01*
X15847040Y-15306484D02*
X15827993Y-15296960D01*
X15827993Y-15296960D02*
X15818469Y-15287436D01*
X15818469Y-15287436D02*
X15808945Y-15268388D01*
X15808945Y-15268388D02*
X15799421Y-15230293D01*
X15799421Y-15230293D02*
X15799421Y-15182674D01*
X15799421Y-15182674D02*
X15808945Y-15144579D01*
X15808945Y-15144579D02*
X15818469Y-15125531D01*
X15818469Y-15125531D02*
X15827993Y-15116008D01*
X15827993Y-15116008D02*
X15847040Y-15106484D01*
X15999421Y-15306484D02*
X15999421Y-15173150D01*
X15999421Y-15192198D02*
X16008945Y-15182674D01*
X16008945Y-15182674D02*
X16027993Y-15173150D01*
X16027993Y-15173150D02*
X16056564Y-15173150D01*
X16056564Y-15173150D02*
X16075612Y-15182674D01*
X16075612Y-15182674D02*
X16085135Y-15201722D01*
X16085135Y-15201722D02*
X16085135Y-15306484D01*
X16085135Y-15201722D02*
X16094659Y-15182674D01*
X16094659Y-15182674D02*
X16113707Y-15173150D01*
X16113707Y-15173150D02*
X16142278Y-15173150D01*
X16142278Y-15173150D02*
X16161326Y-15182674D01*
X16161326Y-15182674D02*
X16170850Y-15201722D01*
X16170850Y-15201722D02*
X16170850Y-15306484D01*
X16266088Y-15306484D02*
X16266088Y-15173150D01*
X16266088Y-15192198D02*
X16275612Y-15182674D01*
X16275612Y-15182674D02*
X16294659Y-15173150D01*
X16294659Y-15173150D02*
X16323231Y-15173150D01*
X16323231Y-15173150D02*
X16342278Y-15182674D01*
X16342278Y-15182674D02*
X16351802Y-15201722D01*
X16351802Y-15201722D02*
X16351802Y-15306484D01*
X16351802Y-15201722D02*
X16361326Y-15182674D01*
X16361326Y-15182674D02*
X16380374Y-15173150D01*
X16380374Y-15173150D02*
X16408945Y-15173150D01*
X16408945Y-15173150D02*
X16427993Y-15182674D01*
X16427993Y-15182674D02*
X16437516Y-15201722D01*
X16437516Y-15201722D02*
X16437516Y-15306484D01*
X16827993Y-15096960D02*
X16656564Y-15354103D01*
X17085136Y-15106484D02*
X17104183Y-15106484D01*
X17104183Y-15106484D02*
X17123231Y-15116008D01*
X17123231Y-15116008D02*
X17132755Y-15125531D01*
X17132755Y-15125531D02*
X17142279Y-15144579D01*
X17142279Y-15144579D02*
X17151802Y-15182674D01*
X17151802Y-15182674D02*
X17151802Y-15230293D01*
X17151802Y-15230293D02*
X17142279Y-15268388D01*
X17142279Y-15268388D02*
X17132755Y-15287436D01*
X17132755Y-15287436D02*
X17123231Y-15296960D01*
X17123231Y-15296960D02*
X17104183Y-15306484D01*
X17104183Y-15306484D02*
X17085136Y-15306484D01*
X17085136Y-15306484D02*
X17066088Y-15296960D01*
X17066088Y-15296960D02*
X17056564Y-15287436D01*
X17056564Y-15287436D02*
X17047040Y-15268388D01*
X17047040Y-15268388D02*
X17037517Y-15230293D01*
X17037517Y-15230293D02*
X17037517Y-15182674D01*
X17037517Y-15182674D02*
X17047040Y-15144579D01*
X17047040Y-15144579D02*
X17056564Y-15125531D01*
X17056564Y-15125531D02*
X17066088Y-15116008D01*
X17066088Y-15116008D02*
X17085136Y-15106484D01*
X17237517Y-15287436D02*
X17247040Y-15296960D01*
X17247040Y-15296960D02*
X17237517Y-15306484D01*
X17237517Y-15306484D02*
X17227993Y-15296960D01*
X17227993Y-15296960D02*
X17237517Y-15287436D01*
X17237517Y-15287436D02*
X17237517Y-15306484D01*
X17370850Y-15106484D02*
X17389898Y-15106484D01*
X17389898Y-15106484D02*
X17408945Y-15116008D01*
X17408945Y-15116008D02*
X17418469Y-15125531D01*
X17418469Y-15125531D02*
X17427993Y-15144579D01*
X17427993Y-15144579D02*
X17437517Y-15182674D01*
X17437517Y-15182674D02*
X17437517Y-15230293D01*
X17437517Y-15230293D02*
X17427993Y-15268388D01*
X17427993Y-15268388D02*
X17418469Y-15287436D01*
X17418469Y-15287436D02*
X17408945Y-15296960D01*
X17408945Y-15296960D02*
X17389898Y-15306484D01*
X17389898Y-15306484D02*
X17370850Y-15306484D01*
X17370850Y-15306484D02*
X17351802Y-15296960D01*
X17351802Y-15296960D02*
X17342279Y-15287436D01*
X17342279Y-15287436D02*
X17332755Y-15268388D01*
X17332755Y-15268388D02*
X17323231Y-15230293D01*
X17323231Y-15230293D02*
X17323231Y-15182674D01*
X17323231Y-15182674D02*
X17332755Y-15144579D01*
X17332755Y-15144579D02*
X17342279Y-15125531D01*
X17342279Y-15125531D02*
X17351802Y-15116008D01*
X17351802Y-15116008D02*
X17370850Y-15106484D01*
X17504183Y-15106484D02*
X17627993Y-15106484D01*
X17627993Y-15106484D02*
X17561326Y-15182674D01*
X17561326Y-15182674D02*
X17589898Y-15182674D01*
X17589898Y-15182674D02*
X17608945Y-15192198D01*
X17608945Y-15192198D02*
X17618469Y-15201722D01*
X17618469Y-15201722D02*
X17627993Y-15220769D01*
X17627993Y-15220769D02*
X17627993Y-15268388D01*
X17627993Y-15268388D02*
X17618469Y-15287436D01*
X17618469Y-15287436D02*
X17608945Y-15296960D01*
X17608945Y-15296960D02*
X17589898Y-15306484D01*
X17589898Y-15306484D02*
X17532755Y-15306484D01*
X17532755Y-15306484D02*
X17513707Y-15296960D01*
X17513707Y-15296960D02*
X17504183Y-15287436D01*
X17723231Y-15306484D02*
X17761326Y-15306484D01*
X17761326Y-15306484D02*
X17780374Y-15296960D01*
X17780374Y-15296960D02*
X17789898Y-15287436D01*
X17789898Y-15287436D02*
X17808945Y-15258865D01*
X17808945Y-15258865D02*
X17818469Y-15220769D01*
X17818469Y-15220769D02*
X17818469Y-15144579D01*
X17818469Y-15144579D02*
X17808945Y-15125531D01*
X17808945Y-15125531D02*
X17799421Y-15116008D01*
X17799421Y-15116008D02*
X17780374Y-15106484D01*
X17780374Y-15106484D02*
X17742279Y-15106484D01*
X17742279Y-15106484D02*
X17723231Y-15116008D01*
X17723231Y-15116008D02*
X17713707Y-15125531D01*
X17713707Y-15125531D02*
X17704183Y-15144579D01*
X17704183Y-15144579D02*
X17704183Y-15192198D01*
X17704183Y-15192198D02*
X17713707Y-15211246D01*
X17713707Y-15211246D02*
X17723231Y-15220769D01*
X17723231Y-15220769D02*
X17742279Y-15230293D01*
X17742279Y-15230293D02*
X17780374Y-15230293D01*
X17780374Y-15230293D02*
X17799421Y-15220769D01*
X17799421Y-15220769D02*
X17808945Y-15211246D01*
X17808945Y-15211246D02*
X17818469Y-15192198D01*
X17989898Y-15173150D02*
X17989898Y-15306484D01*
X17942279Y-15096960D02*
X17894660Y-15239817D01*
X17894660Y-15239817D02*
X18018469Y-15239817D01*
X18085136Y-15106484D02*
X18085136Y-15144579D01*
X18161326Y-15106484D02*
X18161326Y-15144579D01*
X18456564Y-15382674D02*
X18447041Y-15373150D01*
X18447041Y-15373150D02*
X18427993Y-15344579D01*
X18427993Y-15344579D02*
X18418469Y-15325531D01*
X18418469Y-15325531D02*
X18408945Y-15296960D01*
X18408945Y-15296960D02*
X18399422Y-15249341D01*
X18399422Y-15249341D02*
X18399422Y-15211246D01*
X18399422Y-15211246D02*
X18408945Y-15163627D01*
X18408945Y-15163627D02*
X18418469Y-15135055D01*
X18418469Y-15135055D02*
X18427993Y-15116008D01*
X18427993Y-15116008D02*
X18447041Y-15087436D01*
X18447041Y-15087436D02*
X18456564Y-15077912D01*
X18627993Y-15106484D02*
X18532755Y-15106484D01*
X18532755Y-15106484D02*
X18523231Y-15201722D01*
X18523231Y-15201722D02*
X18532755Y-15192198D01*
X18532755Y-15192198D02*
X18551802Y-15182674D01*
X18551802Y-15182674D02*
X18599422Y-15182674D01*
X18599422Y-15182674D02*
X18618469Y-15192198D01*
X18618469Y-15192198D02*
X18627993Y-15201722D01*
X18627993Y-15201722D02*
X18637517Y-15220769D01*
X18637517Y-15220769D02*
X18637517Y-15268388D01*
X18637517Y-15268388D02*
X18627993Y-15287436D01*
X18627993Y-15287436D02*
X18618469Y-15296960D01*
X18618469Y-15296960D02*
X18599422Y-15306484D01*
X18599422Y-15306484D02*
X18551802Y-15306484D01*
X18551802Y-15306484D02*
X18532755Y-15296960D01*
X18532755Y-15296960D02*
X18523231Y-15287436D01*
X18875612Y-15306484D02*
X18875612Y-15106484D01*
X18961326Y-15306484D02*
X18961326Y-15201722D01*
X18961326Y-15201722D02*
X18951803Y-15182674D01*
X18951803Y-15182674D02*
X18932755Y-15173150D01*
X18932755Y-15173150D02*
X18904183Y-15173150D01*
X18904183Y-15173150D02*
X18885136Y-15182674D01*
X18885136Y-15182674D02*
X18875612Y-15192198D01*
X19085136Y-15306484D02*
X19066088Y-15296960D01*
X19066088Y-15296960D02*
X19056564Y-15287436D01*
X19056564Y-15287436D02*
X19047041Y-15268388D01*
X19047041Y-15268388D02*
X19047041Y-15211246D01*
X19047041Y-15211246D02*
X19056564Y-15192198D01*
X19056564Y-15192198D02*
X19066088Y-15182674D01*
X19066088Y-15182674D02*
X19085136Y-15173150D01*
X19085136Y-15173150D02*
X19113707Y-15173150D01*
X19113707Y-15173150D02*
X19132755Y-15182674D01*
X19132755Y-15182674D02*
X19142279Y-15192198D01*
X19142279Y-15192198D02*
X19151803Y-15211246D01*
X19151803Y-15211246D02*
X19151803Y-15268388D01*
X19151803Y-15268388D02*
X19142279Y-15287436D01*
X19142279Y-15287436D02*
X19132755Y-15296960D01*
X19132755Y-15296960D02*
X19113707Y-15306484D01*
X19113707Y-15306484D02*
X19085136Y-15306484D01*
X19266088Y-15306484D02*
X19247041Y-15296960D01*
X19247041Y-15296960D02*
X19237517Y-15277912D01*
X19237517Y-15277912D02*
X19237517Y-15106484D01*
X19418469Y-15296960D02*
X19399422Y-15306484D01*
X19399422Y-15306484D02*
X19361326Y-15306484D01*
X19361326Y-15306484D02*
X19342279Y-15296960D01*
X19342279Y-15296960D02*
X19332755Y-15277912D01*
X19332755Y-15277912D02*
X19332755Y-15201722D01*
X19332755Y-15201722D02*
X19342279Y-15182674D01*
X19342279Y-15182674D02*
X19361326Y-15173150D01*
X19361326Y-15173150D02*
X19399422Y-15173150D01*
X19399422Y-15173150D02*
X19418469Y-15182674D01*
X19418469Y-15182674D02*
X19427993Y-15201722D01*
X19427993Y-15201722D02*
X19427993Y-15220769D01*
X19427993Y-15220769D02*
X19332755Y-15239817D01*
X19504184Y-15296960D02*
X19523231Y-15306484D01*
X19523231Y-15306484D02*
X19561326Y-15306484D01*
X19561326Y-15306484D02*
X19580374Y-15296960D01*
X19580374Y-15296960D02*
X19589898Y-15277912D01*
X19589898Y-15277912D02*
X19589898Y-15268388D01*
X19589898Y-15268388D02*
X19580374Y-15249341D01*
X19580374Y-15249341D02*
X19561326Y-15239817D01*
X19561326Y-15239817D02*
X19532755Y-15239817D01*
X19532755Y-15239817D02*
X19513707Y-15230293D01*
X19513707Y-15230293D02*
X19504184Y-15211246D01*
X19504184Y-15211246D02*
X19504184Y-15201722D01*
X19504184Y-15201722D02*
X19513707Y-15182674D01*
X19513707Y-15182674D02*
X19532755Y-15173150D01*
X19532755Y-15173150D02*
X19561326Y-15173150D01*
X19561326Y-15173150D02*
X19580374Y-15182674D01*
X19656565Y-15382674D02*
X19666088Y-15373150D01*
X19666088Y-15373150D02*
X19685136Y-15344579D01*
X19685136Y-15344579D02*
X19694660Y-15325531D01*
X19694660Y-15325531D02*
X19704184Y-15296960D01*
X19704184Y-15296960D02*
X19713707Y-15249341D01*
X19713707Y-15249341D02*
X19713707Y-15211246D01*
X19713707Y-15211246D02*
X19704184Y-15163627D01*
X19704184Y-15163627D02*
X19694660Y-15135055D01*
X19694660Y-15135055D02*
X19685136Y-15116008D01*
X19685136Y-15116008D02*
X19666088Y-15087436D01*
X19666088Y-15087436D02*
X19656565Y-15077912D01*
D17*
X14731501Y-15404000D02*
X14881501Y-15554000D01*
X14881501Y-15404000D02*
X14731501Y-15554000D01*
X14806501Y-15404000D02*
X14806501Y-15554000D01*
X14731501Y-15479000D02*
X14881501Y-15479000D01*
D11*
X15247040Y-15570484D02*
X15132754Y-15570484D01*
X15189897Y-15570484D02*
X15189897Y-15370484D01*
X15189897Y-15370484D02*
X15170850Y-15399055D01*
X15170850Y-15399055D02*
X15151802Y-15418103D01*
X15151802Y-15418103D02*
X15132754Y-15427627D01*
X15332754Y-15551436D02*
X15342278Y-15560960D01*
X15342278Y-15560960D02*
X15332754Y-15570484D01*
X15332754Y-15570484D02*
X15323231Y-15560960D01*
X15323231Y-15560960D02*
X15332754Y-15551436D01*
X15332754Y-15551436D02*
X15332754Y-15570484D01*
X15523231Y-15370484D02*
X15427993Y-15370484D01*
X15427993Y-15370484D02*
X15418469Y-15465722D01*
X15418469Y-15465722D02*
X15427993Y-15456198D01*
X15427993Y-15456198D02*
X15447040Y-15446674D01*
X15447040Y-15446674D02*
X15494659Y-15446674D01*
X15494659Y-15446674D02*
X15513707Y-15456198D01*
X15513707Y-15456198D02*
X15523231Y-15465722D01*
X15523231Y-15465722D02*
X15532754Y-15484769D01*
X15532754Y-15484769D02*
X15532754Y-15532388D01*
X15532754Y-15532388D02*
X15523231Y-15551436D01*
X15523231Y-15551436D02*
X15513707Y-15560960D01*
X15513707Y-15560960D02*
X15494659Y-15570484D01*
X15494659Y-15570484D02*
X15447040Y-15570484D01*
X15447040Y-15570484D02*
X15427993Y-15560960D01*
X15427993Y-15560960D02*
X15418469Y-15551436D01*
X15656564Y-15370484D02*
X15675612Y-15370484D01*
X15675612Y-15370484D02*
X15694659Y-15380008D01*
X15694659Y-15380008D02*
X15704183Y-15389531D01*
X15704183Y-15389531D02*
X15713707Y-15408579D01*
X15713707Y-15408579D02*
X15723231Y-15446674D01*
X15723231Y-15446674D02*
X15723231Y-15494293D01*
X15723231Y-15494293D02*
X15713707Y-15532388D01*
X15713707Y-15532388D02*
X15704183Y-15551436D01*
X15704183Y-15551436D02*
X15694659Y-15560960D01*
X15694659Y-15560960D02*
X15675612Y-15570484D01*
X15675612Y-15570484D02*
X15656564Y-15570484D01*
X15656564Y-15570484D02*
X15637516Y-15560960D01*
X15637516Y-15560960D02*
X15627993Y-15551436D01*
X15627993Y-15551436D02*
X15618469Y-15532388D01*
X15618469Y-15532388D02*
X15608945Y-15494293D01*
X15608945Y-15494293D02*
X15608945Y-15446674D01*
X15608945Y-15446674D02*
X15618469Y-15408579D01*
X15618469Y-15408579D02*
X15627993Y-15389531D01*
X15627993Y-15389531D02*
X15637516Y-15380008D01*
X15637516Y-15380008D02*
X15656564Y-15370484D01*
X15847040Y-15370484D02*
X15866088Y-15370484D01*
X15866088Y-15370484D02*
X15885135Y-15380008D01*
X15885135Y-15380008D02*
X15894659Y-15389531D01*
X15894659Y-15389531D02*
X15904183Y-15408579D01*
X15904183Y-15408579D02*
X15913707Y-15446674D01*
X15913707Y-15446674D02*
X15913707Y-15494293D01*
X15913707Y-15494293D02*
X15904183Y-15532388D01*
X15904183Y-15532388D02*
X15894659Y-15551436D01*
X15894659Y-15551436D02*
X15885135Y-15560960D01*
X15885135Y-15560960D02*
X15866088Y-15570484D01*
X15866088Y-15570484D02*
X15847040Y-15570484D01*
X15847040Y-15570484D02*
X15827993Y-15560960D01*
X15827993Y-15560960D02*
X15818469Y-15551436D01*
X15818469Y-15551436D02*
X15808945Y-15532388D01*
X15808945Y-15532388D02*
X15799421Y-15494293D01*
X15799421Y-15494293D02*
X15799421Y-15446674D01*
X15799421Y-15446674D02*
X15808945Y-15408579D01*
X15808945Y-15408579D02*
X15818469Y-15389531D01*
X15818469Y-15389531D02*
X15827993Y-15380008D01*
X15827993Y-15380008D02*
X15847040Y-15370484D01*
X15999421Y-15570484D02*
X15999421Y-15437150D01*
X15999421Y-15456198D02*
X16008945Y-15446674D01*
X16008945Y-15446674D02*
X16027993Y-15437150D01*
X16027993Y-15437150D02*
X16056564Y-15437150D01*
X16056564Y-15437150D02*
X16075612Y-15446674D01*
X16075612Y-15446674D02*
X16085135Y-15465722D01*
X16085135Y-15465722D02*
X16085135Y-15570484D01*
X16085135Y-15465722D02*
X16094659Y-15446674D01*
X16094659Y-15446674D02*
X16113707Y-15437150D01*
X16113707Y-15437150D02*
X16142278Y-15437150D01*
X16142278Y-15437150D02*
X16161326Y-15446674D01*
X16161326Y-15446674D02*
X16170850Y-15465722D01*
X16170850Y-15465722D02*
X16170850Y-15570484D01*
X16266088Y-15570484D02*
X16266088Y-15437150D01*
X16266088Y-15456198D02*
X16275612Y-15446674D01*
X16275612Y-15446674D02*
X16294659Y-15437150D01*
X16294659Y-15437150D02*
X16323231Y-15437150D01*
X16323231Y-15437150D02*
X16342278Y-15446674D01*
X16342278Y-15446674D02*
X16351802Y-15465722D01*
X16351802Y-15465722D02*
X16351802Y-15570484D01*
X16351802Y-15465722D02*
X16361326Y-15446674D01*
X16361326Y-15446674D02*
X16380374Y-15437150D01*
X16380374Y-15437150D02*
X16408945Y-15437150D01*
X16408945Y-15437150D02*
X16427993Y-15446674D01*
X16427993Y-15446674D02*
X16437516Y-15465722D01*
X16437516Y-15465722D02*
X16437516Y-15570484D01*
X16827993Y-15360960D02*
X16656564Y-15618103D01*
X17085136Y-15370484D02*
X17104183Y-15370484D01*
X17104183Y-15370484D02*
X17123231Y-15380008D01*
X17123231Y-15380008D02*
X17132755Y-15389531D01*
X17132755Y-15389531D02*
X17142279Y-15408579D01*
X17142279Y-15408579D02*
X17151802Y-15446674D01*
X17151802Y-15446674D02*
X17151802Y-15494293D01*
X17151802Y-15494293D02*
X17142279Y-15532388D01*
X17142279Y-15532388D02*
X17132755Y-15551436D01*
X17132755Y-15551436D02*
X17123231Y-15560960D01*
X17123231Y-15560960D02*
X17104183Y-15570484D01*
X17104183Y-15570484D02*
X17085136Y-15570484D01*
X17085136Y-15570484D02*
X17066088Y-15560960D01*
X17066088Y-15560960D02*
X17056564Y-15551436D01*
X17056564Y-15551436D02*
X17047040Y-15532388D01*
X17047040Y-15532388D02*
X17037517Y-15494293D01*
X17037517Y-15494293D02*
X17037517Y-15446674D01*
X17037517Y-15446674D02*
X17047040Y-15408579D01*
X17047040Y-15408579D02*
X17056564Y-15389531D01*
X17056564Y-15389531D02*
X17066088Y-15380008D01*
X17066088Y-15380008D02*
X17085136Y-15370484D01*
X17237517Y-15551436D02*
X17247040Y-15560960D01*
X17247040Y-15560960D02*
X17237517Y-15570484D01*
X17237517Y-15570484D02*
X17227993Y-15560960D01*
X17227993Y-15560960D02*
X17237517Y-15551436D01*
X17237517Y-15551436D02*
X17237517Y-15570484D01*
X17370850Y-15370484D02*
X17389898Y-15370484D01*
X17389898Y-15370484D02*
X17408945Y-15380008D01*
X17408945Y-15380008D02*
X17418469Y-15389531D01*
X17418469Y-15389531D02*
X17427993Y-15408579D01*
X17427993Y-15408579D02*
X17437517Y-15446674D01*
X17437517Y-15446674D02*
X17437517Y-15494293D01*
X17437517Y-15494293D02*
X17427993Y-15532388D01*
X17427993Y-15532388D02*
X17418469Y-15551436D01*
X17418469Y-15551436D02*
X17408945Y-15560960D01*
X17408945Y-15560960D02*
X17389898Y-15570484D01*
X17389898Y-15570484D02*
X17370850Y-15570484D01*
X17370850Y-15570484D02*
X17351802Y-15560960D01*
X17351802Y-15560960D02*
X17342279Y-15551436D01*
X17342279Y-15551436D02*
X17332755Y-15532388D01*
X17332755Y-15532388D02*
X17323231Y-15494293D01*
X17323231Y-15494293D02*
X17323231Y-15446674D01*
X17323231Y-15446674D02*
X17332755Y-15408579D01*
X17332755Y-15408579D02*
X17342279Y-15389531D01*
X17342279Y-15389531D02*
X17351802Y-15380008D01*
X17351802Y-15380008D02*
X17370850Y-15370484D01*
X17618469Y-15370484D02*
X17523231Y-15370484D01*
X17523231Y-15370484D02*
X17513707Y-15465722D01*
X17513707Y-15465722D02*
X17523231Y-15456198D01*
X17523231Y-15456198D02*
X17542279Y-15446674D01*
X17542279Y-15446674D02*
X17589898Y-15446674D01*
X17589898Y-15446674D02*
X17608945Y-15456198D01*
X17608945Y-15456198D02*
X17618469Y-15465722D01*
X17618469Y-15465722D02*
X17627993Y-15484769D01*
X17627993Y-15484769D02*
X17627993Y-15532388D01*
X17627993Y-15532388D02*
X17618469Y-15551436D01*
X17618469Y-15551436D02*
X17608945Y-15560960D01*
X17608945Y-15560960D02*
X17589898Y-15570484D01*
X17589898Y-15570484D02*
X17542279Y-15570484D01*
X17542279Y-15570484D02*
X17523231Y-15560960D01*
X17523231Y-15560960D02*
X17513707Y-15551436D01*
X17723231Y-15570484D02*
X17761326Y-15570484D01*
X17761326Y-15570484D02*
X17780374Y-15560960D01*
X17780374Y-15560960D02*
X17789898Y-15551436D01*
X17789898Y-15551436D02*
X17808945Y-15522865D01*
X17808945Y-15522865D02*
X17818469Y-15484769D01*
X17818469Y-15484769D02*
X17818469Y-15408579D01*
X17818469Y-15408579D02*
X17808945Y-15389531D01*
X17808945Y-15389531D02*
X17799421Y-15380008D01*
X17799421Y-15380008D02*
X17780374Y-15370484D01*
X17780374Y-15370484D02*
X17742279Y-15370484D01*
X17742279Y-15370484D02*
X17723231Y-15380008D01*
X17723231Y-15380008D02*
X17713707Y-15389531D01*
X17713707Y-15389531D02*
X17704183Y-15408579D01*
X17704183Y-15408579D02*
X17704183Y-15456198D01*
X17704183Y-15456198D02*
X17713707Y-15475246D01*
X17713707Y-15475246D02*
X17723231Y-15484769D01*
X17723231Y-15484769D02*
X17742279Y-15494293D01*
X17742279Y-15494293D02*
X17780374Y-15494293D01*
X17780374Y-15494293D02*
X17799421Y-15484769D01*
X17799421Y-15484769D02*
X17808945Y-15475246D01*
X17808945Y-15475246D02*
X17818469Y-15456198D01*
X18008945Y-15570484D02*
X17894660Y-15570484D01*
X17951802Y-15570484D02*
X17951802Y-15370484D01*
X17951802Y-15370484D02*
X17932755Y-15399055D01*
X17932755Y-15399055D02*
X17913707Y-15418103D01*
X17913707Y-15418103D02*
X17894660Y-15427627D01*
X18085136Y-15370484D02*
X18085136Y-15408579D01*
X18161326Y-15370484D02*
X18161326Y-15408579D01*
X18456564Y-15646674D02*
X18447041Y-15637150D01*
X18447041Y-15637150D02*
X18427993Y-15608579D01*
X18427993Y-15608579D02*
X18418469Y-15589531D01*
X18418469Y-15589531D02*
X18408945Y-15560960D01*
X18408945Y-15560960D02*
X18399422Y-15513341D01*
X18399422Y-15513341D02*
X18399422Y-15475246D01*
X18399422Y-15475246D02*
X18408945Y-15427627D01*
X18408945Y-15427627D02*
X18418469Y-15399055D01*
X18418469Y-15399055D02*
X18427993Y-15380008D01*
X18427993Y-15380008D02*
X18447041Y-15351436D01*
X18447041Y-15351436D02*
X18456564Y-15341912D01*
X18618469Y-15437150D02*
X18618469Y-15570484D01*
X18570850Y-15360960D02*
X18523231Y-15503817D01*
X18523231Y-15503817D02*
X18647041Y-15503817D01*
X18875612Y-15570484D02*
X18875612Y-15370484D01*
X18961326Y-15570484D02*
X18961326Y-15465722D01*
X18961326Y-15465722D02*
X18951803Y-15446674D01*
X18951803Y-15446674D02*
X18932755Y-15437150D01*
X18932755Y-15437150D02*
X18904183Y-15437150D01*
X18904183Y-15437150D02*
X18885136Y-15446674D01*
X18885136Y-15446674D02*
X18875612Y-15456198D01*
X19085136Y-15570484D02*
X19066088Y-15560960D01*
X19066088Y-15560960D02*
X19056564Y-15551436D01*
X19056564Y-15551436D02*
X19047041Y-15532388D01*
X19047041Y-15532388D02*
X19047041Y-15475246D01*
X19047041Y-15475246D02*
X19056564Y-15456198D01*
X19056564Y-15456198D02*
X19066088Y-15446674D01*
X19066088Y-15446674D02*
X19085136Y-15437150D01*
X19085136Y-15437150D02*
X19113707Y-15437150D01*
X19113707Y-15437150D02*
X19132755Y-15446674D01*
X19132755Y-15446674D02*
X19142279Y-15456198D01*
X19142279Y-15456198D02*
X19151803Y-15475246D01*
X19151803Y-15475246D02*
X19151803Y-15532388D01*
X19151803Y-15532388D02*
X19142279Y-15551436D01*
X19142279Y-15551436D02*
X19132755Y-15560960D01*
X19132755Y-15560960D02*
X19113707Y-15570484D01*
X19113707Y-15570484D02*
X19085136Y-15570484D01*
X19266088Y-15570484D02*
X19247041Y-15560960D01*
X19247041Y-15560960D02*
X19237517Y-15541912D01*
X19237517Y-15541912D02*
X19237517Y-15370484D01*
X19418469Y-15560960D02*
X19399422Y-15570484D01*
X19399422Y-15570484D02*
X19361326Y-15570484D01*
X19361326Y-15570484D02*
X19342279Y-15560960D01*
X19342279Y-15560960D02*
X19332755Y-15541912D01*
X19332755Y-15541912D02*
X19332755Y-15465722D01*
X19332755Y-15465722D02*
X19342279Y-15446674D01*
X19342279Y-15446674D02*
X19361326Y-15437150D01*
X19361326Y-15437150D02*
X19399422Y-15437150D01*
X19399422Y-15437150D02*
X19418469Y-15446674D01*
X19418469Y-15446674D02*
X19427993Y-15465722D01*
X19427993Y-15465722D02*
X19427993Y-15484769D01*
X19427993Y-15484769D02*
X19332755Y-15503817D01*
X19504184Y-15560960D02*
X19523231Y-15570484D01*
X19523231Y-15570484D02*
X19561326Y-15570484D01*
X19561326Y-15570484D02*
X19580374Y-15560960D01*
X19580374Y-15560960D02*
X19589898Y-15541912D01*
X19589898Y-15541912D02*
X19589898Y-15532388D01*
X19589898Y-15532388D02*
X19580374Y-15513341D01*
X19580374Y-15513341D02*
X19561326Y-15503817D01*
X19561326Y-15503817D02*
X19532755Y-15503817D01*
X19532755Y-15503817D02*
X19513707Y-15494293D01*
X19513707Y-15494293D02*
X19504184Y-15475246D01*
X19504184Y-15475246D02*
X19504184Y-15465722D01*
X19504184Y-15465722D02*
X19513707Y-15446674D01*
X19513707Y-15446674D02*
X19532755Y-15437150D01*
X19532755Y-15437150D02*
X19561326Y-15437150D01*
X19561326Y-15437150D02*
X19580374Y-15446674D01*
X19656565Y-15646674D02*
X19666088Y-15637150D01*
X19666088Y-15637150D02*
X19685136Y-15608579D01*
X19685136Y-15608579D02*
X19694660Y-15589531D01*
X19694660Y-15589531D02*
X19704184Y-15560960D01*
X19704184Y-15560960D02*
X19713707Y-15513341D01*
X19713707Y-15513341D02*
X19713707Y-15475246D01*
X19713707Y-15475246D02*
X19704184Y-15427627D01*
X19704184Y-15427627D02*
X19694660Y-15399055D01*
X19694660Y-15399055D02*
X19685136Y-15380008D01*
X19685136Y-15380008D02*
X19666088Y-15351436D01*
X19666088Y-15351436D02*
X19656565Y-15341912D01*
M02*
