M48
; DRILL file {KiCad 7.0.5-7.0.5~ubuntu20.04.1} date Wed 07 Jun 2023 06:16:20 AM CDT
; FORMAT={-:-/ absolute / metric / decimal}
; #@! TF.CreationDate,2023-06-07T06:16:20-05:00
; #@! TF.GenerationSoftware,Kicad,Pcbnew,7.0.5-7.0.5~ubuntu20.04.1
; #@! TF.FileFunction,NonPlated,1,2,NPTH
FMAT,2
METRIC
; #@! TA.AperFunction,NonPlated,NPTH,ComponentDrill
T1C0.787
; #@! TA.AperFunction,NonPlated,NPTH,ComponentDrill
T2C1.700
; #@! TA.AperFunction,NonPlated,NPTH,ComponentDrill
T3C2.200
; #@! TA.AperFunction,NonPlated,NPTH,ComponentDrill
T4C2.833
; #@! TA.AperFunction,NonPlated,NPTH,ComponentDrill
T5C4.000
%
G90
G05
T1
X208.969Y-117.73
X208.969Y-119.0
X208.969Y-120.27
X209.0Y-110.73
X209.0Y-112.0
X209.0Y-113.27
X211.0Y-117.73
X211.0Y-119.0
X211.0Y-120.27
X211.031Y-110.73
X211.031Y-112.0
X211.031Y-113.27
T2
X215.5Y-111.901
X249.05Y-111.861
T3
X165.113Y-91.0
X176.952Y-100.296
X242.005Y-129.643
T4
X227.638Y-111.895
X237.335Y-111.95
T5
X175.2Y-72.5
X215.881Y-72.6
T0
M30
