G04 #@! TF.GenerationSoftware,KiCad,Pcbnew,7.0.5-7.0.5~ubuntu20.04.1*
G04 #@! TF.CreationDate,2023-06-07T06:16:18-05:00*
G04 #@! TF.ProjectId,Phobri64,50686f62-7269-4363-942e-6b696361645f,rev?*
G04 #@! TF.SameCoordinates,Original*
G04 #@! TF.FileFunction,Soldermask,Bot*
G04 #@! TF.FilePolarity,Negative*
%FSLAX46Y46*%
G04 Gerber Fmt 4.6, Leading zero omitted, Abs format (unit mm)*
G04 Created by KiCad (PCBNEW 7.0.5-7.0.5~ubuntu20.04.1) date 2023-06-07 06:16:18*
%MOMM*%
%LPD*%
G01*
G04 APERTURE LIST*
G04 Aperture macros list*
%AMFreePoly0*
4,1,19,0.150000,0.259808,0.229813,0.192836,0.281908,0.102606,0.300000,0.000000,0.281908,-0.102606,0.229813,-0.192836,0.150000,-0.259808,0.052094,-0.295442,-0.052094,-0.295442,-0.150000,-0.259808,-0.229813,-0.192836,-0.281908,-0.102606,-0.300000,0.000000,-0.281908,0.102606,-0.229813,0.192836,-0.150000,0.259808,-0.052094,0.295442,0.052094,0.295442,0.150000,0.259808,0.150000,0.259808,
$1*%
%AMFreePoly1*
4,1,272,0.463220,5.466884,0.764853,5.390625,1.054735,5.277635,1.328411,5.129651,1.581676,4.948945,1.810640,4.738295,2.011784,4.500937,2.182018,4.240518,2.318727,3.961038,2.419809,3.666793,2.483712,3.362302,2.509454,3.052246,2.496640,2.741386,2.445465,2.434500,2.356718,2.136302,2.231760,1.851375,2.072513,1.584096,1.897433,1.359144,2.120735,1.135842,2.173685,1.192845,
2.362144,1.448408,2.520541,1.723617,2.646849,2.014951,2.739455,2.318683,2.797172,2.630930,2.819263,2.947697,2.805445,3.264932,2.755896,3.578579,2.671248,3.884625,2.552584,4.179155,2.477070,4.318815,2.456164,4.386447,2.462731,4.456932,2.495771,4.519538,2.550254,4.564735,2.617886,4.585641,2.688371,4.579074,2.750977,4.546034,2.796173,4.491551,2.943168,4.180798,
3.055605,3.855940,3.132159,3.520807,3.171929,3.179350,3.174445,2.835594,3.139678,2.493591,3.068037,2.157374,2.960367,1.830905,2.817937,1.518034,2.642427,1.222448,2.435905,0.947633,2.200806,0.696828,1.939902,0.472990,1.656268,0.278757,1.353248,0.116420,1.034414,-0.012109,0.703525,-0.105313,0.364481,-0.162094,0.021280,-0.181783,-0.322033,-0.164147,-0.661410,-0.109395,
-0.992850,-0.018172,-1.312448,0.108447,-1.616433,0.268969,-1.901224,0.461502,-1.948202,0.514457,-1.971340,0.581359,-1.967113,0.652022,-1.936167,0.715689,-1.883212,0.762667,-1.816310,0.785805,-1.745647,0.781578,-1.681980,0.750632,-1.555425,0.654762,-1.282360,0.492697,-0.992742,0.362501,-0.690276,0.265840,-0.378830,0.203950,-0.062387,0.177623,0.255005,0.187194,0.569287,0.232543,
0.876438,0.313088,1.172529,0.427800,1.453775,0.575211,1.716578,0.753436,1.863734,0.879687,1.640855,1.102566,1.415899,0.927483,1.148620,0.768236,0.863692,0.643279,0.565495,0.554532,0.258608,0.503358,-0.052251,0.490544,-0.362308,0.516286,-0.666798,0.580190,-0.961044,0.681273,-1.240523,0.817981,-1.500942,0.988216,-1.738300,1.189361,-1.948950,1.418325,-2.129655,1.671591,
-2.277639,1.945267,-2.390628,2.235148,-2.466887,2.536782,-2.505242,2.845532,-2.505107,3.156656,-2.466481,3.465372,-2.389959,3.766939,-2.276716,4.056722,-2.128494,4.330269,-2.086847,4.369098,-2.031365,4.381903,-1.976914,4.365251,-1.938085,4.323604,-1.925280,4.268122,-1.941932,4.213671,-2.020569,4.087664,-2.144147,3.817526,-2.231792,3.533687,-2.282035,3.240904,-2.294034,2.944083,
-2.267588,2.648200,-2.203140,2.358213,-2.101771,2.078980,-1.965179,1.815183,-1.795653,1.571242,-1.596035,1.351245,-1.369669,1.158879,-1.120349,0.997368,-0.852254,0.869418,-0.569876,0.777173,-0.277948,0.722180,0.018638,0.705361,0.314912,0.726996,0.605908,0.786724,0.886750,0.883543,1.152731,1.015832,1.399395,1.181372,1.485997,1.257424,0.929098,1.814323,0.788544,1.712252,
0.577079,1.604623,0.351364,1.531449,0.116972,1.494538,-0.120308,1.494801,-0.354617,1.532232,-0.580169,1.605905,-0.791396,1.714002,-0.983081,1.853855,-1.150491,2.022008,-1.289492,2.214311,-1.396652,2.426014,-1.469325,2.651891,-1.505717,2.886364,-1.504928,3.123642,-1.466979,3.357868,-1.392807,3.583257,-1.357969,3.628296,-1.305279,3.649882,-1.248855,3.642231,-1.203816,3.607393,
-1.182230,3.554703,-1.189881,3.498279,-1.232733,3.395629,-1.282265,3.178744,-1.293935,2.956580,-1.267398,2.735699,-1.203438,2.522621,-1.103943,2.323640,-0.971851,2.144630,-0.811063,1.990877,-0.626326,1.866921,-0.423095,1.776422,-0.207371,1.722053,0.014476,1.705418,0.235895,1.727009,0.450349,1.786189,0.651506,1.881209,0.775166,1.968255,0.094184,2.649237,0.000000,2.634320,
-0.113001,2.652218,-0.214941,2.704159,-0.295841,2.785059,-0.347782,2.886999,-0.365680,3.000000,-0.347782,3.113001,-0.295841,3.214941,-0.214941,3.295841,-0.113001,3.347782,0.000000,3.365680,0.113001,3.347782,0.214941,3.295841,0.295841,3.214941,0.347782,3.113001,0.365680,3.000000,0.350762,2.905815,1.031744,2.224833,1.118791,2.348494,1.213811,2.549651,1.272991,2.764105,
1.294582,2.985524,1.277947,3.207371,1.223578,3.423095,1.133079,3.626326,1.009123,3.811063,0.855370,3.971851,0.676360,4.103943,0.477379,4.203438,0.264301,4.267398,0.043420,4.293935,-0.178744,4.282265,-0.395629,4.232733,-0.498279,4.189881,-0.554703,4.182230,-0.607393,4.203816,-0.642231,4.248855,-0.649882,4.305279,-0.628296,4.357969,-0.583257,4.392806,-0.357868,4.466979,
-0.123642,4.504928,0.113636,4.505717,0.348109,4.469325,0.573986,4.396652,0.785689,4.289492,0.977992,4.150491,1.146145,3.983081,1.285998,3.791396,1.394095,3.580169,1.467768,3.354617,1.505199,3.120308,1.505462,2.883028,1.468551,2.648636,1.395377,2.422921,1.287748,2.211456,1.185676,2.070901,1.742575,1.514002,1.818624,1.600601,1.984165,1.847264,2.116453,2.113245,
2.213273,2.394087,2.273001,2.685083,2.294637,2.981356,2.277818,3.277943,2.222826,3.569871,2.130582,3.852249,2.002632,4.120344,1.841121,4.369664,1.648755,4.596030,1.428758,4.795649,1.184817,4.965175,0.921021,5.101768,0.641789,5.203137,0.351801,5.267585,0.055918,5.294032,-0.240902,5.282033,-0.533685,5.231791,-0.817524,5.144146,-1.087663,5.020569,-1.213670,4.941932,
-1.268121,4.925280,-1.323603,4.938085,-1.365250,4.976914,-1.381902,5.031365,-1.369097,5.086847,-1.330267,5.128493,-1.056720,5.276716,-0.766937,5.389958,-0.465371,5.466480,-0.156654,5.505105,0.154470,5.505240,0.463220,5.466884,0.463220,5.466884,$1*%
%AMFreePoly2*
4,1,230,0.333048,0.159825,0.675342,0.104060,1.009527,0.011350,1.331628,-0.117202,1.637814,-0.280067,1.924443,-0.475306,1.971222,-0.528437,1.994109,-0.595425,1.989618,-0.666072,1.958434,-0.729623,1.905303,-0.776402,1.838315,-0.799289,1.767668,-0.794798,1.704117,-0.763614,1.576801,-0.666261,1.301682,-0.501771,1.009682,-0.369546,0.704569,-0.271294,0.390281,-0.208281,0.070874,-0.181321,
-0.249529,-0.190762,-0.566794,-0.236483,-0.876826,-0.317893,-1.175624,-0.433941,-1.459332,-0.583130,-1.724288,-0.763535,-1.861932,-0.882191,-1.285829,-1.458293,-1.095618,-1.314853,-0.851072,-1.179073,-0.590045,-1.078556,-0.317591,-1.015249,-0.038987,-0.990378,0.240372,-1.004425,0.515077,-1.057117,0.779806,-1.147434,1.029434,-1.273627,1.259127,-1.433252,1.464436,-1.623218,1.641385,-1.839847,
1.786548,-2.078942,1.897113,-2.335874,1.970939,-2.605668,2.006598,-2.883098,2.003397,-3.162792,1.961399,-3.439333,1.881418,-3.707366,1.765002,-3.961701,1.725746,-4.002946,1.671127,-4.019037,1.615780,-4.005663,1.574535,-3.966407,1.558444,-3.911788,1.571817,-3.856440,1.634610,-3.741158,1.725250,-3.494750,1.778971,-3.237756,1.794623,-2.975674,1.771872,-2.714112,1.711205,-2.458668,
1.613920,-2.214808,1.482098,-1.987750,1.318561,-1.782354,1.126807,-1.603014,0.910942,-1.453569,0.675582,-1.337215,0.425766,-1.256444,0.166839,-1.212983,-0.095658,-1.207763,-0.356109,-1.240895,-0.608939,-1.311670,-0.848738,-1.418574,-1.070375,-1.559319,-1.131785,-1.612337,-0.573715,-2.170406,-0.562144,-2.160898,-0.388774,-2.067824,-0.200648,-2.010132,-0.004905,-1.990013,0.191024,-2.008230,
0.379702,-2.064092,0.553968,-2.155478,0.707207,-2.278920,0.833602,-2.429732,0.928356,-2.602189,0.987872,-2.789747,1.009892,-2.985285,0.993580,-3.181381,0.969205,-3.232841,0.922366,-3.265218,0.865614,-3.269839,0.814154,-3.245464,0.781777,-3.198625,0.777155,-3.141872,0.792126,-3.059415,0.786959,-2.891884,0.746755,-2.729167,0.673303,-2.578508,0.569875,-2.446614,0.441074,-2.339359,
0.292636,-2.261517,0.131169,-2.216554,-0.036138,-2.206471,-0.201836,-2.231719,-0.358548,-2.291172,-0.499297,-2.382184,-0.506418,-2.389306,-0.508586,-2.401131,-0.562140,-2.469487,-0.606616,-2.489503,-0.617815,-2.500703,-0.708827,-2.641451,-0.768281,-2.798163,-0.793529,-2.963861,-0.783447,-3.131168,-0.738484,-3.292635,-0.660642,-3.441074,-0.553387,-3.569874,-0.421493,-3.673303,-0.270834,-3.746755,
-0.108117,-3.786959,0.059414,-3.792126,0.141872,-3.777156,0.198624,-3.781777,0.245463,-3.814154,0.269838,-3.865614,0.265217,-3.922366,0.232840,-3.969205,0.181380,-3.993579,-0.014716,-4.009892,-0.210254,-3.987872,-0.397812,-3.928355,-0.570269,-3.833601,-0.721081,-3.707206,-0.844523,-3.553967,-0.935909,-3.379701,-0.991770,-3.191023,-1.009987,-2.995094,-0.989868,-2.799351,-0.932176,-2.611225,
-0.839101,-2.437855,-0.830225,-2.427052,-1.388312,-1.868966,-1.440681,-1.929625,-1.581426,-2.151262,-1.688330,-2.391061,-1.759105,-2.643891,-1.792237,-2.904342,-1.787017,-3.166839,-1.743556,-3.425766,-1.662785,-3.675582,-1.546431,-3.910942,-1.396986,-4.126807,-1.217646,-4.318561,-1.012250,-4.482098,-0.785192,-4.613920,-0.541332,-4.711205,-0.285888,-4.771872,-0.024326,-4.794623,0.237756,-4.778971,
0.494750,-4.725250,0.741158,-4.634610,0.856441,-4.571818,0.911788,-4.558444,0.966407,-4.574535,1.005663,-4.615780,1.019037,-4.671127,1.002946,-4.725746,0.961701,-4.765002,0.707366,-4.881418,0.439333,-4.961399,0.162792,-5.003397,-0.116902,-5.006598,-0.394332,-4.970939,-0.664126,-4.897113,-0.921058,-4.786548,-1.160153,-4.641385,-1.376782,-4.464436,-1.566748,-4.259127,-1.726373,-4.029434,
-1.852566,-3.779806,-1.942883,-3.515077,-1.995575,-3.240372,-2.009622,-2.961013,-1.984751,-2.682409,-1.921444,-2.409955,-1.820927,-2.148928,-1.685147,-1.904382,-1.542309,-1.714969,-2.119457,-1.137822,-2.184553,-1.208305,-2.373922,-1.466930,-2.532736,-1.745364,-2.658945,-2.040015,-2.750920,-2.347078,-2.807474,-2.662592,-2.827879,-2.982485,-2.811869,-3.302627,-2.759652,-3.618888,-2.671901,-3.927186,
-2.549750,-4.223541,-2.472222,-4.363813,-2.450743,-4.431266,-2.456712,-4.501803,-2.489221,-4.564687,-2.543319,-4.610344,-2.610772,-4.631823,-2.681309,-4.625854,-2.744193,-4.593345,-2.789849,-4.539246,-2.940719,-4.226975,-3.056684,-3.900132,-3.136366,-3.562604,-3.178817,-3.218405,-3.183531,-2.871631,-3.150453,-2.526405,-3.079977,-2.186835,-2.972939,-1.856960,-2.830615,-1.540703,-2.654696,-1.241827,
-2.447275,-0.963886,-2.210819,-0.710186,-1.948142,-0.483746,-1.662367,-0.287259,-1.356894,-0.123061,-1.035356,0.006894,-0.701578,0.101059,-0.359531,0.158316,-0.013283,0.177982,0.333048,0.159825,0.333048,0.159825,$1*%
%AMFreePoly3*
4,1,89,0.155859,0.808056,0.162104,0.809230,0.459268,0.770875,0.465009,0.768154,0.471355,0.768519,0.761164,0.692439,0.766510,0.689005,0.772849,0.688555,1.050535,0.576004,1.055398,0.571913,1.061627,0.570656,1.322621,0.423483,1.326919,0.418805,1.332938,0.416760,1.572946,0.237390,1.576612,0.232197,1.582316,0.229400,1.797390,0.020782,1.800360,0.015164,1.805661,0.011659,
1.992258,-0.222774,1.994485,-0.228725,1.999293,-0.232881,2.154346,-0.489271,2.155793,-0.495459,2.160029,-0.500195,2.280987,-0.774325,2.281630,-0.780647,2.285225,-0.785887,2.370096,-1.073243,2.369944,-1.078844,2.372575,-1.083795,2.398547,-1.231359,2.395301,-1.254402,2.395301,-1.277666,2.391235,-1.283261,2.390271,-1.290110,2.374104,-1.306839,2.360427,-1.325666,2.353847,-1.327803,
2.349043,-1.332776,2.326134,-1.336808,2.304000,-1.344000,-2.304000,-1.344000,-2.326130,-1.336809,-2.349043,-1.332777,-2.353848,-1.327803,-2.360427,-1.325666,-2.374103,-1.306841,-2.390271,-1.290110,-2.391235,-1.283261,-2.395301,-1.277666,-2.395301,-1.254402,-2.398547,-1.231359,-2.372575,-1.083795,-2.369944,-1.078844,-2.370096,-1.073244,-2.285225,-0.785887,-2.281630,-0.780647,-2.280987,-0.774325,
-2.160029,-0.500195,-2.155793,-0.495458,-2.154346,-0.489271,-1.999292,-0.232880,-1.994485,-0.228725,-1.992258,-0.222774,-1.805660,0.011659,-1.800359,0.015164,-1.797389,0.020782,-1.582316,0.229401,-1.576611,0.232198,-1.572946,0.237390,-1.332937,0.416760,-1.326921,0.418804,-1.322621,0.423484,-1.061627,0.570656,-1.055398,0.571913,-1.050535,0.576004,-0.772849,0.688555,-0.766510,0.689005,
-0.761164,0.692439,-0.471355,0.768519,-0.465009,0.768154,-0.459268,0.770875,-0.162104,0.809230,-0.155859,0.808056,-0.149815,0.810020,0.149815,0.810020,0.155859,0.808056,0.155859,0.808056,$1*%
%AMFreePoly4*
4,1,89,2.326134,1.336808,2.349043,1.332776,2.353847,1.327803,2.360427,1.325666,2.374104,1.306839,2.390271,1.290110,2.391235,1.283261,2.395301,1.277666,2.395301,1.254402,2.398547,1.231359,2.372575,1.083795,2.369944,1.078844,2.370096,1.073243,2.285225,0.785887,2.281630,0.780647,2.280987,0.774325,2.160029,0.500195,2.155793,0.495459,2.154346,0.489271,1.999293,0.232881,
1.994485,0.228725,1.992258,0.222774,1.805661,-0.011659,1.800360,-0.015164,1.797390,-0.020782,1.582316,-0.229400,1.576612,-0.232197,1.572946,-0.237390,1.332938,-0.416760,1.326919,-0.418805,1.322621,-0.423483,1.061627,-0.570656,1.055398,-0.571913,1.050535,-0.576004,0.772849,-0.688555,0.766510,-0.689005,0.761164,-0.692439,0.471355,-0.768519,0.465009,-0.768154,0.459268,-0.770875,
0.162104,-0.809230,0.155859,-0.808056,0.149815,-0.810020,-0.149815,-0.810020,-0.155859,-0.808056,-0.162104,-0.809230,-0.459268,-0.770875,-0.465009,-0.768154,-0.471355,-0.768519,-0.761164,-0.692439,-0.766510,-0.689005,-0.772849,-0.688555,-1.050535,-0.576004,-1.055398,-0.571913,-1.061627,-0.570656,-1.322621,-0.423484,-1.326921,-0.418804,-1.332937,-0.416760,-1.572946,-0.237390,-1.576611,-0.232198,
-1.582316,-0.229401,-1.797389,-0.020782,-1.800359,-0.015164,-1.805660,-0.011659,-1.992258,0.222774,-1.994485,0.228725,-1.999292,0.232880,-2.154346,0.489271,-2.155793,0.495458,-2.160029,0.500195,-2.280987,0.774325,-2.281630,0.780647,-2.285225,0.785887,-2.370096,1.073244,-2.369944,1.078844,-2.372575,1.083795,-2.398547,1.231359,-2.395301,1.254402,-2.395301,1.277666,-2.391235,1.283261,
-2.390271,1.290110,-2.374103,1.306841,-2.360427,1.325666,-2.353848,1.327803,-2.349043,1.332777,-2.326130,1.336809,-2.304000,1.344000,2.304000,1.344000,2.326134,1.336808,2.326134,1.336808,$1*%
G04 Aperture macros list end*
%ADD10C,3.235000*%
%ADD11C,2.590494*%
%ADD12C,4.000000*%
%ADD13C,2.833000*%
%ADD14C,2.200000*%
%ADD15C,0.787400*%
%ADD16C,1.000000*%
%ADD17R,1.000000X2.000000*%
%ADD18O,2.500000X1.250000*%
%ADD19C,2.000000*%
%ADD20C,1.700000*%
%ADD21C,1.397000*%
%ADD22FreePoly0,270.000000*%
%ADD23C,1.500000*%
%ADD24FreePoly1,90.000000*%
%ADD25FreePoly2,90.000000*%
%ADD26FreePoly3,90.000000*%
%ADD27FreePoly4,90.000000*%
%ADD28FreePoly3,270.000000*%
%ADD29FreePoly4,270.000000*%
G04 APERTURE END LIST*
D10*
X166739050Y-99835510D02*
G75*
G03*
X166739050Y-99835510I-1617500J0D01*
G01*
X178871910Y-111318738D02*
G75*
G03*
X178871910Y-111318738I-1617500J0D01*
G01*
X189152716Y-100309272D02*
G75*
G03*
X189152716Y-100309272I-1617500J0D01*
G01*
D11*
X197031070Y-112053741D02*
G75*
G03*
X197031070Y-112053741I-1295247J0D01*
G01*
D10*
X166739050Y-83055047D02*
G75*
G03*
X166739050Y-83055047I-1617500J0D01*
G01*
D11*
X196817168Y-88127808D02*
G75*
G03*
X196817168Y-88127808I-1295247J0D01*
G01*
D10*
X175811704Y-91222737D02*
G75*
G03*
X175811704Y-91222737I-1617500J0D01*
G01*
D11*
X203891822Y-118849433D02*
G75*
G03*
X203891822Y-118849433I-1295247J0D01*
G01*
D10*
X157178737Y-91222737D02*
G75*
G03*
X157178737Y-91222737I-1617500J0D01*
G01*
D11*
X197031070Y-125830684D02*
G75*
G03*
X197031070Y-125830684I-1295247J0D01*
G01*
X190305105Y-118849433D02*
G75*
G03*
X190305105Y-118849433I-1295247J0D01*
G01*
D12*
X215880944Y-72600298D03*
D13*
X237335204Y-111950150D03*
D14*
X242005369Y-129643080D03*
D15*
X211000000Y-117730000D03*
X208969150Y-117730000D03*
X211000000Y-119000000D03*
X208969150Y-119000000D03*
X211000000Y-120270000D03*
X208969150Y-120270000D03*
D13*
X227637899Y-111894864D03*
D12*
X175200000Y-72500000D03*
D14*
X165113002Y-91000000D03*
D16*
X197040472Y-71941093D03*
X196240472Y-73841093D03*
X195440472Y-71941093D03*
X194640472Y-73841093D03*
X193840472Y-71941093D03*
D17*
X191790472Y-72891093D03*
X199090472Y-72891093D03*
D15*
X211030850Y-110730000D03*
X209000000Y-110730000D03*
X211030850Y-112000000D03*
X209000000Y-112000000D03*
X211030850Y-113270000D03*
X209000000Y-113270000D03*
D18*
X161250000Y-114750000D03*
X161250000Y-116350000D03*
X161250000Y-117950000D03*
D19*
X206742467Y-72930045D03*
D20*
X215500000Y-111900638D03*
D21*
X156500000Y-105642772D03*
X154000000Y-105642772D03*
X151500000Y-105642772D03*
D22*
X183403123Y-81441093D03*
X182103123Y-81441093D03*
X180803123Y-81441093D03*
X183403123Y-82741093D03*
X182103123Y-82741093D03*
X180803123Y-82741093D03*
X183403123Y-84041093D03*
X182103123Y-84041093D03*
X180803123Y-84041093D03*
D18*
X207803123Y-80500298D03*
X207803123Y-82100298D03*
X207803123Y-83700298D03*
D14*
X176952177Y-100296410D03*
X224744817Y-105208672D03*
X224744817Y-118508672D03*
D23*
X229244817Y-120108672D03*
X229244817Y-124608672D03*
X235744817Y-120108672D03*
X235744817Y-124608672D03*
D14*
X240244817Y-105208672D03*
X240244817Y-118508672D03*
D20*
X249050255Y-111861034D03*
D24*
X168121550Y-99831866D03*
D25*
X162121550Y-99835510D03*
D24*
X180254410Y-111315094D03*
D25*
X174254410Y-111318738D03*
D24*
X190535216Y-100305628D03*
D25*
X184535216Y-100309272D03*
D26*
X194103823Y-112053741D03*
D27*
X197367823Y-112053741D03*
D24*
X168121550Y-83051403D03*
D25*
X162121550Y-83055047D03*
D28*
X197153921Y-88127808D03*
D29*
X193889921Y-88127808D03*
D24*
X177194204Y-91219093D03*
D25*
X171194204Y-91222737D03*
D26*
X200964575Y-118849433D03*
D27*
X204228575Y-118849433D03*
D24*
X158561237Y-91219093D03*
D25*
X152561237Y-91222737D03*
D26*
X194103823Y-125830684D03*
D27*
X197367823Y-125830684D03*
D26*
X187377858Y-118849433D03*
D27*
X190641858Y-118849433D03*
M02*
