G04 #@! TF.GenerationSoftware,KiCad,Pcbnew,7.0.5-7.0.5~ubuntu20.04.1*
G04 #@! TF.CreationDate,2023-06-07T06:16:18-05:00*
G04 #@! TF.ProjectId,Phobri64,50686f62-7269-4363-942e-6b696361645f,rev?*
G04 #@! TF.SameCoordinates,Original*
G04 #@! TF.FileFunction,Profile,NP*
%FSLAX46Y46*%
G04 Gerber Fmt 4.6, Leading zero omitted, Abs format (unit mm)*
G04 Created by KiCad (PCBNEW 7.0.5-7.0.5~ubuntu20.04.1) date 2023-06-07 06:16:18*
%MOMM*%
%LPD*%
G01*
G04 APERTURE LIST*
G04 #@! TA.AperFunction,Profile*
%ADD10C,0.100000*%
G04 #@! TD*
G04 APERTURE END LIST*
D10*
X181473277Y-119907492D02*
X181320347Y-125548922D01*
X208955844Y-121094283D02*
X208932768Y-123985634D01*
X184599853Y-128743467D02*
X204208920Y-128726474D01*
X154319416Y-110205264D02*
X156052985Y-111938833D01*
X222372359Y-79810424D02*
G75*
G03*
X208932769Y-109219360I-922189J-17353916D01*
G01*
X204208920Y-128726474D02*
X208932768Y-123985634D01*
X248500000Y-132500000D02*
X255951276Y-125035812D01*
X211104551Y-116602500D02*
X208932768Y-116602498D01*
X208932768Y-109500000D02*
X208932768Y-109219361D01*
X219166799Y-98176535D02*
X211104551Y-106238784D01*
X245545371Y-98161208D02*
X245538382Y-96159980D01*
X148865015Y-106822689D02*
X152247589Y-110205264D01*
X181320347Y-125548922D02*
X184599853Y-128743467D01*
X255951276Y-125035812D02*
X256223947Y-106906116D01*
X159553262Y-119737569D02*
X181473277Y-119907492D01*
X222437173Y-132500000D02*
X248500000Y-132500000D01*
X218748809Y-124496512D02*
X214500000Y-124500000D01*
X219307124Y-65005616D02*
X173134985Y-65005616D01*
X156052985Y-111938833D02*
X156052985Y-116463026D01*
X156052985Y-116463026D02*
X159553262Y-119737569D01*
X247997766Y-106913192D02*
X247997766Y-100613603D01*
X148865015Y-89994383D02*
X148865015Y-106822689D01*
X173134985Y-65005616D02*
X148865015Y-89994383D01*
X219181462Y-96154067D02*
X219166799Y-98176535D01*
X222380379Y-68074196D02*
X219307124Y-65005616D01*
X152247589Y-110205264D02*
X154319416Y-110205264D01*
X211102712Y-121095932D02*
X208955844Y-121094283D01*
X256223947Y-106906116D02*
X247997766Y-106913192D01*
X208939739Y-114405449D02*
X208932768Y-116602498D01*
X214500000Y-124500000D02*
X211102712Y-121095932D01*
X245538382Y-96159980D02*
X219181462Y-96154067D01*
X211102712Y-109500000D02*
X211104551Y-106238784D01*
X211102712Y-109500000D02*
X208932768Y-109500000D01*
X211104551Y-114400000D02*
X211104551Y-116602500D01*
X211104551Y-114400000D02*
X208939739Y-114405449D01*
X247997766Y-100613603D02*
X245545371Y-98161208D01*
X222372360Y-79810414D02*
X222380379Y-68074196D01*
X218753324Y-128740664D02*
X218748809Y-124496512D01*
X218753324Y-128740664D02*
X222437173Y-132500000D01*
M02*
